<svg width="21" height="21" viewBox="0 0 21 21" fill="none" xmlns="http://www.w3.org/2000/svg">
<path fill-rule="evenodd" clip-rule="evenodd" d="M19.5241 7.75284C18.885 3.81944 15.5441 0.893206 11.5608 0.778014C11.3714 0.77059 11.1868 0.838778 11.0477 0.96755C10.9086 1.09632 10.8265 1.27511 10.8193 1.46451V1.46451V1.52859L11.2678 8.23797C11.2973 8.68962 11.6856 9.03295 12.1374 9.00685L18.8651 8.55833C19.0547 8.54432 19.2308 8.45528 19.3545 8.31096C19.4782 8.16663 19.5393 7.97894 19.5241 7.78946V7.75284Z" stroke="#2E5BFF" stroke-width="1.5" stroke-linecap="round" stroke-linejoin="round"/>
<path d="M6.902 4.76889C7.32995 4.6699 7.76789 4.88887 7.94548 5.29063C7.99199 5.38512 8.01996 5.48766 8.02786 5.59269C8.11939 6.89246 8.31161 9.73914 8.42145 11.2769C8.4402 11.5539 8.56857 11.812 8.77815 11.9941C8.98774 12.1762 9.26124 12.2673 9.53815 12.2472V12.2472L15.1858 11.8993C15.4379 11.8842 15.6851 11.9739 15.8688 12.1472C16.0525 12.3205 16.1565 12.5621 16.156 12.8147V12.8147C15.9271 16.225 13.4769 19.0761 10.1397 19.8151C6.8025 20.5541 3.37767 19.0041 1.73037 16.0092C1.23862 15.1472 0.927207 14.1943 0.815041 13.2083C0.767089 12.9056 0.748696 12.5991 0.760121 12.2929C0.769835 8.65092 3.32763 5.51285 6.89284 4.76889" stroke="#2E5BFF" stroke-width="1.5" stroke-linecap="round" stroke-linejoin="round"/>
</svg>
