<svg width="24" height="24" viewBox="0 0 24 24" fill="none" xmlns="http://www.w3.org/2000/svg">
<g clip-path="url(#clip0_7551_124141)">
<path d="M0.703122 23.9999H13.4536C13.842 23.9999 14.1567 23.6852 14.1567 23.2968V21.7968C14.1567 20.8802 13.5688 20.0985 12.7505 19.8083V18.8933C12.7505 17.7802 11.8449 16.8748 10.7318 16.8748H3.42497C2.31188 16.8748 1.40624 17.7802 1.40624 18.8933V19.8083C0.587949 20.0985 0 20.8802 0 21.7968V23.2968C0 23.6852 0.314757 23.9999 0.703122 23.9999ZM3.42497 18.281H10.7318C11.0694 18.281 11.3443 18.5557 11.3443 18.8933V19.6874H2.81267V18.8933C2.81267 18.5557 3.08733 18.281 3.42497 18.281ZM1.40624 21.7968C1.40624 21.409 1.72173 21.0937 2.10937 21.0937H12.0472C12.435 21.0937 12.7505 21.409 12.7505 21.7968V22.5937H1.40624V21.7968Z" fill="#2E5BFF"/>
<path d="M8.09919 14.6381C8.79664 15.5644 10.1212 15.7563 11.0532 15.0546C11.674 14.5874 11.9627 13.841 11.8781 13.12C12.4827 13.0171 13.067 12.8488 13.6226 12.6219L20.2059 21.3661C20.9035 22.293 22.2283 22.4839 23.1599 21.7826C24.089 21.083 24.276 19.7579 23.5763 18.8286L16.9932 10.0844C17.3645 9.61332 17.6877 9.09861 17.9537 8.54618C18.6314 8.83036 19.4273 8.74998 20.0411 8.28782C20.9704 7.58818 21.1573 6.26305 20.4577 5.33379L17.0743 0.839852C16.3746 -0.0894044 15.0495 -0.276171 14.1202 0.423472C13.4995 0.890755 13.2108 1.63691 13.2953 2.35797C10.6458 2.80933 8.38685 4.50982 7.22011 6.93101C6.54372 6.64739 5.75124 6.72429 5.13234 7.19011C4.20089 7.8914 4.01449 9.21268 4.71578 10.1441L8.09919 14.6381ZM16.0159 11.1247L16.9549 12.3718L15.8314 13.2176L14.8924 11.9706C15.2903 11.721 15.666 11.438 16.0159 11.1247ZM22.314 20.6591C22.0042 20.8924 21.5625 20.8301 21.3293 20.5203L16.6771 14.3411L17.8006 13.4953L22.4528 19.6744C22.6861 19.9842 22.6236 20.4258 22.314 20.6591ZM14.9662 1.547C15.2769 1.31299 15.7184 1.37708 15.9509 1.6858L19.3341 6.17974C19.5674 6.48937 19.5052 6.9312 19.1954 7.16429C18.885 7.39811 18.4446 7.33604 18.2108 7.0255L14.8274 2.53156C14.5941 2.22174 14.6564 1.78009 14.9662 1.547ZM13.9373 3.68731C14.2418 4.09198 16.5442 7.15019 16.8538 7.56126C15.8942 9.89402 13.7441 11.5132 11.2363 11.7906L8.31983 7.91648C9.28059 5.58098 11.4271 3.96508 13.9373 3.68731ZM5.97829 8.31364C6.28792 8.08036 6.72865 8.14134 6.96284 8.45243L10.3463 12.9464C10.3463 12.9464 10.3463 12.9464 10.3463 12.9466C10.5793 13.2562 10.5171 13.6978 10.2075 13.9311C9.89765 14.1642 9.456 14.1019 9.22272 13.7923L5.83931 9.29838C5.60567 8.98783 5.66774 8.54746 5.97829 8.31364Z" fill="#2E5BFF"/>
</g>
<defs>
<clipPath id="clip0_7551_124141">
<rect width="24" height="24" fill="white"/>
</clipPath>
</defs>
</svg>
