<svg width="18" height="18" viewBox="0 0 18 18" fill="none" xmlns="http://www.w3.org/2000/svg">
    <path clip-rule="evenodd" d="M8.82 15.64a26.132 26.132 0 0 1-4.516-3.516 8.993 8.993 0 0 1-2.15-3.427c-.806-2.51.136-5.381 2.774-6.231a4.484 4.484 0 0 1 4.07.685 4.49 4.49 0 0 1 4.068-.685c2.638.85 3.587 3.722 2.78 6.23a8.994 8.994 0 0 1-2.15 3.428A26.134 26.134 0 0 1 9.18 15.64l-.176.11-.183-.11z" stroke="#2E5BFF" stroke-width="1.5" stroke-linecap="round" stroke-linejoin="round"/>
    <path d="M11.805 5.29a2.086 2.086 0 0 1 1.437 1.816" stroke="#2E5BFF" stroke-width="1.5" stroke-linecap="round" stroke-linejoin="round"/>
</svg>
