<svg width="23" height="18" viewBox="0 0 23 18" fill="none" xmlns="http://www.w3.org/2000/svg">
<path d="M17.595 7.93141C19.1973 7.93141 20.4971 6.63249 20.4971 5.03016C20.4971 3.42782 19.1973 2.12891 17.595 2.12891" stroke="black" stroke-opacity="0.6" stroke-width="1.5" stroke-linecap="round" stroke-linejoin="round"/>
<path d="M18.9292 11.085C19.4077 11.118 19.8834 11.1858 20.3519 11.2912C21.0027 11.4186 21.7855 11.6854 22.0642 12.2693C22.242 12.6433 22.242 13.0787 22.0642 13.4536C21.7864 14.0375 21.0027 14.3034 20.3519 14.4372" stroke="black" stroke-opacity="0.6" stroke-width="1.5" stroke-linecap="round" stroke-linejoin="round"/>
<path d="M6.29011 7.93141C4.68777 7.93141 3.38794 6.63249 3.38794 5.03016C3.38794 3.42782 4.68777 2.12891 6.29011 2.12891" stroke="black" stroke-opacity="0.6" stroke-width="1.5" stroke-linecap="round" stroke-linejoin="round"/>
<path d="M4.95589 11.085C4.47739 11.118 4.00164 11.1858 3.53322 11.2912C2.88239 11.4186 2.09956 11.6854 1.82181 12.2693C1.64306 12.6433 1.64306 13.0787 1.82181 13.4536C2.09864 14.0375 2.88239 14.3034 3.53322 14.4372" stroke="black" stroke-opacity="0.6" stroke-width="1.5" stroke-linecap="round" stroke-linejoin="round"/>
<path fill-rule="evenodd" clip-rule="evenodd" d="M11.9379 11.71C15.1847 11.71 17.9586 12.2013 17.9586 14.1675C17.9586 16.1329 15.2031 16.6425 11.9379 16.6425C8.69015 16.6425 5.91724 16.1512 5.91724 14.185C5.91724 12.2187 8.67274 11.71 11.9379 11.71Z" stroke="black" stroke-opacity="0.6" stroke-width="1.5" stroke-linecap="round" stroke-linejoin="round"/>
<path fill-rule="evenodd" clip-rule="evenodd" d="M11.9378 8.90492C9.79651 8.90492 8.07959 7.188 8.07959 5.04575C8.07959 2.90442 9.79651 1.1875 11.9378 1.1875C14.0792 1.1875 15.7961 2.90442 15.7961 5.04575C15.7961 7.188 14.0792 8.90492 11.9378 8.90492Z" stroke="black" stroke-opacity="0.6" stroke-width="1.5" stroke-linecap="round" stroke-linejoin="round"/>
</svg>
