<svg width="16" height="19" viewBox="0 0 16 19" fill="none" xmlns="http://www.w3.org/2000/svg">
<path d="M10.5564 0H3.00347C1.90006 0 1.002 0.898683 1.002 2.00147V9.40257H0.806516C0.361173 9.40257 0 9.76339 0 10.2091V15.1003C0 15.546 0.361134 15.9068 0.806516 15.9068H1.002V16.8037C1.002 17.9077 1.90006 18.8052 3.00347 18.8052H13.3091C14.4118 18.8052 15.31 17.9077 15.31 16.8037V4.73695L10.5564 0ZM2.11583 11.0918C2.35219 11.0519 2.68442 11.0218 3.1525 11.0218C3.62554 11.0218 3.96269 11.1121 4.18922 11.2934C4.40561 11.4643 4.55164 11.7464 4.55164 12.0784C4.55164 12.4104 4.44099 12.6926 4.23965 12.8837C3.97778 13.1302 3.59051 13.2409 3.13749 13.2409C3.03666 13.2409 2.94629 13.2359 2.87562 13.2261V14.4389H2.11583V11.0918ZM13.3091 17.5794H3.00347C2.57623 17.5794 2.22831 17.2315 2.22831 16.8037V15.9068H11.8353C12.2807 15.9068 12.6418 15.546 12.6418 15.1003V10.2091C12.6418 9.76339 12.2807 9.40257 11.8353 9.40257H2.22831V2.00147C2.22831 1.57485 2.57626 1.22694 3.00347 1.22694L10.0978 1.21953V3.84186C10.0978 4.60781 10.7193 5.22988 11.4859 5.22988L14.0547 5.22251L14.0836 16.8037C14.0836 17.2315 13.7363 17.5794 13.3091 17.5794ZM5.04156 14.4236V11.0918C5.32337 11.047 5.69066 11.0218 6.07828 11.0218C6.72246 11.0218 7.14019 11.1373 7.46751 11.3838C7.81975 11.6457 8.04102 12.0631 8.04102 12.6624C8.04102 13.3115 7.80466 13.7597 7.4773 14.0362C7.12014 14.3331 6.57647 14.4739 5.91228 14.4739C5.51452 14.4739 5.23272 14.4487 5.04156 14.4236ZM10.5343 12.451V13.0749H9.31624V14.4389H8.54631V11.047H10.6197V11.6758H9.31624V12.451H10.5343Z" fill="#2E5BFF"/>
</svg>
