<svg width="15" height="18" viewBox="0 0 15 18" fill="none" xmlns="http://www.w3.org/2000/svg">
<ellipse cx="7.64966" cy="5.0647" rx="3.98169" ry="3.98169" stroke="#2E5BFF" stroke-width="1.5" stroke-linecap="round" stroke-linejoin="round"/>
<path fill-rule="evenodd" clip-rule="evenodd" d="M1.33204 14.5846C1.33097 14.3047 1.39358 14.0282 1.51511 13.7761C1.8965 13.0133 2.97201 12.609 3.86446 12.426C4.5081 12.2886 5.16062 12.1969 5.81717 12.1514C7.03273 12.0446 8.25531 12.0446 9.47087 12.1514C10.1274 12.1974 10.7799 12.2891 11.4236 12.426C12.316 12.609 13.3915 12.9752 13.7729 13.7761C14.0173 14.2901 14.0173 14.8868 13.7729 15.4008C13.3915 16.2017 12.316 16.5678 11.4236 16.7433C10.7807 16.8863 10.1279 16.9807 9.47087 17.0255C8.4815 17.1094 7.48752 17.1247 6.49604 17.0713C6.26721 17.0713 6.046 17.0713 5.81717 17.0255C5.16256 16.9812 4.5123 16.8869 3.87209 16.7433C2.97201 16.5678 1.90413 16.2017 1.51511 15.4008C1.3942 15.1457 1.33166 14.8669 1.33204 14.5846Z" stroke="#2E5BFF" stroke-width="1.5" stroke-linecap="round" stroke-linejoin="round"/>
</svg>
