<svg width="21" height="19" viewBox="0 0 21 19" fill="none" xmlns="http://www.w3.org/2000/svg">
<path fill-rule="evenodd" clip-rule="evenodd" d="M19.6875 13.7812C19.6875 14.5057 19.0995 15.0938 18.375 15.0938H16.9693C16.6773 13.9637 15.6594 13.125 14.4375 13.125H6.5625C5.34056 13.125 4.32272 13.9637 4.03069 15.0938H2.625C1.9005 15.0938 1.3125 14.5057 1.3125 13.7812V12.4688C1.3125 11.7443 1.9005 11.1562 2.625 11.1562H18.375C19.0995 11.1562 19.6875 11.7443 19.6875 12.4688V13.7812ZM14.4375 17.0625H6.5625C5.838 17.0625 5.25 16.4745 5.25 15.75C5.25 15.0255 5.838 14.4375 6.5625 14.4375H14.4375C15.162 14.4375 15.75 15.0255 15.75 15.75C15.75 16.4745 15.162 17.0625 14.4375 17.0625ZM5.25 2.625C5.25 1.9005 5.838 1.3125 6.5625 1.3125H14.4375C15.162 1.3125 15.75 1.9005 15.75 2.625V9.84375H5.25V2.625ZM18.375 9.84375H17.0625V2.625C17.0625 1.17534 15.8872 0 14.4375 0H6.5625C5.11284 0 3.9375 1.17534 3.9375 2.625V9.84375H2.625C1.17534 9.84375 0 11.0191 0 12.4688V13.7812C0 15.2309 1.17534 16.4062 2.625 16.4062H4.03069C4.32272 17.537 5.34056 18.375 6.5625 18.375H14.4375C15.6594 18.375 16.6773 17.537 16.9693 16.4062H18.375C19.8247 16.4062 21 15.2309 21 13.7812V12.4688C21 11.0191 19.8247 9.84375 18.375 9.84375Z" fill="#2E5BFF"/>
</svg>
