<svg width="24" height="24" viewBox="0 0 24 24" fill="none" xmlns="http://www.w3.org/2000/svg">
<g clip-path="url(#clip0_12623_67979)">
<path d="M6.75 5.25C7.16421 5.25 7.5 4.91421 7.5 4.5C7.5 4.08579 7.16421 3.75 6.75 3.75C6.33579 3.75 6 4.08579 6 4.5C6 4.91421 6.33579 5.25 6.75 5.25Z" fill="#2E5BFF"/>
<path d="M19.5 7.5H4.5C4.1023 7.49958 3.72101 7.34141 3.4398 7.0602C3.15859 6.77899 3.00042 6.3977 3 6V3C3.00042 2.6023 3.15859 2.22101 3.4398 1.9398C3.72101 1.65859 4.1023 1.50042 4.5 1.5H19.5C19.8977 1.50042 20.279 1.65859 20.5602 1.9398C20.8414 2.22101 20.9996 2.6023 21 3V6C20.9996 6.3977 20.8414 6.77899 20.5602 7.0602C20.279 7.34141 19.8977 7.49958 19.5 7.5ZM4.5 3V6H19.5V3H4.5Z" fill="#2E5BFF"/>
<path d="M6.75 12.75C7.16421 12.75 7.5 12.4142 7.5 12C7.5 11.5858 7.16421 11.25 6.75 11.25C6.33579 11.25 6 11.5858 6 12C6 12.4142 6.33579 12.75 6.75 12.75Z" fill="#2E5BFF"/>
<path d="M19.5 15H4.5C4.1023 14.9996 3.72101 14.8414 3.4398 14.5602C3.15859 14.279 3.00042 13.8977 3 13.5V10.5C3.00042 10.1023 3.15859 9.72101 3.4398 9.4398C3.72101 9.15859 4.1023 9.00042 4.5 9H19.5C19.8977 9.00042 20.279 9.15859 20.5602 9.4398C20.8414 9.72101 20.9996 10.1023 21 10.5V13.5C20.9996 13.8977 20.8414 14.279 20.5602 14.5602C20.279 14.8414 19.8977 14.9996 19.5 15ZM4.5 10.5V13.5H19.5V10.5H4.5Z" fill="#2E5BFF"/>
<path d="M6.75 20.25C7.16421 20.25 7.5 19.9142 7.5 19.5C7.5 19.0858 7.16421 18.75 6.75 18.75C6.33579 18.75 6 19.0858 6 19.5C6 19.9142 6.33579 20.25 6.75 20.25Z" fill="#2E5BFF"/>
<path d="M19.5 22.5H4.5C4.1023 22.4996 3.72101 22.3414 3.4398 22.0602C3.15859 21.779 3.00042 21.3977 3 21V18C3.00042 17.6023 3.15859 17.221 3.4398 16.9398C3.72101 16.6586 4.1023 16.5004 4.5 16.5H19.5C19.8977 16.5004 20.279 16.6586 20.5602 16.9398C20.8414 17.221 20.9996 17.6023 21 18V21C20.9996 21.3977 20.8414 21.779 20.5602 22.0602C20.279 22.3414 19.8977 22.4996 19.5 22.5ZM4.5 18V21H19.5V18H4.5Z" fill="#2E5BFF"/>
</g>
<defs>
<clipPath id="clip0_12623_67979">
<rect width="24" height="24" fill="white"/>
</clipPath>
</defs>
</svg>
