<svg width="24" height="24" viewBox="0 0 24 24" fill="none" xmlns="http://www.w3.org/2000/svg">
<g clip-path="url(#clip0_12630_68307)">
<path d="M14.0957 19.9766C13.3192 19.9766 12.6875 20.6082 12.6875 21.3848C12.6875 22.1613 13.3192 22.793 14.0957 22.793C14.8722 22.793 15.5039 22.1613 15.5039 21.3848C15.5039 20.6082 14.8722 19.9766 14.0957 19.9766ZM14.0957 21.9883C13.763 21.9883 13.4922 21.7175 13.4922 21.3848C13.4922 21.052 13.763 20.7813 14.0957 20.7813C14.4285 20.7813 14.6992 21.052 14.6992 21.3848C14.6992 21.7175 14.4289 21.9883 14.0957 21.9883Z" fill="#2E5BFF"/>
<path d="M5.45939 8.53358L6.88168 9.95588C6.96014 10.0343 7.06314 10.0738 7.16614 10.0738C7.26914 10.0738 7.37214 10.0343 7.4506 9.95588C7.60792 9.79856 7.60792 9.54428 7.4506 9.38696L6.56866 8.50502C7.01164 7.83511 7.01164 6.95598 6.56866 6.28607L8.33255 4.52178C8.98475 4.95551 9.89888 4.95551 10.5519 4.52178L11.4338 5.40373C11.5912 5.56104 11.8454 5.56104 12.0028 5.40373C12.1601 5.24641 12.1601 4.99213 12.0028 4.83481L10.5801 3.41211L10.2956 3.69657C9.83934 4.15243 9.0447 4.15243 8.58844 3.69657L8.30398 3.41211L5.45898 6.25711L5.74344 6.54156C6.21379 7.01231 6.21379 7.77798 5.74344 8.24872L5.45939 8.53358Z" fill="#2E5BFF"/>
<path d="M17.4369 11.4083C16.9939 12.0782 16.9939 12.9573 17.4369 13.6272L15.673 15.3915C15.02 14.9574 14.1058 14.9574 13.4536 15.3915L12.5717 14.5096C12.4144 14.3523 12.1601 14.3523 12.0028 14.5096C11.8454 14.6669 11.8454 14.9212 12.0028 15.0785L13.4255 16.5012L13.7099 16.2167C14.1662 15.7605 14.9608 15.7613 15.4171 16.2167L15.7015 16.5012L18.5465 13.6562L18.2621 13.3717C17.7917 12.901 17.7917 12.1353 18.2621 11.6646L18.5465 11.3801L17.1242 9.95783C16.9669 9.80051 16.7126 9.80051 16.5553 9.95783C16.398 10.1151 16.398 10.3694 16.5553 10.5268L17.4369 11.4083Z" fill="#2E5BFF"/>
<path d="M19.1152 12.9199C19.3374 12.9199 19.5176 12.7398 19.5176 12.5176C19.5176 12.2954 19.3374 12.1152 19.1152 12.1152C18.893 12.1152 18.7129 12.2954 18.7129 12.5176C18.7129 12.7398 18.893 12.9199 19.1152 12.9199Z" fill="#2E5BFF"/>
<path d="M14.5635 17.4707C14.7857 17.4707 14.9658 17.2906 14.9658 17.0684C14.9658 16.8462 14.7857 16.666 14.5635 16.666C14.3413 16.666 14.1611 16.8462 14.1611 17.0684C14.1611 17.2906 14.3413 17.4707 14.5635 17.4707Z" fill="#2E5BFF"/>
<path d="M9.72669 3.12831C9.88401 2.971 10.0317 2.71631 9.87476 2.55939C9.71744 2.40208 9.46275 2.40208 9.30584 2.55939C9.14852 2.71671 9.00086 2.9714 9.15777 3.12831C9.31509 3.28523 9.56978 3.28523 9.72669 3.12831Z" fill="#2E5BFF"/>
<path d="M4.89063 7.79883C5.11284 7.79883 5.29298 7.6187 5.29298 7.39649C5.29298 7.17428 5.11284 6.99414 4.89063 6.99414C4.66842 6.99414 4.48828 7.17428 4.48828 7.39649C4.48828 7.6187 4.66842 7.79883 4.89063 7.79883Z" fill="#2E5BFF"/>
<path d="M20.7342 14.9472C20.7342 14.5931 20.6767 14.2455 20.5681 13.9091L21.9582 12.519L20.1255 10.6634C20.5049 10.3254 20.7342 9.83859 20.7342 9.31433C20.7342 8.31611 19.9219 7.50377 18.9237 7.50377C18.8504 7.50377 18.778 7.51101 18.7064 7.51987C18.7153 7.44825 18.7225 7.37623 18.7225 7.3026C18.7225 6.30438 17.9102 5.49204 16.9119 5.49204C16.8387 5.49204 16.7663 5.49928 16.6947 5.50813C16.7035 5.43651 16.7108 5.36449 16.7108 5.29086C16.7108 4.29264 15.8984 3.4803 14.9002 3.4803C14.827 3.4803 14.7545 3.48754 14.6829 3.4964C14.6918 3.42478 14.699 3.35276 14.699 3.27913C14.699 2.23021 13.9997 1.46857 13.0365 1.46857C12.5103 1.46857 11.9792 1.6963 11.6106 2.0407L9.59485 0L2.04199 7.39272L5.76089 11.112C5.56213 11.4025 5.44545 11.753 5.44545 12.1308C5.44545 12.76 5.76893 13.3145 6.25778 13.6388C6.28193 13.6709 6.31089 13.7035 6.34871 13.7357L10.676 18.0469V18.7695H9.87126V24H17.1135H20.3323V18.7695H19.5276V17.5508C20.2973 16.8986 20.7342 15.9607 20.7342 14.9472ZM6.24974 12.1308C6.24974 11.8664 6.35435 11.6274 6.52132 11.448L6.58288 11.3917C6.7229 11.2637 6.89108 11.1792 7.06851 11.1438C7.12927 11.1321 7.19123 11.1249 7.2552 11.1249H8.14077H11.2787C11.8331 11.1249 12.2845 11.5759 12.2845 12.1308C12.2845 12.1959 12.2773 12.2591 12.2652 12.3211C12.1803 12.7443 11.8186 13.0823 11.372 13.1254L11.2525 13.1366H8.92293H7.78509H7.2552C6.70117 13.1366 6.24974 12.6856 6.24974 12.1308ZM9.72682 7.6804C10.9817 6.42548 13.0237 6.42548 14.2786 7.6804C14.8865 8.28835 15.2213 9.09707 15.2213 9.95648C15.2213 10.8159 14.8865 11.6246 14.2786 12.2326C13.8742 12.6369 13.3725 12.9202 12.8309 13.0634C12.8744 12.9914 12.9122 12.9157 12.9456 12.8377C12.9476 12.8329 12.9488 12.8272 12.9512 12.8224C12.9895 12.7303 13.018 12.6337 13.041 12.5347C13.047 12.509 13.0522 12.4836 13.057 12.4579C13.0764 12.3512 13.09 12.243 13.09 12.1308C13.09 11.1325 12.2777 10.3202 11.2795 10.3202H8.80705C8.6952 9.34733 9.02754 8.37968 9.72682 7.6804ZM19.9295 9.31433C19.9295 9.61931 19.7899 9.90257 19.5598 10.0901L18.1564 8.66897C18.3447 8.44486 18.6227 8.30806 18.9237 8.30806C19.4785 8.30847 19.9295 8.7595 19.9295 9.31433ZM17.9178 7.3026C17.9178 7.60154 17.7822 7.87796 17.5605 8.06585L16.1571 6.64476C16.345 6.4287 16.617 6.29633 16.9119 6.29633C17.4668 6.29673 17.9178 6.74776 17.9178 7.3026ZM15.9061 5.29086C15.9061 5.58337 15.7749 5.85415 15.5613 6.04164L14.1579 4.62096C14.3454 4.41294 14.6113 4.2854 14.8998 4.2854C15.455 4.285 15.9061 4.73603 15.9061 5.29086ZM13.0365 2.27326C13.6292 2.27326 13.8943 2.77861 13.8943 3.27913C13.8943 3.5656 13.768 3.82994 13.5624 4.01703L12.1743 2.61163C12.3932 2.41328 12.7215 2.27326 13.0365 2.27326ZM9.58519 1.13542L11.156 2.7255L11.1214 2.80436L13.1331 4.81609L13.3636 5.04664L15.1448 6.82783L15.3754 7.05837L17.1566 8.83956L17.3871 9.07011L19.3988 11.0818L19.4053 11.079L20.824 12.5154L14.5699 18.7695H14.5566L9.72843 13.9413H11.2791C11.3201 13.9413 11.3587 13.9321 11.3994 13.9293C11.5997 13.9598 11.8005 13.9763 12.0005 13.9763C13.0599 13.9763 14.0899 13.5587 14.8471 12.8015C15.6071 12.0414 16.0256 11.0311 16.0256 9.95648C16.0256 8.88181 15.6071 7.87112 14.8471 7.11148C13.2787 5.54314 10.7258 5.54314 9.1571 7.11148C8.30452 7.96406 7.8889 9.13569 7.99834 10.3206H7.2552C7.14898 10.3206 7.04478 10.3335 6.94137 10.3524C6.90798 10.3584 6.87498 10.3649 6.84239 10.3725C6.76756 10.3906 6.69433 10.4135 6.62271 10.4409C6.56035 10.4642 6.5008 10.4924 6.44206 10.5226C6.41269 10.5379 6.38211 10.5503 6.35354 10.5668L3.18627 7.39916L9.58519 1.13542ZM11.3386 17.556C11.3205 17.5403 11.3016 17.5262 11.2662 17.4997L7.69457 13.9413H8.59059L13.4188 18.7695H11.4807V17.6759L11.3386 17.556ZM10.6756 23.1953V19.5742H13.7648H14.0653C14.1213 19.5742 14.1764 19.5786 14.2311 19.5826L14.5626 19.9142L14.7827 19.6941C15.6683 19.9942 16.308 20.8315 16.308 21.8169V23.1953H10.6756ZM19.5272 23.1953H17.1131V21.8169C17.1131 20.9293 16.7293 20.1314 16.1217 19.5742H19.5272V23.1953ZM15.7077 18.7695L17.2081 17.2691L19.9026 14.5746C19.9207 14.6977 19.9295 14.8217 19.9295 14.9472C19.9295 15.774 19.5481 16.5353 18.8826 17.0358L18.7225 17.1565V18.7695H15.7077Z" fill="#2E5BFF"/>
</g>
<defs>
<clipPath id="clip0_12630_68307">
<rect width="24" height="24" fill="white"/>
</clipPath>
</defs>
</svg>
