<svg width="163" height="68" viewBox="0 0 163 68" fill="none" xmlns="http://www.w3.org/2000/svg">
<g filter="url(#filter0_dd_7378_88581)">
<path d="M14 14H131C136.591 14 139.387 14 141.592 14.9134C144.533 16.1314 146.869 18.4675 148.087 21.4078C149 23.6131 149 26.4087 149 32C149 37.5913 149 40.3869 148.087 42.5922C146.869 45.5325 144.533 47.8686 141.592 49.0866C139.387 50 136.591 50 131 50H20V54L14 50V14Z" fill="#2E5BFF"/>
<path d="M14.5 49.7324V14.5H131C133.802 14.5 135.879 14.5003 137.532 14.613C139.18 14.7255 140.369 14.9481 141.401 15.3754C144.219 16.5426 146.457 18.7813 147.625 21.5991C148.052 22.6307 148.275 23.8201 148.387 25.4682C148.5 27.1207 148.5 29.1975 148.5 32C148.5 34.8025 148.5 36.8793 148.387 38.5318C148.275 40.1799 148.052 41.3693 147.625 42.4009C146.457 45.2187 144.219 47.4574 141.401 48.6246C140.369 49.0519 139.18 49.2745 137.532 49.387C135.879 49.4997 133.802 49.5 131 49.5H20H19.5V50V53.0657L14.5 49.7324Z" stroke="#053BFF" stroke-opacity="0.05"/>
<mask id="path-3-outside-1_7378_88581" maskUnits="userSpaceOnUse" x="25" y="25" width="115" height="17" fill="black">
<rect fill="white" x="25" y="25" width="115" height="17"/>
<path d="M26.518 32.114C26.518 31.162 26.7373 30.308 27.176 29.552C27.624 28.796 28.226 28.208 28.982 27.788C29.7473 27.3587 30.5827 27.144 31.488 27.144C32.524 27.144 33.4433 27.4007 34.246 27.914C35.058 28.418 35.646 29.1367 36.01 30.07H34.092C33.84 29.5567 33.49 29.174 33.042 28.922C32.594 28.67 32.076 28.544 31.488 28.544C30.844 28.544 30.27 28.6887 29.766 28.978C29.262 29.2673 28.8653 29.6827 28.576 30.224C28.296 30.7653 28.156 31.3953 28.156 32.114C28.156 32.8327 28.296 33.4627 28.576 34.004C28.8653 34.5453 29.262 34.9653 29.766 35.264C30.27 35.5533 30.844 35.698 31.488 35.698C32.076 35.698 32.594 35.572 33.042 35.32C33.49 35.068 33.84 34.6853 34.092 34.172H36.01C35.646 35.1053 35.058 35.824 34.246 36.328C33.4433 36.832 32.524 37.084 31.488 37.084C30.5733 37.084 29.738 36.874 28.982 36.454C28.226 36.0247 27.624 35.432 27.176 34.676C26.7373 33.92 26.518 33.066 26.518 32.114ZM44.8641 29.286V37H43.2681V36.09C43.0161 36.4073 42.6848 36.6593 42.2741 36.846C41.8728 37.0233 41.4435 37.112 40.9861 37.112C40.3795 37.112 39.8335 36.986 39.3481 36.734C38.8721 36.482 38.4941 36.1087 38.2141 35.614C37.9435 35.1193 37.8081 34.522 37.8081 33.822V29.286H39.3901V33.584C39.3901 34.2747 39.5628 34.8067 39.9081 35.18C40.2535 35.544 40.7248 35.726 41.3221 35.726C41.9195 35.726 42.3908 35.544 42.7361 35.18C43.0908 34.8067 43.2681 34.2747 43.2681 33.584V29.286H44.8641ZM48.5659 30.406C48.7993 30.014 49.1073 29.7107 49.4899 29.496C49.8819 29.272 50.3439 29.16 50.8759 29.16V30.812H50.4699C49.8446 30.812 49.3686 30.9707 49.0419 31.288C48.7246 31.6053 48.5659 32.156 48.5659 32.94V37H46.9699V29.286H48.5659V30.406ZM53.939 30.406C54.1723 30.014 54.4803 29.7107 54.863 29.496C55.255 29.272 55.717 29.16 56.249 29.16V30.812H55.843C55.2176 30.812 54.7416 30.9707 54.415 31.288C54.0976 31.6053 53.939 32.156 53.939 32.94V37H52.343V29.286H53.939V30.406ZM64.786 32.954C64.786 33.2433 64.7673 33.5047 64.73 33.738H58.836C58.8827 34.354 59.1113 34.8487 59.522 35.222C59.9327 35.5953 60.4367 35.782 61.034 35.782C61.8927 35.782 62.4993 35.4227 62.854 34.704H64.576C64.3427 35.4133 63.918 35.9967 63.302 36.454C62.6953 36.902 61.9393 37.126 61.034 37.126C60.2967 37.126 59.634 36.9627 59.046 36.636C58.4673 36.3 58.01 35.8333 57.674 35.236C57.3473 34.6293 57.184 33.9293 57.184 33.136C57.184 32.3427 57.3427 31.6473 57.66 31.05C57.9867 30.4433 58.4393 29.9767 59.018 29.65C59.606 29.3233 60.278 29.16 61.034 29.16C61.762 29.16 62.4107 29.3187 62.98 29.636C63.5493 29.9533 63.9927 30.4013 64.31 30.98C64.6273 31.5493 64.786 32.2073 64.786 32.954ZM63.12 32.45C63.1107 31.862 62.9007 31.3907 62.49 31.036C62.0793 30.6813 61.5707 30.504 60.964 30.504C60.4133 30.504 59.942 30.6813 59.55 31.036C59.158 31.3813 58.9247 31.8527 58.85 32.45H63.12ZM70.2486 29.16C70.8553 29.16 71.3966 29.286 71.8726 29.538C72.358 29.79 72.736 30.1633 73.0066 30.658C73.2773 31.1527 73.4126 31.75 73.4126 32.45V37H71.8306V32.688C71.8306 31.9973 71.658 31.47 71.3126 31.106C70.9673 30.7327 70.496 30.546 69.8986 30.546C69.3013 30.546 68.8253 30.7327 68.4706 31.106C68.1253 31.47 67.9526 31.9973 67.9526 32.688V37H66.3566V29.286H67.9526V30.168C68.214 29.8507 68.5453 29.6033 68.9466 29.426C69.3573 29.2487 69.7913 29.16 70.2486 29.16ZM77.3104 30.588V34.858C77.3104 35.1473 77.3758 35.3573 77.5064 35.488C77.6464 35.6093 77.8798 35.67 78.2064 35.67H79.1864V37H77.9264C77.2078 37 76.6571 36.832 76.2744 36.496C75.8918 36.16 75.7004 35.614 75.7004 34.858V30.588H74.7904V29.286H75.7004V27.368H77.3104V29.286H79.1864V30.588H77.3104ZM82.2534 26.64V37H80.6574V26.64H82.2534ZM91.2928 29.286L86.5608 40.626H84.9088L86.4768 36.874L83.4388 29.286H85.2168L87.3868 35.166L89.6408 29.286H91.2928ZM102 35.012H97.926L97.226 37H95.56L99.046 27.256H100.894L104.38 37H102.7L102 35.012ZM101.552 33.71L99.97 29.188L98.374 33.71H101.552ZM105.364 33.136C105.364 32.3427 105.522 31.6473 105.84 31.05C106.166 30.4433 106.614 29.9767 107.184 29.65C107.753 29.3233 108.406 29.16 109.144 29.16C110.077 29.16 110.847 29.384 111.454 29.832C112.07 30.2707 112.485 30.9007 112.7 31.722H110.978C110.838 31.3393 110.614 31.0407 110.306 30.826C109.998 30.6113 109.61 30.504 109.144 30.504C108.49 30.504 107.968 30.7373 107.576 31.204C107.193 31.6613 107.002 32.3053 107.002 33.136C107.002 33.9667 107.193 34.6153 107.576 35.082C107.968 35.5487 108.49 35.782 109.144 35.782C110.068 35.782 110.679 35.376 110.978 34.564H112.7C112.476 35.348 112.056 35.9733 111.44 36.44C110.824 36.8973 110.058 37.126 109.144 37.126C108.406 37.126 107.753 36.9627 107.184 36.636C106.614 36.3 106.166 35.8333 105.84 35.236C105.522 34.6293 105.364 33.9293 105.364 33.136ZM116.152 30.588V34.858C116.152 35.1473 116.218 35.3573 116.348 35.488C116.488 35.6093 116.722 35.67 117.048 35.67H118.028V37H116.768C116.05 37 115.499 36.832 115.116 36.496C114.734 36.16 114.542 35.614 114.542 34.858V30.588H113.632V29.286H114.542V27.368H116.152V29.286H118.028V30.588H116.152ZM120.311 28.264C120.022 28.264 119.779 28.166 119.583 27.97C119.387 27.774 119.289 27.5313 119.289 27.242C119.289 26.9527 119.387 26.71 119.583 26.514C119.779 26.318 120.022 26.22 120.311 26.22C120.591 26.22 120.829 26.318 121.025 26.514C121.221 26.71 121.319 26.9527 121.319 27.242C121.319 27.5313 121.221 27.774 121.025 27.97C120.829 28.166 120.591 28.264 120.311 28.264ZM121.095 29.286V37H119.499V29.286H121.095ZM126.173 35.572L128.357 29.286H130.051L127.111 37H125.207L122.281 29.286H123.989L126.173 35.572ZM138.327 32.954C138.327 33.2433 138.308 33.5047 138.271 33.738H132.377C132.424 34.354 132.652 34.8487 133.063 35.222C133.474 35.5953 133.978 35.782 134.575 35.782C135.434 35.782 136.04 35.4227 136.395 34.704H138.117C137.884 35.4133 137.459 35.9967 136.843 36.454C136.236 36.902 135.48 37.126 134.575 37.126C133.838 37.126 133.175 36.9627 132.587 36.636C132.008 36.3 131.551 35.8333 131.215 35.236C130.888 34.6293 130.725 33.9293 130.725 33.136C130.725 32.3427 130.884 31.6473 131.201 31.05C131.528 30.4433 131.98 29.9767 132.559 29.65C133.147 29.3233 133.819 29.16 134.575 29.16C135.303 29.16 135.952 29.3187 136.521 29.636C137.09 29.9533 137.534 30.4013 137.851 30.98C138.168 31.5493 138.327 32.2073 138.327 32.954ZM136.661 32.45C136.652 31.862 136.442 31.3907 136.031 31.036C135.62 30.6813 135.112 30.504 134.505 30.504C133.954 30.504 133.483 30.6813 133.091 31.036C132.699 31.3813 132.466 31.8527 132.391 32.45H136.661Z"/>
</mask>
<path d="M26.518 32.114C26.518 31.162 26.7373 30.308 27.176 29.552C27.624 28.796 28.226 28.208 28.982 27.788C29.7473 27.3587 30.5827 27.144 31.488 27.144C32.524 27.144 33.4433 27.4007 34.246 27.914C35.058 28.418 35.646 29.1367 36.01 30.07H34.092C33.84 29.5567 33.49 29.174 33.042 28.922C32.594 28.67 32.076 28.544 31.488 28.544C30.844 28.544 30.27 28.6887 29.766 28.978C29.262 29.2673 28.8653 29.6827 28.576 30.224C28.296 30.7653 28.156 31.3953 28.156 32.114C28.156 32.8327 28.296 33.4627 28.576 34.004C28.8653 34.5453 29.262 34.9653 29.766 35.264C30.27 35.5533 30.844 35.698 31.488 35.698C32.076 35.698 32.594 35.572 33.042 35.32C33.49 35.068 33.84 34.6853 34.092 34.172H36.01C35.646 35.1053 35.058 35.824 34.246 36.328C33.4433 36.832 32.524 37.084 31.488 37.084C30.5733 37.084 29.738 36.874 28.982 36.454C28.226 36.0247 27.624 35.432 27.176 34.676C26.7373 33.92 26.518 33.066 26.518 32.114ZM44.8641 29.286V37H43.2681V36.09C43.0161 36.4073 42.6848 36.6593 42.2741 36.846C41.8728 37.0233 41.4435 37.112 40.9861 37.112C40.3795 37.112 39.8335 36.986 39.3481 36.734C38.8721 36.482 38.4941 36.1087 38.2141 35.614C37.9435 35.1193 37.8081 34.522 37.8081 33.822V29.286H39.3901V33.584C39.3901 34.2747 39.5628 34.8067 39.9081 35.18C40.2535 35.544 40.7248 35.726 41.3221 35.726C41.9195 35.726 42.3908 35.544 42.7361 35.18C43.0908 34.8067 43.2681 34.2747 43.2681 33.584V29.286H44.8641ZM48.5659 30.406C48.7993 30.014 49.1073 29.7107 49.4899 29.496C49.8819 29.272 50.3439 29.16 50.8759 29.16V30.812H50.4699C49.8446 30.812 49.3686 30.9707 49.0419 31.288C48.7246 31.6053 48.5659 32.156 48.5659 32.94V37H46.9699V29.286H48.5659V30.406ZM53.939 30.406C54.1723 30.014 54.4803 29.7107 54.863 29.496C55.255 29.272 55.717 29.16 56.249 29.16V30.812H55.843C55.2176 30.812 54.7416 30.9707 54.415 31.288C54.0976 31.6053 53.939 32.156 53.939 32.94V37H52.343V29.286H53.939V30.406ZM64.786 32.954C64.786 33.2433 64.7673 33.5047 64.73 33.738H58.836C58.8827 34.354 59.1113 34.8487 59.522 35.222C59.9327 35.5953 60.4367 35.782 61.034 35.782C61.8927 35.782 62.4993 35.4227 62.854 34.704H64.576C64.3427 35.4133 63.918 35.9967 63.302 36.454C62.6953 36.902 61.9393 37.126 61.034 37.126C60.2967 37.126 59.634 36.9627 59.046 36.636C58.4673 36.3 58.01 35.8333 57.674 35.236C57.3473 34.6293 57.184 33.9293 57.184 33.136C57.184 32.3427 57.3427 31.6473 57.66 31.05C57.9867 30.4433 58.4393 29.9767 59.018 29.65C59.606 29.3233 60.278 29.16 61.034 29.16C61.762 29.16 62.4107 29.3187 62.98 29.636C63.5493 29.9533 63.9927 30.4013 64.31 30.98C64.6273 31.5493 64.786 32.2073 64.786 32.954ZM63.12 32.45C63.1107 31.862 62.9007 31.3907 62.49 31.036C62.0793 30.6813 61.5707 30.504 60.964 30.504C60.4133 30.504 59.942 30.6813 59.55 31.036C59.158 31.3813 58.9247 31.8527 58.85 32.45H63.12ZM70.2486 29.16C70.8553 29.16 71.3966 29.286 71.8726 29.538C72.358 29.79 72.736 30.1633 73.0066 30.658C73.2773 31.1527 73.4126 31.75 73.4126 32.45V37H71.8306V32.688C71.8306 31.9973 71.658 31.47 71.3126 31.106C70.9673 30.7327 70.496 30.546 69.8986 30.546C69.3013 30.546 68.8253 30.7327 68.4706 31.106C68.1253 31.47 67.9526 31.9973 67.9526 32.688V37H66.3566V29.286H67.9526V30.168C68.214 29.8507 68.5453 29.6033 68.9466 29.426C69.3573 29.2487 69.7913 29.16 70.2486 29.16ZM77.3104 30.588V34.858C77.3104 35.1473 77.3758 35.3573 77.5064 35.488C77.6464 35.6093 77.8798 35.67 78.2064 35.67H79.1864V37H77.9264C77.2078 37 76.6571 36.832 76.2744 36.496C75.8918 36.16 75.7004 35.614 75.7004 34.858V30.588H74.7904V29.286H75.7004V27.368H77.3104V29.286H79.1864V30.588H77.3104ZM82.2534 26.64V37H80.6574V26.64H82.2534ZM91.2928 29.286L86.5608 40.626H84.9088L86.4768 36.874L83.4388 29.286H85.2168L87.3868 35.166L89.6408 29.286H91.2928ZM102 35.012H97.926L97.226 37H95.56L99.046 27.256H100.894L104.38 37H102.7L102 35.012ZM101.552 33.71L99.97 29.188L98.374 33.71H101.552ZM105.364 33.136C105.364 32.3427 105.522 31.6473 105.84 31.05C106.166 30.4433 106.614 29.9767 107.184 29.65C107.753 29.3233 108.406 29.16 109.144 29.16C110.077 29.16 110.847 29.384 111.454 29.832C112.07 30.2707 112.485 30.9007 112.7 31.722H110.978C110.838 31.3393 110.614 31.0407 110.306 30.826C109.998 30.6113 109.61 30.504 109.144 30.504C108.49 30.504 107.968 30.7373 107.576 31.204C107.193 31.6613 107.002 32.3053 107.002 33.136C107.002 33.9667 107.193 34.6153 107.576 35.082C107.968 35.5487 108.49 35.782 109.144 35.782C110.068 35.782 110.679 35.376 110.978 34.564H112.7C112.476 35.348 112.056 35.9733 111.44 36.44C110.824 36.8973 110.058 37.126 109.144 37.126C108.406 37.126 107.753 36.9627 107.184 36.636C106.614 36.3 106.166 35.8333 105.84 35.236C105.522 34.6293 105.364 33.9293 105.364 33.136ZM116.152 30.588V34.858C116.152 35.1473 116.218 35.3573 116.348 35.488C116.488 35.6093 116.722 35.67 117.048 35.67H118.028V37H116.768C116.05 37 115.499 36.832 115.116 36.496C114.734 36.16 114.542 35.614 114.542 34.858V30.588H113.632V29.286H114.542V27.368H116.152V29.286H118.028V30.588H116.152ZM120.311 28.264C120.022 28.264 119.779 28.166 119.583 27.97C119.387 27.774 119.289 27.5313 119.289 27.242C119.289 26.9527 119.387 26.71 119.583 26.514C119.779 26.318 120.022 26.22 120.311 26.22C120.591 26.22 120.829 26.318 121.025 26.514C121.221 26.71 121.319 26.9527 121.319 27.242C121.319 27.5313 121.221 27.774 121.025 27.97C120.829 28.166 120.591 28.264 120.311 28.264ZM121.095 29.286V37H119.499V29.286H121.095ZM126.173 35.572L128.357 29.286H130.051L127.111 37H125.207L122.281 29.286H123.989L126.173 35.572ZM138.327 32.954C138.327 33.2433 138.308 33.5047 138.271 33.738H132.377C132.424 34.354 132.652 34.8487 133.063 35.222C133.474 35.5953 133.978 35.782 134.575 35.782C135.434 35.782 136.04 35.4227 136.395 34.704H138.117C137.884 35.4133 137.459 35.9967 136.843 36.454C136.236 36.902 135.48 37.126 134.575 37.126C133.838 37.126 133.175 36.9627 132.587 36.636C132.008 36.3 131.551 35.8333 131.215 35.236C130.888 34.6293 130.725 33.9293 130.725 33.136C130.725 32.3427 130.884 31.6473 131.201 31.05C131.528 30.4433 131.98 29.9767 132.559 29.65C133.147 29.3233 133.819 29.16 134.575 29.16C135.303 29.16 135.952 29.3187 136.521 29.636C137.09 29.9533 137.534 30.4013 137.851 30.98C138.168 31.5493 138.327 32.2073 138.327 32.954ZM136.661 32.45C136.652 31.862 136.442 31.3907 136.031 31.036C135.62 30.6813 135.112 30.504 134.505 30.504C133.954 30.504 133.483 30.6813 133.091 31.036C132.699 31.3813 132.466 31.8527 132.391 32.45H136.661Z" fill="white"/>
<path d="M27.176 29.552L26.3157 29.0422L26.3111 29.0501L27.176 29.552ZM28.982 27.788L29.4676 28.6622L29.4713 28.6601L28.982 27.788ZM34.246 27.914L33.7072 28.7565L33.7186 28.7636L34.246 27.914ZM36.01 30.07V31.07H37.4734L36.9417 29.7067L36.01 30.07ZM34.092 30.07L33.1943 30.5107L33.4689 31.07H34.092V30.07ZM33.042 28.922L33.5323 28.0504L33.042 28.922ZM29.766 28.978L30.2639 29.8453L30.2639 29.8453L29.766 28.978ZM28.576 30.224L27.694 29.7526L27.6878 29.7646L28.576 30.224ZM28.576 34.004L27.6877 34.4635L27.6941 34.4754L28.576 34.004ZM29.766 35.264L29.2561 36.1244L29.2681 36.1313L29.766 35.264ZM33.042 35.32L33.5323 36.1916H33.5323L33.042 35.32ZM34.092 34.172V33.172H33.4689L33.1943 33.7313L34.092 34.172ZM36.01 34.172L36.9417 34.5353L37.4734 33.172H36.01V34.172ZM34.246 36.328L33.7186 35.4783L33.7142 35.4811L34.246 36.328ZM28.982 36.454L28.4882 37.3236L28.4964 37.3282L28.982 36.454ZM27.176 34.676L26.311 35.1779L26.3157 35.1858L27.176 34.676ZM27.518 32.114C27.518 31.3221 27.6985 30.644 28.0409 30.0539L26.3111 29.0501C25.7761 29.972 25.518 31.0019 25.518 32.114H27.518ZM28.0363 30.0618C28.3954 29.4557 28.8692 28.9946 29.4676 28.6622L28.4964 26.9138C27.5828 27.4214 26.8526 28.1363 26.3157 29.0422L28.0363 30.0618ZM29.4713 28.6601C30.0823 28.3174 30.7484 28.144 31.488 28.144V26.144C30.417 26.144 29.4124 26.4 28.4927 26.9159L29.4713 28.6601ZM31.488 28.144C32.3504 28.144 33.0794 28.355 33.7072 28.7564L34.7848 27.0715C33.8072 26.4464 32.6976 26.144 31.488 26.144V28.144ZM33.7186 28.7636C34.3376 29.1478 34.7889 29.6912 35.0783 30.4333L36.9417 29.7067C36.5031 28.5822 35.7784 27.6882 34.7734 27.0644L33.7186 28.7636ZM36.01 29.07H34.092V31.07H36.01V29.07ZM34.9897 29.6293C34.659 28.9557 34.1761 28.4126 33.5323 28.0504L32.5517 29.7936C32.8039 29.9354 33.021 30.1576 33.1943 30.5107L34.9897 29.6293ZM33.5323 28.0504C32.9142 27.7027 32.2227 27.544 31.488 27.544V29.544C31.9293 29.544 32.2738 29.6373 32.5517 29.7936L33.5323 28.0504ZM31.488 27.544C30.6887 27.544 29.9396 27.7253 29.2681 28.1107L30.2639 29.8453C30.6004 29.6521 30.9993 29.544 31.488 29.544V27.544ZM29.2681 28.1107C28.5922 28.4988 28.0666 29.0557 27.6941 29.7526L29.4579 30.6954C29.6641 30.3097 29.9318 30.0359 30.2639 29.8453L29.2681 28.1107ZM27.6878 29.7646C27.3222 30.4713 27.156 31.264 27.156 32.114H29.156C29.156 31.5266 29.2698 31.0594 29.4642 30.6834L27.6878 29.7646ZM27.156 32.114C27.156 32.964 27.3222 33.7567 27.6878 34.4634L29.4642 33.5446C29.2698 33.1686 29.156 32.7014 29.156 32.114H27.156ZM27.6941 34.4754C28.0653 35.1699 28.5873 35.7279 29.2562 36.1243L30.2758 34.4037C29.9367 34.2028 29.6654 33.9208 29.4579 33.5326L27.6941 34.4754ZM29.2681 36.1313C29.9396 36.5167 30.6887 36.698 31.488 36.698V34.698C30.9993 34.698 30.6004 34.5899 30.2639 34.3967L29.2681 36.1313ZM31.488 36.698C32.2227 36.698 32.9142 36.5393 33.5323 36.1916L32.5517 34.4484C32.2738 34.6047 31.9293 34.698 31.488 34.698V36.698ZM33.5323 36.1916C34.1761 35.8294 34.659 35.2863 34.9897 34.6127L33.1943 33.7313C33.021 34.0844 32.8039 34.3066 32.5517 34.4484L33.5323 36.1916ZM34.092 35.172H36.01V33.172H34.092V35.172ZM35.0783 33.8087C34.7889 34.5508 34.3376 35.0942 33.7186 35.4784L34.7734 37.1776C35.7784 36.5538 36.5031 35.6598 36.9417 34.5353L35.0783 33.8087ZM33.7142 35.4811C33.0856 35.8758 32.354 36.084 31.488 36.084V38.084C32.694 38.084 33.8011 37.7882 34.7778 37.1749L33.7142 35.4811ZM31.488 36.084C30.7331 36.084 30.0665 35.9125 29.4676 35.5798L28.4964 37.3282C29.4095 37.8355 30.4135 38.084 31.488 38.084V36.084ZM29.4758 35.5844C28.8729 35.242 28.3965 34.7741 28.0363 34.1662L26.3157 35.1858C26.8515 36.0899 27.5791 36.8073 28.4882 37.3236L29.4758 35.5844ZM28.0409 34.1741C27.6985 33.584 27.518 32.9059 27.518 32.114H25.518C25.518 33.2261 25.7761 34.256 26.3111 35.1779L28.0409 34.1741ZM44.8641 29.286H45.8641V28.286H44.8641V29.286ZM44.8641 37V38H45.8641V37H44.8641ZM43.2681 37H42.2681V38H43.2681V37ZM43.2681 36.09H44.2681V33.2227L42.485 35.4681L43.2681 36.09ZM42.2741 36.846L42.6783 37.7607L42.6879 37.7564L42.2741 36.846ZM39.3481 36.734L38.8802 37.6178L38.8873 37.6215L39.3481 36.734ZM38.2141 35.614L37.3369 36.094L37.3403 36.1003L37.3439 36.1066L38.2141 35.614ZM37.8081 29.286V28.286H36.8081V29.286H37.8081ZM39.3901 29.286H40.3901V28.286H39.3901V29.286ZM39.9081 35.18L39.174 35.8591L39.1827 35.8683L39.9081 35.18ZM42.7361 35.18L42.0111 34.4913L42.0107 34.4917L42.7361 35.18ZM43.2681 29.286V28.286H42.2681V29.286H43.2681ZM43.8641 29.286V37H45.8641V29.286H43.8641ZM44.8641 36H43.2681V38H44.8641V36ZM44.2681 37V36.09H42.2681V37H44.2681ZM42.485 35.4681C42.3422 35.6479 42.1433 35.807 41.8603 35.9356L42.6879 37.7564C43.2263 37.5117 43.69 37.1668 44.0512 36.7119L42.485 35.4681ZM41.87 35.9313C41.6013 36.05 41.3103 36.112 40.9861 36.112V38.112C41.5766 38.112 42.1442 37.9967 42.6783 37.7607L41.87 35.9313ZM40.9861 36.112C40.522 36.112 40.1369 36.0168 39.8089 35.8465L38.8873 37.6215C39.53 37.9552 40.2369 38.112 40.9861 38.112V36.112ZM39.816 35.8502C39.5183 35.6926 39.2758 35.4596 39.0844 35.1214L37.3439 36.1066C37.7124 36.7577 38.226 37.2714 38.8802 37.6178L39.816 35.8502ZM39.0914 35.134C38.9185 34.8179 38.8081 34.3942 38.8081 33.822H36.8081C36.8081 34.6498 36.9685 35.4207 37.3369 36.094L39.0914 35.134ZM38.8081 33.822V29.286H36.8081V33.822H38.8081ZM37.8081 30.286H39.3901V28.286H37.8081V30.286ZM38.3901 29.286V33.584H40.3901V29.286H38.3901ZM38.3901 33.584C38.3901 34.435 38.6044 35.2432 39.174 35.859L40.6422 34.501C40.5212 34.3701 40.3901 34.1144 40.3901 33.584H38.3901ZM39.1827 35.8683C39.7525 36.4689 40.507 36.726 41.3221 36.726V34.726C40.9426 34.726 40.7544 34.6191 40.6336 34.4917L39.1827 35.8683ZM41.3221 36.726C42.1373 36.726 42.8918 36.4689 43.4616 35.8683L42.0107 34.4917C41.8898 34.6191 41.7017 34.726 41.3221 34.726V36.726ZM43.4611 35.8687C44.0456 35.2535 44.2681 34.4415 44.2681 33.584H42.2681C42.2681 34.1078 42.136 34.3598 42.0111 34.4913L43.4611 35.8687ZM44.2681 33.584V29.286H42.2681V33.584H44.2681ZM43.2681 30.286H44.8641V28.286H43.2681V30.286ZM48.5659 30.406H47.5659V34.0411L49.4252 30.9175L48.5659 30.406ZM49.4899 29.496L49.9792 30.3682L49.9861 30.3642L49.4899 29.496ZM50.8759 29.16H51.8759V28.16H50.8759V29.16ZM50.8759 30.812V31.812H51.8759V30.812H50.8759ZM49.0419 31.288L48.3451 30.5707L48.3399 30.5758L48.3348 30.5809L49.0419 31.288ZM48.5659 37V38H49.5659V37H48.5659ZM46.9699 37H45.9699V38H46.9699V37ZM46.9699 29.286V28.286H45.9699V29.286H46.9699ZM48.5659 29.286H49.5659V28.286H48.5659V29.286ZM49.4252 30.9175C49.5726 30.6698 49.7555 30.4936 49.9792 30.3681L49.0007 28.6239C48.459 28.9277 48.0259 29.3582 47.7066 29.8945L49.4252 30.9175ZM49.9861 30.3642C50.202 30.2409 50.4867 30.16 50.8759 30.16V28.16C50.2011 28.16 49.5618 28.3031 48.9938 28.6278L49.9861 30.3642ZM49.8759 29.16V30.812H51.8759V29.16H49.8759ZM50.8759 29.812H50.4699V31.812H50.8759V29.812ZM50.4699 29.812C49.6832 29.812 48.919 30.0133 48.3451 30.5707L49.7387 32.0053C49.8182 31.9281 50.006 31.812 50.4699 31.812V29.812ZM48.3348 30.5809C47.7312 31.1845 47.5659 32.0742 47.5659 32.94H49.5659C49.5659 32.2378 49.718 32.0262 49.749 31.9951L48.3348 30.5809ZM47.5659 32.94V37H49.5659V32.94H47.5659ZM48.5659 36H46.9699V38H48.5659V36ZM47.9699 37V29.286H45.9699V37H47.9699ZM46.9699 30.286H48.5659V28.286H46.9699V30.286ZM47.5659 29.286V30.406H49.5659V29.286H47.5659ZM53.939 30.406H52.939V34.0411L54.7983 30.9175L53.939 30.406ZM54.863 29.496L55.3522 30.3682L55.3591 30.3642L54.863 29.496ZM56.249 29.16H57.249V28.16H56.249V29.16ZM56.249 30.812V31.812H57.249V30.812H56.249ZM54.415 31.288L53.7182 30.5707L53.713 30.5758L53.7079 30.5809L54.415 31.288ZM53.939 37V38H54.939V37H53.939ZM52.343 37H51.343V38H52.343V37ZM52.343 29.286V28.286H51.343V29.286H52.343ZM53.939 29.286H54.939V28.286H53.939V29.286ZM54.7983 30.9175C54.9457 30.6698 55.1286 30.4936 55.3522 30.3681L54.3737 28.6239C53.832 28.9277 53.3989 29.3582 53.0797 29.8945L54.7983 30.9175ZM55.3591 30.3642C55.575 30.2409 55.8598 30.16 56.249 30.16V28.16C55.5742 28.16 54.9349 28.3031 54.3668 28.6278L55.3591 30.3642ZM55.249 29.16V30.812H57.249V29.16H55.249ZM56.249 29.812H55.843V31.812H56.249V29.812ZM55.843 29.812C55.0562 29.812 54.292 30.0133 53.7182 30.5707L55.1118 32.0053C55.1912 31.9281 55.379 31.812 55.843 31.812V29.812ZM53.7079 30.5809C53.1043 31.1845 52.939 32.0742 52.939 32.94H54.939C54.939 32.2378 55.091 32.0262 55.1221 31.9951L53.7079 30.5809ZM52.939 32.94V37H54.939V32.94H52.939ZM53.939 36H52.343V38H53.939V36ZM53.343 37V29.286H51.343V37H53.343ZM52.343 30.286H53.939V28.286H52.343V30.286ZM52.939 29.286V30.406H54.939V29.286H52.939ZM64.73 33.738V34.738H65.5827L65.7175 33.896L64.73 33.738ZM58.836 33.738V32.738H57.7574L57.8389 33.8135L58.836 33.738ZM59.522 35.222L58.8493 35.9619L59.522 35.222ZM62.854 34.704V33.704H62.2324L61.9573 34.2615L62.854 34.704ZM64.576 34.704L65.5259 35.0165L65.9577 33.704H64.576V34.704ZM63.302 36.454L63.8961 37.2584L63.8981 37.2569L63.302 36.454ZM59.046 36.636L58.5439 37.5008L58.5521 37.5056L58.5604 37.5102L59.046 36.636ZM57.674 35.236L56.7935 35.7101L56.7979 35.7182L56.8024 35.7263L57.674 35.236ZM57.66 31.05L56.7795 30.5759L56.7769 30.5808L57.66 31.05ZM59.018 29.65L58.5324 28.7758L58.5264 28.7792L59.018 29.65ZM62.98 29.636L63.4669 28.7625V28.7625L62.98 29.636ZM64.31 30.98L63.4332 31.4608L63.4365 31.4669L64.31 30.98ZM63.12 32.45V33.45H64.136L64.1199 32.4341L63.12 32.45ZM62.49 31.036L63.1436 30.2792L62.49 31.036ZM59.55 31.036L60.2111 31.7864L60.2209 31.7775L59.55 31.036ZM58.85 32.45L57.8577 32.326L57.7172 33.45H58.85V32.45ZM63.786 32.954C63.786 33.2017 63.7699 33.409 63.7426 33.58L65.7175 33.896C65.7648 33.6004 65.786 33.285 65.786 32.954H63.786ZM64.73 32.738H58.836V34.738H64.73V32.738ZM57.8389 33.8135C57.9025 34.653 58.2276 35.3967 58.8493 35.9619L60.1947 34.4821C59.9951 34.3006 59.8629 34.055 59.8332 33.6625L57.8389 33.8135ZM58.8493 35.9619C59.4588 36.516 60.2086 36.782 61.034 36.782V34.782C60.6648 34.782 60.4065 34.6747 60.1947 34.4821L58.8493 35.9619ZM61.034 36.782C61.6037 36.782 62.1546 36.662 62.6426 36.3729C63.1348 36.0814 63.4997 35.6553 63.7508 35.1465L61.9573 34.2615C61.8537 34.4714 61.7379 34.5843 61.6234 34.6521C61.5048 34.7224 61.323 34.782 61.034 34.782V36.782ZM62.854 35.704H64.576V33.704H62.854V35.704ZM63.6261 34.3915C63.4591 34.8991 63.161 35.3132 62.7059 35.6511L63.8981 37.2569C64.675 36.6801 65.2262 35.9276 65.5259 35.0165L63.6261 34.3915ZM62.708 35.6496C62.3056 35.9467 61.7695 36.126 61.034 36.126V38.126C62.1092 38.126 63.0851 37.8573 63.8961 37.2584L62.708 35.6496ZM61.034 36.126C60.4499 36.126 59.9571 35.9982 59.5317 35.7618L58.5604 37.5102C59.3109 37.9271 60.1435 38.126 61.034 38.126V36.126ZM59.5482 35.7712C59.1277 35.5271 58.7963 35.1914 58.5456 34.7457L56.8024 35.7263C57.2237 36.4752 57.807 37.0729 58.5439 37.5008L59.5482 35.7712ZM58.5545 34.7619C58.3174 34.3217 58.184 33.7891 58.184 33.136H56.184C56.184 34.0696 56.3773 34.937 56.7935 35.7101L58.5545 34.7619ZM58.184 33.136C58.184 32.4779 58.3148 31.9489 58.5431 31.5192L56.7769 30.5808C56.3705 31.3457 56.184 32.2074 56.184 33.136H58.184ZM58.5405 31.5241C58.7811 31.0773 59.1017 30.7511 59.5096 30.5208L58.5264 28.7792C57.777 29.2022 57.1923 29.8094 56.7795 30.5759L58.5405 31.5241ZM59.5037 30.5242C59.9254 30.2898 60.4265 30.16 61.034 30.16V28.16C60.1295 28.16 59.2866 28.3568 58.5324 28.7758L59.5037 30.5242ZM61.034 30.16C61.6119 30.16 62.0895 30.2845 62.4932 30.5095L63.4669 28.7625C62.7319 28.3529 61.9121 28.16 61.034 28.16V30.16ZM62.4932 30.5095C62.896 30.734 63.2051 31.0449 63.4332 31.4608L65.1868 30.4992C64.7802 29.7577 64.2027 29.1727 63.4669 28.7625L62.4932 30.5095ZM63.4365 31.4669C63.6595 31.8668 63.786 32.3526 63.786 32.954H65.786C65.786 32.062 65.5952 31.2318 65.1835 30.4931L63.4365 31.4669ZM64.1199 32.4341C64.1065 31.5879 63.7896 30.837 63.1436 30.2792L61.8364 31.7928C62.0118 31.9443 62.1149 32.1361 62.1201 32.4659L64.1199 32.4341ZM63.1436 30.2792C62.5296 29.7489 61.7804 29.504 60.964 29.504V31.504C61.361 31.504 61.6291 31.6138 61.8364 31.7928L63.1436 30.2792ZM60.964 29.504C60.1768 29.504 59.4632 29.766 58.8791 30.2945L60.2209 31.7775C60.4208 31.5967 60.6499 31.504 60.964 31.504V29.504ZM58.889 30.2856C58.2862 30.8167 57.9578 31.5257 57.8577 32.326L59.8423 32.574C59.8916 32.1797 60.0299 31.946 60.211 31.7864L58.889 30.2856ZM58.85 33.45H63.12V31.45H58.85V33.45ZM71.8726 29.538L71.4047 30.4218L71.4118 30.4255L71.8726 29.538ZM73.0066 30.658L72.1294 31.138V31.138L73.0066 30.658ZM73.4126 37V38H74.4126V37H73.4126ZM71.8306 37H70.8306V38H71.8306V37ZM71.3126 31.106L70.5785 31.7851L70.5872 31.7943L71.3126 31.106ZM68.4706 31.106L67.7456 30.4172L67.7452 30.4177L68.4706 31.106ZM67.9526 37V38H68.9526V37H67.9526ZM66.3566 37H65.3566V38H66.3566V37ZM66.3566 29.286V28.286H65.3566V29.286H66.3566ZM67.9526 29.286H68.9526V28.286H67.9526V29.286ZM67.9526 30.168H66.9526V32.9553L68.7246 30.8037L67.9526 30.168ZM68.9466 29.426L68.5502 28.5079L68.5425 28.5113L68.9466 29.426ZM70.2486 30.16C70.7131 30.16 71.0903 30.2553 71.4048 30.4218L72.3405 28.6542C71.703 28.3167 70.9975 28.16 70.2486 28.16V30.16ZM71.4118 30.4255C71.7152 30.583 71.9509 30.8117 72.1294 31.138L73.8839 30.178C73.5211 29.5149 73.0007 28.997 72.3335 28.6505L71.4118 30.4255ZM72.1294 31.138C72.3023 31.4541 72.4126 31.8778 72.4126 32.45H74.4126C74.4126 31.6222 74.2523 30.8513 73.8839 30.178L72.1294 31.138ZM72.4126 32.45V37H74.4126V32.45H72.4126ZM73.4126 36H71.8306V38H73.4126V36ZM72.8306 37V32.688H70.8306V37H72.8306ZM72.8306 32.688C72.8306 31.8389 72.6171 31.028 72.0381 30.4177L70.5872 31.7943C70.6989 31.912 70.8306 32.1557 70.8306 32.688H72.8306ZM72.0467 30.427C71.4789 29.813 70.7216 29.546 69.8986 29.546V31.546C70.2703 31.546 70.4557 31.6523 70.5785 31.785L72.0467 30.427ZM69.8986 29.546C69.075 29.546 68.3197 29.813 67.7456 30.4172L69.1956 31.7947C69.3309 31.6523 69.5276 31.546 69.8986 31.546V29.546ZM67.7452 30.4177C67.1662 31.028 66.9526 31.8389 66.9526 32.688H68.9526C68.9526 32.1557 69.0844 31.912 69.1961 31.7943L67.7452 30.4177ZM66.9526 32.688V37H68.9526V32.688H66.9526ZM67.9526 36H66.3566V38H67.9526V36ZM67.3566 37V29.286H65.3566V37H67.3566ZM66.3566 30.286H67.9526V28.286H66.3566V30.286ZM66.9526 29.286V30.168H68.9526V29.286H66.9526ZM68.7246 30.8037C68.8801 30.6148 69.0823 30.4593 69.3508 30.3407L68.5425 28.5113C68.0083 28.7473 67.5478 29.0865 67.1807 29.5323L68.7246 30.8037ZM69.3431 30.3441C69.6257 30.222 69.9245 30.16 70.2486 30.16V28.16C69.6581 28.16 69.0889 28.2753 68.5502 28.5079L69.3431 30.3441ZM77.3104 30.588V29.588H76.3104V30.588H77.3104ZM77.5064 35.488L76.7993 36.1951L76.8246 36.2203L76.8515 36.2437L77.5064 35.488ZM79.1864 35.67H80.1864V34.67H79.1864V35.67ZM79.1864 37V38H80.1864V37H79.1864ZM76.2744 36.496L75.6146 37.2474L76.2744 36.496ZM75.7004 30.588H76.7004V29.588H75.7004V30.588ZM74.7904 30.588H73.7904V31.588H74.7904V30.588ZM74.7904 29.286V28.286H73.7904V29.286H74.7904ZM75.7004 29.286V30.286H76.7004V29.286H75.7004ZM75.7004 27.368V26.368H74.7004V27.368H75.7004ZM77.3104 27.368H78.3104V26.368H77.3104V27.368ZM77.3104 29.286H76.3104V30.286H77.3104V29.286ZM79.1864 29.286H80.1864V28.286H79.1864V29.286ZM79.1864 30.588V31.588H80.1864V30.588H79.1864ZM76.3104 30.588V34.858H78.3104V30.588H76.3104ZM76.3104 34.858C76.3104 35.2668 76.3985 35.7943 76.7993 36.1951L78.2135 34.7809C78.2827 34.85 78.3079 34.915 78.3143 34.9354C78.3193 34.9515 78.3104 34.9318 78.3104 34.858H76.3104ZM76.8515 36.2437C77.2684 36.605 77.8051 36.67 78.2064 36.67V34.67C78.1552 34.67 78.1158 34.6676 78.0866 34.6644C78.0573 34.6613 78.0421 34.6577 78.0381 34.6567C78.0271 34.6538 78.0854 34.6665 78.1614 34.7323L76.8515 36.2437ZM78.2064 36.67H79.1864V34.67H78.2064V36.67ZM78.1864 35.67V37H80.1864V35.67H78.1864ZM79.1864 36H77.9264V38H79.1864V36ZM77.9264 36C77.3514 36 77.0716 35.8652 76.9342 35.7446L75.6146 37.2474C76.2426 37.7988 77.0641 38 77.9264 38V36ZM76.9342 35.7446C76.8551 35.6751 76.7004 35.4675 76.7004 34.858H74.7004C74.7004 35.7605 74.9284 36.6449 75.6146 37.2474L76.9342 35.7446ZM76.7004 34.858V30.588H74.7004V34.858H76.7004ZM75.7004 29.588H74.7904V31.588H75.7004V29.588ZM75.7904 30.588V29.286H73.7904V30.588H75.7904ZM74.7904 30.286H75.7004V28.286H74.7904V30.286ZM76.7004 29.286V27.368H74.7004V29.286H76.7004ZM75.7004 28.368H77.3104V26.368H75.7004V28.368ZM76.3104 27.368V29.286H78.3104V27.368H76.3104ZM77.3104 30.286H79.1864V28.286H77.3104V30.286ZM78.1864 29.286V30.588H80.1864V29.286H78.1864ZM79.1864 29.588H77.3104V31.588H79.1864V29.588ZM82.2534 26.64H83.2534V25.64H82.2534V26.64ZM82.2534 37V38H83.2534V37H82.2534ZM80.6574 37H79.6574V38H80.6574V37ZM80.6574 26.64V25.64H79.6574V26.64H80.6574ZM81.2534 26.64V37H83.2534V26.64H81.2534ZM82.2534 36H80.6574V38H82.2534V36ZM81.6574 37V26.64H79.6574V37H81.6574ZM80.6574 27.64H82.2534V25.64H80.6574V27.64ZM91.2928 29.286L92.2157 29.6711L92.7937 28.286H91.2928V29.286ZM86.5608 40.626V41.626H87.2271L87.4837 41.0111L86.5608 40.626ZM84.9088 40.626L83.9862 40.2404L83.4071 41.626H84.9088V40.626ZM86.4768 36.874L87.3995 37.2596L87.5572 36.8821L87.4052 36.5023L86.4768 36.874ZM83.4388 29.286V28.286H81.9613L82.5105 29.6577L83.4388 29.286ZM85.2168 29.286L86.155 28.9398L85.9137 28.286H85.2168V29.286ZM87.3868 35.166L86.4487 35.5122L87.3691 38.0062L88.3206 35.5239L87.3868 35.166ZM89.6408 29.286V28.286H88.9532L88.7071 28.9281L89.6408 29.286ZM90.37 28.9009L85.638 40.2409L87.4837 41.0111L92.2157 29.6711L90.37 28.9009ZM86.5608 39.626H84.9088V41.626H86.5608V39.626ZM85.8315 41.0116L87.3995 37.2596L85.5542 36.4884L83.9862 40.2404L85.8315 41.0116ZM87.4052 36.5023L84.3672 28.9143L82.5105 29.6577L85.5485 37.2457L87.4052 36.5023ZM83.4388 30.286H85.2168V28.286H83.4388V30.286ZM84.2787 29.6322L86.4487 35.5122L88.325 34.8198L86.155 28.9398L84.2787 29.6322ZM88.3206 35.5239L90.5746 29.6439L88.7071 28.9281L86.4531 34.8081L88.3206 35.5239ZM89.6408 30.286H91.2928V28.286H89.6408V30.286ZM102 35.012L102.943 34.6799L102.708 34.012H102V35.012ZM97.926 35.012V34.012H97.2179L96.9827 34.6799L97.926 35.012ZM97.226 37V38H97.9341L98.1692 37.3321L97.226 37ZM95.56 37L94.6184 36.6631L94.1402 38H95.56V37ZM99.046 27.256V26.256H98.3417L98.1044 26.9191L99.046 27.256ZM100.894 27.256L101.836 26.9191L101.598 26.256H100.894V27.256ZM104.38 37V38H105.8L105.322 36.6631L104.38 37ZM102.7 37L101.757 37.3321L101.992 38H102.7V37ZM101.552 33.71V34.71H102.961L102.496 33.3798L101.552 33.71ZM99.97 29.188L100.914 28.8578L99.9741 26.1716L99.027 28.8552L99.97 29.188ZM98.374 33.71L97.431 33.3772L96.9606 34.71H98.374V33.71ZM102 34.012H97.926V36.012H102V34.012ZM96.9827 34.6799L96.2828 36.6679L98.1692 37.3321L98.8692 35.3441L96.9827 34.6799ZM97.226 36H95.56V38H97.226V36ZM96.5015 37.3369L99.9875 27.5929L98.1044 26.9191L94.6184 36.6631L96.5015 37.3369ZM99.046 28.256H100.894V26.256H99.046V28.256ZM99.9524 27.5929L103.438 37.3369L105.322 36.6631L101.836 26.9191L99.9524 27.5929ZM104.38 36H102.7V38H104.38V36ZM103.643 36.6679L102.943 34.6799L101.057 35.3441L101.757 37.3321L103.643 36.6679ZM102.496 33.3798L100.914 28.8578L99.0261 29.5182L100.608 34.0402L102.496 33.3798ZM99.027 28.8552L97.431 33.3772L99.317 34.0428L100.913 29.5208L99.027 28.8552ZM98.374 34.71H101.552V32.71H98.374V34.71ZM105.84 31.05L104.959 30.5759L104.957 30.5808L105.84 31.05ZM107.184 29.65L106.686 28.7826V28.7826L107.184 29.65ZM111.454 29.832L110.86 30.6364L110.867 30.6416L110.874 30.6466L111.454 29.832ZM112.7 31.722V32.722H113.995L113.667 31.4691L112.7 31.722ZM110.978 31.722L110.039 32.0656L110.279 32.722H110.978V31.722ZM107.576 31.204L106.81 30.5608L106.809 30.5623L107.576 31.204ZM107.576 35.082L106.802 35.7161L106.81 35.7252L107.576 35.082ZM110.978 34.564V33.564H110.28L110.039 34.2188L110.978 34.564ZM112.7 34.564L113.661 34.8387L114.025 33.564H112.7V34.564ZM111.44 36.44L112.036 37.2429L112.044 37.2371L111.44 36.44ZM107.184 36.636L106.675 37.4973L106.686 37.5034L107.184 36.636ZM105.84 35.236L104.954 35.6995L104.958 35.7077L104.962 35.7158L105.84 35.236ZM106.364 33.136C106.364 32.4779 106.495 31.9489 106.723 31.5192L104.957 30.5808C104.55 31.3457 104.364 32.2074 104.364 33.136H106.364ZM106.72 31.5241C106.963 31.0731 107.282 30.7465 107.681 30.5174L106.686 28.7826C105.947 29.2068 105.37 29.8136 104.959 30.5759L106.72 31.5241ZM107.681 30.5174C108.081 30.2879 108.559 30.16 109.144 30.16V28.16C108.254 28.16 107.425 28.3587 106.686 28.7826L107.681 30.5174ZM109.144 30.16C109.915 30.16 110.462 30.343 110.86 30.6364L112.048 29.0276C111.232 28.425 110.239 28.16 109.144 28.16V30.16ZM110.874 30.6466C111.275 30.9325 111.569 31.3508 111.732 31.9749L113.667 31.4691C113.401 30.4505 112.864 29.6089 112.034 29.0174L110.874 30.6466ZM112.7 30.722H110.978V32.722H112.7V30.722ZM111.917 31.3784C111.713 30.8202 111.369 30.3478 110.877 30.0056L109.734 31.6464C109.859 31.7335 109.963 31.8585 110.039 32.0656L111.917 31.3784ZM110.877 30.0056C110.365 29.6483 109.765 29.504 109.144 29.504V31.504C109.456 31.504 109.631 31.5744 109.734 31.6464L110.877 30.0056ZM109.144 29.504C108.219 29.504 107.407 29.85 106.81 30.5608L108.341 31.8472C108.528 31.6246 108.762 31.504 109.144 31.504V29.504ZM106.809 30.5623C106.226 31.259 106.002 32.1621 106.002 33.136H108.002C108.002 32.4486 108.16 32.0637 108.343 31.8457L106.809 30.5623ZM106.002 33.136C106.002 34.1115 106.226 35.0136 106.802 35.7161L108.349 34.4479C108.16 34.2171 108.002 33.8219 108.002 33.136H106.002ZM106.81 35.7252C107.407 36.436 108.219 36.782 109.144 36.782V34.782C108.762 34.782 108.528 34.6614 108.341 34.4388L106.81 35.7252ZM109.144 36.782C109.752 36.782 110.341 36.6475 110.848 36.3105C111.361 35.97 111.707 35.4778 111.916 34.9092L110.039 34.2188C109.95 34.4622 109.841 34.579 109.742 34.6445C109.638 34.7135 109.46 34.782 109.144 34.782V36.782ZM110.978 35.564H112.7V33.564H110.978V35.564ZM111.738 34.2893C111.57 34.8773 111.269 35.3145 110.836 35.6429L112.044 37.2371C112.842 36.6321 113.381 35.8187 113.661 34.8387L111.738 34.2893ZM110.844 35.6371C110.431 35.9432 109.886 36.126 109.144 36.126V38.126C110.231 38.126 111.216 37.8514 112.036 37.2429L110.844 35.6371ZM109.144 36.126C108.559 36.126 108.081 35.9981 107.681 35.7686L106.686 37.5034C107.425 37.9273 108.254 38.126 109.144 38.126V36.126ZM107.692 35.7748C107.283 35.5332 106.96 35.2004 106.717 34.7562L104.962 35.7158C105.373 36.4663 105.946 37.0668 106.675 37.4972L107.692 35.7748ZM106.726 34.7725C106.494 34.3301 106.364 33.7936 106.364 33.136H104.364C104.364 34.065 104.55 34.9286 104.954 35.6995L106.726 34.7725ZM116.152 30.588V29.588H115.152V30.588H116.152ZM116.348 35.488L115.641 36.1951L115.666 36.2203L115.693 36.2437L116.348 35.488ZM118.028 35.67H119.028V34.67H118.028V35.67ZM118.028 37V38H119.028V37H118.028ZM115.116 36.496L114.456 37.2474L115.116 36.496ZM114.542 30.588H115.542V29.588H114.542V30.588ZM113.632 30.588H112.632V31.588H113.632V30.588ZM113.632 29.286V28.286H112.632V29.286H113.632ZM114.542 29.286V30.286H115.542V29.286H114.542ZM114.542 27.368V26.368H113.542V27.368H114.542ZM116.152 27.368H117.152V26.368H116.152V27.368ZM116.152 29.286H115.152V30.286H116.152V29.286ZM118.028 29.286H119.028V28.286H118.028V29.286ZM118.028 30.588V31.588H119.028V30.588H118.028ZM115.152 30.588V34.858H117.152V30.588H115.152ZM115.152 34.858C115.152 35.2668 115.24 35.7943 115.641 36.1951L117.055 34.7809C117.124 34.85 117.15 34.915 117.156 34.9354C117.161 34.9515 117.152 34.9318 117.152 34.858H115.152ZM115.693 36.2437C116.11 36.605 116.647 36.67 117.048 36.67V34.67C116.997 34.67 116.958 34.6676 116.928 34.6644C116.899 34.6613 116.884 34.6577 116.88 34.6567C116.869 34.6538 116.927 34.6665 117.003 34.7323L115.693 36.2437ZM117.048 36.67H118.028V34.67H117.048V36.67ZM117.028 35.67V37H119.028V35.67H117.028ZM118.028 36H116.768V38H118.028V36ZM116.768 36C116.193 36 115.913 35.8652 115.776 35.7446L114.456 37.2474C115.084 37.7988 115.906 38 116.768 38V36ZM115.776 35.7446C115.697 35.6751 115.542 35.4675 115.542 34.858H113.542C113.542 35.7605 113.77 36.6449 114.456 37.2474L115.776 35.7446ZM115.542 34.858V30.588H113.542V34.858H115.542ZM114.542 29.588H113.632V31.588H114.542V29.588ZM114.632 30.588V29.286H112.632V30.588H114.632ZM113.632 30.286H114.542V28.286H113.632V30.286ZM115.542 29.286V27.368H113.542V29.286H115.542ZM114.542 28.368H116.152V26.368H114.542V28.368ZM115.152 27.368V29.286H117.152V27.368H115.152ZM116.152 30.286H118.028V28.286H116.152V30.286ZM117.028 29.286V30.588H119.028V29.286H117.028ZM118.028 29.588H116.152V31.588H118.028V29.588ZM119.583 27.97L120.29 27.2629L120.29 27.2629L119.583 27.97ZM119.583 26.514L120.29 27.2211L120.29 27.2211L119.583 26.514ZM121.025 26.514L120.318 27.2211V27.2211L121.025 26.514ZM121.025 27.97L120.318 27.2629V27.2629L121.025 27.97ZM121.095 29.286H122.095V28.286H121.095V29.286ZM121.095 37V38H122.095V37H121.095ZM119.499 37H118.499V38H119.499V37ZM119.499 29.286V28.286H118.499V29.286H119.499ZM120.311 27.264C120.295 27.264 120.287 27.2627 120.284 27.2622C120.282 27.2617 120.283 27.2617 120.287 27.2633C120.291 27.2648 120.294 27.2666 120.296 27.2679C120.298 27.2691 120.296 27.2682 120.29 27.2629L118.876 28.6771C119.269 29.0696 119.77 29.264 120.311 29.264V27.264ZM120.29 27.2629C120.285 27.2576 120.284 27.2557 120.285 27.2575C120.287 27.2594 120.288 27.2627 120.29 27.2665C120.291 27.2703 120.292 27.2716 120.291 27.2691C120.291 27.2663 120.289 27.2578 120.289 27.242H118.289C118.289 27.7836 118.484 28.2846 118.876 28.6771L120.29 27.2629ZM120.289 27.242C120.289 27.2262 120.291 27.2177 120.291 27.2149C120.292 27.2124 120.291 27.2137 120.29 27.2175C120.288 27.2213 120.287 27.2246 120.285 27.2265C120.284 27.2283 120.285 27.2264 120.29 27.2211L118.876 25.8069C118.484 26.1994 118.289 26.7004 118.289 27.242H120.289ZM120.29 27.2211C120.296 27.2158 120.298 27.2149 120.296 27.2161C120.294 27.2174 120.291 27.2192 120.287 27.2207C120.283 27.2223 120.282 27.2223 120.284 27.2218C120.287 27.2213 120.295 27.22 120.311 27.22V25.22C119.77 25.22 119.269 25.4144 118.876 25.8069L120.29 27.2211ZM120.311 27.22C120.317 27.22 120.321 27.2203 120.324 27.2205C120.325 27.2206 120.326 27.2207 120.327 27.2208C120.327 27.2209 120.327 27.2209 120.327 27.2209C120.327 27.2209 120.327 27.2209 120.327 27.2208C120.326 27.2207 120.326 27.2205 120.325 27.2203C120.323 27.2198 120.321 27.2191 120.319 27.2182C120.314 27.2162 120.311 27.2142 120.309 27.2133C120.308 27.2125 120.311 27.2144 120.318 27.2211L121.732 25.8069C121.347 25.4212 120.853 25.22 120.311 25.22V27.22ZM120.318 27.2211C120.323 27.2264 120.324 27.2283 120.323 27.2265C120.322 27.2246 120.32 27.2213 120.318 27.2175C120.317 27.2137 120.317 27.2124 120.317 27.2149C120.318 27.2177 120.319 27.2262 120.319 27.242H122.319C122.319 26.7004 122.125 26.1994 121.732 25.8069L120.318 27.2211ZM120.319 27.242C120.319 27.2578 120.318 27.2663 120.317 27.2691C120.317 27.2716 120.317 27.2703 120.318 27.2665C120.32 27.2627 120.322 27.2594 120.323 27.2575C120.324 27.2557 120.323 27.2576 120.318 27.2629L121.732 28.6771C122.125 28.2846 122.319 27.7836 122.319 27.242H120.319ZM120.318 27.2629C120.311 27.2696 120.308 27.2715 120.309 27.2707C120.311 27.2698 120.314 27.2678 120.319 27.2658C120.321 27.2649 120.323 27.2642 120.325 27.2637C120.326 27.2635 120.326 27.2633 120.327 27.2632C120.327 27.2631 120.327 27.2631 120.327 27.2631C120.327 27.2631 120.327 27.2631 120.327 27.2632C120.326 27.2633 120.325 27.2634 120.324 27.2635C120.321 27.2637 120.317 27.264 120.311 27.264V29.264C120.853 29.264 121.347 29.0628 121.732 28.6771L120.318 27.2629ZM120.095 29.286V37H122.095V29.286H120.095ZM121.095 36H119.499V38H121.095V36ZM120.499 37V29.286H118.499V37H120.499ZM119.499 30.286H121.095V28.286H119.499V30.286ZM126.173 35.572L125.228 35.9002L126.173 38.619L127.117 35.9002L126.173 35.572ZM128.357 29.286V28.286H127.645L127.412 28.9578L128.357 29.286ZM130.051 29.286L130.985 29.6421L131.502 28.286H130.051V29.286ZM127.111 37V38H127.8L128.045 37.3561L127.111 37ZM125.207 37L124.272 37.3547L124.516 38H125.207V37ZM122.281 29.286V28.286H120.832L121.346 29.6407L122.281 29.286ZM123.989 29.286L124.933 28.9578L124.7 28.286H123.989V29.286ZM127.117 35.9002L129.301 29.6142L127.412 28.9578L125.228 35.2438L127.117 35.9002ZM128.357 30.286H130.051V28.286H128.357V30.286ZM129.116 28.9299L126.176 36.6439L128.045 37.3561L130.985 29.6421L129.116 28.9299ZM127.111 36H125.207V38H127.111V36ZM126.142 36.6453L123.216 28.9313L121.346 29.6407L124.272 37.3547L126.142 36.6453ZM122.281 30.286H123.989V28.286H122.281V30.286ZM123.044 29.6142L125.228 35.9002L127.117 35.2438L124.933 28.9578L123.044 29.6142ZM138.271 33.738V34.738H139.124L139.258 33.896L138.271 33.738ZM132.377 33.738V32.738H131.298L131.38 33.8135L132.377 33.738ZM133.063 35.222L132.39 35.9619L133.063 35.222ZM136.395 34.704V33.704H135.773L135.498 34.2615L136.395 34.704ZM138.117 34.704L139.067 35.0165L139.499 33.704H138.117V34.704ZM136.843 36.454L137.437 37.2584L137.439 37.2569L136.843 36.454ZM132.587 36.636L132.085 37.5008L132.093 37.5056L132.101 37.5102L132.587 36.636ZM131.215 35.236L130.335 35.7101L130.339 35.7182L130.343 35.7263L131.215 35.236ZM131.201 31.05L130.321 30.5759L130.318 30.5808L131.201 31.05ZM132.559 29.65L132.073 28.7758L132.067 28.7792L132.559 29.65ZM136.521 29.636L137.008 28.7625V28.7625L136.521 29.636ZM137.851 30.98L136.974 31.4608L136.978 31.4669L137.851 30.98ZM136.661 32.45V33.45H137.677L137.661 32.4341L136.661 32.45ZM136.031 31.036L136.685 30.2792L136.031 31.036ZM133.091 31.036L133.752 31.7864L133.762 31.7775L133.091 31.036ZM132.391 32.45L131.399 32.326L131.258 33.45H132.391V32.45ZM137.327 32.954C137.327 33.2017 137.311 33.409 137.284 33.58L139.258 33.896C139.306 33.6004 139.327 33.285 139.327 32.954H137.327ZM138.271 32.738H132.377V34.738H138.271V32.738ZM131.38 33.8135C131.443 34.653 131.769 35.3967 132.39 35.9619L133.736 34.4821C133.536 34.3006 133.404 34.055 133.374 33.6625L131.38 33.8135ZM132.39 35.9619C133 36.516 133.75 36.782 134.575 36.782V34.782C134.206 34.782 133.948 34.6747 133.736 34.4821L132.39 35.9619ZM134.575 36.782C135.145 36.782 135.696 36.662 136.184 36.3729C136.676 36.0814 137.041 35.6553 137.292 35.1465L135.498 34.2615C135.395 34.4714 135.279 34.5843 135.164 34.6521C135.046 34.7224 134.864 34.782 134.575 34.782V36.782ZM136.395 35.704H138.117V33.704H136.395V35.704ZM137.167 34.3915C137 34.8991 136.702 35.3132 136.247 35.6511L137.439 37.2569C138.216 36.6801 138.767 35.9276 139.067 35.0165L137.167 34.3915ZM136.249 35.6496C135.847 35.9467 135.311 36.126 134.575 36.126V38.126C135.65 38.126 136.626 37.8573 137.437 37.2584L136.249 35.6496ZM134.575 36.126C133.991 36.126 133.498 35.9982 133.073 35.7618L132.101 37.5102C132.852 37.9271 133.685 38.126 134.575 38.126V36.126ZM133.089 35.7712C132.669 35.5271 132.337 35.1914 132.087 34.7457L130.343 35.7263C130.765 36.4752 131.348 37.0729 132.085 37.5008L133.089 35.7712ZM132.096 34.7619C131.858 34.3217 131.725 33.7891 131.725 33.136H129.725C129.725 34.0696 129.918 34.937 130.335 35.7101L132.096 34.7619ZM131.725 33.136C131.725 32.4779 131.856 31.9489 132.084 31.5192L130.318 30.5808C129.912 31.3457 129.725 32.2074 129.725 33.136H131.725ZM132.082 31.5241C132.322 31.0773 132.643 30.7511 133.051 30.5208L132.067 28.7792C131.318 29.2022 130.733 29.8094 130.321 30.5759L132.082 31.5241ZM133.045 30.5242C133.466 30.2898 133.968 30.16 134.575 30.16V28.16C133.671 28.16 132.828 28.3568 132.073 28.7758L133.045 30.5242ZM134.575 30.16C135.153 30.16 135.63 30.2845 136.034 30.5095L137.008 28.7625C136.273 28.3529 135.453 28.16 134.575 28.16V30.16ZM136.034 30.5095C136.437 30.734 136.746 31.0449 136.974 31.4608L138.728 30.4992C138.321 29.7577 137.744 29.1727 137.008 28.7625L136.034 30.5095ZM136.978 31.4669C137.2 31.8668 137.327 32.3526 137.327 32.954H139.327C139.327 32.062 139.136 31.2318 138.725 30.4931L136.978 31.4669ZM137.661 32.4341C137.647 31.5879 137.331 30.837 136.685 30.2792L135.377 31.7928C135.553 31.9443 135.656 32.1361 135.661 32.4659L137.661 32.4341ZM136.685 30.2792C136.071 29.7489 135.321 29.504 134.505 29.504V31.504C134.902 31.504 135.17 31.6138 135.377 31.7928L136.685 30.2792ZM134.505 29.504C133.718 29.504 133.004 29.766 132.42 30.2945L133.762 31.7775C133.962 31.5967 134.191 31.504 134.505 31.504V29.504ZM132.43 30.2856C131.827 30.8167 131.499 31.5257 131.399 32.326L133.383 32.574C133.433 32.1797 133.571 31.946 133.752 31.7864L132.43 30.2856ZM132.391 33.45H136.661V31.45H132.391V33.45Z" fill="#053BFF" fill-opacity="0.05" mask="url(#path-3-outside-1_7378_88581)"/>
</g>
<defs>
<filter id="filter0_dd_7378_88581" x="0" y="0" width="163" height="68" filterUnits="userSpaceOnUse" color-interpolation-filters="sRGB">
<feFlood flood-opacity="0" result="BackgroundImageFix"/>
<feColorMatrix in="SourceAlpha" type="matrix" values="0 0 0 0 0 0 0 0 0 0 0 0 0 0 0 0 0 0 127 0" result="hardAlpha"/>
<feOffset dx="4" dy="4"/>
<feGaussianBlur stdDeviation="5"/>
<feColorMatrix type="matrix" values="0 0 0 0 0.0196078 0 0 0 0 0.231373 0 0 0 0 1 0 0 0 0.05 0"/>
<feBlend mode="normal" in2="BackgroundImageFix" result="effect1_dropShadow_7378_88581"/>
<feColorMatrix in="SourceAlpha" type="matrix" values="0 0 0 0 0 0 0 0 0 0 0 0 0 0 0 0 0 0 127 0" result="hardAlpha"/>
<feOffset dx="-4" dy="-4"/>
<feGaussianBlur stdDeviation="5"/>
<feColorMatrix type="matrix" values="0 0 0 0 0.0196078 0 0 0 0 0.231373 0 0 0 0 1 0 0 0 0.05 0"/>
<feBlend mode="normal" in2="effect1_dropShadow_7378_88581" result="effect2_dropShadow_7378_88581"/>
<feBlend mode="normal" in="SourceGraphic" in2="effect2_dropShadow_7378_88581" result="shape"/>
</filter>
</defs>
</svg>
