<svg width="22" height="22" viewBox="0 0 22 22" fill="none" xmlns="http://www.w3.org/2000/svg">
<path fill-rule="evenodd" clip-rule="evenodd" d="M6.69494 12.3909C6.05018 12.3909 5.52637 11.8671 5.52637 11.2223C5.52637 10.5795 6.05018 10.0557 6.69494 10.0557C7.3397 10.0557 7.86351 10.5795 7.86351 11.2223C7.86351 11.8671 7.3397 12.3909 6.69494 12.3909ZM11.2378 12.3909C10.593 12.3909 10.0692 11.8671 10.0692 11.2223C10.0692 10.5795 10.593 10.0557 11.2378 10.0557C11.8826 10.0557 12.4064 10.5795 12.4064 11.2223C12.4064 11.8671 11.8826 12.3909 11.2378 12.3909ZM14.6122 11.2223C14.6122 11.8671 15.136 12.3909 15.7807 12.3909C16.4255 12.3909 16.9493 11.8671 16.9493 11.2223C16.9493 10.5795 16.4255 10.0557 15.7807 10.0557C15.136 10.0557 14.6122 10.5795 14.6122 11.2223Z" fill="#2E5BFF"/>
<path fill-rule="evenodd" clip-rule="evenodd" d="M11.02 1C5.21 1 1 5.74612 1 11.015C1 12.6975 1.49 14.4291 2.35 16.0115C2.51 16.2729 2.53 16.6024 2.42 16.9139L1.75 19.1572C1.6 19.698 2.06 20.0976 2.57 19.9374L4.59 19.3375C5.14 19.1572 5.57 19.3866 6.08 19.698C7.54 20.5583 9.36 21 11 21C15.96 21 21 17.1642 21 10.985C21 5.65598 16.7 1 11.02 1Z" stroke="#2E5BFF" stroke-width="1.5" stroke-linecap="round" stroke-linejoin="round"/>
</svg>
