<svg width="24" height="24" viewBox="0 0 24 24" fill="none" xmlns="http://www.w3.org/2000/svg">
<path d="M16.0203 10.9143C17.8413 10.9143 19.3173 9.43831 19.3173 7.61731C19.3173 5.79731 17.8413 4.32031 16.0203 4.32031" stroke="#2E5BFF" stroke-width="1.5" stroke-linecap="round" stroke-linejoin="round"/>
<path d="M17.5364 14.4961C18.0804 14.5331 18.6204 14.6111 19.1534 14.7291C19.8924 14.8761 20.7824 15.1791 21.0984 15.8421C21.3004 16.2671 21.3004 16.7621 21.0984 17.1871C20.7834 17.8501 19.8924 18.1531 19.1534 18.3051" stroke="#2E5BFF" stroke-width="1.5" stroke-linecap="round" stroke-linejoin="round"/>
<path fill-rule="evenodd" clip-rule="evenodd" d="M9.59149 15.207C13.2815 15.207 16.4335 15.766 16.4335 17.999C16.4335 20.233 13.3015 20.811 9.59149 20.811C5.90149 20.811 2.75049 20.253 2.75049 18.019C2.75049 15.785 5.88149 15.207 9.59149 15.207Z" stroke="#2E5BFF" stroke-width="1.5" stroke-linecap="round" stroke-linejoin="round"/>
<path fill-rule="evenodd" clip-rule="evenodd" d="M9.59152 12.019C7.15752 12.019 5.20752 10.068 5.20752 7.634C5.20752 5.201 7.15752 3.25 9.59152 3.25C12.0255 3.25 13.9765 5.201 13.9765 7.634C13.9765 10.068 12.0255 12.019 9.59152 12.019Z" stroke="#2E5BFF" stroke-width="1.5" stroke-linecap="round" stroke-linejoin="round"/>
</svg>
