<svg width="24" height="24" viewBox="0 0 24 24" fill="none" xmlns="http://www.w3.org/2000/svg">
<path d="M19.8168 7.90362C18.7519 3.87101 15.0618 1 10.8352 1C6.63472 1 2.94904 3.86993 1.86497 7.90136C0.805246 8.09794 0 9.0294 0 10.1454V12.7169C0 13.7178 0.647828 14.5702 1.54611 14.8771V15.9526C1.54611 19.1817 4.17344 21.8087 7.40287 21.8087H8.12351C8.41136 22.4895 9.08588 22.9684 9.87022 22.9684H11.7989C12.8441 22.9684 13.6945 22.1182 13.6945 21.073C13.6945 20.0277 12.8441 19.1773 11.7989 19.1773H9.87022C9.08608 19.1773 8.41165 19.656 8.12371 20.3366H7.40287C4.98516 20.3366 3.01822 18.37 3.01822 15.9526V14.2628C3.01822 13.8563 2.68867 13.5267 2.28217 13.5267C1.83553 13.5267 1.47211 13.1634 1.47211 12.7168V10.1454C1.47211 9.69872 1.83553 9.3353 2.27873 9.3353L2.45234 9.33609C2.45352 9.33609 2.4547 9.33609 2.45588 9.33609C2.80526 9.33609 3.10685 9.09024 3.17692 8.74763C3.92112 5.11132 7.14191 2.47211 10.8352 2.47211C14.5524 2.47211 17.7763 5.10945 18.5008 8.74312C18.5694 9.0873 18.8716 9.3352 19.2227 9.3352H19.3878C19.8345 9.3352 20.1979 9.69862 20.1979 10.1453V12.7168C20.1979 13.1634 19.8345 13.5267 19.3878 13.5267C18.9813 13.5267 18.6518 13.8563 18.6518 14.2628C18.6518 14.6693 18.9813 14.9988 19.3878 14.9988C20.6462 14.9988 21.67 13.9751 21.67 12.7168V10.1454C21.6699 9.03352 20.8707 8.10491 19.8168 7.90362ZM9.87032 20.6494H11.799C12.0325 20.6494 12.2225 20.8394 12.2225 21.073C12.2225 21.3064 12.0325 21.4963 11.799 21.4963H9.87032C9.63694 21.4963 9.44704 21.3064 9.44704 21.073C9.44694 20.8394 9.63685 20.6494 9.87032 20.6494Z" fill="#2E5BFF"/>
<path d="M10.8353 4.53711C7.03402 4.53711 3.94141 7.62943 3.94141 11.4303C3.94141 15.2318 7.03402 18.3246 10.8353 18.3246C14.6366 18.3246 17.7291 15.2318 17.7291 11.4303C17.7291 7.62943 14.6366 4.53711 10.8353 4.53711ZM10.8353 16.8525C7.84574 16.8525 5.41352 14.4201 5.41352 11.4303C5.41352 8.44115 7.84574 6.00922 10.8353 6.00922C13.8249 6.00922 16.257 8.44115 16.257 11.4303C16.257 14.4202 13.8249 16.8525 10.8353 16.8525Z" fill="#2E5BFF"/>
</svg>
