<svg width="20" height="18" viewBox="0 0 20 18" fill="none" xmlns="http://www.w3.org/2000/svg">
<path d="M19.3446 5.67825C19.3239 5.63431 19.2988 5.59259 19.2696 5.55375C19.2475 5.44607 19.2179 5.34006 19.1811 5.2365C19.1766 5.2245 19.1721 5.2125 19.1661 5.2005L17.1013 0.45C17.0429 0.316194 16.9468 0.20234 16.8246 0.122405C16.7024 0.0424704 16.5596 -7.06915e-05 16.4136 8.81785e-08H2.91359C2.7676 -7.06915e-05 2.62476 0.0424704 2.50259 0.122405C2.38042 0.20234 2.28424 0.316194 2.22584 0.45L0.148343 5.23575C-0.0494475 5.73772 -0.0494475 6.29603 0.148343 6.798C0.339429 7.23483 0.616258 7.62885 0.962423 7.95672C1.30859 8.28459 1.71705 8.53964 2.16359 8.70675V16.5C2.16359 16.6989 2.24261 16.8897 2.38326 17.0303C2.52391 17.171 2.71468 17.25 2.91359 17.25H16.4136C16.6125 17.25 16.8033 17.171 16.9439 17.0303C17.0846 16.8897 17.1636 16.6989 17.1636 16.5V8.70675C17.61 8.53985 18.0184 8.28504 18.3646 7.95743C18.7107 7.62982 18.9876 7.23607 19.1788 6.7995C19.2407 6.64172 19.2817 6.4766 19.3011 6.30825C19.3511 6.21182 19.3808 6.10614 19.3883 5.99777C19.3958 5.88939 19.3809 5.78064 19.3446 5.67825ZM7.41359 15.75V11.25H8.91359V15.75H7.41359ZM10.4136 15.75V11.25H11.9136V15.75H10.4136ZM15.6636 15.75H13.4136V10.5C13.4136 10.3011 13.3346 10.1103 13.1939 9.96967C13.0533 9.82902 12.8625 9.75 12.6636 9.75H6.66359C6.46468 9.75 6.27391 9.82902 6.13326 9.96967C5.99261 10.1103 5.91359 10.3011 5.91359 10.5V15.75H3.66359V9C4.2318 9.00712 4.7947 8.88999 5.3129 8.6568C5.8311 8.42361 6.29209 8.07999 6.66359 7.65C7.03933 8.07502 7.50109 8.41535 8.01829 8.64844C8.53548 8.88154 9.0963 9.00208 9.66359 9.00208C10.2309 9.00208 10.7917 8.88154 11.3089 8.64844C11.8261 8.41535 12.2879 8.07502 12.6636 7.65C13.0351 8.07999 13.4961 8.42361 14.0143 8.6568C14.5325 8.88999 15.0954 9.00712 15.6636 9V15.75ZM17.7913 6.225C17.5995 6.62174 17.2959 6.95377 16.9179 7.18029C16.5399 7.40681 16.1039 7.51793 15.6636 7.5C15.1177 7.54439 14.5762 7.37284 14.1555 7.02223C13.7347 6.67162 13.4684 6.16993 13.4136 5.625C13.4136 5.42609 13.3346 5.23532 13.1939 5.09467C13.0533 4.95402 12.8625 4.875 12.6636 4.875C12.4647 4.875 12.2739 4.95402 12.1333 5.09467C11.9926 5.23532 11.9136 5.42609 11.9136 5.625C11.8588 6.16993 11.5924 6.67162 11.1717 7.02223C10.751 7.37284 10.2095 7.54439 9.66359 7.5C9.11772 7.54439 8.57622 7.37284 8.15548 7.02223C7.73475 6.67162 7.46836 6.16993 7.41359 5.625C7.41359 5.42609 7.33457 5.23532 7.19392 5.09467C7.05327 4.95402 6.8625 4.875 6.66359 4.875C6.46468 4.875 6.27391 4.95402 6.13326 5.09467C5.99261 5.23532 5.91359 5.42609 5.91359 5.625C5.85882 6.16993 5.59244 6.67162 5.1717 7.02223C4.75097 7.37284 4.20947 7.54439 3.66359 7.5C3.22316 7.51798 2.78707 7.40689 2.40893 7.18038C2.03079 6.95386 1.72706 6.6218 1.53509 6.225C1.48483 6.08667 1.48483 5.93508 1.53509 5.79675L3.40559 1.5H15.9216L17.7793 5.775C17.8374 5.91866 17.8417 6.07845 17.7913 6.225Z" fill="#2E5BFF"/>
</svg>
