<svg width="21" height="22" viewBox="0 0 21 22" fill="none" xmlns="http://www.w3.org/2000/svg">
<path fill-rule="evenodd" clip-rule="evenodd" d="M16.6452 1V5.43932Z" fill="#2E5BFF"/>
<path d="M16.6452 1V5.43932" stroke="#2E5BFF" stroke-width="1.5" stroke-linecap="round" stroke-linejoin="round"/>
<path fill-rule="evenodd" clip-rule="evenodd" d="M18.869 3.21968H14.4297Z" fill="#2E5BFF"/>
<path d="M18.869 3.21968H14.4297" stroke="#2E5BFF" stroke-width="1.5" stroke-linecap="round" stroke-linejoin="round"/>
<path d="M17.6257 6.68572H12.4602V3.58425C12.4601 2.15926 11.3009 1 9.87598 1H2.58425C1.15926 1 0 2.15926 0 3.58425V9.53843C0 10.9634 1.1593 12.1227 2.58425 12.1227H3.55899L3.33883 14.734C3.2821 15.4064 4.05445 15.8145 4.57899 15.4062L7.74977 12.9381V15.2242C7.74977 16.6492 8.90907 17.8084 10.334 17.8084H11.4127L15.631 21.092C16.1568 21.5011 16.9278 21.0917 16.8712 20.4197L16.651 17.8084H17.6258C19.0507 17.8084 20.21 16.6491 20.21 15.2241V9.27052C20.2099 7.84521 19.0506 6.68572 17.6257 6.68572ZM7.74973 9.27048V10.9866L5.02101 13.1107L5.16379 11.4174C5.20168 10.9686 4.84726 10.5828 4.39658 10.5828H2.58425C2.00836 10.5828 1.53987 10.1143 1.53987 9.53843V3.58425C1.53987 3.00836 2.00836 2.53988 2.58425 2.53988H9.87598C10.4518 2.53988 10.9204 3.00836 10.9204 3.58425V6.68572H10.334C8.90907 6.68572 7.74973 7.84521 7.74973 9.27048ZM18.67 15.2241C18.67 15.7999 18.2016 16.2684 17.6257 16.2684H15.8133C15.3629 16.2684 15.0082 16.6541 15.0461 17.1031L15.1889 18.7964L12.1499 16.4308C12.0147 16.3256 11.8483 16.2684 11.6769 16.2684H10.3339C9.75805 16.2684 9.28953 15.7999 9.28953 15.2241C9.28953 14.569 9.28953 9.91192 9.28953 9.27048C9.28953 8.69431 9.75805 8.22559 10.3339 8.22559H11.6902H17.6256C18.2015 8.22559 18.67 8.69431 18.67 9.27048L18.67 15.2241Z" fill="#2E5BFF"/>
<path d="M16.0589 12.9287C16.428 12.9287 16.7272 12.6294 16.7272 12.2603C16.7272 11.8913 16.428 11.592 16.0589 11.592C15.6898 11.592 15.3906 11.8913 15.3906 12.2603C15.3906 12.6294 15.6898 12.9287 16.0589 12.9287Z" fill="#2E5BFF"/>
<path d="M13.9847 12.9287C14.3538 12.9287 14.653 12.6294 14.653 12.2603C14.653 11.8913 14.3538 11.592 13.9847 11.592C13.6156 11.592 13.3164 11.8913 13.3164 12.2603C13.3164 12.6294 13.6156 12.9287 13.9847 12.9287Z" fill="#2E5BFF"/>
<path d="M11.8949 12.9287C12.264 12.9287 12.5632 12.6294 12.5632 12.2603C12.5632 11.8913 12.264 11.592 11.8949 11.592C11.5258 11.592 11.2266 11.8913 11.2266 12.2603C11.2266 12.6294 11.5258 12.9287 11.8949 12.9287Z" fill="#2E5BFF"/>
</svg>
