<svg width="16" height="16" viewBox="0 0 16 16" fill="none" xmlns="http://www.w3.org/2000/svg">
<g clip-path="url(#clip0_7378_88562)">
<path d="M14.6654 7.38625V7.99958C14.6645 9.4372 14.199 10.836 13.3383 11.9875C12.4775 13.1389 11.2676 13.9812 9.88894 14.3889C8.51032 14.7965 7.03687 14.7475 5.68835 14.2493C4.33982 13.7511 3.18847 12.8303 2.406 11.6243C1.62354 10.4183 1.25189 8.99163 1.34648 7.55713C1.44107 6.12263 1.99684 4.75713 2.93088 3.6643C3.86493 2.57146 5.12722 1.80984 6.52949 1.49301C7.93176 1.17619 9.39888 1.32114 10.712 1.90625" stroke="#258017" stroke-width="1.4" stroke-linecap="round" stroke-linejoin="round"/>
<path d="M14.6667 2.66699L8 9.34033L6 7.34033" stroke="#258017" stroke-width="1.4" stroke-linecap="round" stroke-linejoin="round"/>
</g>
<defs>
<clipPath id="clip0_7378_88562">
<rect width="16" height="16" fill="white"/>
</clipPath>
</defs>
</svg>
