<svg width="14" height="16" viewBox="0 0 14 16" fill="none" xmlns="http://www.w3.org/2000/svg">
<path d="M13.6886 8.43719C14.4086 13.4666 10.1236 13.8459 9.50365 14.1341C8.10802 14.6209 6.9874 15.5391 6.9874 15.5391C6.9874 15.5391 6.07552 14.7422 4.70865 14.1341C4.06302 13.8678 -0.646352 13.4503 0.0748977 8.43719C0.226773 7.71531 1.06115 7.10781 1.06115 5.89219C1.06115 4.67656 0.0361478 3.27156 0.0361478 3.27156L2.96115 0.460938C2.96115 0.460938 3.98677 1.18406 4.89865 1.18406C5.81052 1.18406 6.9874 0.460938 6.9874 0.460938C6.9874 0.460938 8.1649 1.18406 9.03802 1.18406C9.91177 1.18406 10.9755 0.460938 10.9755 0.460938L13.7049 3.23406C13.7049 3.23406 12.6799 4.67969 12.6799 5.89281C12.6799 7.10594 13.5055 7.67844 13.6886 8.43719ZM6.94615 2.96031C4.38052 2.96031 2.30052 5.23344 2.30052 7.79906C2.30052 10.3647 4.3799 12.2509 6.94615 12.2509C9.51115 12.2509 11.5918 10.3647 11.5918 7.79906C11.5911 5.23344 9.51115 2.96031 6.94615 2.96031ZM6.97177 11.9797C4.5774 11.9797 2.63552 10.0391 2.63552 7.64406C2.63552 5.24969 4.57677 3.30844 6.97177 3.30844C9.36677 3.30844 11.3074 5.24906 11.3074 7.64406C11.3068 10.0391 9.36615 11.9797 6.97177 11.9797ZM9.58615 5.68719C9.33865 5.68719 9.13927 5.88594 9.1349 6.13219H7.89427L7.24302 5.00406C7.3674 4.92344 7.4549 4.78969 7.4549 4.63031C7.4549 4.38031 7.2524 4.17719 7.00177 4.17719C6.75115 4.17719 6.54865 4.37969 6.54865 4.63031C6.54865 4.80094 6.6474 4.94531 6.78802 5.02219L6.1474 6.13156H4.86865C4.86427 5.88531 4.6649 5.68656 4.4174 5.68656C4.1674 5.68656 3.96427 5.88906 3.96427 6.13906C3.96427 6.38906 4.16677 6.59219 4.4174 6.59219C4.49802 6.59219 4.5699 6.56531 4.63552 6.52844L5.27677 7.63906L4.6274 8.76344C4.56365 8.72906 4.49427 8.70469 4.4174 8.70469C4.1674 8.70469 3.96427 8.90719 3.96427 9.15781C3.96427 9.40656 4.16677 9.60969 4.4174 9.60969C4.66677 9.60969 4.8699 9.40719 4.8699 9.15781C4.8699 9.15281 4.86802 9.15031 4.86802 9.14531H6.1474L6.79552 10.2697C6.65115 10.3441 6.54865 10.4916 6.54865 10.6666C6.54865 10.9166 6.75115 11.1197 7.00177 11.1197C7.2524 11.1197 7.4549 10.9172 7.4549 10.6666C7.4549 10.5028 7.36365 10.3672 7.2349 10.2884L7.89427 9.14594H9.11677C9.11677 9.15094 9.11427 9.15344 9.11427 9.15844C9.11427 9.40719 9.3174 9.61031 9.5674 9.61031C9.8174 9.61031 10.0205 9.40781 10.0205 9.15844C10.0205 8.90844 9.81802 8.70531 9.5674 8.70531C9.50802 8.70531 9.45115 8.71781 9.39927 8.73844L8.76427 7.63969L9.3949 6.54719C9.45365 6.57469 9.51677 6.59219 9.58615 6.59219C9.83615 6.59219 10.0393 6.38969 10.0393 6.13906C10.0393 5.89031 9.83677 5.68719 9.58615 5.68719Z" fill="#C4C4C4"/>
</svg>
