<svg width="16" height="17" viewBox="0 0 16 17" fill="none" xmlns="http://www.w3.org/2000/svg">
    <path fill-rule="evenodd" clip-rule="evenodd" d="m6.25 13.852 5.858-7.575c.319-.409.432-.88.326-1.362-.092-.437-.36-.852-.764-1.168l-.983-.781c-.856-.68-1.918-.61-2.526.172l-.658.854a.252.252 0 0 0 .043.35l1.697 1.362a.7.7 0 0 1 .22.422.63.63 0 0 1-.545.696.564.564 0 0 1-.432-.122L6.74 5.31a.209.209 0 0 0-.283.035L2.303 10.72c-.268.337-.36.774-.268 1.197l.53 2.3a.267.267 0 0 0 .262.208l2.334-.028c.425-.008.821-.201 1.09-.545zm3.27-.716h3.806c.372 0 .674.306.674.682a.678.678 0 0 1-.674.682H9.52a.678.678 0 0 1-.674-.682c0-.377.302-.682.674-.682z" fill="#000"/>
</svg>
