<svg width="22" height="22" viewBox="0 0 22 22" fill="none" xmlns="http://www.w3.org/2000/svg">
<path fill-rule="evenodd" clip-rule="evenodd" d="M10.7813 19.116C8.79152 17.8914 6.94051 16.4502 5.26134 14.8181C4.08081 13.6427 3.18208 12.2098 2.634 10.6291C1.64771 7.56278 2.79976 4.05242 6.02385 3.01356C7.7183 2.46807 9.5689 2.77984 10.9967 3.85135C12.4251 2.78114 14.2751 2.46948 15.9696 3.01356C19.1937 4.05242 20.3541 7.56278 19.3678 10.6291C18.8197 12.2098 17.921 13.6427 16.7404 14.8181C15.0613 16.4502 13.2103 17.8914 11.2205 19.116L11.005 19.25L10.7813 19.116Z" stroke="black" stroke-width="1.5" stroke-linecap="round" stroke-linejoin="round"/>
<path d="M14.4277 6.46484C15.4043 6.77679 16.0981 7.65349 16.1848 8.685" stroke="black" stroke-width="1.5" stroke-linecap="round" stroke-linejoin="round"/>
</svg>
