<svg width="12" height="15" viewBox="0 0 12 15" fill="none" xmlns="http://www.w3.org/2000/svg">
<path d="M9.5699 10.2872C9.10497 10.2872 8.67191 10.4223 8.30674 10.6547L4.6213 8.08172C4.68047 7.87518 4.71281 7.65732 4.71281 7.43181C4.71281 7.20626 4.68047 6.9884 4.6213 6.7819L8.20724 4.27831C8.592 4.5516 9.06196 4.71285 9.56986 4.71285C10.8713 4.71285 11.9263 3.65783 11.9263 2.35644C11.9263 1.05505 10.8713 0 9.5699 0C8.2685 0 7.21349 1.05501 7.21349 2.35641C7.21349 2.52828 7.23239 2.69567 7.26732 2.85708L3.59033 5.42425C3.2314 5.20318 2.8089 5.0754 2.35641 5.0754C1.05501 5.0754 0 6.13041 0 7.43181C0 8.7332 1.05498 9.78821 2.35641 9.78821C2.80887 9.78821 3.2314 9.66043 3.59033 9.43937L7.29571 12.0264C7.24243 12.2232 7.21349 12.43 7.21349 12.6436C7.21349 13.945 8.2685 15 9.5699 15C10.8713 15 11.9263 13.945 11.9263 12.6436C11.9263 11.3422 10.8713 10.2872 9.5699 10.2872Z" fill="black"/>
</svg>
