<svg width="14" height="18" viewBox="0 0 14 18" fill="none" xmlns="http://www.w3.org/2000/svg">
<path fill-rule="evenodd" clip-rule="evenodd" d="M12.4431 16.1085V2.93848C12.4475 2.42865 12.2491 1.938 11.8916 1.57446C11.5341 1.21092 11.0469 1.00428 10.5371 1H2.9128C2.40297 1.00428 1.91573 1.21092 1.55826 1.57446C1.2008 1.938 1.0024 2.42865 1.00672 2.93848V16.1085C0.961411 16.4888 1.14811 16.8592 1.48072 17.0491C1.81334 17.2388 2.22726 17.2111 2.53158 16.9787L6.15308 13.8517C6.47959 13.5571 6.97603 13.5571 7.30244 13.8517L10.9184 16.9796C11.2228 17.2122 11.637 17.24 11.9697 17.0498C12.3024 16.8598 12.489 16.489 12.4431 16.1085Z" stroke="#2E5BFF" stroke-width="1.5" stroke-linecap="round" stroke-linejoin="round"/>
</svg>
