<svg width="16" height="16" viewBox="0 0 16 16" fill="none" xmlns="http://www.w3.org/2000/svg">
<path fill-rule="evenodd" clip-rule="evenodd" d="M10.9406 1.84579L10.9412 2.34554C12.7777 2.48946 13.9908 3.74084 13.9927 5.65988L14 11.2771C14.0026 13.3693 12.6882 14.6567 10.5812 14.66L5.43459 14.6667C3.3408 14.6694 2.00988 13.3514 2.00724 11.2531L2 5.70185C1.99737 3.77016 3.16768 2.52211 5.00411 2.35353L5.00346 1.85378C5.0028 1.5606 5.22001 1.34004 5.50963 1.34004C5.79924 1.33937 6.01645 1.55926 6.01711 1.85245L6.01777 2.31888L9.92759 2.31355L9.92693 1.84712C9.92627 1.55393 10.1435 1.33404 10.4331 1.33338C10.7161 1.33271 10.9399 1.5526 10.9406 1.84579ZM3.01432 5.90775L12.9797 5.89442V5.66121C12.9514 4.22859 12.2327 3.47697 10.9426 3.36502L10.9432 3.8781C10.9432 4.16462 10.7201 4.39184 10.437 4.39184C10.1474 4.39251 9.92956 4.16596 9.92956 3.87943L9.9289 3.3397L6.01908 3.34503L6.01974 3.8841C6.01974 4.17129 5.80319 4.39784 5.51357 4.39784C5.22396 4.39851 5.00609 4.17262 5.00609 3.88543L5.00543 3.37235C3.7219 3.50096 3.01168 4.25524 3.01366 5.70052L3.01432 5.90775ZM10.1599 8.93623V8.94356C10.1665 9.25008 10.4166 9.48263 10.7201 9.47596C11.0163 9.46863 11.2526 9.21476 11.246 8.90825C11.2322 8.61506 10.9946 8.37585 10.699 8.37651C10.3962 8.38318 10.1593 8.62972 10.1599 8.93623ZM10.7036 11.9281C10.4008 11.9214 10.1566 11.6689 10.156 11.3624C10.1494 11.0558 10.3923 10.802 10.6951 10.7946H10.7017C11.011 10.7946 11.2618 11.0472 11.2618 11.3604C11.2625 11.6735 11.0123 11.9274 10.7036 11.9281ZM7.44808 8.94689C7.46124 9.25341 7.71202 9.49262 8.0148 9.47929C8.311 9.4653 8.5473 9.21209 8.53414 8.90558C8.5269 8.60573 8.28336 8.37252 7.98716 8.37318C7.68438 8.38651 7.44742 8.64038 7.44808 8.94689ZM8.01744 11.8981C7.71466 11.9114 7.46453 11.6722 7.45071 11.3657C7.45071 11.0592 7.68701 10.806 7.98979 10.792C8.28599 10.7913 8.53019 11.0245 8.53677 11.3237C8.55059 11.6309 8.31364 11.8841 8.01744 11.8981ZM4.73622 8.97022C4.74938 9.27673 5.00016 9.51661 5.30294 9.50262C5.59914 9.48929 5.83544 9.23542 5.82162 8.9289C5.81504 8.62905 5.5715 8.39584 5.27464 8.3965C4.97186 8.40983 4.73556 8.6637 4.73622 8.97022ZM5.30558 11.9014C5.0028 11.9154 4.75267 11.6755 4.73885 11.369C4.73819 11.0625 4.97515 10.8086 5.27793 10.7953C5.57413 10.7946 5.81833 11.0279 5.82491 11.3277C5.83873 11.6342 5.60243 11.8881 5.30558 11.9014Z" fill="black"/>
</svg>
