<svg width="16" height="16" viewBox="0 0 16 16" fill="none" xmlns="http://www.w3.org/2000/svg">
<path d="M13.8333 3H2.16667C1.24619 3 0.5 3.74619 0.5 4.66667V13.8333C0.5 14.7538 1.24619 15.5 2.16667 15.5H13.8333C14.7538 15.5 15.5 14.7538 15.5 13.8333V4.66667C15.5 3.74619 14.7538 3 13.8333 3Z" stroke="#C4C4C4"/>
<path d="M0.5 6.33334C0.5 4.76198 0.5 3.97631 0.988158 3.48816C1.47631 3 2.26198 3 3.83333 3H12.1667C13.738 3 14.5237 3 15.0118 3.48816C15.5 3.97631 15.5 4.76198 15.5 6.33334H0.5Z" fill="#C4C4C4"/>
<path d="M3.83398 0.5V3" stroke="#C4C4C4" stroke-linecap="round"/>
<path d="M12.166 0.5V3" stroke="#C4C4C4" stroke-linecap="round"/>
<path d="M6.875 7.5H3.125C2.77982 7.5 2.5 7.83579 2.5 8.25V9.75C2.5 10.1642 2.77982 10.5 3.125 10.5H6.875C7.22018 10.5 7.5 10.1642 7.5 9.75V8.25C7.5 7.83579 7.22018 7.5 6.875 7.5Z" fill="#C4C4C4"/>
<path d="M6.875 11.5H3.125C2.77982 11.5 2.5 11.8358 2.5 12.25V13.75C2.5 14.1642 2.77982 14.5 3.125 14.5H6.875C7.22018 14.5 7.5 14.1642 7.5 13.75V12.25C7.5 11.8358 7.22018 11.5 6.875 11.5Z" fill="#C4C4C4"/>
<path d="M12.875 7.5H9.125C8.77982 7.5 8.5 7.83579 8.5 8.25V9.75C8.5 10.1642 8.77982 10.5 9.125 10.5H12.875C13.2202 10.5 13.5 10.1642 13.5 9.75V8.25C13.5 7.83579 13.2202 7.5 12.875 7.5Z" fill="#C4C4C4"/>
<path d="M12.875 11.5H9.125C8.77982 11.5 8.5 11.8358 8.5 12.25V13.75C8.5 14.1642 8.77982 14.5 9.125 14.5H12.875C13.2202 14.5 13.5 14.1642 13.5 13.75V12.25C13.5 11.8358 13.2202 11.5 12.875 11.5Z" fill="#C4C4C4"/>
</svg>
