<svg width="15" height="14" viewBox="0 0 15 14" fill="none" xmlns="http://www.w3.org/2000/svg">
<path d="M11.6109 8.58483C11.1631 8.4885 10.8088 8.69641 10.4952 8.87798C10.1739 9.0651 9.56311 9.56061 9.21298 9.43378C7.42039 8.69572 5.73443 7.12672 5.0046 5.32695C4.87597 4.96935 5.36917 4.35464 5.55489 4.02961C5.73512 3.71498 5.93873 3.35738 5.84586 2.90623C5.76194 2.50081 4.67649 1.11962 4.29266 0.741927C4.03952 0.49244 3.78019 0.355222 3.51399 0.333045C2.51314 0.290078 1.39535 1.62553 1.19931 1.94501C0.708171 2.62625 0.710923 3.53272 1.20756 4.63185C2.40446 7.58411 6.93132 12.0395 9.89466 13.2814C10.4415 13.5372 10.9416 13.6654 11.3908 13.6654C11.8303 13.6654 12.2217 13.5427 12.5581 13.2994C12.8119 13.1532 14.2021 11.9799 14.1656 10.9522C14.1436 10.6902 14.0067 10.4283 13.7605 10.1746C13.3856 9.78722 12.0133 8.66938 11.6109 8.58483Z" fill="#2E5BFF"/>
</svg>
