<svg width="21" height="20" viewBox="0 0 21 20" fill="none" xmlns="http://www.w3.org/2000/svg">
<path d="M15.6403 11.983C15.0806 11.8626 14.6378 12.1225 14.2457 12.3494C13.8441 12.5833 13.0806 13.2027 12.6429 13.0442C10.4022 12.1216 8.29474 10.1604 7.38246 7.91064C7.22167 7.46364 7.83817 6.69525 8.07033 6.28897C8.2956 5.89568 8.55012 5.44868 8.43404 4.88474C8.32914 4.37797 6.97232 2.65148 6.49253 2.17936C6.17611 1.8675 5.85195 1.69598 5.51919 1.66826C4.26813 1.61455 2.8709 3.28386 2.62585 3.68322C2.01192 4.53476 2.01536 5.66785 2.63616 7.04176C4.13228 10.7321 9.79086 16.3014 13.495 17.8537C14.1786 18.1734 14.8037 18.3337 15.3652 18.3337C15.9146 18.3337 16.4039 18.1803 16.8243 17.8763C17.1416 17.6935 18.8793 16.2269 18.8338 14.9422C18.8062 14.6147 18.6351 14.2873 18.3273 13.9702C17.8587 13.486 16.1433 12.0887 15.6403 11.983Z" fill="#2E5BFF"/>
</svg>
