<svg width="16" height="16" viewBox="0 0 16 16" fill="none" xmlns="http://www.w3.org/2000/svg">
<path fill-rule="evenodd" clip-rule="evenodd" d="M11.7593 4.73983V4.73983C11.5107 4.73983 11.2853 4.5965 11.1793 4.3725C10.988 3.96717 10.7447 3.44917 10.6007 3.16717C10.388 2.74783 10.0433 2.50383 9.56598 2.5005C9.55798 2.49983 6.44332 2.49983 6.43532 2.5005C5.95798 2.50383 5.61398 2.74783 5.40065 3.16717C5.25732 3.44917 5.01398 3.96717 4.82265 4.3725C4.71665 4.5965 4.49065 4.73983 4.24265 4.73983V4.73983C2.91198 4.73983 1.83398 5.81783 1.83398 7.14783V11.1052C1.83398 12.4345 2.91198 13.5132 4.24265 13.5132H11.7593C13.0893 13.5132 14.1673 12.4345 14.1673 11.1052V7.14783C14.1673 5.81783 13.0893 4.73983 11.7593 4.73983Z" stroke="white" stroke-linecap="round" stroke-linejoin="round"/>
<path fill-rule="evenodd" clip-rule="evenodd" d="M5.88093 8.88989C5.88026 10.0586 6.83426 11.0146 8.00093 11.0139C9.16559 11.0126 10.1169 10.0606 10.1189 8.89456C10.1209 7.72389 9.17026 6.76989 8.00226 6.76856C6.82759 6.76722 5.87159 7.73722 5.88093 8.88989Z" stroke="white" stroke-linecap="round" stroke-linejoin="round"/>
<path d="M11.2696 7.33006C11.2052 7.32345 11.1416 7.30664 11.0704 7.27796C10.9911 7.24275 10.9225 7.19796 10.8562 7.13057C10.737 7.0038 10.668 6.83802 10.668 6.66699C10.668 6.57614 10.6865 6.4861 10.7228 6.40454C10.7592 6.3219 10.8022 6.25219 10.8801 6.17637C10.9393 6.12479 11 6.08329 11.0829 6.04675C11.3288 5.94931 11.6214 6.00753 11.8042 6.19027C11.859 6.24426 11.9051 6.3094 11.9307 6.36434L11.9459 6.40329C11.9827 6.4861 12.0013 6.57614 12.0013 6.66699C12.0013 6.84148 11.9332 7.00285 11.8067 7.13718C11.6974 7.2472 11.5539 7.31487 11.4008 7.33006L11.3346 7.33333L11.2696 7.33006Z" fill="white"/>
</svg>
