<svg width="16" height="16" viewBox="0 0 16 16" fill="none" xmlns="http://www.w3.org/2000/svg">
    <path fill-rule="evenodd" clip-rule="evenodd" d="M2.75 1.333h10.497c.783 0 1.418.655 1.418 1.462v1.021c0 .392-.153.768-.424 1.042L9.904 9.245a.39.39 0 0 1-.282.118l-3.63-.011a.394.394 0 0 1-.292-.13L1.715 4.838a1.486 1.486 0 0 1-.383-1V2.797c0-.808.635-1.462 1.419-1.462zm3.435 9.217 3.237.01c.202 0 .365.17.365.376v1.821a.533.533 0 0 1-.302.483l-2.938 1.38a.508.508 0 0 1-.492-.037.535.535 0 0 1-.237-.447v-3.21c0-.208.165-.377.367-.376z" fill="#000"/>
</svg>
