<svg width="24" height="24" viewBox="0 0 24 24" fill="none" xmlns="http://www.w3.org/2000/svg">
<g clip-path="url(#clip0_7544_129512)">
<path d="M0.703122 24.0002H13.4536C13.842 24.0002 14.1567 23.6854 14.1567 23.297V21.797C14.1567 20.8804 13.5688 20.0987 12.7505 19.8085V18.8936C12.7505 17.7805 11.8449 16.875 10.7318 16.875H3.42497C2.31188 16.875 1.40624 17.7805 1.40624 18.8936V19.8085C0.587949 20.0987 0 20.8804 0 21.797V23.297C0 23.6854 0.314757 24.0002 0.703122 24.0002ZM3.42497 18.2812H10.7318C11.0694 18.2812 11.3443 18.5559 11.3443 18.8936V19.6877H2.81267V18.8936C2.81267 18.5559 3.08733 18.2812 3.42497 18.2812ZM1.40624 21.797C1.40624 21.4092 1.72173 21.0939 2.10937 21.0939H12.0472C12.435 21.0939 12.7505 21.4092 12.7505 21.797V22.5939H1.40624V21.797Z" fill="black" fill-opacity="0.6"/>
<path d="M8.09944 14.6381C8.79688 15.5644 10.1215 15.7563 11.0535 15.0546C11.6742 14.5874 11.963 13.841 11.8784 13.12C12.483 13.0171 13.0673 12.8488 13.6228 12.6219L20.2062 21.3661C20.9038 22.293 22.2285 22.4839 23.1602 21.7826C24.0893 21.083 24.2762 19.7579 23.5766 18.8286L16.9934 10.0844C17.3647 9.61332 17.6879 9.09861 17.954 8.54618C18.6316 8.83036 19.4276 8.74998 20.0414 8.28782C20.9706 7.58818 21.1576 6.26305 20.4579 5.33379L17.0745 0.839852C16.3749 -0.0894044 15.0497 -0.276171 14.1205 0.423472C13.4998 0.890755 13.211 1.63691 13.2956 2.35797C10.6461 2.80933 8.38709 4.50982 7.22035 6.93101C6.54396 6.64739 5.75148 6.72429 5.13259 7.19011C4.20113 7.8914 4.01473 9.21268 4.71602 10.1441L8.09944 14.6381ZM16.0162 11.1247L16.9551 12.3718L15.8316 13.2176L14.8926 11.9706C15.2905 11.721 15.6663 11.438 16.0162 11.1247ZM22.3142 20.6591C22.0044 20.8924 21.5628 20.8301 21.3295 20.5203L16.6774 14.3411L17.8009 13.4953L22.453 19.6744C22.6863 19.9842 22.6239 20.4258 22.3142 20.6591ZM14.9664 1.547C15.2772 1.31299 15.7186 1.37708 15.9512 1.6858L19.3344 6.17974C19.5677 6.48937 19.5054 6.9312 19.1956 7.16429C18.8852 7.39811 18.4449 7.33604 18.211 7.0255L14.8276 2.53156C14.5944 2.22174 14.6566 1.78009 14.9664 1.547ZM13.9376 3.68731C14.2421 4.09198 16.5444 7.15019 16.8541 7.56126C15.8944 9.89402 13.7444 11.5132 11.2366 11.7906L8.32008 7.91648C9.28083 5.58098 11.4274 3.96508 13.9376 3.68731ZM5.97853 8.31364C6.28816 8.08036 6.7289 8.14134 6.96309 8.45243L10.3465 12.9464C10.3465 12.9464 10.3465 12.9464 10.3465 12.9466C10.5796 13.2562 10.5173 13.6978 10.2077 13.9311C9.89789 14.1642 9.45624 14.1019 9.22297 13.7923L5.83955 9.29838C5.60591 8.98783 5.66799 8.54746 5.97853 8.31364Z" fill="black" fill-opacity="0.6"/>
</g>
<defs>
<clipPath id="clip0_7544_129512">
<rect width="24" height="24" fill="white"/>
</clipPath>
</defs>
</svg>
