<svg width="24" height="24" viewBox="0 0 24 24" fill="none" xmlns="http://www.w3.org/2000/svg">
    <path clip-rule="evenodd" d="M21.525 9.753a8.311 8.311 0 0 0-7.963-6.975.714.714 0 0 0-.742.686v.064l.449 6.71c.03.452.418.795.87.769l6.727-.449a.714.714 0 0 0 .66-.769v-.036z" stroke="#000" stroke-opacity=".6" stroke-width="1.5" stroke-linecap="round" stroke-linejoin="round"/>
    <path d="M8.903 6.769a.915.915 0 0 1 1.043.522.824.824 0 0 1 .083.302c.091 1.3.284 4.146.393 5.684a1.044 1.044 0 0 0 1.117.97v0l5.648-.348a.915.915 0 0 1 .97.916v0a7.698 7.698 0 0 1-14.426 3.194 7.322 7.322 0 0 1-.915-2.8 4.722 4.722 0 0 1-.055-.916 7.707 7.707 0 0 1 6.133-7.524" stroke="#000" stroke-opacity=".6" stroke-width="1.5" stroke-linecap="round" stroke-linejoin="round"/>
</svg>
