<svg width="200" height="200" viewBox="0 0 200 200" fill="none" xmlns="http://www.w3.org/2000/svg">
<mask id="mask0_8452_70414" style="mask-type:luminance" maskUnits="userSpaceOnUse" x="0" y="0" width="200" height="200">
<path d="M200 100C200 155.229 155.229 200 100 200C44.7713 200 0 155.229 0 100C0 44.7713 44.7713 0 100 0C155.229 0 200 44.7713 200 100Z" fill="white"/>
</mask>
<g mask="url(#mask0_8452_70414)">
<path d="M199.999 100.001C199.999 155.215 155.228 199.987 100.014 199.987C44.7635 199.987 -0.0078125 155.215 -0.0078125 100.001C-0.0078125 44.7869 44.7635 0.015625 100.014 0.015625C155.228 0.015625 199.999 44.7869 199.999 100.001Z" fill="#2E5BFF" fill-opacity="0.05"/>
</g>
<path d="M105.689 81.707H79.9212C78.1332 81.707 76.6758 83.1645 76.6758 84.9675V139.193C76.6758 140.981 78.1332 142.439 79.9212 142.439H105.689C107.492 142.439 108.95 140.981 108.95 139.193V84.9675C108.95 83.1645 107.492 81.707 105.689 81.707Z" fill="#214357"/>
<path d="M73.9082 98.7302C73.9082 98.7302 74.5693 99.241 75.2605 100.037C76.3423 101.269 76.2371 101.299 76.6879 102.321V98.625L73.9082 98.7302Z" fill="#F4AD6F"/>
<path d="M106.861 136.19H78.644V87.9141H106.861V136.19Z" fill="#AAC8FF"/>
<path d="M99.0061 85.7807H89.976C89.6455 85.7807 89.375 85.5253 89.375 85.1948C89.375 84.8642 89.6455 84.5938 89.976 84.5938H99.0061C99.3217 84.5938 99.5921 84.8642 99.5921 85.1948C99.5921 85.5253 99.3217 85.7807 99.0061 85.7807Z" fill="#2D5B75"/>
<path d="M87.8761 85.1954C87.8761 85.7213 87.4404 86.172 86.8995 86.172C86.3586 86.172 85.9229 85.7213 85.9229 85.1954C85.9229 84.6545 86.3586 84.2188 86.8995 84.2188C87.4404 84.2188 87.8761 84.6545 87.8761 85.1954Z" fill="#356975"/>
<path d="M94.7382 139.255C94.7382 140.336 93.8667 141.208 92.8 141.208C91.7181 141.208 90.8467 140.336 90.8467 139.255C90.8467 138.188 91.7181 137.316 92.8 137.316C93.8667 137.316 94.7382 138.188 94.7382 139.255Z" fill="#2D5B75"/>
<path d="M94.4327 139.255C94.4327 140.156 93.6965 140.893 92.795 140.893C91.8935 140.893 91.1572 140.156 91.1572 139.255C91.1572 138.353 91.8935 137.617 92.795 137.617C93.6965 137.617 94.4327 138.353 94.4327 139.255Z" fill="#214357"/>
<path d="M94.9809 95.0195H81.6386C81.278 95.0195 80.9925 95.305 80.9925 95.6656V95.9962L79.52 96.8526L80.9925 97.694V98.0696C80.9925 98.4303 81.278 98.7157 81.6386 98.7157H94.9809C95.3265 98.7157 95.627 98.4303 95.627 98.0696V95.6656C95.627 95.305 95.3265 95.0195 94.9809 95.0195Z" fill="white"/>
<path d="M90.2965 103.961H103.624C103.984 103.961 104.285 103.661 104.285 103.3V102.985L105.757 102.128L104.285 101.272V100.911C104.285 100.551 103.984 100.25 103.624 100.25H90.2965C89.9359 100.25 89.6504 100.551 89.6504 100.911V103.3C89.6504 103.661 89.9359 103.961 90.2965 103.961Z" fill="#2E5BFF"/>
<path d="M90.2965 108.681H103.624C103.984 108.681 104.285 108.38 104.285 108.034V107.704L105.757 106.848L104.285 106.006V105.63C104.285 105.27 103.984 104.984 103.624 104.984H90.2965C89.9359 104.984 89.6504 105.27 89.6504 105.63V108.034C89.6504 108.38 89.9359 108.681 90.2965 108.681Z" fill="#2E5BFF"/>
<path d="M100.751 110.633H82.1194C81.5484 110.633 81.0977 111.099 81.0977 111.655V111.685L79.52 112.601L81.0977 113.503V116.207C81.0977 116.778 81.5484 117.244 82.1194 117.244H100.751C101.322 117.244 101.787 116.778 101.787 116.207V111.655C101.787 111.099 101.322 110.633 100.751 110.633Z" fill="white"/>
<path d="M84.6295 123.57H103.261C103.817 123.57 104.282 124.021 104.282 124.592V124.622L105.86 125.524L104.282 126.44V129.145C104.282 129.716 103.817 130.181 103.261 130.181H84.6295C84.0586 130.181 83.5928 129.716 83.5928 129.145V124.592C83.5928 124.021 84.0586 123.57 84.6295 123.57Z" fill="#2E5BFF"/>
<path d="M95.041 118.699H81.7137C81.3531 118.699 81.0676 118.985 81.0676 119.345V119.661L79.52 120.547L81.0676 121.449V121.749C81.0676 122.11 81.3531 122.395 81.7137 122.395H95.041C95.4016 122.395 95.7021 122.11 95.7021 121.749V119.345C95.7021 118.985 95.4016 118.699 95.041 118.699Z" fill="white"/>
<path d="M106.861 92.8724H78.644V87.9141H106.861V92.8724Z" fill="#A7F0EF"/>
<path d="M106.861 136.189H78.644V132.312H106.861V136.189Z" fill="white"/>
<path opacity="0.3" d="M85.7059 116.793C85.7059 116.793 83.0014 117.92 80.5523 119.062C79.5456 119.543 78.1032 120.459 76.6758 121.586V139.196C76.6758 140.984 78.1332 142.441 79.9212 142.441H80.5823C81.4388 139.12 79.9513 132.434 79.9963 131.488C80.0414 130.331 81.0481 127.085 84.5039 122.983C87.9597 118.896 85.7059 116.793 85.7059 116.793Z" fill="black"/>
<path opacity="0.3" d="M105.252 139.675C103.689 140.847 102.337 142.439 102.337 142.439H105.688C107.491 142.439 108.948 140.982 108.948 139.194V131.621C106.138 129.578 102.397 128 102.397 128C102.397 128 100.624 131.892 103.734 134.04C106.86 136.189 106.86 138.473 105.252 139.675Z" fill="black"/>
<path d="M76.6857 113.078V98.6242C76.6857 98.6242 75.6189 98.489 72.0278 98.8796C69.0679 99.2102 67.1146 103.402 64.981 106.032C62.9076 108.556 56.4768 113.123 55.0494 116.204C51.6687 123.431 51.5786 130.568 50.7973 135.721C50.016 140.875 48.9492 153.136 49.7305 156.005C50.5268 158.86 48.6787 163.683 48.6787 163.683L63.764 168.732C63.764 168.732 65.3116 165.081 67.2498 162.977C69.1731 160.874 73.8008 156.591 75.5588 152.024C77.1214 148.012 77.5421 141.386 77.5421 141.386C77.5421 141.386 77.5421 141.386 77.1064 140.8C76.6857 140.214 76.7007 139.553 76.7007 139.553L76.6857 129.997C76.6857 129.997 79.7959 123.716 82.7108 121.297C86.7075 117.962 86.6173 113.559 83.9729 112.402C81.7642 111.456 76.6857 115.948 76.6857 115.948V113.078Z" fill="#FFC999"/>
<path d="M76.6893 114.82C76.6893 114.82 70.4989 120.305 69.0715 121.522C67.6441 122.724 65.3152 124.466 64.609 125.864C63.5272 128.042 62.5205 134.353 62.5205 134.353C62.5205 134.353 64.2785 126.976 67.1032 124.376C69.2818 122.393 76.6893 115.917 76.6893 115.917V114.82Z" fill="#F4AD6F"/>
<path d="M69.5957 113.486C69.3103 113.771 67.958 114.748 66.6959 114.508C65.554 114.297 64.6675 113.696 64.6675 113.696C64.6675 113.696 65.3436 114.718 66.4104 115.454C67.2819 116.055 67.387 116.761 67.4622 117.257C67.8228 119.977 67.4471 122.892 67.4471 122.892L68.3787 122.095C68.3787 122.276 68.3637 122.381 68.3637 122.381L73.0666 118.685L76.5224 115.574L76.6876 114.823V108.272V107.927V104.23C76.6876 104.23 72.105 111.112 69.5957 113.486Z" fill="#F4AD6F"/>
<path d="M84.1394 114.627C84.0042 114.116 82.7872 112.449 81.9307 112.539C80.3381 113.11 78.49 114.477 77.4683 115.303C77.4683 115.303 77.7237 116.806 79.707 116.776C81.7054 116.761 84.2747 115.123 84.1394 114.627Z" fill="#FEE2AD"/>
<path d="M77.1064 140.799C76.6857 140.213 76.7007 139.552 76.7007 139.552L76.6857 129.996C76.6857 129.996 75.4536 132.009 75.3935 133.662C75.3334 135.33 75.8743 143.399 75.3184 145.247C75.3184 145.257 75.3184 145.262 75.3184 145.262C75.2883 145.362 75.2683 145.437 75.2583 145.487C74.6272 147.711 73.8759 150.025 73.2148 151.212C71.6973 153.901 69.5487 156.125 67.4902 157.853C65.4168 159.566 65.1914 163.878 61.8558 163.953C53.5018 164.148 49.7455 159.671 49.7455 159.671C49.7255 159.801 49.7054 159.926 49.6854 160.046C49.6754 160.066 49.6704 160.087 49.6704 160.107C49.6503 160.207 49.6303 160.307 49.6103 160.407C49.6003 160.437 49.5952 160.467 49.5952 160.497C49.5752 160.597 49.5552 160.693 49.5351 160.783C49.5251 160.803 49.5201 160.823 49.5201 160.843C49.46 161.083 49.3999 161.314 49.3398 161.534C49.3398 161.544 49.3398 161.554 49.3398 161.564C49.3098 161.664 49.2847 161.759 49.2647 161.849C49.2547 161.87 49.2497 161.89 49.2497 161.91C49.2196 161.99 49.1946 162.07 49.1745 162.15C49.1745 162.17 49.1695 162.185 49.1595 162.195C49.0994 162.395 49.0443 162.576 48.9942 162.736C48.9942 162.746 48.9942 162.751 48.9942 162.751C48.9742 162.821 48.9542 162.891 48.9341 162.961C48.9241 162.971 48.9191 162.986 48.9191 163.006C48.8991 163.057 48.879 163.107 48.859 163.157C48.859 163.167 48.854 163.182 48.844 163.202C48.8039 163.312 48.7689 163.407 48.7388 163.487C48.7388 163.497 48.7388 163.507 48.7388 163.517C48.7288 163.547 48.7188 163.572 48.7088 163.592C48.7088 163.602 48.7038 163.612 48.6937 163.622C48.6937 163.632 48.6887 163.647 48.6787 163.668C48.6787 163.678 48.6787 163.683 48.6787 163.683L63.3733 168.611L63.764 168.731C63.764 168.731 65.3116 165.08 67.2498 162.976C69.1731 160.873 73.8008 156.591 75.5588 152.023C77.1214 148.011 77.5421 141.385 77.5421 141.385C77.5421 141.385 77.5421 141.385 77.1064 140.799Z" fill="#F4AD6F"/>
<path d="M77.4683 115.301C77.4683 115.301 77.6335 116.233 78.6553 116.608C78.6452 116.428 78.6102 116.238 78.5501 116.037C78.2195 114.895 78.0843 114.82 78.0843 114.82C77.8589 114.986 77.6486 115.151 77.4683 115.301Z" fill="#FEFEFE"/>
<path d="M108.954 122.846V117.347C108.954 117.347 116.962 123.282 117.909 122.771C119.006 122.2 117.744 118.023 115.174 112.524C113.807 109.639 108.954 101.495 108.954 101.495C108.954 101.495 108.954 97.1681 108.954 95.9961C108.954 94.8241 111.869 95.0195 113.146 96.3868C115.43 98.8058 120.103 103.644 122.281 106.499C124.475 109.353 138.313 128.766 140.326 135.497C142.64 143.19 141.228 152.386 141.559 154.654C141.889 156.923 144.699 162.272 144.699 162.272L128.982 170.746C128.982 170.746 127.6 168.072 125.587 164.271C124.61 162.407 117.488 162.813 111.974 150.853C109.495 145.474 103.83 142.439 104.536 142.439C105.258 142.439 105.904 142.634 107.331 142.003C108.743 141.372 108.954 139.194 108.954 139.194V135.557C108.954 135.557 108.563 134.085 106.745 132.838C102.448 129.908 101.111 126.467 102.568 123.838C103.229 122.651 104.446 122.38 106.7 123.642C108.954 124.905 108.954 125.04 108.954 125.04V122.846Z" fill="#FFC999"/>
<path d="M107.318 142.004C106.762 142.259 106.311 142.38 105.951 142.425C106.447 142.395 106.912 142.244 107.318 142.004Z" fill="#FDD184"/>
<path d="M106.746 132.837C108.564 134.084 108.954 135.556 108.954 135.556V125.039C108.954 125.039 108.954 124.904 106.701 123.641C104.447 122.379 103.23 122.65 102.569 123.837C101.111 126.466 102.448 129.907 106.746 132.837Z" fill="#FDD184"/>
<path d="M108.204 141.265C108.67 140.709 108.955 139.973 108.955 139.191C108.955 139.191 108.835 140.393 108.204 141.265Z" fill="#FDD184"/>
<path d="M108.963 125.039C108.963 125.039 108.963 124.904 106.71 123.642C106.184 123.356 105.688 123.131 105.222 122.98C105.177 122.995 104.035 123.191 103.674 124.198C103.329 125.219 103.449 126.376 105.628 127.518C107.821 128.645 109.624 127.548 109.745 126.962C109.88 126.376 110.21 124.633 110.21 124.633C110.21 124.633 109.654 124.077 108.963 123.461V125.039Z" fill="#FEE2AD"/>
<path d="M144.709 162.273C144.709 162.273 144.423 161.732 144.033 160.936L143.447 159.779C143.447 159.779 135.543 164.692 131.291 164.197C127.941 163.791 127.7 162.634 126.138 161.687C123.268 159.959 119.331 158.232 117.198 155.617C115.064 152.988 111.428 146.196 110.977 143.116C110.376 139.029 108.964 135.559 108.964 135.559V139.195C108.964 139.195 108.949 139.33 108.904 139.54C108.894 139.6 108.884 139.66 108.874 139.721C108.708 140.412 108.318 141.569 107.341 142.004C106.981 142.17 106.665 142.275 106.395 142.35C106.324 142.36 106.259 142.375 106.199 142.395C106.069 142.415 105.949 142.435 105.839 142.455C105.553 142.485 105.313 142.47 105.087 142.47C104.907 142.455 104.727 142.44 104.546 142.44C104.411 142.44 104.501 142.545 104.757 142.756C104.887 142.866 105.052 142.996 105.253 143.146C105.343 143.226 105.443 143.307 105.553 143.387C105.673 143.477 105.799 143.577 105.929 143.687C106.44 144.093 107.056 144.604 107.702 145.205C108.769 146.196 109.941 147.444 110.932 148.946C111.022 149.096 111.117 149.247 111.218 149.397C111.498 149.858 111.754 150.343 111.984 150.854C112.144 151.195 112.304 151.525 112.465 151.846C112.485 151.896 112.51 151.941 112.54 151.981C112.69 152.292 112.84 152.587 112.991 152.868C113.021 152.928 113.051 152.983 113.081 153.033C113.241 153.323 113.401 153.604 113.562 153.874C113.572 153.904 113.587 153.934 113.607 153.964C113.777 154.235 113.942 154.5 114.102 154.761C114.113 154.771 114.118 154.781 114.118 154.791C114.288 155.051 114.453 155.302 114.613 155.542C114.643 155.582 114.668 155.617 114.688 155.647C114.849 155.878 115.014 156.108 115.184 156.338C115.204 156.358 115.224 156.384 115.244 156.414C115.415 156.644 115.585 156.864 115.755 157.075C115.936 157.305 116.116 157.52 116.296 157.721C116.296 157.721 116.301 157.726 116.311 157.736C116.481 157.936 116.657 158.126 116.837 158.307C116.847 158.327 116.857 158.342 116.867 158.352C117.037 158.532 117.213 158.707 117.393 158.878C117.393 158.888 117.393 158.893 117.393 158.893C117.513 159.003 117.628 159.113 117.739 159.223C117.759 159.243 117.784 159.263 117.814 159.283C117.904 159.374 117.999 159.464 118.099 159.554C118.119 159.564 118.134 159.579 118.144 159.599C118.264 159.699 118.38 159.794 118.49 159.884C118.5 159.894 118.51 159.904 118.52 159.914C118.62 159.995 118.72 160.075 118.82 160.155C118.85 160.175 118.875 160.195 118.896 160.215C118.996 160.295 119.101 160.375 119.211 160.455C119.211 160.455 119.211 160.46 119.211 160.47C119.331 160.55 119.446 160.631 119.557 160.711C119.567 160.721 119.582 160.731 119.602 160.741C119.692 160.811 119.787 160.876 119.887 160.936C119.897 160.956 119.912 160.971 119.932 160.981C120.153 161.121 120.363 161.257 120.563 161.387C120.583 161.397 120.603 161.407 120.623 161.417C120.714 161.477 120.804 161.537 120.894 161.597C120.904 161.597 120.914 161.602 120.924 161.612C121.034 161.672 121.139 161.732 121.239 161.793C121.34 161.843 121.44 161.898 121.54 161.958C121.55 161.958 121.56 161.963 121.57 161.973C121.77 162.083 121.966 162.183 122.156 162.273C122.156 162.273 122.161 162.278 122.171 162.288C122.261 162.328 122.351 162.369 122.441 162.409C122.441 162.419 122.446 162.424 122.456 162.424C122.952 162.664 123.403 162.874 123.809 163.055C123.839 163.065 123.864 163.075 123.884 163.085C123.924 163.105 123.964 163.125 124.004 163.145C124.054 163.165 124.109 163.19 124.169 163.22C124.189 163.23 124.214 163.24 124.244 163.25C124.285 163.27 124.32 163.29 124.35 163.31C124.38 163.32 124.405 163.33 124.425 163.34C124.475 163.37 124.525 163.4 124.575 163.43C124.585 163.43 124.595 163.435 124.605 163.445C124.655 163.465 124.7 163.49 124.74 163.52C124.76 163.53 124.78 163.541 124.8 163.551C124.83 163.571 124.866 163.591 124.906 163.611C124.916 163.621 124.926 163.631 124.936 163.641C124.986 163.661 125.031 163.686 125.071 163.716C125.081 163.726 125.091 163.736 125.101 163.746C125.131 163.766 125.161 163.786 125.191 163.806C125.211 163.816 125.226 163.826 125.236 163.836C125.266 163.866 125.296 163.891 125.326 163.911C125.326 163.921 125.331 163.931 125.341 163.941C125.371 163.971 125.401 164.001 125.431 164.031C125.441 164.041 125.447 164.051 125.447 164.061C125.477 164.081 125.502 164.106 125.522 164.136C125.522 164.147 125.527 164.157 125.537 164.167C125.557 164.197 125.577 164.232 125.597 164.272C126.363 165.699 127.024 166.961 127.565 167.998C127.645 168.168 127.73 168.329 127.82 168.479C128.557 169.906 128.992 170.748 128.992 170.748L144.709 162.273Z" fill="#F4AD6F"/>
<path d="M109.735 126.962C109.87 126.376 110.2 124.633 110.2 124.633C110.2 124.633 109.96 124.392 109.599 124.047C109.494 124.272 109.359 124.633 109.209 125.219C109.013 125.97 109.074 126.917 109.164 127.578C109.494 127.382 109.705 127.142 109.735 126.962Z" fill="#FEFEFE"/>
<path d="M120.188 131.874C116.883 128.974 113.607 126.48 114.388 124.632C115.095 122.964 116.838 124.632 118.115 125.519C119.948 126.796 123.118 128.494 123.118 128.494C123.118 128.494 121.18 125.849 120.654 124.572C120.128 123.28 119.272 121.266 119.106 119.674C118.926 118.081 118.1 116.068 117.799 115.286C117.033 113.273 121.886 112.071 121.886 112.071C121.886 112.071 118.956 112.612 118.385 112.492C117.814 112.357 116.417 112.071 115.575 110.223C115.17 109.352 114.223 107.548 112.856 105.46C112.014 104.183 116.417 102.936 116.417 102.936C116.417 102.936 111.684 103.732 111.444 103.161C110.437 100.832 108.964 98.0977 108.964 98.0977C108.964 99.6903 108.964 101.493 108.964 101.493C108.964 101.493 113.817 109.637 115.185 112.522C115.275 112.712 115.36 112.902 115.44 113.093C115.47 113.153 115.5 113.213 115.53 113.273C115.58 113.393 115.636 113.519 115.696 113.649C115.726 113.709 115.756 113.774 115.786 113.844C115.836 113.964 115.886 114.079 115.936 114.19C115.966 114.26 115.996 114.33 116.026 114.4C116.076 114.51 116.126 114.625 116.176 114.746C116.206 114.806 116.232 114.866 116.252 114.926C116.322 115.066 116.382 115.206 116.432 115.347C116.452 115.377 116.467 115.407 116.477 115.437C116.547 115.607 116.617 115.777 116.687 115.948C116.707 115.998 116.727 116.048 116.747 116.098C116.787 116.208 116.833 116.318 116.883 116.428C116.903 116.488 116.923 116.549 116.943 116.609C116.983 116.719 117.023 116.819 117.063 116.909C117.083 116.979 117.108 117.044 117.138 117.105C117.168 117.195 117.203 117.29 117.243 117.39C117.263 117.45 117.283 117.505 117.303 117.555C117.343 117.665 117.378 117.771 117.409 117.871C117.429 117.921 117.444 117.966 117.454 118.006C117.504 118.146 117.554 118.286 117.604 118.427C117.614 118.457 117.624 118.487 117.634 118.517C117.664 118.627 117.699 118.732 117.739 118.832C117.749 118.882 117.759 118.933 117.769 118.983C117.799 119.063 117.824 119.148 117.844 119.238C117.864 119.288 117.879 119.333 117.889 119.373C117.919 119.453 117.944 119.534 117.964 119.614C117.974 119.664 117.984 119.709 117.994 119.749C118.015 119.839 118.035 119.919 118.055 119.989C118.065 120.029 118.075 120.069 118.085 120.11C118.115 120.22 118.14 120.33 118.16 120.44C118.19 120.6 118.215 120.756 118.235 120.906C118.265 121.056 118.285 121.201 118.295 121.342C118.34 121.762 118.31 122.093 118.235 122.333C118.175 122.544 118.07 122.694 117.919 122.769C117.213 123.16 112.51 119.899 110.211 118.246L108.964 117.51V122.844V124.211V125.038C108.964 125.038 117.589 130.958 119.452 132.761C121.51 134.759 126.379 141.085 126.379 141.085C126.379 141.085 122.773 134.143 120.188 131.874Z" fill="#F4AD6F"/>
<path d="M54.0373 190.623L67.3045 171.483C67.8154 170.146 67.1543 168.643 65.817 168.132L47.291 161.01C45.9537 160.5 44.4662 161.176 43.9403 162.513L36 177.673L43.9403 184.61L54.0373 190.623Z" fill="#FFCF6E"/>
<path d="M65.8344 168.131L47.3083 161.009C46.0462 160.529 55.5722 166.148 56.5788 170.746C56.9244 172.293 56.6239 174.757 56.6239 174.757H66.0597L67.3219 171.482C67.8327 170.145 67.1716 168.642 65.8344 168.131Z" fill="#FFCF6E"/>
<path d="M135.434 193.861L141.215 190.854L146.996 187.848L152.546 184.148L157.171 180.448L149.024 162.288C148.423 160.905 146.831 160.259 145.433 160.845L126.412 169.004C125.029 169.605 124.383 171.213 124.969 172.595L135.434 193.861Z" fill="#FFCF6E"/>
<path d="M126.412 169.003C125.029 169.604 124.383 171.212 124.969 172.594L125.901 174.758H135.487C135.487 174.758 134.585 173.135 134.555 170.746C134.51 167.666 136.268 164.781 136.268 164.781L126.412 169.003Z" fill="#FFCF6E"/>
<path d="M143.47 38H95.51C87.9373 38 81.792 44.1303 81.792 51.703C81.792 59.2757 87.9373 65.421 95.51 65.421H143.47C151.043 65.421 157.173 59.2757 157.173 51.703C157.173 44.1303 151.043 38 143.47 38Z" fill="#FFCF6E"/>
<path d="M107.346 51.7031C107.346 58.0437 102.207 63.1673 95.8818 63.1673C89.5562 63.1673 84.4326 58.0437 84.4326 51.7031C84.4326 45.3775 89.5562 40.2539 95.8818 40.2539C102.207 40.2539 107.346 45.3775 107.346 51.7031Z" fill="#AE7E1D"/>
<mask id="mask1_8452_70414" style="mask-type:luminance" maskUnits="userSpaceOnUse" x="84" y="40" width="24" height="24">
<path d="M107.368 51.7097C107.368 58.0383 102.237 63.1679 95.908 63.1679C89.5793 63.1679 84.4482 58.0383 84.4482 51.7097C84.4482 45.3796 89.5793 40.25 95.908 40.25C102.237 40.25 107.368 45.3796 107.368 51.7097Z" fill="white"/>
</mask>
<g mask="url(#mask1_8452_70414)">
<path d="M99.6565 51.8384C99.6565 51.8384 99.371 52.7098 98.9954 53.0704C98.6197 53.431 98.3042 53.5362 98.3042 53.5362L98.9803 51.7031L99.6565 51.8384Z" fill="#5C4436"/>
<path d="M92.3398 51.8384C92.3398 51.8384 92.6253 52.7098 93.001 53.0704C93.3766 53.431 93.6921 53.5362 93.6921 53.5362L93.016 51.7031L92.3398 51.8384Z" fill="#5C4436"/>
<path d="M102.725 60.281C102.154 57.1107 101.673 55.5331 98.1123 55.3828L95.9336 58.0723L93.7399 55.3828C90.194 55.5331 89.7132 57.1107 89.1422 60.281C88.8267 61.9789 88.7666 64.3228 88.7666 64.3228H95.9036H95.9637H103.101C103.101 64.3228 103.041 61.9789 102.725 60.281Z" fill="white"/>
<path d="M97.7354 54.6943C97.7354 54.3337 97.7354 52.3203 97.7354 52.3203H95.9173H94.1143C94.1143 52.3203 94.1143 54.3337 94.1143 54.6943C94.1143 55.2352 93.964 55.3253 93.7236 55.4005C94.1143 56.0916 94.7153 59.0065 95.9774 59.0215C97.2546 59.0065 97.7203 56.0916 98.111 55.4005C97.8706 55.3253 97.7354 55.2352 97.7354 54.6943Z" fill="#FFD08A"/>
<path d="M99.3605 52.0184C99.9014 52.1236 100.367 51.3873 100.367 50.606C100.367 50.1703 100.082 49.6745 99.6309 49.7646C99.075 49.8998 98.9849 50.4257 98.9849 50.4257V51.6428C98.9849 51.6428 99.075 51.9583 99.3605 52.0184Z" fill="#FFD08A"/>
<path d="M99.2403 51.8404C99.6009 51.9155 99.9014 51.3596 99.9014 50.7736C99.9014 50.443 99.7211 50.0674 99.4206 50.1425C99.045 50.2477 98.9849 50.6383 98.9849 50.6383V51.5549C98.9849 51.5549 99.045 51.7953 99.2403 51.8404Z" fill="black"/>
<path d="M92.6137 52.0184C92.0728 52.1236 91.6221 51.3873 91.6221 50.606C91.6221 50.1703 91.9075 49.6745 92.3433 49.7646C92.8992 49.8998 92.9894 50.4257 92.9894 50.4257V51.6428C92.9894 51.6428 92.9142 51.9583 92.6137 52.0184Z" fill="#FFD08A"/>
<path d="M92.7547 51.8364C92.3941 51.9116 92.0786 51.3556 92.0786 50.7697C92.0786 50.4391 92.2739 50.0635 92.5594 50.1386C92.935 50.2438 92.9952 50.6344 92.9952 50.6344V51.551C92.9952 51.551 92.935 51.7914 92.7547 51.8364Z" fill="black"/>
<path d="M95.9324 52.3477H94.1294C94.1294 52.3477 94.1294 53.3694 94.1294 54.0756C94.6703 54.7066 95.3765 55.0822 96.3231 55.0973C96.879 55.0822 97.3448 54.962 97.7505 54.7367C97.7505 54.7266 97.7505 54.7166 97.7505 54.7066C97.7505 54.346 97.7505 52.3477 97.7505 52.3477H95.9324Z" fill="black"/>
<path d="M98.629 47.3022C97.5922 46.5659 94.4369 46.5659 93.4002 47.3022C92.5889 47.8882 92.2282 49.9466 92.694 51.5543C93.28 53.4926 94.2266 54.7697 96.0146 54.7997C97.8026 54.7697 98.7642 53.4926 99.3352 51.5543C99.816 49.9466 99.4554 47.8882 98.629 47.3022Z" fill="#FFD08A"/>
<path d="M97.4085 64.3238H94.4185L95.0796 58.5391H96.7323L97.4085 64.3238Z" fill="#8A1C1C"/>
<path d="M95.6009 57.2461H96.262L96.878 58.8087C96.9381 58.974 96.8179 59.1693 96.6226 59.1693L95.2253 59.1393C95.045 59.1393 94.9248 58.959 94.9849 58.7937L95.6009 57.2461Z" fill="#661515"/>
<path d="M94.6026 56.211C95.3088 56.9172 95.6093 57.2478 95.6093 57.2478C95.6093 57.2478 95.1585 58.9907 94.858 58.7052C94.5575 58.4047 92.9949 56.211 93.3855 55.3846C93.4607 55.2194 94.0767 55.0391 94.0767 55.0391C94.0767 55.0391 94.1067 55.7152 94.6026 56.211Z" fill="#EBEBEB"/>
<path d="M97.2347 56.211C96.5436 56.9172 96.228 57.2478 96.228 57.2478C96.228 57.2478 96.6788 58.9907 96.9793 58.7052C97.2948 58.4047 98.8424 56.211 98.4668 55.3846C98.3917 55.2194 97.7756 55.0391 97.7756 55.0391C97.7756 55.0391 97.7456 55.7152 97.2347 56.211Z" fill="#EBEBEB"/>
<path d="M92.4613 49.9456C92.4613 49.9456 92.4613 50.2461 92.4763 50.4114C92.4913 50.5766 92.5514 50.9823 92.5514 50.9823C92.5514 50.9823 93.1674 49.615 94.0389 49.2845C94.8953 48.9539 95.6616 48.8487 96.2476 48.4581C96.8336 48.0825 97.3895 47.8571 97.3895 47.8571C97.3895 47.8571 98.291 49.3446 98.5765 49.4197C98.847 49.5099 98.9672 49.7503 99.1024 50.0508C99.2226 50.3513 99.4329 51.1476 99.4329 51.1476C99.4329 51.1476 99.5982 50.6367 99.5982 50.3813C99.6132 50.1109 99.6133 49.7953 99.6133 49.7953C99.6133 49.7953 99.7334 49.7653 99.8236 49.7803C99.9288 49.7953 99.9588 49.7953 99.9588 49.7953C99.9588 49.7953 100.124 48.6534 99.9738 47.8571C99.8386 47.1208 99.3578 45.3629 97.9454 45.4981C97.675 45.5282 97.2994 44.6267 94.8202 45.1375C93.9337 45.3178 93.0022 45.8437 92.4613 47.0006C92.1758 47.6017 92.1758 49.7653 92.1758 49.7653C92.1758 49.7653 92.2659 49.7953 92.3411 49.8404C92.4012 49.8705 92.4613 49.9456 92.4613 49.9456Z" fill="#5C4436"/>
<path d="M95.9637 64.3249H103.101C103.101 64.3249 103.041 61.981 102.725 60.2831C102.229 57.5636 101.808 56.016 99.4495 55.5352C98.9086 57.1729 97.4812 60.8991 95.9186 60.9292C94.356 60.8991 92.9286 57.1879 92.3877 55.5352C90.0588 56.016 89.6381 57.5786 89.1422 60.2831C88.8267 61.981 88.7666 64.3249 88.7666 64.3249H95.9036H95.9637Z" fill="#408733"/>
</g>
<path opacity="0.1" d="M95.8765 40.2539V63.1673C102.202 63.1673 107.341 58.0437 107.341 51.7031C107.341 45.3775 102.202 40.2539 95.8765 40.2539Z" fill="black"/>
<path d="M149.069 47.918H116.119C115.548 47.918 115.097 48.3837 115.097 48.9397C115.097 49.5106 115.548 49.9764 116.119 49.9764H149.069C149.64 49.9764 150.091 49.5106 150.091 48.9397C150.091 48.3837 149.64 47.918 149.069 47.918Z" fill="#BFB091"/>
<path d="M149.069 52.9648H116.119C115.548 52.9648 115.097 53.4306 115.097 53.9866C115.097 54.5575 115.548 55.0233 116.119 55.0233H149.069C149.64 55.0233 150.091 54.5575 150.091 53.9866C150.091 53.4306 149.64 52.9648 149.069 52.9648Z" fill="#BFB091"/>
<path d="M149.069 58.0156H116.119C115.548 58.0156 115.097 58.4664 115.097 59.0373C115.097 59.6083 115.548 60.0591 116.119 60.0591H149.069C149.64 60.0591 150.091 59.6083 150.091 59.0373C150.091 58.4664 149.64 58.0156 149.069 58.0156Z" fill="#BFB091"/>
<path d="M147.342 43.9962C147.342 43.2449 147.958 42.6289 148.725 42.6289C149.476 42.6289 150.092 43.2449 150.092 43.9962C150.092 44.7625 149.476 45.3785 148.725 45.3785C147.958 45.3785 147.342 44.7625 147.342 43.9962Z" fill="#BFB091"/>
<path d="M142.853 43.9962C142.853 43.2449 143.469 42.6289 144.235 42.6289C144.987 42.6289 145.603 43.2449 145.603 43.9962C145.603 44.7625 144.987 45.3785 144.235 45.3785C143.469 45.3785 142.853 44.7625 142.853 43.9962Z" fill="#BFB091"/>
<path d="M138.381 43.9962C138.381 43.2449 138.997 42.6289 139.763 42.6289C140.514 42.6289 141.13 43.2449 141.13 43.9962C141.13 44.7625 140.514 45.3785 139.763 45.3785C138.997 45.3785 138.381 44.7625 138.381 43.9962Z" fill="#BFB091"/>
<path d="M112.885 62.2795V69.2812C112.885 70.4081 114.252 70.979 115.048 70.1827L123.177 62.0391L112.885 62.2795Z" fill="#FFCF6E"/>
<path d="M85.6866 68.2461H53.4426C46.8465 68.2461 41.4976 73.5951 41.4976 80.1911C41.4976 86.7872 46.8465 92.1361 53.4426 92.1361H85.6866C92.2827 92.1361 97.6317 86.7872 97.6317 80.1911C97.6317 73.5951 92.2827 68.2461 85.6866 68.2461Z" fill="#FFCF6E"/>
<path d="M63.7087 80.191C63.7087 85.7052 59.2312 90.1677 53.732 90.1677C48.2177 90.1677 43.7402 85.7052 43.7402 80.191C43.7402 74.6767 48.2177 70.1992 53.732 70.1992C59.2312 70.1992 63.7087 74.6767 63.7087 80.191Z" fill="#AE7E1D"/>
<mask id="mask2_8452_70414" style="mask-type:luminance" maskUnits="userSpaceOnUse" x="43" y="70" width="21" height="21">
<path d="M63.7009 80.1859C63.7009 85.7001 59.2309 90.1701 53.7166 90.1701C48.2039 90.1701 43.7339 85.7001 43.7339 80.1859C43.7339 74.6731 48.2039 70.2031 53.7166 70.2031C59.2309 70.2031 63.7009 74.6731 63.7009 80.1859Z" fill="white"/>
</mask>
<g mask="url(#mask2_8452_70414)">
<path d="M57.3839 83.8089C56.7679 83.7938 56.1969 84.4099 56.5876 85.9274C57.5041 89.3982 57.5191 90.6002 57.5191 90.6002H59.2921C59.2921 90.6002 58.8414 88.5268 58.7813 86.7087C58.7212 84.8907 57.8797 83.8239 57.3839 83.8089Z" fill="#FFD48F"/>
<path d="M50.0903 83.8089C50.7064 83.7938 51.2773 84.4099 50.8716 85.9274C49.9701 89.3982 49.9551 90.6002 49.9551 90.6002H48.1821C48.1821 90.6002 48.6329 88.5268 48.693 86.7087C48.7381 84.8907 49.5945 83.8239 50.0903 83.8089Z" fill="#FFD48F"/>
<path d="M55.7143 82.9688C55.7143 82.9688 54.302 84.4412 53.6859 84.4412C53.0699 84.4262 51.6876 82.9688 51.6876 82.9688C49.9897 82.9688 48.6074 84.2759 48.6074 85.8987C48.6074 85.9287 48.6074 86.0189 48.6074 86.0189C48.6074 86.0639 48.6525 86.109 48.6976 86.109C49.1634 86.1841 50.4555 87.1007 50.4555 87.1007V88.5731V90.6015L56.9163 90.5865V88.5581V87.0706C56.9163 87.0706 58.2686 86.2142 58.7043 86.094C58.7494 86.079 58.7945 86.0639 58.7945 86.0038C58.7945 86.0038 58.8095 85.9287 58.8095 85.8987C58.8997 84.291 57.4272 82.9688 55.7143 82.9688Z" fill="#FFA347"/>
<path d="M55.124 82.4434C55.124 82.1429 55.124 80.5352 55.124 80.5352H53.6515H52.1791C52.1791 80.5352 52.1791 82.1429 52.1791 82.4434C52.1791 82.8791 51.6231 82.9542 51.4278 83.0143C51.2325 84.1412 52.6148 84.9826 53.6515 84.9826C54.6732 84.9826 56.0105 84.006 55.8753 83.0143C55.6799 82.9542 55.124 82.8791 55.124 82.4434Z" fill="#FFD48F"/>
<path d="M55.125 82.5747C55.115 82.5346 55.11 82.4895 55.11 82.4395C55.11 82.1389 55.11 80.5312 55.11 80.5312H53.6375H52.165C52.165 80.5312 52.165 81.2975 52.165 81.8535C52.6008 82.5446 53.2018 82.8451 54.0582 82.8602C54.4639 82.8602 54.8245 82.755 55.125 82.5747Z" fill="#F5C476"/>
<path d="M55.794 76.4317C54.9676 75.8457 52.4884 75.8457 51.6621 76.4317C51.016 76.8975 50.7305 78.5652 51.1211 79.8574C51.5719 81.405 52.3232 82.4267 53.7355 82.4568C55.1329 82.4267 55.8841 81.405 56.3349 79.8574C56.7255 78.5652 56.4401 76.8975 55.794 76.4317Z" fill="#FFD48F"/>
<path d="M54.6231 76.8831C54.6231 76.8831 55.6298 77.8147 55.7651 78.2203C55.9754 78.8063 55.9303 80.6694 55.9303 80.6694L56.7868 79.0317C56.7868 79.0317 56.937 78.3255 56.8168 77.5893C56.2308 73.5175 50.7316 74.1335 50.5213 77.5893C50.4912 78.1001 50.5814 79.0467 50.5814 79.0467L51.4078 80.4591C51.4078 80.4591 50.8067 78.2955 51.4078 78.1903C52.8652 77.9499 54.6231 76.8831 54.6231 76.8831Z" fill="#8F6135"/>
<path d="M50.5813 77.3047C50.5813 77.3047 49.9953 79.7989 49.9202 80.6854C49.7549 83.1044 52.3542 82.3682 52.0688 81.7672C51.017 79.5735 50.5813 77.3047 50.5813 77.3047Z" fill="#8F6135"/>
<path d="M56.7294 77.2891C56.7294 77.2891 57.3153 79.7832 57.3754 80.6697C57.5407 83.0888 54.8662 82.4127 55.1968 81.8417C56.4289 79.7081 56.7294 77.2891 56.7294 77.2891Z" fill="#8F6135"/>
</g>
<path opacity="0.1" d="M53.7573 70.1992V90.1677C59.2565 90.1677 63.734 85.7052 63.734 80.191C63.734 74.6767 59.2565 70.1992 53.7573 70.1992Z" fill="black"/>
<path d="M90.6005 76.8867H71.4284C70.9325 76.8867 70.5269 77.2924 70.5269 77.7882C70.5269 78.269 70.9325 78.6747 71.4284 78.6747H90.6005C91.0963 78.6747 91.487 78.269 91.487 77.7882C91.487 77.2924 91.0963 76.8867 90.6005 76.8867Z" fill="#BFB091"/>
<path d="M90.6005 81.2891H71.4284C70.9325 81.2891 70.5269 81.6797 70.5269 82.1755C70.5269 82.6714 70.9325 83.0771 71.4284 83.0771H90.6005C91.0963 83.0771 91.487 82.6714 91.487 82.1755C91.487 81.6797 91.0963 81.2891 90.6005 81.2891Z" fill="#BFB091"/>
<path d="M90.6005 85.6758H71.4284C70.9325 85.6758 70.5269 86.0815 70.5269 86.5773C70.5269 87.0731 70.9325 87.4638 71.4284 87.4638H90.6005C91.0963 87.4638 91.487 87.0731 91.487 86.5773C91.487 86.0815 91.0963 85.6758 90.6005 85.6758Z" fill="#BFB091"/>
<path d="M89.0952 73.4755C89.0952 72.8143 89.6211 72.2734 90.2822 72.2734C90.9433 72.2734 91.4842 72.8143 91.4842 73.4755C91.4842 74.1366 90.9433 74.6775 90.2822 74.6775C89.6211 74.6775 89.0952 74.1366 89.0952 73.4755Z" fill="#BFB091"/>
<path d="M85.1885 73.4755C85.1885 72.8143 85.7294 72.2734 86.3905 72.2734C87.0516 72.2734 87.5925 72.8143 87.5925 73.4755C87.5925 74.1366 87.0516 74.6775 86.3905 74.6775C85.7294 74.6775 85.1885 74.1366 85.1885 73.4755Z" fill="#BFB091"/>
<path d="M81.2856 73.4755C81.2856 72.8143 81.8266 72.2734 82.4877 72.2734C83.1488 72.2734 83.6897 72.8143 83.6897 73.4755C83.6897 74.1366 83.1488 74.6775 82.4877 74.6775C81.8266 74.6775 81.2856 74.1366 81.2856 73.4755Z" fill="#BFB091"/>
<path d="M89.1029 89.4018V95.502C89.1029 96.4786 87.9159 96.9745 87.2247 96.2833L80.1328 89.1914L89.1029 89.4018Z" fill="#FFCF6E"/>
<path d="M148.346 82.3242H110.332C104.337 82.3242 99.4688 87.1924 99.4688 93.1874C99.4688 99.1975 104.337 104.066 110.332 104.066H148.346C154.356 104.066 159.224 99.1975 159.224 93.1874C159.224 87.1924 154.356 82.3242 148.346 82.3242Z" fill="#FFCF6E"/>
<path d="M152.788 90.1953H126.675C126.224 90.1953 125.863 90.5559 125.863 91.0067C125.863 91.4424 126.224 91.818 126.675 91.818H152.788C153.239 91.818 153.6 91.4424 153.6 91.0067C153.6 90.5559 153.239 90.1953 152.788 90.1953Z" fill="#BFB091"/>
<path d="M152.788 94.1914H126.675C126.224 94.1914 125.863 94.552 125.863 95.0028C125.863 95.4535 126.224 95.8141 126.675 95.8141H152.788C153.239 95.8141 153.6 95.4535 153.6 95.0028C153.6 94.552 153.239 94.1914 152.788 94.1914Z" fill="#BFB091"/>
<path d="M152.788 98.1875H126.675C126.224 98.1875 125.863 98.5481 125.863 98.9989C125.863 99.4496 126.224 99.8102 126.675 99.8102H152.788C153.239 99.8102 153.6 99.4496 153.6 98.9989C153.6 98.5481 153.239 98.1875 152.788 98.1875Z" fill="#BFB091"/>
<path d="M151.427 87.0851C151.427 86.4691 151.923 85.9883 152.524 85.9883C153.125 85.9883 153.605 86.4691 153.605 87.0851C153.605 87.6861 153.125 88.1669 152.524 88.1669C151.923 88.1669 151.427 87.6861 151.427 87.0851Z" fill="#BFB091"/>
<path d="M147.881 87.0851C147.881 86.4691 148.377 85.9883 148.978 85.9883C149.579 85.9883 150.06 86.4691 150.06 87.0851C150.06 87.6861 149.579 88.1669 148.978 88.1669C148.377 88.1669 147.881 87.6861 147.881 87.0851Z" fill="#BFB091"/>
<path d="M144.323 87.0851C144.323 86.4691 144.804 85.9883 145.405 85.9883C146.021 85.9883 146.501 86.4691 146.501 87.0851C146.501 87.6861 146.021 88.1669 145.405 88.1669C144.804 88.1669 144.323 87.6861 144.323 87.0851Z" fill="#BFB091"/>
<path d="M107.81 101.57V107.115C107.81 108.016 108.906 108.467 109.537 107.836L115.983 101.375L107.81 101.57Z" fill="#FFCF6E"/>
<path d="M119.479 93.306C119.479 98.2643 115.452 102.291 110.493 102.291C105.55 102.291 101.523 98.2643 101.523 93.306C101.523 88.3627 105.55 84.3359 110.493 84.3359C115.452 84.3359 119.479 88.3627 119.479 93.306Z" fill="#AE7E1D"/>
<mask id="mask3_8452_70414" style="mask-type:luminance" maskUnits="userSpaceOnUse" x="101" y="84" width="19" height="19">
<path d="M119.485 93.3159C119.485 98.2727 115.466 102.29 110.509 102.29C105.552 102.29 101.534 98.2727 101.534 93.3159C101.534 88.3591 105.552 84.3398 110.509 84.3398C115.466 84.3398 119.485 88.3591 119.485 93.3159Z" fill="white"/>
</mask>
<g mask="url(#mask3_8452_70414)">
<path d="M107.789 90.1836C107.789 90.1836 107.263 93.4741 107.203 94.6461C107.052 97.8314 109.456 96.2237 109.562 95.3973C109.637 94.9165 108.945 94.7663 108.87 93.7295C108.75 92.1068 107.789 90.1836 107.789 90.1836Z" fill="#8F6135"/>
<path d="M113.317 90.1836C113.317 90.1836 113.858 93.4741 113.918 94.6461C114.069 97.8314 111.665 96.2237 111.544 95.3973C111.484 94.9165 112.386 94.7663 112.461 93.7295C112.596 92.1218 113.317 90.1836 113.317 90.1836Z" fill="#8F6135"/>
<path d="M115.368 102.669H113.971L113.024 98.8373L113.971 96.1328C113.971 96.1328 115.368 96.9141 115.308 99.3031C115.278 100.625 115.368 102.669 115.368 102.669Z" fill="#FFC975"/>
<path d="M105.662 102.669H107.059L107.991 98.8373L107.059 96.1328C107.059 96.1328 105.662 96.9141 105.722 99.3031C105.752 100.625 105.662 102.669 105.662 102.669Z" fill="#FFC975"/>
<path d="M112.444 95.7734H110.505H108.582C108.147 95.7734 107.425 95.9688 107.035 96.134C107.035 96.134 107.335 97.892 107.335 98.7484C107.335 99.5297 107.335 102.67 107.335 102.67H109.709H110.505H111.317H113.691C113.691 102.67 113.691 99.5297 113.691 98.7484C113.691 97.892 113.976 96.134 113.976 96.134C113.601 95.9688 112.879 95.7734 112.444 95.7734Z" fill="white"/>
<path d="M111.826 95.3379C111.826 95.0824 111.826 93.625 111.826 93.625H110.518H109.196C109.196 93.625 109.196 95.0824 109.196 95.3379C109.196 95.7285 108.7 95.8037 108.52 95.8638C108.805 96.3596 109.587 96.9155 110.518 96.9155C111.435 96.9155 112.231 96.3596 112.502 95.8638C112.336 95.8037 111.826 95.7285 111.826 95.3379Z" fill="#FFC975"/>
<path d="M111.879 95.4731C111.859 95.433 111.849 95.388 111.849 95.3379C111.849 95.0824 111.849 93.625 111.849 93.625H110.542H109.22C109.22 93.625 109.22 94.3162 109.22 94.812C109.61 95.428 110.151 95.7135 110.918 95.7285C111.278 95.7135 111.609 95.6233 111.879 95.4731Z" fill="#EBB159"/>
<path d="M112.39 89.9413C111.684 89.4154 109.535 89.4154 108.829 89.9413C108.273 90.362 108.033 91.8495 108.348 93.0214C108.739 94.4188 109.4 95.3353 110.617 95.3654C111.834 95.3353 112.48 94.4188 112.871 93.0214C113.202 91.8495 112.946 90.362 112.39 89.9413Z" fill="#FFC975"/>
<path d="M109.076 90.2281C109.076 90.2281 110.624 90.9042 111.495 91.1296C112.066 91.2798 112.412 91.2949 112.652 91.5653C112.863 91.7907 112.742 93.8041 112.742 93.8041L113.434 92.557C113.434 92.557 113.494 91.1897 113.404 90.5286C112.863 86.8775 107.919 87.4334 107.739 90.5436C107.709 90.9944 107.784 91.8508 107.784 91.8508L108.325 93.8792C108.325 93.8792 108.16 91.5052 108.535 91.0845C108.941 90.6187 109.076 90.2281 109.076 90.2281Z" fill="#8F6135"/>
</g>
<path opacity="0.1" d="M110.497 84.3359V102.291C115.455 102.291 119.482 98.2643 119.482 93.306C119.482 88.3627 115.455 84.3359 110.497 84.3359Z" fill="black"/>
<path d="M85.4178 149.91C85.4178 151.532 84.0956 152.84 82.4729 152.84C80.8502 152.84 79.543 151.532 79.543 149.91C79.543 148.287 80.8502 146.965 82.4729 146.965C84.0956 146.965 85.4178 148.287 85.4178 149.91Z" fill="#2E5BFF"/>
<path d="M49.9643 121.648C49.9643 122.354 49.3934 122.925 48.6872 122.925C47.966 122.925 47.395 122.354 47.395 121.648C47.395 120.926 47.966 120.355 48.6872 120.355C49.3934 120.355 49.9643 120.926 49.9643 121.648Z" fill="#2E5BFF"/>
<path d="M131.82 108.14C131.82 108.846 131.234 109.417 130.528 109.417C129.821 109.417 129.235 108.846 129.235 108.14C129.235 107.419 129.821 106.848 130.528 106.848C131.234 106.848 131.82 107.419 131.82 108.14Z" fill="#2E5BFF"/>
<path d="M77.934 48.5038C77.934 49.9612 76.762 51.1482 75.3046 51.1482C73.8321 51.1482 72.6602 49.9612 72.6602 48.5038C72.6602 47.0464 73.8321 45.8594 75.3046 45.8594C76.762 45.8594 77.934 47.0464 77.934 48.5038Z" fill="#2E5BFF"/>
<path d="M50.531 99.0023C50.531 100.535 49.2839 101.782 47.7513 101.782C46.2037 101.782 44.9717 100.535 44.9717 99.0023C44.9717 97.4697 46.2037 96.2227 47.7513 96.2227C49.2839 96.2227 50.531 97.4697 50.531 99.0023Z" fill="#2E5BFF"/>
<path d="M58.3727 99.0023C58.3727 100.535 57.1256 101.782 55.593 101.782C54.0454 101.782 52.7983 100.535 52.7983 99.0023C52.7983 97.4697 54.0454 96.2227 55.593 96.2227C57.1256 96.2227 58.3727 97.4697 58.3727 99.0023Z" fill="#2E5BFF"/>
<path d="M66.2136 99.0023C66.2136 100.535 64.9816 101.782 63.434 101.782C61.9014 101.782 60.6543 100.535 60.6543 99.0023C60.6543 97.4697 61.9014 96.2227 63.434 96.2227C64.9816 96.2227 66.2136 97.4697 66.2136 99.0023Z" fill="#2E5BFF"/>
<path d="M83.6309 61.4414H72.5423C71.5807 61.4414 70.8145 62.2077 70.8145 63.1693C70.8145 64.1309 71.5807 64.8972 72.5423 64.8972H83.6309C84.5925 64.8972 85.3739 64.1309 85.3739 63.1693C85.3739 62.2077 84.5925 61.4414 83.6309 61.4414Z" fill="#2E5BFF"/>
<path d="M68.718 63.1693C68.718 64.1309 67.9367 64.8972 66.9901 64.8972C66.0285 64.8972 65.2622 64.1309 65.2622 63.1693C65.2622 62.2077 66.0285 61.4414 66.9901 61.4414C67.9367 61.4414 68.718 62.2077 68.718 63.1693Z" fill="#2E5BFF"/>
<path d="M102.076 78.1637H110.25C110.956 78.1637 111.527 77.5927 111.527 76.8865C111.527 76.1803 110.956 75.6094 110.25 75.6094H102.076C101.37 75.6094 100.799 76.1803 100.799 76.8865C100.799 77.5927 101.37 78.1637 102.076 78.1637Z" fill="#2E5BFF"/>
<path d="M113.06 76.8865C113.06 76.1803 113.631 75.6094 114.337 75.6094C115.043 75.6094 115.599 76.1803 115.599 76.8865C115.599 77.5927 115.043 78.1637 114.337 78.1637C113.631 78.1637 113.06 77.5927 113.06 76.8865Z" fill="#2E5BFF"/>
<path d="M95.8695 151.937H104.043C104.749 151.937 105.32 151.366 105.32 150.66C105.32 149.954 104.749 149.383 104.043 149.383H95.8695C95.1784 149.383 94.6074 149.954 94.6074 150.66C94.6074 151.366 95.1784 151.937 95.8695 151.937Z" fill="#2E5BFF"/>
<path d="M106.864 150.66C106.864 149.954 107.435 149.383 108.141 149.383C108.847 149.383 109.418 149.954 109.418 150.66C109.418 151.366 108.847 151.937 108.141 151.937C107.435 151.937 106.864 151.366 106.864 150.66Z" fill="#2E5BFF"/>
<path d="M133.862 115.981H142.501C143.643 115.981 144.56 115.064 144.56 113.937C144.56 112.795 143.643 111.879 142.501 111.879H133.862C132.735 111.879 131.818 112.795 131.818 113.937C131.818 115.064 132.735 115.981 133.862 115.981Z" fill="#2E5BFF"/>
<path d="M147.038 113.937C147.038 112.795 147.954 111.879 149.081 111.879C150.223 111.879 151.139 112.795 151.139 113.937C151.139 115.064 150.223 115.981 149.081 115.981C147.954 115.981 147.038 115.064 147.038 113.937Z" fill="#2E5BFF"/>
<path d="M125.443 69.4492L124.496 70.3958C123.865 71.0268 122.843 71.0268 122.197 70.3958L121.266 69.4492C120.74 68.9233 119.868 68.8632 119.327 69.3891C118.771 69.915 118.756 70.8015 119.297 71.3424L120.274 72.319C120.905 72.9501 120.905 73.9868 120.274 74.6178L119.342 75.5494C118.817 76.0753 118.756 76.9468 119.267 77.4877C119.793 78.0586 120.68 78.0586 121.221 77.5177L122.197 76.5411C122.843 75.91 123.865 75.91 124.496 76.5411L125.443 77.4726C125.969 78.0135 126.84 78.0586 127.381 77.5478C127.937 77.0219 127.952 76.1354 127.411 75.5945L126.434 74.6178C125.788 73.9868 125.788 72.9501 126.434 72.319L127.411 71.3424C127.952 70.8015 127.937 69.915 127.381 69.3891C126.84 68.8632 125.969 68.9233 125.443 69.4492Z" fill="#2E5BFF"/>
<path d="M51.1347 112.182H50.3835C49.8726 112.182 49.4519 111.761 49.4519 111.251V110.499C49.4519 110.064 49.1213 109.703 48.7006 109.688C48.2649 109.673 47.9043 110.019 47.9043 110.469V111.251C47.9043 111.761 47.4836 112.182 46.9727 112.182H46.2215C45.8008 112.182 45.4251 112.498 45.4101 112.933C45.3951 113.369 45.7557 113.73 46.1914 113.73H46.9727C47.4836 113.73 47.9043 114.15 47.9043 114.661V115.413C47.9043 115.833 48.2349 116.209 48.6556 116.224C49.0913 116.239 49.4519 115.878 49.4519 115.443V114.661C49.4519 114.15 49.8726 113.73 50.3835 113.73H51.1648C51.6005 113.73 51.9611 113.369 51.9461 112.933C51.9311 112.498 51.5554 112.182 51.1347 112.182Z" fill="#2E5BFF"/>
</svg>
