<svg width="46" height="46" viewBox="0 0 46 46" fill="none" xmlns="http://www.w3.org/2000/svg">
<rect width="46" height="46" rx="23" fill="#2E5BFF"/>
<path fill-rule="evenodd" clip-rule="evenodd" d="M13.5902 20.3114L31.9437 13.2557C32.0483 13.2038 32.1661 13.1847 32.2817 13.2009C32.3973 13.2171 32.5054 13.2679 32.5916 13.3466C32.6779 13.4253 32.7384 13.5282 32.7652 13.6418C32.7919 13.7555 32.7837 13.8746 32.7416 13.9835L25.7195 32.4343C25.6793 32.5404 25.6088 32.6324 25.5168 32.6989C25.4248 32.7653 25.3153 32.8032 25.2019 32.808C25.0886 32.8128 24.9763 32.7841 24.8791 32.7256C24.7818 32.6671 24.7039 32.5814 24.655 32.479L21.8253 26.625L27.4415 18.5862L19.4186 24.1864L13.5471 21.3743C13.4452 21.3253 13.3598 21.2476 13.3015 21.1506C13.2433 21.0537 13.2146 20.9418 13.2192 20.8287C13.2238 20.7157 13.2614 20.6065 13.3273 20.5146C13.3932 20.4226 13.4846 20.352 13.5902 20.3114Z" fill="white"/>
</svg>
