<svg width="16" height="16" viewBox="0 0 16 16" fill="none" xmlns="http://www.w3.org/2000/svg">
<path fill-rule="evenodd" clip-rule="evenodd" d="M7.9987 14.6667C4.3187 14.6667 1.33203 11.6867 1.33203 8.00004C1.33203 4.32004 4.3187 1.33337 7.9987 1.33337C11.6854 1.33337 14.6654 4.32004 14.6654 8.00004C14.6654 11.6867 11.6854 14.6667 7.9987 14.6667ZM10.1254 10.4734C10.2054 10.52 10.292 10.5467 10.3854 10.5467C10.552 10.5467 10.7187 10.46 10.812 10.3C10.952 10.0667 10.8787 9.76004 10.6387 9.61337L8.26536 8.20004V5.12004C8.26536 4.84004 8.0387 4.62004 7.76536 4.62004C7.49203 4.62004 7.26536 4.84004 7.26536 5.12004V8.48671C7.26536 8.66004 7.3587 8.82004 7.51203 8.91337L10.1254 10.4734Z" fill="#2E5BFF"/>
</svg>
