<svg width="12" height="12" viewBox="0 0 12 12" fill="none" xmlns="http://www.w3.org/2000/svg">
    <path fill-rule="evenodd" clip-rule="evenodd" d="M1 6.008C1 3.374 3.105 1 6.01 1 8.85 1 11 3.328 11 5.992 11 9.082 8.48 11 6 11c-.82 0-1.73-.22-2.46-.651-.255-.155-.47-.27-.745-.18l-1.01.3c-.255.08-.485-.12-.41-.39l.335-1.122a.524.524 0 0 0-.035-.45C1.245 7.714 1 6.848 1 6.006zm4.35 0c0 .355.285.64.64.645a.642.642 0 0 0 0-1.281.637.637 0 0 0-.64.636zm2.305.005c0 .35.285.64.64.64a.642.642 0 0 0 0-1.281.639.639 0 0 0-.64.64zm-3.97.64c-.35 0-.64-.29-.64-.64 0-.356.285-.641.64-.641.355 0 .64.285.64.64 0 .351-.285.636-.64.641z" fill="#2E5BFF"/>
</svg>
