<svg width="18" height="18" viewBox="0 0 18 18" fill="none" xmlns="http://www.w3.org/2000/svg">
    <path fill-rule="evenodd" clip-rule="evenodd" d="M5.771 10.043a.877.877 0 1 1 0-1.75.877.877 0 0 1 0 1.75zm3.407 0a.877.877 0 1 1 0-1.75.877.877 0 0 1 0 1.75zm2.53-.876a.877.877 0 0 0 1.754 0 .877.877 0 0 0-1.753 0z" fill="#2E5BFF"/>
    <path clip-rule="evenodd" d="M9.015 1.5C4.657 1.5 1.5 5.06 1.5 9.011c0 1.262.367 2.56 1.013 3.748.12.196.135.443.052.676l-.502 1.683c-.113.405.232.705.615.585l1.514-.45c.413-.135.736.037 1.118.27 1.095.646 2.46.977 3.69.977 3.72 0 7.5-2.877 7.5-7.511 0-3.997-3.225-7.489-7.485-7.489z" stroke="#2E5BFF" stroke-width="1.5" stroke-linecap="round" stroke-linejoin="round"/>
</svg>
