<svg width="46" height="46" viewBox="0 0 46 46" fill="none" xmlns="http://www.w3.org/2000/svg">
<circle cx="23" cy="23" r="23" fill="#FF2E2E"/>
<path d="M16.9562 25.6778C17.5333 25.305 17.6885 24.7087 17.8286 24.1834C17.9709 23.6442 18.0932 22.4708 18.5991 22.2339C21.2831 21.1155 24.7354 20.9914 27.4184 22.1262C27.9341 22.3691 28.063 23.5442 28.2107 24.086C28.3533 24.6108 28.5166 25.2061 29.0936 25.5861C29.6126 25.9271 32.2288 26.2408 33.0365 26.2343C33.5696 26.2304 33.9902 26.1009 34.296 25.842C35.4031 24.8261 35.1723 22.224 35.0414 21.6772C34.8397 20.4337 33.8754 19.4752 32.1829 18.8361C27.7822 16.9743 18.2553 17.0501 13.7952 18.8759C12.9439 19.1847 12.2775 19.5792 11.8011 20.0556C11.3349 20.5218 11.0499 21.067 10.9511 21.6818C10.837 22.1061 10.607 24.8251 11.7357 25.8765C12.0369 26.131 12.4599 26.2637 12.9901 26.2715C13.7986 26.2848 16.4397 26.0149 16.9562 25.6778Z" fill="white"/>
</svg>
