<svg width="46" height="46" viewBox="0 0 46 46" fill="none" xmlns="http://www.w3.org/2000/svg">
<circle cx="23" cy="23" r="23" fill="#2E5BFF"/>
<path fill-rule="evenodd" clip-rule="evenodd" d="M23.1748 26.2174H22.825C20.4217 26.2174 18.4736 24.2927 18.4736 21.9203V17.2971C18.4736 14.9237 20.4217 13 22.825 13H23.1748C25.5781 13 27.5272 14.9237 27.5272 17.2971V21.9203C27.5272 24.2927 25.5781 26.2174 23.1748 26.2174ZM29.5626 21.7829C29.5626 21.2539 29.9966 20.8263 30.5313 20.8263C31.066 20.8263 31.5 21.2539 31.5 21.7829C31.5 26.0866 28.2006 29.6404 23.9692 30.1178V32.0434C23.9692 32.5714 23.5352 33 23.0005 33C22.4648 33 22.0318 32.5714 22.0318 32.0434V30.1178C17.7994 29.6404 14.5 26.0866 14.5 21.7829C14.5 21.2539 14.934 20.8263 15.4687 20.8263C16.0034 20.8263 16.4374 21.2539 16.4374 21.7829C16.4374 25.3558 19.3814 28.2629 23.0005 28.2629C26.6186 28.2629 29.5626 25.3558 29.5626 21.7829Z" fill="white"/>
</svg>
