<svg width="20" height="20" viewBox="0 0 20 20" fill="none" xmlns="http://www.w3.org/2000/svg">
<path d="M10 20C15.5228 20 20 15.5228 20 10C20 4.47715 15.5228 0 10 0C4.47715 0 0 4.47715 0 10C0 11.5996 0.375618 13.1116 1.04346 14.4525C1.22094 14.8088 1.28001 15.2161 1.17712 15.6006L0.581509 17.8266C0.322955 18.793 1.20702 19.677 2.17335 19.4185L4.39938 18.8229C4.78394 18.72 5.19121 18.7791 5.54753 18.9565C6.88836 19.6244 8.40036 20 10 20Z" fill="black" fill-opacity="0.2"/>
<path d="M9 9.99939C9 10.5517 9.44773 10.9994 10 10.9994C10.5523 10.9994 11 10.5517 11 9.99939C11 9.44712 10.5523 8.99939 10 8.99939C9.44773 8.99939 9 9.44712 9 9.99939Z" fill="white"/>
<path d="M5 9.99939C5 10.5517 5.44772 10.9994 6 10.9994C6.55228 10.9994 7 10.5517 7 9.99939C7 9.44712 6.55228 8.99939 6 8.99939C5.44772 8.99939 5 9.44712 5 9.99939Z" fill="white"/>
<path d="M13 9.99939C13 10.5517 13.4477 10.9994 14 10.9994C14.5523 10.9994 15 10.5517 15 9.99939C15 9.44712 14.5523 8.99939 14 8.99939C13.4477 8.99939 13 9.44712 13 9.99939Z" fill="white"/>
</svg>
