<svg width="30" height="30" viewBox="0 0 30 30" fill="none" xmlns="http://www.w3.org/2000/svg">
<path fill-rule="evenodd" clip-rule="evenodd" d="M9.62087 16.7386C8.81492 16.7386 8.16016 16.0839 8.16016 15.2779C8.16016 14.4743 8.81492 13.8196 9.62087 13.8196C10.4268 13.8196 11.0816 14.4743 11.0816 15.2779C11.0816 16.0839 10.4268 16.7386 9.62087 16.7386ZM15.2994 16.7386C14.4935 16.7386 13.8387 16.0839 13.8387 15.2779C13.8387 14.4743 14.4935 13.8196 15.2994 13.8196C16.1054 13.8196 16.7602 14.4743 16.7602 15.2779C16.7602 16.0839 16.1054 16.7386 15.2994 16.7386ZM19.5174 15.2779C19.5174 16.0839 20.1722 16.7386 20.9781 16.7386C21.7841 16.7386 22.4388 16.0839 22.4388 15.2779C22.4388 14.4743 21.7841 13.8196 20.9781 13.8196C20.1722 13.8196 19.5174 14.4743 19.5174 15.2779Z" fill="black" fill-opacity="0.6"/>
<path fill-rule="evenodd" clip-rule="evenodd" d="M15.025 2.5C7.7625 2.5 2.5 8.43265 2.5 15.0188C2.5 17.1219 3.1125 19.2864 4.1875 21.2644C4.3875 21.5911 4.4125 22.003 4.275 22.3923L3.4375 25.1965C3.25 25.8726 3.825 26.3721 4.4625 26.1718L6.9875 25.4219C7.675 25.1965 8.2125 25.4832 8.85 25.8726C10.675 26.9479 12.95 27.5 15 27.5C21.2 27.5 27.5 22.7053 27.5 14.9812C27.5 8.31998 22.125 2.5 15.025 2.5Z" stroke="black" stroke-opacity="0.6" stroke-width="1.5" stroke-linecap="round" stroke-linejoin="round"/>
</svg>
