<svg width="20" height="20" viewBox="0 0 20 20" fill="none" xmlns="http://www.w3.org/2000/svg">
    <path clip-rule="evenodd" d="M8.232 12.672c-3.203 0-5.939.484-5.939 2.424s2.718 2.442 5.94 2.442c3.202 0 5.938-.485 5.938-2.425 0-1.939-2.718-2.441-5.939-2.441zM8.232 9.904a3.793 3.793 0 0 0 3.807-3.806A3.793 3.793 0 0 0 8.232 2.29a3.793 3.793 0 0 0-3.806 3.807 3.794 3.794 0 0 0 3.806 3.806z" stroke="#2E5BFF" stroke-width="1.5" stroke-linecap="round" stroke-linejoin="round"/>
    <path d="M16.005 7.225v3.341M17.71 8.895H14.3" stroke="#2E5BFF" stroke-width="1.5" stroke-linecap="round" stroke-linejoin="round"/>
</svg>
