<svg width="17" height="16" viewBox="0 0 17 16" fill="none" xmlns="http://www.w3.org/2000/svg">
<path fill-rule="evenodd" clip-rule="evenodd" d="M11.4406 1.8464L11.4412 2.34615C13.2777 2.49007 14.4908 3.74145 14.4927 5.66049L14.5 11.2777C14.5026 13.37 13.1882 14.6573 11.0812 14.6606L5.93459 14.6673C3.8408 14.67 2.50988 13.352 2.50724 11.2537L2.5 5.70246C2.49737 3.77077 3.66768 2.52272 5.50411 2.35414L5.50346 1.85439C5.5028 1.56121 5.72001 1.34065 6.00963 1.34065C6.29924 1.33998 6.51645 1.55987 6.51711 1.85306L6.51777 2.31949L10.4276 2.31416L10.4269 1.84773C10.4263 1.55454 10.6435 1.33465 10.9331 1.33399C11.2161 1.33332 11.4399 1.55321 11.4406 1.8464ZM3.51432 5.90836L13.4797 5.89503V5.66182C13.4514 4.2292 12.7327 3.47758 11.4426 3.36563L11.4432 3.87871C11.4432 4.16523 11.2201 4.39245 10.937 4.39245C10.6474 4.39312 10.4296 4.16657 10.4296 3.88004L10.4289 3.34031L6.51908 3.34564L6.51974 3.88471C6.51974 4.1719 6.30319 4.39845 6.01357 4.39845C5.72396 4.39912 5.50609 4.17323 5.50609 3.88604L5.50543 3.37296C4.2219 3.50157 3.51168 4.25586 3.51366 5.70113L3.51432 5.90836ZM10.6599 8.93684V8.94417C10.6665 9.25069 10.9166 9.48324 11.2201 9.47657C11.5163 9.46924 11.7526 9.21537 11.746 8.90886C11.7322 8.61567 11.4946 8.37646 11.199 8.37712C10.8962 8.38379 10.6593 8.63033 10.6599 8.93684ZM11.2036 11.9287C10.9008 11.922 10.6566 11.6695 10.656 11.363C10.6494 11.0564 10.8923 10.8026 11.1951 10.7952H11.2017C11.511 10.7952 11.7618 11.0478 11.7618 11.361C11.7625 11.6741 11.5123 11.928 11.2036 11.9287ZM7.94808 8.9475C7.96124 9.25402 8.21202 9.49323 8.5148 9.47991C8.811 9.46591 9.0473 9.21271 9.03414 8.90619C9.0269 8.60634 8.78336 8.37313 8.48716 8.37379C8.18438 8.38712 7.94742 8.64099 7.94808 8.9475ZM8.51744 11.8987C8.21466 11.912 7.96453 11.6728 7.95071 11.3663C7.95071 11.0598 8.18701 10.8066 8.48979 10.7926C8.78599 10.7919 9.03019 11.0251 9.03677 11.3243C9.05059 11.6315 8.81364 11.8847 8.51744 11.8987ZM5.23622 8.97083C5.24938 9.27734 5.50016 9.51722 5.80294 9.50323C6.09914 9.4899 6.33544 9.23603 6.32162 8.92951C6.31504 8.62966 6.0715 8.39645 5.77464 8.39711C5.47186 8.41044 5.23556 8.66431 5.23622 8.97083ZM5.80558 11.902C5.5028 11.916 5.25267 11.6761 5.23885 11.3696C5.23819 11.0631 5.47515 10.8092 5.77793 10.7959C6.07413 10.7952 6.31833 11.0285 6.32491 11.3283C6.33873 11.6348 6.10243 11.8887 5.80558 11.902Z" fill="#2E5BFF"/>
</svg>
