<svg width="20" height="21" viewBox="0 0 20 21" fill="none" xmlns="http://www.w3.org/2000/svg">
<path fill-rule="evenodd" clip-rule="evenodd" d="M15.719 20.5H4.28099C1.91866 20.5 0 18.5813 0 16.219V4.78099C0 2.41866 1.91866 0.5 4.28099 0.5H15.719C18.0813 0.5 20 2.41866 20 4.78099V16.219C20 18.5813 18.0813 20.5 15.719 20.5ZM4.28099 1.27836C2.35065 1.27836 0.778361 2.84676 0.778361 4.78099V16.219C0.778361 18.1493 2.35065 19.7216 4.28099 19.7216H15.719C17.6493 19.7216 19.2216 18.1493 19.2216 16.219V4.78099C19.2216 2.84676 17.6493 1.27836 15.719 1.27836H4.28099Z" fill="#0E0E0F"/>
<path d="M13.1238 8.45801L10.8548 10.2849C10.4254 10.6216 9.82342 10.6216 9.39401 10.2849L7.10547 8.45801" stroke="black" stroke-linecap="round" stroke-linejoin="round"/>
<path fill-rule="evenodd" clip-rule="evenodd" d="M7.60017 5.5H12.6155C13.3386 5.50811 14.0269 5.81382 14.52 6.34593C15.0131 6.87804 15.2681 7.5901 15.2254 8.31628V11.7889C15.2681 12.5151 15.0131 13.2271 14.52 13.7592C14.0269 14.2913 13.3386 14.597 12.6155 14.6052H7.60017C6.04689 14.6052 5 13.3415 5 11.7889V8.31628C5 6.76365 6.04689 5.5 7.60017 5.5Z" stroke="black" stroke-linecap="round" stroke-linejoin="round"/>
</svg>
