<svg width="18" height="18" viewBox="0 0 18 18" fill="none" xmlns="http://www.w3.org/2000/svg">
<path d="M2.10352 11.6074C2.10352 11.6074 2.21002 12.9109 2.23477 13.3219C2.26777 13.8732 2.48077 14.4889 2.83627 14.9164C3.33802 15.5224 3.92902 15.7362 4.71802 15.7377C5.64577 15.7392 12.392 15.7392 13.3198 15.7377C14.1088 15.7362 14.6998 15.5224 15.2015 14.9164C15.557 14.4889 15.77 13.8732 15.8038 13.3219C15.8278 12.9109 15.9343 11.6074 15.9343 11.6074" stroke="#2E5BFF" stroke-width="1.5" stroke-linecap="round" stroke-linejoin="round"/>
<path d="M6.37305 3.99675V3.7185C6.37305 2.8035 7.11405 2.0625 8.02905 2.0625H9.96555C10.8798 2.0625 11.6215 2.8035 11.6215 3.7185L11.6223 3.99675" stroke="#2E5BFF" stroke-width="1.5" stroke-linecap="round" stroke-linejoin="round"/>
<path d="M8.99609 12.5076V11.5371" stroke="#2E5BFF" stroke-width="1.5" stroke-linecap="round" stroke-linejoin="round"/>
<path fill-rule="evenodd" clip-rule="evenodd" d="M2.0625 6.29155V8.8918C3.501 9.84055 5.2245 10.505 7.116 10.7683C7.3425 9.94255 8.08725 9.3373 8.9925 9.3373C9.8835 9.3373 10.6432 9.94255 10.8547 10.7758C12.7537 10.5125 14.484 9.84805 15.93 8.8918V6.29155C15.93 5.02105 14.9077 3.99805 13.6372 3.99805H4.36275C3.09225 3.99805 2.0625 5.02105 2.0625 6.29155Z" stroke="#2E5BFF" stroke-width="1.5" stroke-linecap="round" stroke-linejoin="round"/>
</svg>
