<svg width="16" height="12" viewBox="0 0 16 12" fill="none" xmlns="http://www.w3.org/2000/svg">
<path fill-rule="evenodd" clip-rule="evenodd" d="M5.07317 6C5.07317 7.6 6.38293 8.90182 8 8.90182C9.60976 8.90182 10.9195 7.6 10.9195 6C10.9195 4.39273 9.60976 3.09091 8 3.09091C6.38293 3.09091 5.07317 4.39273 5.07317 6ZM12.3024 1.53455C13.5829 2.52364 14.6732 3.97091 15.4561 5.78182C15.5146 5.92 15.5146 6.08 15.4561 6.21091C13.8902 9.83273 11.1024 12 8 12H7.99268C4.89756 12 2.10976 9.83273 0.543902 6.21091C0.485366 6.08 0.485366 5.92 0.543902 5.78182C2.10976 2.16 4.89756 0 7.99268 0H8C9.55122 0 11.0219 0.538182 12.3024 1.53455ZM8.00088 7.80931C9.00332 7.80931 9.82283 6.99476 9.82283 5.9984C9.82283 4.99476 9.00332 4.18022 8.00088 4.18022C7.91307 4.18022 7.82527 4.18749 7.74478 4.20204C7.71551 5.00204 7.05698 5.64204 6.24478 5.64204H6.2082C6.18624 5.7584 6.17161 5.87476 6.17161 5.9984C6.17161 6.99476 6.99112 7.80931 8.00088 7.80931Z" fill="#2E5BFF"/>
</svg>
