<svg width="20" height="21" viewBox="0 0 20 21" fill="none" xmlns="http://www.w3.org/2000/svg">
<path d="M13.3579 9.74674L13.1944 11.0427C13.1672 11.2607 12.9842 11.4241 12.7663 11.4241H10.6686V16.8376C10.4481 16.8584 10.225 16.8687 9.99923 16.8687C9.4894 16.8687 8.99514 16.8182 8.51645 16.7209V11.4241H6.90524C6.75735 11.4241 6.63281 11.2996 6.63281 11.1517V9.53269C6.63281 9.3848 6.75735 9.26026 6.90524 9.26026H8.51645V6.83177C8.51645 5.33732 9.72291 4.13086 11.2096 4.13086H13.0893C13.2372 4.13086 13.3617 4.25151 13.3617 4.39939V6.01839C13.3617 6.17017 13.2372 6.29081 13.0893 6.29081H11.7466C11.1512 6.29081 10.6686 6.7734 10.6686 7.37274V9.26026H12.9298C13.1905 9.26026 13.389 9.48988 13.3579 9.74674Z" fill="#0E0E0F"/>
<path fill-rule="evenodd" clip-rule="evenodd" d="M15.719 20.5H4.28099C1.91866 20.5 0 18.5813 0 16.219V4.78099C0 2.41866 1.91866 0.5 4.28099 0.5H15.719C18.0813 0.5 20 2.41866 20 4.78099V16.219C20 18.5813 18.0813 20.5 15.719 20.5ZM4.28099 1.27836C2.35065 1.27836 0.778361 2.84676 0.778361 4.78099V16.219C0.778361 18.1493 2.35065 19.7216 4.28099 19.7216H15.719C17.6493 19.7216 19.2216 18.1493 19.2216 16.219V4.78099C19.2216 2.84676 17.6493 1.27836 15.719 1.27836H4.28099Z" fill="#0E0E0F"/>
</svg>
