<svg width="17" height="18" viewBox="0 0 17 18" fill="none" xmlns="http://www.w3.org/2000/svg">
<path d="M16.6674 8.9997C16.6674 10.6479 16.1786 12.2592 15.2629 13.6296C14.3472 15.0001 13.0456 16.0683 11.5229 16.699C10.0001 17.3298 8.32444 17.4948 6.70787 17.1733C5.09129 16.8517 3.60637 16.058 2.44088 14.8925C1.2754 13.727 0.48169 12.2421 0.160133 10.6255C-0.161424 9.00894 0.00361085 7.33332 0.634368 5.81054C1.26512 4.28776 2.33327 2.98621 3.70374 2.07049C5.07421 1.15478 6.68544 0.666016 8.33369 0.666016C9.42812 0.665877 10.5119 0.88134 11.523 1.3001C12.5342 1.71886 13.4529 2.33271 14.2268 3.10659C15.0007 3.88047 15.6145 4.79922 16.0333 5.81037C16.452 6.82153 16.6675 7.90527 16.6674 8.9997ZM13.6674 5.16812C13.6668 4.84389 13.5378 4.5331 13.3085 4.30383C13.0792 4.07457 12.7684 3.94552 12.4442 3.94496H5.93895C5.61463 3.94524 5.30368 4.0742 5.07436 4.30353C4.84503 4.53285 4.71607 4.8438 4.71579 5.16812V10.7344H10.5737C10.7527 10.7595 10.9167 10.8484 11.0354 10.9848C11.1542 11.1211 11.2197 11.2957 11.22 11.4765V12.6829C11.22 12.8066 11.1744 12.9261 11.0918 13.0183C11.0093 13.1105 10.8956 13.1691 10.7726 13.1829H10.6611C10.5635 13.1722 10.4713 13.1332 10.3956 13.0707C10.32 13.0082 10.2642 12.925 10.2352 12.8313C10.2063 12.7375 10.2053 12.6374 10.2326 12.5431C10.2598 12.4489 10.3139 12.3646 10.3884 12.3008C10.4531 12.2415 10.4984 12.164 10.5181 12.0784C10.5378 11.9929 10.5312 11.9034 10.499 11.8218C10.4669 11.7467 10.4135 11.6828 10.3454 11.6378C10.2773 11.5929 10.1974 11.569 10.1158 11.5692H4.32632C4.00178 11.5692 3.69053 11.6981 3.46104 11.9276C3.23156 12.1571 3.10264 12.4683 3.10264 12.7929C3.10264 13.1174 3.23156 13.4286 3.46104 13.6581C3.69053 13.8876 4.00178 14.0165 4.32632 14.0165H10.6295C10.688 14.0205 10.7467 14.0205 10.8053 14.0165H10.8305C10.8708 14.0164 10.9109 14.0104 10.9495 13.9986C11.24 13.9468 11.5052 13.8004 11.704 13.5822C11.9027 13.3641 12.0238 13.0864 12.0484 12.7923L12.0537 6.43444C12.3351 6.45229 12.6171 6.41031 12.8811 6.31128C13.112 6.22205 13.3106 6.06519 13.4509 5.86122C13.5912 5.65725 13.6666 5.41568 13.6674 5.16812ZM10.8305 5.65654H5.84316V6.49128H10.8305V5.65654ZM10.8305 7.30707H5.84316V8.14075H10.8305V7.30707ZM10.8305 8.95865H5.84316V9.79233H10.8305V8.95865ZM12.8337 5.16917C12.8334 5.2486 12.809 5.32608 12.7637 5.39131C12.7184 5.45655 12.6543 5.50647 12.58 5.53444L12.5726 5.53549L12.5547 5.54496C12.3932 5.59697 12.2227 5.61559 12.0537 5.5997V5.16812C12.0536 5.10878 12.0671 5.0502 12.0932 4.99691C12.1193 4.94362 12.1573 4.89703 12.2042 4.86075C12.2726 4.80693 12.3572 4.77797 12.4442 4.77865C12.5475 4.77865 12.6466 4.81968 12.7196 4.89272C12.7927 4.96576 12.8337 5.06588 12.8337 5.16917Z" fill="#C4C4C4"/>
</svg>
