<svg width="48" height="48" viewBox="0 0 48 48" fill="none" xmlns="http://www.w3.org/2000/svg">
<g clip-path="url(#clip0_11702_45625)">
<path d="M39.9927 17.6436C37.7742 8.80599 28.8117 3.44014 19.9741 5.65858C13.0677 7.3923 8.05291 13.3614 7.53622 20.4632C2.63241 21.2719 -0.687381 25.9027 0.121312 30.8065C0.840202 35.1661 4.61773 38.3587 9.03605 38.3412H16.5352V35.3416H9.03605C5.72273 35.3416 3.03671 32.6555 3.03671 29.3422C3.03671 26.0289 5.72273 23.3429 9.03605 23.3429C9.86443 23.3429 10.5359 22.6714 10.5359 21.843C10.5284 14.388 16.5659 8.33841 24.0209 8.33101C30.4743 8.32454 36.0296 12.8869 37.278 19.2183C37.4012 19.8505 37.9143 20.3334 38.5528 20.4182C42.6532 21.0021 45.5037 24.7994 44.9199 28.8997C44.3956 32.5816 41.252 35.323 37.5329 35.3416H31.5336V38.3412H37.5329C43.3313 38.3237 48.0175 33.609 47.9999 27.8106C47.9853 22.9839 44.6815 18.789 39.9927 17.6436Z" fill="#C4C4C4"/>
<path d="M22.97 23.778L16.9707 29.7773L19.0855 31.8921L22.5351 28.4574V42.8409H25.5348V28.4574L28.9694 31.8921L31.0842 29.7773L25.0848 23.778C24.4998 23.1964 23.5551 23.1964 22.97 23.778Z" fill="#C4C4C4"/>
</g>
<defs>
<clipPath id="clip0_11702_45625">
<rect width="48" height="48" fill="white"/>
</clipPath>
</defs>
</svg>
