<svg width="22" height="22" viewBox="0 0 22 22" fill="none" xmlns="http://www.w3.org/2000/svg">
<g clip-path="url(#clip0_14793_165765)">
<path d="M11 22C17.0751 22 22 17.0751 22 11C22 4.92487 17.0751 0 11 0C4.92487 0 0 4.92487 0 11C0 17.0751 4.92487 22 11 22Z" fill="white"/>
<path d="M13.7651 11.4288H11.8023V18.6197H8.82843V11.4288H7.41406V8.90167H8.82843V7.26632C8.82843 6.09687 9.38394 4.26562 11.8287 4.26562L14.0316 4.27484V6.72787H12.4333C12.1711 6.72787 11.8025 6.85885 11.8025 7.41672V8.90402H14.0249L13.7651 11.4288Z" fill="#2E5BFF"/>
</g>
<defs>
<clipPath id="clip0_14793_165765">
<rect width="22" height="22" fill="white"/>
</clipPath>
</defs>
</svg>
