<svg width="22" height="22" viewBox="0 0 22 22" fill="none" xmlns="http://www.w3.org/2000/svg">
<path d="M11 22C17.0751 22 22 17.0751 22 11C22 4.92487 17.0751 0 11 0C4.92487 0 0 4.92487 0 11C0 17.0751 4.92487 22 11 22Z" fill="white"/>
<path d="M16.4622 8.24323C17.0214 7.85231 17.4917 7.36436 17.875 6.80251C17.3634 7.02308 16.8191 7.16918 16.2508 7.24026C16.8352 6.89672 17.2815 6.35687 17.4911 5.70646C16.9463 6.02631 16.3447 6.25195 15.7036 6.37831C15.1863 5.83564 14.449 5.5 13.6446 5.5C12.084 5.5 10.8276 6.74723 10.8276 8.27595C10.8276 8.49595 10.8465 8.70749 10.8929 8.90887C8.54963 8.79605 6.47568 7.69041 5.08234 6.00544C4.83943 6.42118 4.6962 6.89672 4.6962 7.40836C4.6962 8.36959 5.19865 9.22138 5.94859 9.71497C5.49542 9.70651 5.05141 9.57677 4.675 9.37313V9.40359C4.675 10.7524 5.65182 11.8727 6.93344 12.131C6.7037 12.1931 6.45391 12.2224 6.19438 12.2224C6.01391 12.2224 5.83172 12.2123 5.66099 12.175C6.02594 13.2739 6.93344 14.1088 8.29469 14.1088C7.33562 14.8472 6.1875 15.0615 4.8125 15.0615C4.58161 15.0615 4.34672 15.0892 4.125 15.0615C5.37396 15.8541 6.85323 16.5 8.44938 16.5C13.424 16.5 16.6661 12.4136 16.4622 8.24323Z" fill="#2E5BFF"/>
</svg>
