<svg width="22" height="22" viewBox="0 0 22 22" fill="none" xmlns="http://www.w3.org/2000/svg">
<circle cx="11" cy="11" r="10" fill="white" stroke="white" stroke-width="2"/>
<path d="M11.5016 8.65417C11.0574 8.65417 10.6232 8.78588 10.2538 9.03266C9.88452 9.27943 9.59667 9.63018 9.42668 10.0406C9.2567 10.4509 9.21223 10.9025 9.29888 11.3381C9.38554 11.7738 9.59943 12.174 9.91352 12.488C10.2276 12.8021 10.6278 13.016 11.0634 13.1027C11.4991 13.1893 11.9506 13.1449 12.361 12.9749C12.7714 12.8049 13.1221 12.517 13.3689 12.1477C13.6157 11.7784 13.7474 11.3442 13.7474 10.9C13.7467 10.3046 13.5099 9.73373 13.0889 9.3127C12.6678 8.89167 12.097 8.65484 11.5016 8.65417ZM11.5016 12.7375C11.1381 12.7375 10.7829 12.6297 10.4807 12.4278C10.1785 12.2259 9.94301 11.9389 9.80393 11.6032C9.66486 11.2674 9.62847 10.898 9.69937 10.5415C9.77027 10.1851 9.94528 9.85767 10.2023 9.60069C10.4592 9.34371 10.7866 9.16871 11.1431 9.09781C11.4995 9.02691 11.869 9.0633 12.2047 9.20237C12.5405 9.34145 12.8275 9.57696 13.0294 9.87914C13.2313 10.1813 13.3391 10.5366 13.3391 10.9C13.3385 11.3872 13.1447 11.8542 12.8003 12.1987C12.4558 12.5432 11.9887 12.737 11.5016 12.7375ZM13.7474 6H9.25573C8.55205 6.0008 7.87741 6.28069 7.37983 6.77827C6.88225 7.27585 6.60236 7.95048 6.60156 8.65417V13.1458C6.60236 13.8495 6.88225 14.5242 7.37983 15.0217C7.87741 15.5193 8.55205 15.7992 9.25573 15.8H13.7474C14.4511 15.7992 15.1257 15.5193 15.6233 15.0217C16.1209 14.5242 16.4008 13.8495 16.4016 13.1458V8.65417C16.4008 7.95048 16.1209 7.27585 15.6233 6.77827C15.1257 6.28069 14.4511 6.0008 13.7474 6ZM15.9932 13.1458C15.9926 13.7413 15.7557 14.3121 15.3347 14.7331C14.9137 15.1542 14.3428 15.391 13.7474 15.3917H9.25573C8.6603 15.391 8.08946 15.1542 7.66843 14.7331C7.2474 14.3121 7.01057 13.7413 7.0099 13.1458V8.65417C7.01057 8.05874 7.2474 7.4879 7.66843 7.06687C8.08946 6.64584 8.6603 6.40901 9.25573 6.40833H13.7474C14.3428 6.40901 14.9137 6.64584 15.3347 7.06687C15.7557 7.4879 15.9926 8.05874 15.9932 8.65417V13.1458ZM14.5641 8.24583C14.5641 8.32659 14.5401 8.40554 14.4952 8.47269C14.4504 8.53984 14.3866 8.59218 14.312 8.62308C14.2374 8.65399 14.1553 8.66208 14.0761 8.64632C13.9969 8.63057 13.9241 8.59168 13.867 8.53457C13.8099 8.47746 13.771 8.4047 13.7552 8.3255C13.7395 8.24629 13.7476 8.16418 13.7785 8.08957C13.8094 8.01496 13.8617 7.95118 13.9289 7.90632C13.996 7.86145 14.075 7.8375 14.1557 7.8375C14.264 7.83762 14.3678 7.88068 14.4443 7.95723C14.5209 8.03379 14.5639 8.13757 14.5641 8.24583Z" fill="#2E5BFF" stroke="#2E5BFF"/>
</svg>
