<svg width="22" height="22" viewBox="0 0 22 22" fill="none" xmlns="http://www.w3.org/2000/svg">
<circle cx="11" cy="11" r="10" fill="white" stroke="white" stroke-width="2"/>
<path d="M11.2026 5.00638C8.28979 5.14507 5.99119 7.57086 6.00003 10.4869C6.00272 11.3751 6.21713 12.2134 6.59538 12.9541L6.01464 15.7731C5.98322 15.9256 6.12075 16.0591 6.27224 16.0233L9.03451 15.3688C9.74419 15.7223 10.5413 15.9265 11.3849 15.9394C14.3621 15.9849 16.8445 13.6209 16.9373 10.6449C17.0367 7.45477 14.4038 4.85392 11.2026 5.00638ZM14.4986 13.4986C13.6896 14.3075 12.614 14.753 11.47 14.753C10.8001 14.753 10.1588 14.6028 9.56377 14.3064L9.17909 14.1147L7.48552 14.516L7.84201 12.7855L7.65249 12.4143C7.34359 11.8094 7.18696 11.1552 7.18696 10.47C7.18696 9.32595 7.63247 8.25041 8.44143 7.44142C9.24316 6.63969 10.3363 6.18693 11.4701 6.18693C12.6141 6.18696 13.6896 6.63247 14.4986 7.4414C15.3075 8.25035 15.753 9.3259 15.7531 10.4699C15.753 11.6038 15.3003 12.6969 14.4986 13.4986Z" fill="#2E5BFF"/>
<path d="M14.1256 11.112L13.0661 10.8078C12.9268 10.7678 12.7768 10.8073 12.6753 10.9107L12.4162 11.1747C12.3069 11.286 12.1411 11.3218 11.9965 11.2633C11.4953 11.0604 10.441 10.123 10.1717 9.65407C10.094 9.51881 10.1069 9.34971 10.2023 9.22629L10.4285 8.93364C10.5171 8.81898 10.5358 8.66499 10.4772 8.53244L10.0314 7.52424C9.92464 7.28276 9.61606 7.21246 9.41446 7.38296C9.11874 7.63307 8.76788 8.01313 8.72523 8.43419C8.65002 9.17654 8.9684 10.1123 10.1723 11.236C11.5632 12.5342 12.677 12.7057 13.4022 12.53C13.8135 12.4304 14.1422 12.031 14.3496 11.7039C14.4911 11.481 14.3794 11.1849 14.1256 11.112Z" fill="#2E5BFF"/>
</svg>
