<svg width="105" height="18" viewBox="0 0 105 18" fill="none" xmlns="http://www.w3.org/2000/svg">
<path d="M12.6449 10.74C12.4621 10.9282 12.3782 11.2005 12.4198 11.4675L13.0472 15.1575C13.1002 15.4702 12.9759 15.7868 12.7296 15.9675C12.4883 16.155 12.1671 16.1775 11.9039 16.0275L8.77812 14.295C8.66944 14.2335 8.54875 14.2005 8.42525 14.1968H8.23399C8.16765 14.2073 8.10272 14.2297 8.04344 14.2642L4.91695 16.005C4.76239 16.0875 4.58737 16.1168 4.41587 16.0875C3.99806 16.0035 3.71929 15.5805 3.78775 15.1343L4.41587 11.4443C4.45751 11.175 4.37352 10.9012 4.19073 10.71L1.64226 8.085C1.42912 7.86525 1.35502 7.53525 1.45241 7.2375C1.54698 6.9405 1.78835 6.72375 2.07983 6.675L5.58742 6.13425C5.85419 6.105 6.0885 5.9325 6.20848 5.6775L7.75408 2.31C7.79077 2.235 7.83806 2.166 7.89523 2.1075L7.95874 2.055C7.99191 2.016 8.03003 1.98375 8.07237 1.9575L8.1493 1.9275L8.26928 1.875H8.5664C8.83176 1.90425 9.06536 2.073 9.18746 2.325L10.7535 5.6775C10.8664 5.92275 11.0859 6.093 11.3393 6.13425L14.8469 6.675C15.1433 6.72 15.391 6.9375 15.4891 7.2375C15.5816 7.53825 15.5018 7.86825 15.2845 8.085L12.6449 10.74Z" fill="#F5C90E"/>
<path d="M100.395 10.74C100.212 10.9282 100.128 11.2005 100.17 11.4675L100.797 15.1575C100.85 15.4702 100.726 15.7868 100.48 15.9675C100.238 16.155 99.9171 16.1775 99.6539 16.0275L96.5281 14.295C96.4194 14.2335 96.2988 14.2005 96.1752 14.1968H95.984C95.9176 14.2073 95.8527 14.2297 95.7934 14.2642L92.667 16.005C92.5124 16.0875 92.3374 16.1168 92.1659 16.0875C91.7481 16.0035 91.4693 15.5805 91.5377 15.1343L92.1659 11.4443C92.2075 11.175 92.1235 10.9012 91.9407 10.71L89.3923 8.085C89.1791 7.86525 89.105 7.53525 89.2024 7.2375C89.297 6.9405 89.5384 6.72375 89.8298 6.675L93.3374 6.13425C93.6042 6.105 93.8385 5.9325 93.9585 5.6775L95.5041 2.31C95.5408 2.235 95.5881 2.166 95.6452 2.1075L95.7087 2.055C95.7419 2.016 95.78 1.98375 95.8224 1.9575L95.8993 1.9275L96.0193 1.875H96.3164C96.5818 1.90425 96.8154 2.073 96.9375 2.325L98.5035 5.6775C98.6164 5.92275 98.8359 6.093 99.0893 6.13425L102.597 6.675C102.893 6.72 103.141 6.9375 103.239 7.2375C103.332 7.53825 103.252 7.86825 103.034 8.085L100.395 10.74Z" fill="#D5D5D5"/>
<path d="M78.4574 10.74C78.2746 10.9282 78.1907 11.2005 78.2323 11.4675L78.8597 15.1575C78.9127 15.4702 78.7884 15.7868 78.5421 15.9675C78.3008 16.155 77.9796 16.1775 77.7164 16.0275L74.5906 14.295C74.4819 14.2335 74.3613 14.2005 74.2377 14.1968H74.0465C73.9801 14.2073 73.9152 14.2297 73.8559 14.2642L70.7295 16.005C70.5749 16.0875 70.3999 16.1168 70.2284 16.0875C69.8106 16.0035 69.5318 15.5805 69.6002 15.1343L70.2284 11.4443C70.27 11.175 70.186 10.9012 70.0032 10.71L67.4548 8.085C67.2416 7.86525 67.1675 7.53525 67.2649 7.2375C67.3595 6.9405 67.6009 6.72375 67.8923 6.675L71.3999 6.13425C71.6667 6.105 71.901 5.9325 72.021 5.6775L73.5666 2.31C73.6033 2.235 73.6506 2.166 73.7077 2.1075L73.7712 2.055C73.8044 2.016 73.8425 1.98375 73.8849 1.9575L73.9618 1.9275L74.0818 1.875H74.3789C74.6443 1.90425 74.8779 2.073 75 2.325L76.566 5.6775C76.6789 5.92275 76.8984 6.093 77.1518 6.13425L80.6594 6.675C80.9558 6.72 81.2035 6.9375 81.3016 7.2375C81.3941 7.53825 81.3143 7.86825 81.097 8.085L78.4574 10.74Z" fill="#F5C90E"/>
<path d="M56.5199 10.74C56.3371 10.9282 56.2532 11.2005 56.2948 11.4675L56.9222 15.1575C56.9752 15.4702 56.8509 15.7868 56.6046 15.9675C56.3633 16.155 56.0421 16.1775 55.7789 16.0275L52.6531 14.295C52.5444 14.2335 52.4238 14.2005 52.3002 14.1968H52.109C52.0426 14.2073 51.9777 14.2297 51.9184 14.2642L48.792 16.005C48.6374 16.0875 48.4624 16.1168 48.2909 16.0875C47.8731 16.0035 47.5943 15.5805 47.6627 15.1343L48.2909 11.4443C48.3325 11.175 48.2485 10.9012 48.0657 10.71L45.5173 8.085C45.3041 7.86525 45.23 7.53525 45.3274 7.2375C45.422 6.9405 45.6634 6.72375 45.9548 6.675L49.4624 6.13425C49.7292 6.105 49.9635 5.9325 50.0835 5.6775L51.6291 2.31C51.6658 2.235 51.7131 2.166 51.7702 2.1075L51.8337 2.055C51.8669 2.016 51.905 1.98375 51.9474 1.9575L52.0243 1.9275L52.1443 1.875H52.4414C52.7068 1.90425 52.9404 2.073 53.0625 2.325L54.6285 5.6775C54.7414 5.92275 54.9609 6.093 55.2143 6.13425L58.7219 6.675C59.0183 6.72 59.266 6.9375 59.3641 7.2375C59.4566 7.53825 59.3768 7.86825 59.1595 8.085L56.5199 10.74Z" fill="#F5C90E"/>
<path d="M34.5824 10.74C34.3996 10.9282 34.3157 11.2005 34.3573 11.4675L34.9847 15.1575C35.0377 15.4702 34.9134 15.7868 34.6671 15.9675C34.4258 16.155 34.1046 16.1775 33.8414 16.0275L30.7156 14.295C30.6069 14.2335 30.4863 14.2005 30.3627 14.1968H30.1715C30.1051 14.2073 30.0402 14.2297 29.9809 14.2642L26.8545 16.005C26.6999 16.0875 26.5249 16.1168 26.3534 16.0875C25.9356 16.0035 25.6568 15.5805 25.7252 15.1343L26.3534 11.4443C26.395 11.175 26.311 10.9012 26.1282 10.71L23.5798 8.085C23.3666 7.86525 23.2925 7.53525 23.3899 7.2375C23.4845 6.9405 23.7259 6.72375 24.0173 6.675L27.5249 6.13425C27.7917 6.105 28.026 5.9325 28.146 5.6775L29.6916 2.31C29.7283 2.235 29.7756 2.166 29.8327 2.1075L29.8962 2.055C29.9294 2.016 29.9675 1.98375 30.0099 1.9575L30.0868 1.9275L30.2068 1.875H30.5039C30.7693 1.90425 31.0029 2.073 31.125 2.325L32.691 5.6775C32.8039 5.92275 33.0234 6.093 33.2768 6.13425L36.7844 6.675C37.0808 6.72 37.3285 6.9375 37.4266 7.2375C37.5191 7.53825 37.4393 7.86825 37.222 8.085L34.5824 10.74Z" fill="#F5C90E"/>
</svg>
