<svg width="20" height="20" viewBox="0 0 20 20" fill="none" xmlns="http://www.w3.org/2000/svg">
<path d="M17.7523 2.24762C17.2598 1.75851 16.5939 1.48401 15.8999 1.48401C15.2058 1.48401 14.5399 1.75851 14.0475 2.24762L2.72846 13.5667C2.62229 13.6763 2.55246 13.816 2.52846 13.9667L2.04751 17.1429C2.03172 17.2446 2.03812 17.3486 2.06626 17.4476C2.09441 17.5467 2.14364 17.6385 2.21058 17.7167C2.27752 17.795 2.36058 17.8578 2.45408 17.901C2.54758 17.9441 2.6493 17.9665 2.75227 17.9667H2.8618L6.03322 17.4905C6.18394 17.4665 6.3236 17.3967 6.43322 17.2905L17.7523 5.95238C18.2414 5.45995 18.5159 4.79406 18.5159 4.1C18.5159 3.40594 18.2414 2.74005 17.7523 2.24762ZM5.59037 16.0952L3.60465 16.3952L3.90465 14.4095L13.1999 5.11905L14.8808 6.8L5.59037 16.0952ZM16.7427 4.94286L15.557 6.12857L13.8713 4.44286L15.057 3.25715C15.2806 3.03361 15.5838 2.90802 15.8999 2.90802C16.216 2.90802 16.5192 3.03361 16.7427 3.25715C16.9663 3.48068 17.0919 3.78387 17.0919 4.1C17.0919 4.41613 16.9663 4.71932 16.7427 4.94286Z" fill="#2E5BFF"/>
</svg>
