<svg width="16" height="16" viewBox="0 0 16 16" fill="none" xmlns="http://www.w3.org/2000/svg">
<path d="M6.10611 13.5543V11.5098C6.1061 10.9898 6.53005 10.5673 7.05531 10.5638H8.97936C9.50713 10.5638 9.93497 10.9873 9.93497 11.5098V11.5098V13.5607C9.93485 14.0022 10.2908 14.363 10.7367 14.3734H12.0194C13.2981 14.3734 14.3346 13.3472 14.3346 12.0813V12.0813V6.26526C14.3278 5.76726 14.0916 5.29961 13.6933 4.99539L9.30645 1.49691C8.53792 0.88775 7.44544 0.88775 6.67691 1.49691L2.30932 5.00174C1.90947 5.30472 1.67289 5.77315 1.66797 6.27161V12.0813C1.66797 13.3472 2.70455 14.3734 3.98324 14.3734H5.26594C5.72287 14.3734 6.09328 14.0067 6.09328 13.5543V13.5543" stroke="white" stroke-width="1.5" stroke-linecap="round" stroke-linejoin="round"/>
</svg>
