<svg width="16" height="16" viewBox="0 0 16 16" fill="none" xmlns="http://www.w3.org/2000/svg">
<path d="M7.54738 0.00925298C3.3218 0.210451 -0.012782 3.72954 3.68344e-05 7.95991C0.00393988 9.24837 0.314997 10.4645 0.86372 11.5391L0.0212357 15.6286C-0.0243381 15.8498 0.175176 16.0435 0.394933 15.9915L4.40217 15.0421C5.4317 15.5549 6.58807 15.8511 7.81191 15.8698C12.1309 15.9357 15.7321 12.5064 15.8667 8.18904C16.011 3.56114 12.1915 -0.21192 7.54738 0.00925298ZM12.3289 12.3289C11.1553 13.5025 9.59499 14.1488 7.93535 14.1488C6.96357 14.1488 6.03319 13.9307 5.16997 13.5007L4.61191 13.2227L2.15505 13.8048L2.67221 11.2944L2.39727 10.756C1.94915 9.87837 1.72193 8.92936 1.72193 7.93534C1.72193 6.27567 2.36823 4.71537 3.54178 3.54178C4.70485 2.37871 6.29064 1.72189 7.93546 1.72189C9.5951 1.72192 11.1554 2.36822 12.3289 3.54174C13.5025 4.71529 14.1488 6.27559 14.1488 7.93523C14.1488 9.5801 13.4919 11.1659 12.3289 12.3289Z" fill="white"/>
<path d="M11.7869 9.65627L10.2498 9.21492C10.0477 9.15691 9.83013 9.21423 9.68288 9.36427L9.307 9.74723C9.14851 9.9087 8.90801 9.96059 8.69824 9.87572C7.97113 9.58146 6.44159 8.22152 6.05098 7.54128C5.93829 7.34505 5.95693 7.09974 6.09529 6.92069L6.42346 6.49614C6.55203 6.3298 6.57916 6.10641 6.49413 5.91413L5.84745 4.45152C5.69255 4.1012 5.24489 3.99922 4.95243 4.24657C4.52344 4.6094 4.01444 5.16076 3.95256 5.77159C3.84347 6.84852 4.30533 8.2061 6.05186 9.83619C8.06959 11.7194 9.68537 11.9682 10.7374 11.7134C11.3341 11.5688 11.811 10.9894 12.1119 10.515C12.3171 10.1916 12.1551 9.762 11.7869 9.65627Z" fill="white"/>
</svg>
