<svg width="17" height="16" viewBox="0 0 17 16" fill="none" xmlns="http://www.w3.org/2000/svg">
<path d="M16.17 1.8614C15.5937 2.16738 14.9666 2.3876 14.3207 2.47336C14.9913 1.98295 15.4935 1.20817 15.7331 0.294401C15.1038 0.755204 14.4144 1.07833 13.6955 1.24944C13.395 0.854039 13.0316 0.539048 12.6279 0.32409C12.2242 0.109132 11.7889 -0.00118634 11.349 9.62082e-06C9.56943 9.62082e-06 8.13821 1.77563 8.13821 3.9546C8.13821 4.26058 8.16834 4.56656 8.2173 4.86095C5.55259 4.68942 3.17601 3.12242 1.59601 0.72324C1.30812 1.32852 1.15726 2.0177 1.15912 2.71908C1.15912 4.09136 1.72595 5.30138 2.59034 6.01302C2.08094 5.98833 1.58348 5.81598 1.1384 5.51V5.55868C1.1384 7.48034 2.24195 9.07284 3.71272 9.43909C3.43656 9.52739 3.15248 9.57256 2.86717 9.57354C2.65813 9.57354 2.4604 9.54804 2.26078 9.51327C2.66755 11.0803 3.85207 12.2184 5.26258 12.2555C4.15903 13.3195 2.77677 13.9454 1.27587 13.9454C1.00658 13.9454 0.757997 13.9338 0.5 13.8967C1.92369 15.0209 3.61291 15.67 5.43207 15.67C11.3377 15.67 14.5693 9.64772 14.5693 4.42052C14.5693 4.24899 14.5693 4.07745 14.5599 3.90592C15.1851 3.34263 15.7331 2.6449 16.17 1.8614Z" fill="white"/>
</svg>
