<svg width="24" height="24" viewBox="0 0 24 24" fill="none" xmlns="http://www.w3.org/2000/svg">
<path d="M16.0195 10.9133C17.8405 10.9133 19.3165 9.43734 19.3165 7.61634C19.3165 5.79634 17.8405 4.31934 16.0195 4.31934" stroke="black" stroke-opacity="0.6" stroke-width="1.5" stroke-linecap="round" stroke-linejoin="round"/>
<path d="M17.5352 14.4963C18.0792 14.5333 18.6192 14.6113 19.1522 14.7293C19.8912 14.8763 20.7812 15.1793 21.0972 15.8423C21.2992 16.2673 21.2992 16.7623 21.0972 17.1873C20.7822 17.8503 19.8912 18.1533 19.1522 18.3053" stroke="black" stroke-opacity="0.6" stroke-width="1.5" stroke-linecap="round" stroke-linejoin="round"/>
<path fill-rule="evenodd" clip-rule="evenodd" d="M9.591 15.2063C13.281 15.2063 16.433 15.7653 16.433 17.9983C16.433 20.2323 13.301 20.8103 9.591 20.8103C5.901 20.8103 2.75 20.2523 2.75 18.0183C2.75 15.7843 5.881 15.2063 9.591 15.2063Z" stroke="black" stroke-opacity="0.6" stroke-width="1.5" stroke-linecap="round" stroke-linejoin="round"/>
<path fill-rule="evenodd" clip-rule="evenodd" d="M9.59103 12.0188C7.15703 12.0188 5.20703 10.0678 5.20703 7.63376C5.20703 5.20076 7.15703 3.24976 9.59103 3.24976C12.025 3.24976 13.976 5.20076 13.976 7.63376C13.976 10.0678 12.025 12.0188 9.59103 12.0188Z" stroke="black" stroke-opacity="0.6" stroke-width="1.5" stroke-linecap="round" stroke-linejoin="round"/>
</svg>
