<svg width="212" height="36" viewBox="0 0 212 36" fill="none" xmlns="http://www.w3.org/2000/svg">
<path d="M25.6101 21.48C25.24 21.8565 25.0699 22.401 25.1542 22.935L26.4247 30.315C26.5319 30.9405 26.2804 31.5735 25.7816 31.935C25.2928 32.31 24.6426 32.355 24.1095 32.055L17.7797 28.59C17.5596 28.467 17.3152 28.401 17.0651 28.3935H16.6778C16.5435 28.4145 16.412 28.4595 16.2919 28.5285L9.96073 32.01C9.64774 32.175 9.29331 32.2335 8.94602 32.175C8.09995 32.007 7.53543 31.161 7.67406 30.2685L8.94602 22.8885C9.03034 22.35 8.86027 21.8025 8.49011 21.42L3.32939 16.17C2.89779 15.7305 2.74772 15.0705 2.94495 14.475C3.13646 13.881 3.62523 13.4475 4.21548 13.35L11.3184 12.2685C11.8587 12.21 12.3331 11.865 12.5761 11.355L15.706 4.62C15.7803 4.47 15.876 4.332 15.9918 4.215L16.1204 4.11C16.1876 4.032 16.2648 3.9675 16.3505 3.915L16.5063 3.855L16.7493 3.75H17.3509C17.8883 3.8085 18.3614 4.146 18.6086 4.65L21.7799 11.355C22.0086 11.8455 22.4531 12.186 22.9661 12.2685L30.0691 13.35C30.6694 13.44 31.171 13.875 31.3696 14.475C31.5569 15.0765 31.3954 15.7365 30.9552 16.17L25.6101 21.48Z" fill="#D4D4D4"/>
<path d="M203.309 21.48C202.939 21.8565 202.769 22.401 202.853 22.935L204.124 30.315C204.231 30.9405 203.98 31.5735 203.481 31.935C202.992 32.31 202.342 32.355 201.809 32.055L195.479 28.59C195.259 28.467 195.014 28.401 194.764 28.3935H194.377C194.243 28.4145 194.111 28.4595 193.991 28.5285L187.66 32.01C187.347 32.175 186.993 32.2335 186.645 32.175C185.799 32.007 185.235 31.161 185.373 30.2685L186.645 22.8885C186.73 22.35 186.559 21.8025 186.189 21.42L181.029 16.17C180.597 15.7305 180.447 15.0705 180.644 14.475C180.836 13.881 181.324 13.4475 181.915 13.35L189.018 12.2685C189.558 12.21 190.032 11.865 190.275 11.355L193.405 4.62C193.48 4.47 193.575 4.332 193.691 4.215L193.82 4.11C193.887 4.032 193.964 3.9675 194.05 3.915L194.206 3.855L194.448 3.75H195.05C195.588 3.8085 196.061 4.146 196.308 4.65L199.479 11.355C199.708 11.8455 200.152 12.186 200.665 12.2685L207.768 13.35C208.369 13.44 208.87 13.875 209.069 14.475C209.256 15.0765 209.095 15.7365 208.654 16.17L203.309 21.48Z" fill="#D5D5D5"/>
<path d="M158.884 21.48C158.513 21.8565 158.343 22.401 158.428 22.935L159.698 30.315C159.805 30.9405 159.554 31.5735 159.055 31.935C158.566 32.31 157.916 32.355 157.383 32.055L151.053 28.59C150.833 28.467 150.589 28.401 150.339 28.3935H149.951C149.817 28.4145 149.685 28.4595 149.565 28.5285L143.234 32.01C142.921 32.175 142.567 32.2335 142.219 32.175C141.373 32.007 140.809 31.161 140.947 30.2685L142.219 22.8885C142.304 22.35 142.134 21.8025 141.764 21.42L136.603 16.17C136.171 15.7305 136.021 15.0705 136.218 14.475C136.41 13.881 136.899 13.4475 137.489 13.35L144.592 12.2685C145.132 12.21 145.607 11.865 145.85 11.355L148.979 4.62C149.054 4.47 149.149 4.332 149.265 4.215L149.394 4.11C149.461 4.032 149.538 3.9675 149.624 3.915L149.78 3.855L150.023 3.75H150.624C151.162 3.8085 151.635 4.146 151.882 4.65L155.053 11.355C155.282 11.8455 155.727 12.186 156.24 12.2685L163.343 13.35C163.943 13.44 164.444 13.875 164.643 14.475C164.83 15.0765 164.669 15.7365 164.229 16.17L158.884 21.48Z" fill="#D4D4D4"/>
<path d="M114.462 21.48C114.092 21.8565 113.921 22.401 114.006 22.935L115.276 30.315C115.383 30.9405 115.132 31.5735 114.633 31.935C114.144 32.31 113.494 32.355 112.961 32.055L106.631 28.59C106.411 28.467 106.167 28.401 105.917 28.3935H105.529C105.395 28.4145 105.264 28.4595 105.143 28.5285L98.8123 32.01C98.4993 32.175 98.1449 32.2335 97.7976 32.175C96.9515 32.007 96.387 31.161 96.5256 30.2685L97.7976 22.8885C97.8819 22.35 97.7118 21.8025 97.3417 21.42L92.181 16.17C91.7493 15.7305 91.5993 15.0705 91.7965 14.475C91.988 13.881 92.4768 13.4475 93.067 13.35L100.17 12.2685C100.71 12.21 101.185 11.865 101.428 11.355L104.558 4.62C104.632 4.47 104.728 4.332 104.843 4.215L104.972 4.11C105.039 4.032 105.116 3.9675 105.202 3.915L105.358 3.855L105.601 3.75H106.203C106.74 3.8085 107.213 4.146 107.46 4.65L110.631 11.355C110.86 11.8455 111.305 12.186 111.818 12.2685L118.921 13.35C119.521 13.44 120.023 13.875 120.221 14.475C120.408 15.0765 120.247 15.7365 119.807 16.17L114.462 21.48Z" fill="#D4D4D4"/>
<path d="M70.0359 21.48C69.6657 21.8565 69.4957 22.401 69.58 22.935L70.8505 30.315C70.9577 30.9405 70.7062 31.5735 70.2074 31.935C69.7186 32.31 69.0683 32.355 68.5353 32.055L62.2055 28.59C61.9854 28.467 61.741 28.401 61.4909 28.3935H61.1036C60.9693 28.4145 60.8378 28.4595 60.7177 28.5285L54.3865 32.01C54.0735 32.175 53.7191 32.2335 53.3718 32.175C52.5257 32.007 51.9612 31.161 52.0998 30.2685L53.3718 22.8885C53.4561 22.35 53.2861 21.8025 52.9159 21.42L47.7552 16.17C47.3236 15.7305 47.1735 15.0705 47.3707 14.475C47.5622 13.881 48.051 13.4475 48.6413 13.35L55.7442 12.2685C56.2844 12.21 56.7589 11.865 57.0019 11.355L60.1318 4.62C60.2061 4.47 60.3018 4.332 60.4176 4.215L60.5462 4.11C60.6134 4.032 60.6906 3.9675 60.7763 3.915L60.9321 3.855L61.1751 3.75H61.7767C62.3141 3.8085 62.7872 4.146 63.0344 4.65L66.2057 11.355C66.4344 11.8455 66.8789 12.186 67.3919 12.2685L74.4949 13.35C75.0951 13.44 75.5968 13.875 75.7954 14.475C75.9826 15.0765 75.8212 15.7365 75.381 16.17L70.0359 21.48Z" fill="#D4D4D4"/>
</svg>
