<svg width="40" height="40" viewBox="0 0 40 40" fill="none" xmlns="http://www.w3.org/2000/svg">
<circle cx="20" cy="20" r="20" fill="#2E5BFF" fill-opacity="0.05"/>
<circle cx="20" cy="20" r="19" stroke="#2E5BFF" stroke-opacity="0.05" stroke-width="2"/>
<path d="M20 16.3333C19.2748 16.3333 18.5659 16.5484 17.9629 16.9513C17.3599 17.3542 16.89 17.9268 16.6124 18.5968C16.3349 19.2668 16.2623 20.0041 16.4038 20.7153C16.5453 21.4266 16.8945 22.0799 17.4073 22.5927C17.9201 23.1055 18.5734 23.4547 19.2847 23.5962C19.9959 23.7377 20.7332 23.6651 21.4032 23.3876C22.0732 23.11 22.6458 22.6401 23.0487 22.0371C23.4516 21.4341 23.6667 20.7252 23.6667 20C23.6656 19.0279 23.2789 18.0959 22.5915 17.4085C21.9041 16.7211 20.9721 16.3344 20 16.3333ZM20 23C19.4067 23 18.8266 22.8241 18.3333 22.4944C17.8399 22.1648 17.4554 21.6962 17.2284 21.1481C17.0013 20.5999 16.9419 19.9967 17.0576 19.4147C17.1734 18.8328 17.4591 18.2982 17.8787 17.8787C18.2982 17.4591 18.8328 17.1734 19.4147 17.0576C19.9967 16.9419 20.5999 17.0013 21.1481 17.2284C21.6962 17.4554 22.1648 17.8399 22.4944 18.3333C22.8241 18.8266 23 19.4067 23 20C22.9991 20.7954 22.6827 21.5579 22.1203 22.1203C21.5579 22.6827 20.7954 22.9991 20 23ZM23.6667 12H16.3333C15.1845 12.0013 14.083 12.4583 13.2706 13.2706C12.4583 14.083 12.0013 15.1845 12 16.3333V23.6667C12.0013 24.8155 12.4583 25.917 13.2706 26.7294C14.083 27.5417 15.1845 27.9987 16.3333 28H23.6667C24.8155 27.9987 25.917 27.5417 26.7294 26.7294C27.5417 25.917 27.9987 24.8155 28 23.6667V16.3333C27.9987 15.1845 27.5417 14.083 26.7294 13.2706C25.917 12.4583 24.8155 12.0013 23.6667 12ZM27.3333 23.6667C27.3322 24.6388 26.9456 25.5708 26.2582 26.2582C25.5708 26.9456 24.6388 27.3322 23.6667 27.3333H16.3333C15.3612 27.3322 14.4292 26.9456 13.7418 26.2582C13.0544 25.5708 12.6678 24.6388 12.6667 23.6667V16.3333C12.6678 15.3612 13.0544 14.4292 13.7418 13.7418C14.4292 13.0544 15.3612 12.6678 16.3333 12.6667H23.6667C24.6388 12.6678 25.5708 13.0544 26.2582 13.7418C26.9456 14.4292 27.3322 15.3612 27.3333 16.3333V23.6667ZM25 15.6667C25 15.7985 24.9609 15.9274 24.8876 16.037C24.8144 16.1467 24.7103 16.2321 24.5885 16.2826C24.4666 16.333 24.3326 16.3462 24.2033 16.3205C24.074 16.2948 23.9552 16.2313 23.8619 16.1381C23.7687 16.0448 23.7052 15.926 23.6795 15.7967C23.6538 15.6674 23.667 15.5334 23.7174 15.4115C23.7679 15.2897 23.8533 15.1856 23.963 15.1124C24.0726 15.0391 24.2015 15 24.3333 15C24.5101 15.0002 24.6795 15.0705 24.8045 15.1955C24.9295 15.3205 24.9998 15.4899 25 15.6667Z" fill="#2E5BFF" stroke="#2E5BFF"/>
</svg>
