<svg width="18" height="18" viewBox="0 0 18 18" fill="none" xmlns="http://www.w3.org/2000/svg">
<path d="M9 5.33333C8.2748 5.33333 7.56589 5.54838 6.96291 5.95128C6.35993 6.35418 5.88996 6.92683 5.61244 7.59683C5.33492 8.26682 5.26231 9.00407 5.40379 9.71533C5.54527 10.4266 5.89448 11.0799 6.40728 11.5927C6.92007 12.1055 7.57341 12.4547 8.28467 12.5962C8.99593 12.7377 9.73318 12.6651 10.4032 12.3876C11.0732 12.11 11.6458 11.6401 12.0487 11.0371C12.4516 10.4341 12.6667 9.7252 12.6667 9C12.6656 8.02788 12.2789 7.09588 11.5915 6.40849C10.9041 5.72109 9.97212 5.33443 9 5.33333ZM9 12C8.40666 12 7.82664 11.8241 7.33329 11.4944C6.83994 11.1648 6.45542 10.6962 6.22836 10.1481C6.0013 9.59987 5.94189 8.99667 6.05764 8.41473C6.1734 7.83279 6.45912 7.29824 6.87868 6.87868C7.29824 6.45912 7.83279 6.1734 8.41473 6.05764C8.99667 5.94189 9.59987 6.0013 10.1481 6.22836C10.6962 6.45542 11.1648 6.83994 11.4944 7.33329C11.8241 7.82664 12 8.40666 12 9C11.9991 9.79537 11.6827 10.5579 11.1203 11.1203C10.5579 11.6827 9.79537 11.9991 9 12ZM12.6667 1H5.33333C4.18446 1.0013 3.08302 1.45827 2.27064 2.27064C1.45827 3.08302 1.0013 4.18446 1 5.33333V12.6667C1.0013 13.8155 1.45827 14.917 2.27064 15.7294C3.08302 16.5417 4.18446 16.9987 5.33333 17H12.6667C13.8155 16.9987 14.917 16.5417 15.7294 15.7294C16.5417 14.917 16.9987 13.8155 17 12.6667V5.33333C16.9987 4.18446 16.5417 3.08302 15.7294 2.27064C14.917 1.45827 13.8155 1.0013 12.6667 1ZM16.3333 12.6667C16.3322 13.6388 15.9456 14.5708 15.2582 15.2582C14.5708 15.9456 13.6388 16.3322 12.6667 16.3333H5.33333C4.36121 16.3322 3.42922 15.9456 2.74182 15.2582C2.05443 14.5708 1.66776 13.6388 1.66667 12.6667V5.33333C1.66776 4.36121 2.05443 3.42922 2.74182 2.74182C3.42922 2.05443 4.36121 1.66776 5.33333 1.66667H12.6667C13.6388 1.66776 14.5708 2.05443 15.2582 2.74182C15.9456 3.42922 16.3322 4.36121 16.3333 5.33333V12.6667ZM14 4.66667C14 4.79852 13.9609 4.92741 13.8876 5.03705C13.8144 5.14668 13.7103 5.23213 13.5885 5.28259C13.4666 5.33305 13.3326 5.34625 13.2033 5.32052C13.074 5.2948 12.9552 5.23131 12.8619 5.13807C12.7687 5.04484 12.7052 4.92605 12.6795 4.79673C12.6538 4.66741 12.667 4.53336 12.7174 4.41154C12.7679 4.28973 12.8533 4.18561 12.963 4.11235C13.0726 4.0391 13.2015 4 13.3333 4C13.5101 4.0002 13.6795 4.07051 13.8045 4.19549C13.9295 4.32047 13.9998 4.48992 14 4.66667Z" fill="#2E5BFF" stroke="#2E5BFF"/>
</svg>
