<?xml version="1.0" standalone="no"?>
<!DOCTYPE svg PUBLIC "-//W3C//DTD SVG 20010904//EN"
 "http://www.w3.org/TR/2001/REC-SVG-20010904/DTD/svg10.dtd">
<svg version="1.0" xmlns="http://www.w3.org/2000/svg"
 width="1280.000000pt" height="720.000000pt" viewBox="0 0 1280.000000 720.000000"
 preserveAspectRatio="xMidYMid meet">
<metadata>
Created by potrace 1.15, written by Peter Selinger 2001-2017
</metadata>
<g transform="translate(0.000000,720.000000) scale(0.100000,-0.100000)"
fill="#000000" stroke="none">
<path d="M6409 6896 c-3 -4 -24 -7 -45 -8 -78 -2 -166 -76 -210 -174 -29 -66
-30 -117 -5 -184 28 -72 83 -135 152 -172 59 -32 60 -34 54 -68 -4 -19 -8 -37
-10 -39 -2 -2 -25 2 -52 8 -108 24 -383 71 -416 71 -20 0 -38 4 -41 9 -3 5
-32 11 -63 14 -32 3 -92 12 -133 20 -123 24 -251 48 -315 58 -33 5 -82 13
-110 17 -60 10 -449 79 -520 92 -74 14 -380 68 -455 81 -94 15 -148 25 -301
54 -75 14 -165 30 -200 35 -35 5 -77 11 -94 15 -16 3 -55 11 -85 16 -45 9 -60
17 -80 44 -59 79 -170 100 -249 47 -110 -74 -108 -193 4 -267 34 -23 48 -26
101 -23 50 3 68 9 101 36 25 20 47 30 57 26 19 -7 19 -9 6 -32 -5 -9 -16 -37
-24 -62 -8 -25 -24 -67 -34 -95 -11 -27 -33 -86 -50 -130 -16 -44 -46 -123
-67 -175 -20 -52 -59 -153 -87 -225 -28 -71 -56 -144 -64 -162 -8 -17 -14 -34
-14 -38 0 -3 -38 -106 -85 -228 -48 -122 -91 -235 -97 -252 -6 -16 -19 -49
-29 -72 -11 -24 -19 -47 -19 -53 0 -6 -4 -18 -9 -28 -5 -9 -21 -48 -36 -87
-15 -38 -33 -86 -41 -105 -7 -19 -36 -96 -64 -170 -50 -134 -105 -277 -120
-315 -21 -51 -146 -375 -195 -507 l-18 -48 -186 0 c-102 0 -191 -4 -198 -8
-11 -7 -17 -45 -15 -94 3 -51 146 -173 288 -245 319 -162 707 -235 1249 -235
264 1 559 24 700 56 39 9 95 21 125 27 30 7 59 16 64 20 6 5 20 9 32 9 13 0
26 5 29 10 3 5 14 10 24 10 39 0 181 68 289 139 109 71 222 194 222 242 0 8
-12 27 -28 42 -26 25 -33 26 -146 29 l-118 3 -15 45 c-8 25 -20 59 -28 75 -7
17 -25 62 -40 100 -14 39 -40 103 -56 143 -16 40 -36 94 -45 120 -13 39 -42
116 -94 247 -5 11 -27 70 -50 130 -23 61 -58 151 -77 200 -44 114 -57 149 -78
205 -9 25 -23 59 -30 75 -7 17 -23 57 -35 90 -12 33 -29 74 -36 92 -8 18 -30
74 -48 125 -36 96 -90 239 -131 343 -13 33 -42 110 -65 170 -23 61 -48 124
-55 140 -12 27 -33 81 -55 145 -5 14 -29 77 -53 140 -42 109 -43 115 -24 118
11 2 29 -1 41 -6 12 -5 44 -15 71 -21 28 -6 111 -27 185 -47 74 -20 151 -39
170 -44 19 -4 107 -26 195 -49 88 -24 223 -58 300 -77 77 -19 158 -40 180 -46
22 -6 54 -14 70 -19 48 -13 267 -69 305 -79 19 -4 53 -13 75 -19 22 -6 103
-27 180 -47 77 -19 210 -54 295 -76 85 -22 171 -44 190 -48 78 -17 301 -78
306 -82 3 -3 0 -72 -5 -154 -6 -82 -15 -232 -21 -334 -6 -102 -17 -291 -26
-420 -8 -129 -17 -282 -20 -340 -2 -58 -8 -134 -13 -170 -5 -36 -10 -118 -10
-184 -1 -65 -4 -123 -9 -130 -4 -6 -10 -85 -14 -176 -9 -192 -26 -475 -32
-540 -3 -25 -10 -126 -16 -225 -6 -99 -15 -243 -20 -320 -5 -77 -14 -223 -20
-325 -13 -225 -26 -444 -45 -735 -8 -121 -21 -346 -30 -500 -14 -242 -18 -286
-36 -321 -20 -41 -94 -104 -121 -104 -8 0 -18 -4 -24 -9 -14 -14 -148 -39
-297 -56 -72 -9 -143 -18 -157 -20 -14 -3 -74 -10 -135 -15 -252 -23 -359 -38
-515 -75 -36 -9 -76 -18 -90 -21 -14 -3 -76 -30 -138 -61 -96 -47 -124 -66
-190 -132 -117 -117 -138 -174 -71 -192 13 -4 997 -7 2187 -8 1921 -1 2166 1
2192 14 38 20 38 45 0 98 -52 73 -93 114 -162 161 -134 90 -249 132 -478 172
-91 15 -135 21 -355 43 -167 17 -437 50 -491 60 -126 24 -217 72 -254 134 -23
38 -24 47 -50 502 -12 204 -25 433 -31 510 -5 77 -14 219 -19 315 -11 187 -33
553 -50 815 -5 88 -15 239 -20 335 -6 96 -13 193 -16 215 -3 22 -9 114 -15
205 -5 91 -14 235 -19 320 -5 85 -14 232 -19 325 -5 94 -12 193 -16 220 -3 28
-7 95 -9 150 -2 55 -16 284 -30 509 -15 224 -26 410 -23 412 2 2 39 -3 83 -11
119 -23 243 -46 304 -55 106 -17 236 -40 340 -60 58 -11 116 -20 129 -20 14 0
38 -4 55 -9 17 -6 65 -15 106 -22 41 -6 142 -24 225 -40 82 -16 166 -29 187
-29 20 0 40 -4 43 -10 3 -5 22 -10 40 -10 19 0 54 -4 77 -10 54 -12 325 -61
398 -71 63 -9 186 -30 310 -54 47 -9 114 -21 150 -27 36 -6 68 -14 73 -18 4
-3 -7 -40 -24 -81 -16 -41 -42 -108 -56 -149 -13 -41 -29 -79 -34 -84 -5 -6
-9 -16 -9 -23 0 -7 -9 -32 -19 -56 -11 -23 -36 -87 -57 -142 -43 -116 -58
-155 -108 -285 -21 -52 -48 -124 -60 -160 -13 -36 -40 -108 -61 -160 -20 -52
-40 -104 -44 -115 -5 -11 -18 -41 -30 -68 -11 -26 -21 -52 -21 -57 0 -5 -25
-73 -56 -152 -66 -169 -98 -253 -126 -328 -26 -71 -31 -85 -56 -145 -11 -27
-39 -99 -62 -160 -79 -212 -161 -430 -170 -450 -4 -11 -21 -53 -37 -92 l-28
-73 -128 0 c-71 0 -136 -4 -146 -10 -10 -5 -24 -22 -30 -39 -11 -25 -10 -33
12 -68 79 -125 349 -285 602 -355 273 -77 538 -108 935 -108 353 -1 535 16
790 74 270 61 480 165 614 306 55 58 56 59 56 119 0 49 -3 62 -19 71 -11 6
-90 10 -184 10 l-164 0 -16 38 c-9 20 -33 80 -52 132 -20 52 -50 131 -67 175
-17 44 -39 99 -49 122 -11 24 -19 49 -19 56 0 7 -4 17 -9 23 -5 5 -19 38 -31
74 -12 36 -42 115 -65 175 -24 61 -55 142 -70 180 -14 39 -30 79 -35 90 -4 11
-18 47 -30 80 -12 33 -29 75 -37 92 -7 18 -31 81 -53 140 -21 60 -68 182 -104
273 -36 91 -66 168 -66 173 0 4 -8 26 -19 50 -10 23 -33 80 -51 127 -18 47
-43 112 -55 145 -13 33 -35 92 -50 130 -37 98 -55 145 -70 180 -7 17 -22 55
-33 85 -34 93 -74 194 -80 205 -3 6 2 4 11 -4 9 -7 17 -20 17 -27 0 -15 58
-71 93 -91 31 -18 113 -16 150 3 132 67 143 189 25 275 -40 28 -48 30 -108 27
-47 -2 -74 -10 -96 -25 -17 -13 -33 -20 -36 -18 -7 7 -308 87 -428 114 -19 4
-96 24 -170 44 -322 85 -448 117 -468 117 -11 0 -24 5 -27 10 -3 6 -17 10 -30
10 -13 0 -34 4 -47 9 -13 5 -79 23 -148 41 -176 44 -180 45 -335 86 -77 20
-156 40 -175 45 -44 9 -386 97 -545 140 -66 17 -138 36 -160 41 -63 14 -103
24 -200 50 l-90 24 -3 50 c-3 57 1 62 69 88 55 20 151 115 175 173 20 47 22
140 4 185 -24 60 -68 114 -122 151 -51 35 -57 37 -163 43 -60 3 -113 3 -116 0z
m-2702 -876 c25 -63 48 -124 53 -135 25 -64 63 -162 94 -245 19 -52 53 -142
76 -200 23 -58 51 -130 61 -160 11 -30 24 -64 29 -75 4 -11 27 -69 50 -130 23
-60 46 -119 50 -130 32 -81 173 -446 182 -470 5 -16 14 -39 18 -50 5 -11 22
-56 39 -100 17 -44 65 -168 107 -275 41 -107 78 -203 81 -212 5 -17 -44 -18
-931 -18 -515 0 -936 2 -936 5 0 8 58 163 76 202 8 17 14 35 14 40 0 9 38 108
65 168 8 17 20 50 28 75 8 25 34 91 57 148 22 56 55 139 71 185 17 45 44 117
60 160 16 43 35 92 43 110 7 18 24 59 36 92 12 33 26 69 30 80 11 26 56 143
196 515 30 80 59 153 65 162 5 10 9 24 9 33 0 8 8 29 18 47 9 18 24 51 31 73
7 22 41 109 74 194 l60 154 25 -64 c13 -35 44 -116 69 -179z m5530 -1027 c20
-51 111 -286 149 -388 20 -55 47 -124 60 -153 13 -29 24 -56 24 -60 0 -8 55
-150 81 -209 11 -24 19 -46 19 -50 0 -4 21 -61 46 -127 25 -67 62 -164 82
-216 20 -52 39 -99 44 -105 4 -5 8 -15 8 -22 0 -7 8 -32 19 -56 10 -23 28 -67
39 -97 11 -30 46 -119 76 -198 31 -78 56 -145 56 -148 0 -4 69 -185 100 -259
41 -101 56 -140 80 -205 15 -41 30 -83 35 -92 7 -17 -41 -18 -929 -18 -586 0
-936 4 -936 10 0 5 5 22 11 37 38 95 49 125 72 183 14 36 46 121 72 190 39
102 142 372 175 455 31 78 59 153 169 445 45 118 86 223 91 232 6 10 10 22 10
28 0 6 9 29 19 53 11 23 35 85 55 137 82 221 143 381 176 465 5 11 23 59 42
107 18 48 35 88 38 88 3 0 10 -12 17 -27z"/>
</g>
</svg>
