<svg width="16" height="16" viewBox="0 0 16 16" fill="none" xmlns="http://www.w3.org/2000/svg">
<g clip-path="url(#clip0_7695_176373)">
<path d="M0.468748 16.0001H8.96908C9.22799 16.0001 9.43783 15.7903 9.43783 15.5314V14.5314C9.43783 13.9203 9.04586 13.3992 8.50033 13.2057V12.5957C8.50033 11.8536 7.89658 11.25 7.15451 11.25H2.28332C1.54125 11.25 0.937496 11.8536 0.937496 12.5957V13.2057C0.391966 13.3992 0 13.9203 0 14.5314V15.5314C0 15.7903 0.209838 16.0001 0.468748 16.0001ZM2.28332 12.1875H7.15451C7.37961 12.1875 7.56284 12.3706 7.56284 12.5957V13.1251H1.87511V12.5957C1.87511 12.3706 2.05822 12.1875 2.28332 12.1875ZM0.937496 14.5314C0.937496 14.2728 1.14782 14.0626 1.40624 14.0626H8.03146C8.29001 14.0626 8.50033 14.2728 8.50033 14.5314V15.0626H0.937496V14.5314Z" fill="#8798AD"/>
<path d="M5.39816 9.75872C5.86312 10.3763 6.74618 10.5042 7.36751 10.0364C7.78133 9.7249 7.97384 9.22735 7.91744 8.74664C8.32052 8.67803 8.71004 8.56585 9.0804 8.41461L13.4693 14.2441C13.9344 14.862 14.8176 14.9893 15.4387 14.5218C16.058 14.0553 16.1827 13.1719 15.7162 12.5524L11.3275 6.72296C11.575 6.40888 11.7905 6.06574 11.9678 5.69745C12.4196 5.88691 12.9503 5.83332 13.3594 5.52521C13.9789 5.05878 14.1036 4.17537 13.6372 3.55586L11.3815 0.559901C10.9151 -0.0596029 10.0317 -0.184114 9.41219 0.282315C8.99837 0.593837 8.80587 1.09127 8.86226 1.57198C7.09591 1.87288 5.58993 3.00655 4.8121 4.62068C4.36117 4.43159 3.83286 4.48286 3.42026 4.79341C2.79929 5.26093 2.67502 6.14179 3.14255 6.76276L5.39816 9.75872ZM10.676 7.41644L11.302 8.24786L10.5529 8.8117L9.92696 7.9804C10.1922 7.81402 10.4427 7.6253 10.676 7.41644ZM14.8747 13.7727C14.6682 13.9283 14.3737 13.8868 14.2182 13.6802L11.1168 9.56072L11.8658 8.99688L14.9672 13.1162C15.1227 13.3228 15.0811 13.6172 14.8747 13.7727ZM9.97615 1.03133C10.1833 0.87533 10.4776 0.918054 10.6326 1.12386L12.8881 4.11982C13.0436 4.32624 13.0021 4.6208 12.7956 4.77619C12.5887 4.93208 12.2951 4.89069 12.1392 4.68366L9.88362 1.6877C9.7281 1.48116 9.76961 1.18673 9.97615 1.03133ZM9.29024 2.45821C9.49324 2.72798 11.0281 4.76679 11.2346 5.04084C10.5948 6.59601 9.16146 7.67547 7.48958 7.86041L5.54525 5.27766C6.18576 3.72066 7.61678 2.64339 9.29024 2.45821ZM3.98422 5.54243C4.19064 5.38691 4.48447 5.42756 4.64059 5.63495L6.8962 8.63091C6.8962 8.63091 6.8962 8.63091 6.8962 8.63104C7.0516 8.83746 7.01009 9.13189 6.80367 9.28741C6.59713 9.4428 6.3027 9.4013 6.14718 9.19488L3.89157 6.19892C3.73581 5.99189 3.77719 5.69831 3.98422 5.54243Z" fill="#8798AD"/>
</g>
<defs>
<clipPath id="clip0_7695_176373">
<rect width="16" height="16" fill="white"/>
</clipPath>
</defs>
</svg>
