<svg width="12" height="12" viewBox="0 0 12 12" fill="none" xmlns="http://www.w3.org/2000/svg">
    <path fill-rule="evenodd" clip-rule="evenodd" d="M7.925 1.25c.316 0 .63.045.93.146 1.845.6 2.51 2.625 1.955 4.395a6.364 6.364 0 0 1-1.504 2.404 19.23 19.23 0 0 1-3.166 2.48l-.125.076-.13-.08a19.049 19.049 0 0 1-3.184-2.48 6.466 6.466 0 0 1-1.506-2.4c-.565-1.77.1-3.795 1.966-4.406a2.26 2.26 0 0 1 .444-.104h.06c.14-.02.28-.03.42-.03h.055c.315.01.62.064.916.165h.029c.02.01.035.02.045.03.11.035.215.075.315.13l.19.085c.046.024.097.061.142.094.028.02.054.039.073.05l.025.015c.043.025.087.051.125.08a3.132 3.132 0 0 1 1.925-.65zm1.33 3.6a.411.411 0 0 0 .395-.38v-.06a1.65 1.65 0 0 0-1.055-1.58.4.4 0 0 0-.505.25c-.07.21.04.44.25.515.32.12.535.436.535.785v.016a.43.43 0 0 0 .095.31c.07.085.175.134.285.145z" fill="#2E5BFF"/>
</svg>
