<svg width="17" height="16" viewBox="0 0 17 16" fill="none" xmlns="http://www.w3.org/2000/svg">
<path fill-rule="evenodd" clip-rule="evenodd" d="M12.182 4.92937V5.95159C13.3302 6.31 14.1668 7.34945 14.1668 8.59097V11.8822C14.1668 13.4192 12.8926 14.6654 11.3216 14.6654H5.67936C4.10773 14.6654 2.8335 13.4192 2.8335 11.8822V8.59097C2.8335 7.34945 3.67079 6.31 4.81835 5.95159V4.92937C4.82513 2.94189 6.47127 1.33203 8.49 1.33203C10.5358 1.33203 12.182 2.94189 12.182 4.92937ZM8.50355 2.49139C9.87872 2.49139 10.9965 3.58451 10.9965 4.92937V5.80783H6.00385V4.91612C6.01062 3.57788 7.12838 2.49139 8.50355 2.49139ZM9.09291 10.9687C9.09291 11.2933 8.82871 11.5516 8.49678 11.5516C8.17161 11.5516 7.90742 11.2933 7.90742 10.9687V9.49792C7.90742 9.17992 8.17161 8.92155 8.49678 8.92155C8.82871 8.92155 9.09291 9.17992 9.09291 9.49792V10.9687Z" fill="#2E5BFF"/>
</svg>
