<svg width="20" height="20" viewBox="0 0 20 20" fill="none" xmlns="http://www.w3.org/2000/svg">
    <path d="M9.989 1.667c2.557 0 4.615 2.012 4.615 4.496v1.278c1.435.448 2.48 1.747 2.48 3.3v4.113c0 1.922-1.592 3.48-3.556 3.48H6.475c-1.964 0-3.557-1.558-3.557-3.48V10.74c0-1.552 1.047-2.851 2.481-3.299V6.163c.009-2.484 2.066-4.497 4.59-4.497zm.008 9.486a.73.73 0 0 0-.737.72v1.84c0 .405.33.728.737.728a.733.733 0 0 0 .745-.729v-1.838c0-.398-.33-.72-.745-.72zm.008-8.037c-1.718 0-3.116 1.358-3.124 3.03v1.115h6.24V6.163c0-1.68-1.396-3.047-3.116-3.047z" fill="#C4C4C4"/>
</svg>
