<svg width="15" height="18" viewBox="0 0 15 18" fill="none" xmlns="http://www.w3.org/2000/svg">
<path fill-rule="evenodd" clip-rule="evenodd" d="M12.1036 5.16318V6.44096C13.5389 6.88897 14.5846 8.18828 14.5846 9.74017V13.8543C14.5846 15.7755 12.9918 17.3332 11.0282 17.3332H3.9753C2.01077 17.3332 0.417969 15.7755 0.417969 13.8543V9.74017C0.417969 8.18828 1.46459 6.88897 2.89904 6.44096V5.16318C2.90751 2.67883 4.96519 0.666504 7.4886 0.666504C10.0459 0.666504 12.1036 2.67883 12.1036 5.16318ZM7.50554 2.11571C9.2245 2.11571 10.6217 3.4821 10.6217 5.16318V6.26126H4.38091V5.14661C4.38938 3.47382 5.78657 2.11571 7.50554 2.11571ZM8.24224 12.7123C8.24224 13.1181 7.91199 13.441 7.49707 13.441C7.09061 13.441 6.76037 13.1181 6.76037 12.7123V10.8739C6.76037 10.4764 7.09061 10.1534 7.49707 10.1534C7.91199 10.1534 8.24224 10.4764 8.24224 10.8739V12.7123Z" fill="#2E5BFF"/>
</svg>
