<svg width="18" height="18" viewBox="0 0 18 18" fill="none" xmlns="http://www.w3.org/2000/svg">
    <path clip-rule="evenodd" d="M2.243 3.654c.237-.392 1.544-1.821 2.477-1.778.279.023.525.192.726.387.46.45 1.776 2.148 1.85 2.505.182.877-.862 1.382-.543 2.265.815 1.994 2.22 3.399 4.214 4.213.883.32 1.388-.725 2.265-.543.357.075 2.056 1.392 2.505 1.851.195.2.364.447.387.726.035.982-1.482 2.308-1.778 2.477-.698.499-1.608.49-2.718-.025-3.098-1.29-8.047-6.145-9.36-9.36-.502-1.103-.537-2.02-.025-2.718z" stroke="#2E5BFF" stroke-width="1.5" stroke-linecap="round" stroke-linejoin="round"/>
</svg>
