<svg width="20" height="21" viewBox="0 0 20 21" fill="none" xmlns="http://www.w3.org/2000/svg">
<path d="M14.1152 2.74219C15.2327 2.74219 16.3077 3.18385 17.0985 3.97635C17.8902 4.76719 18.3327 5.83385 18.3327 6.95052V13.5339C18.3327 15.8589 16.441 17.7422 14.1152 17.7422H5.88268C3.55685 17.7422 1.66602 15.8589 1.66602 13.5339V6.95052C1.66602 4.62552 3.54852 2.74219 5.88268 2.74219H14.1152ZM15.0577 7.07552C14.8827 7.06635 14.716 7.12552 14.5902 7.24219L10.8327 10.2422C10.3493 10.643 9.65685 10.643 9.16601 10.2422L5.41601 7.24219C5.15685 7.05052 4.79852 7.07552 4.58268 7.30052C4.35768 7.52552 4.33268 7.88385 4.52351 8.13385L4.63268 8.24219L8.42435 11.2005C8.89101 11.5672 9.45685 11.7672 10.0493 11.7672C10.6402 11.7672 11.216 11.5672 11.6818 11.2005L15.441 8.19219L15.5077 8.12552C15.7068 7.88385 15.7068 7.53385 15.4985 7.29219C15.3827 7.16802 15.2235 7.09219 15.0577 7.07552Z" fill="#C4C4C4"/>
</svg>
