<svg width="15" height="12" viewBox="0 0 15 12" fill="none" xmlns="http://www.w3.org/2000/svg">
<path fill-rule="evenodd" clip-rule="evenodd" d="M10.7928 0C11.6868 0 12.5468 0.353333 13.1795 0.987333C13.8128 1.62 14.1668 2.47333 14.1668 3.36667V8.63333C14.1668 10.4933 12.6535 12 10.7928 12H4.20683C2.34616 12 0.833496 10.4933 0.833496 8.63333V3.36667C0.833496 1.50667 2.3395 0 4.20683 0H10.7928ZM11.8535 4.36L11.9068 4.30667C12.0662 4.11333 12.0662 3.83333 11.8995 3.64C11.8068 3.54067 11.6795 3.48 11.5468 3.46667C11.4068 3.45933 11.2735 3.50667 11.1728 3.6L8.16683 6C7.78016 6.32067 7.22616 6.32067 6.8335 6L3.8335 3.6C3.62616 3.44667 3.3395 3.46667 3.16683 3.64667C2.98683 3.82667 2.96683 4.11333 3.1195 4.31333L3.20683 4.4L6.24016 6.76667C6.6135 7.06 7.06616 7.22 7.54016 7.22C8.01283 7.22 8.4735 7.06 8.84616 6.76667L11.8535 4.36Z" fill="#2E5BFF"/>
</svg>
