<svg width="19" height="18" viewBox="0 0 19 18" fill="none" xmlns="http://www.w3.org/2000/svg">
<path fill-rule="evenodd" clip-rule="evenodd" d="M13.2042 2.25C14.21 2.25 15.1775 2.6475 15.8892 3.36075C16.6017 4.0725 17 5.0325 17 6.0375V11.9625C17 14.055 15.2975 15.75 13.2042 15.75H5.795C3.70175 15.75 2 14.055 2 11.9625V6.0375C2 3.945 3.69425 2.25 5.795 2.25H13.2042ZM14.3975 7.155L14.4575 7.095C14.6368 6.8775 14.6368 6.5625 14.4493 6.345C14.345 6.23325 14.2018 6.165 14.0525 6.15C13.895 6.14175 13.745 6.195 13.6318 6.3L10.25 9C9.815 9.36075 9.19175 9.36075 8.75 9L5.375 6.3C5.14175 6.1275 4.81925 6.15 4.625 6.3525C4.4225 6.555 4.4 6.8775 4.57175 7.1025L4.67 7.2L8.0825 9.8625C8.5025 10.1925 9.01175 10.3725 9.545 10.3725C10.0768 10.3725 10.595 10.1925 11.0142 9.8625L14.3975 7.155Z" fill="#2E5BFF"/>
</svg>
