<svg width="18" height="18" viewBox="0 0 18 18" fill="none" xmlns="http://www.w3.org/2000/svg">
    <path d="M12.95 6.795 9.753 9.37a1.667 1.667 0 0 1-2.06 0L4.466 6.795" stroke="#2E5BFF" stroke-width="1.5" stroke-linecap="round" stroke-linejoin="round"/>
    <path clip-rule="evenodd" d="M5.166 2.625h7.07c1.02.011 1.99.442 2.686 1.193a3.763 3.763 0 0 1 .994 2.778v4.896a3.763 3.763 0 0 1-.994 2.777 3.718 3.718 0 0 1-2.685 1.193H5.166c-2.19 0-3.666-1.781-3.666-3.97V6.596c0-2.19 1.476-3.971 3.666-3.971z" stroke="#2E5BFF" stroke-width="1.5" stroke-linecap="round" stroke-linejoin="round"/>
</svg>
