<svg width="24" height="24" viewBox="0 0 24 24" fill="none" xmlns="http://www.w3.org/2000/svg">
    <path d="M21.345 9.678a.712.712 0 0 0-.075-.124 2.371 2.371 0 0 0-.089-.318l-.015-.036-2.065-4.75a.75.75 0 0 0-.687-.45h-13.5a.75.75 0 0 0-.688.45L2.148 9.236a2.13 2.13 0 0 0 0 1.562 3.563 3.563 0 0 0 2.016 1.909V20.5a.75.75 0 0 0 .75.75h13.5a.75.75 0 0 0 .75-.75v-7.793a3.563 3.563 0 0 0 2.015-1.908 1.96 1.96 0 0 0 .122-.49.794.794 0 0 0 .044-.63zM9.414 19.75v-4.5h1.5v4.5h-1.5zm3 0v-4.5h1.5v4.5h-1.5zm5.25 0h-2.25V14.5a.75.75 0 0 0-.75-.75h-6a.75.75 0 0 0-.75.75v5.25h-2.25V13a3.9 3.9 0 0 0 3-1.35 4.004 4.004 0 0 0 6 0 3.9 3.9 0 0 0 3 1.35v6.75zm2.127-9.525a2.261 2.261 0 0 1-2.127 1.275 2.09 2.09 0 0 1-2.25-1.875.75.75 0 1 0-1.5 0 2.091 2.091 0 0 1-2.25 1.875 2.09 2.09 0 0 1-2.25-1.875.75.75 0 0 0-1.5 0 2.09 2.09 0 0 1-2.25 1.875 2.262 2.262 0 0 1-2.129-1.275.627.627 0 0 1 0-.428L5.405 5.5h12.517l1.857 4.275a.643.643 0 0 1 .012.45z" fill="#000" fill-opacity=".6"/>
</svg>
