<svg width="200" height="200" viewBox="0 0 200 200" fill="none" xmlns="http://www.w3.org/2000/svg">
<mask id="mask0_7536_120780" style="mask-type:luminance" maskUnits="userSpaceOnUse" x="0" y="0" width="200" height="200">
<path d="M200 100C200 155.229 155.229 200 100 200C44.7713 200 0 155.229 0 100C0 44.7713 44.7713 0 100 0C155.229 0 200 44.7713 200 100Z" fill="white"/>
</mask>
<g mask="url(#mask0_7536_120780)">
<path d="M199.999 100C199.999 155.214 155.228 199.986 100.014 199.986C44.7635 199.986 -0.0078125 155.214 -0.0078125 100C-0.0078125 44.7859 44.7635 0.0146484 100.014 0.0146484C155.228 0.0146484 199.999 44.7859 199.999 100Z" fill="#2E5BFF" fill-opacity="0.05"/>
<path d="M75.242 74.8232L58.8005 90.8672L46.6953 123.208L66.2443 122.088C66.2443 122.088 70.7251 121.763 72.6402 118.691C74.5915 115.656 75.242 74.8232 75.242 74.8232Z" fill="#F2BF91"/>
<path d="M48.9314 117.246L36.0312 148.431H58.1459L67.9385 121.799L49.1121 116.704" fill="#F2BF91"/>
<path d="M68.7767 109.26C68.7767 109.26 70.186 106.767 75.2449 96.5408C80.3038 86.3507 75.2449 84.3633 75.2449 84.3633L61.622 100.552L47.0234 121.98C47.0234 121.98 68.7767 126.424 68.7767 109.26Z" fill="#FFC999"/>
<path d="M56.9534 121.979H47.0163L36.0312 148.43H45.9684L56.9534 121.979Z" fill="#FFC999"/>
<path d="M50.5957 180.302H18.7969L41.1283 128.304H67.9405L50.5957 180.302Z" fill="#FFCF6E"/>
<path d="M68.4449 124.617H44.668L43.3672 128.303H67.144L68.4449 124.617Z" fill="#FFF88C"/>
<path d="M116.046 97.2998L142.823 107.418L157.674 138.385L138.089 137.265C138.089 137.265 133.644 136.94 131.693 133.905C130.248 131.556 123.563 114.211 119.66 104.816C119.66 104.816 115.504 102.684 114.854 100.913C114.167 99.0704 116.046 97.2998 116.046 97.2998Z" fill="#FFC999"/>
<path d="M119.664 104.815L133.757 109.802L139.213 122.233L125.229 123.136L119.664 104.815Z" fill="#E0B186"/>
<path d="M137.041 138.385L130.862 135.35L116.047 106.84C116.047 106.84 121.503 104.816 125.623 111.429L131.621 120.462L135.379 121.33L137.728 114.5L143.112 124.618L137.041 138.385Z" fill="#FFC999"/>
<path d="M135.164 136.506L136.79 140.878L158.652 140.336L155.869 134.627L135.164 136.506Z" fill="#FFC999"/>
<path d="M153.774 195.478H185.537L163.206 143.516H136.43L153.774 195.478Z" fill="#FFCF6E"/>
<path d="M135.922 139.83H159.663L161 143.516H137.223L135.922 139.83Z" fill="#FFF88C"/>
</g>
<path d="M120.381 96.5896C120.381 109.587 109.845 120.124 96.8469 120.124C83.8492 120.124 73.3125 109.587 73.3125 96.5896C73.3125 83.5919 83.8492 73.0552 96.8469 73.0552C109.845 73.0552 120.381 83.5919 120.381 96.5896Z" fill="#407BFF"/>
<path d="M118.419 96.5608C118.419 108.399 108.815 118.002 96.9632 118.002C85.1111 118.002 75.5078 108.399 75.5078 96.5608C75.5078 84.7088 85.1111 75.1055 96.9632 75.1055C108.815 75.1055 118.419 84.7088 118.419 96.5608Z" fill="white"/>
<path fill-rule="evenodd" clip-rule="evenodd" d="M90.8888 83.9759L89.8988 85.7438L88.2016 86.8045C87.8622 87.3985 87.4945 88.0067 87.1692 88.6149C86.7873 89.2937 86.4196 89.9868 86.1084 90.6798C85.7831 91.3445 85.5144 92.0517 85.373 92.6457C85.3541 92.7023 85.34 92.7588 85.3305 92.8154C85.6275 92.8296 86.2781 92.773 86.5893 92.773L86.9429 96.3512C86.9287 96.3512 86.6034 96.3795 86.5893 96.3795C85.6983 96.3654 84.7931 96.2805 83.8879 96.1108L83.4495 96.0259L83.1383 95.7997C82.7565 95.5026 82.417 95.0501 82.2473 94.6116C82.0776 94.1732 82.0352 93.763 82.0352 93.4094C82.0493 92.7023 82.2049 92.1931 82.3746 91.7122C82.714 90.7646 83.1808 90.015 83.6475 89.2796C84.1425 88.5583 84.6517 87.8936 85.1891 87.243C85.67 86.6772 86.165 86.1398 86.6883 85.6165C87.1409 84.8245 88.3431 83.9193 88.3431 83.9193L89.715 82.1655L90.8888 83.9759ZM85.3164 93.3246C85.307 93.3057 85.2975 93.2821 85.2881 93.2539C85.2881 93.2916 85.2928 93.3199 85.3022 93.3387C85.3164 93.3953 85.3305 93.3953 85.3164 93.3246Z" fill="#7F3E3B"/>
<path d="M99.3622 85.9553C99.4047 85.7431 99.3339 85.729 99.2774 85.729C99.2349 85.729 99.0935 85.828 99.0652 85.9553C98.7965 86.3655 98.4853 86.7191 98.0469 87.0302C97.9903 87.0679 97.9337 87.1104 97.8771 87.1575C97.3397 87.5111 96.7598 87.6808 96.2082 87.695C96.227 87.761 96.2412 87.8223 96.2506 87.8789C96.2695 88.0203 96.2836 88.157 96.293 88.289C96.3496 89.1942 96.1233 90.0287 95.105 90.5096C95.105 90.5662 94.9635 90.6227 94.9211 90.6652C94.6382 90.9198 94.2422 91.4714 94.2422 91.9523C94.2563 92.32 94.5958 92.617 94.9918 92.9706L95.5717 93.3525L96.3496 93.2676C98.7258 92.5746 99.829 90.3964 99.7865 90.2409C99.1642 89.2367 99.1784 87.4828 99.3622 85.9553Z" fill="#7F3E3B"/>
<path d="M104.495 91.1021C104.495 91.1021 104.339 91.0738 104.071 91.0313C103.505 90.9465 100.987 90.3666 99.7567 90.2676C99.4738 90.8616 98.5545 92.3326 96.1783 93.0397L95.5843 93.1812L95.0327 92.8842C94.6225 92.5306 94.4104 92.1628 94.4104 91.7951C94.4104 91.3142 94.7498 90.9182 95.0327 90.6636C95.0516 90.6447 95.0657 90.6212 95.0751 90.5929C95.0751 90.5222 95.0751 90.4797 95.0751 90.4797C94.9054 90.4939 92.6424 90.8475 92.4585 90.8758C89.5167 91.3425 86.207 92.6013 86.207 92.6013L86.2353 92.8134L86.6455 96.3777L86.8011 97.7213C86.8011 97.7213 87.9326 97.594 89.4176 97.3394C89.0075 100.932 88.9368 106.165 90.1673 112.869C91.4685 112.855 94.9903 112.784 94.9903 112.784C98.4696 112.714 102.105 112.643 103.392 112.629C103.42 112.063 103.363 110.889 103.293 109.291L103.222 106.816C103.179 104.638 103.179 102.007 103.377 99.2064C103.415 98.7632 103.453 98.3153 103.491 97.8628C105.202 99.7156 106.928 101.484 106.928 101.484L107.734 100.706C108.766 100.196 109.587 99.3054 110.308 98.2305L111.256 97.3111C111.256 97.3111 106.814 91.4981 104.495 91.1021Z" fill="#407BFF"/>
<path opacity="0.3" d="M102.191 96.4209C102.262 97.0008 102.446 97.5665 102.743 98.0899L103.394 99.2072C103.431 98.7641 103.469 98.3162 103.507 97.8636C103.054 97.3685 102.616 96.8876 102.191 96.4209Z" fill="black"/>
<path d="M98.0457 87.0283C97.9891 87.066 97.9326 87.1085 97.876 87.1556C97.3385 87.5092 96.7586 87.6789 96.207 87.6931C96.2259 87.7591 96.24 87.8204 96.2495 87.8769C96.2683 88.0184 96.2825 88.1551 96.2919 88.2871C96.2919 88.2965 96.2919 88.306 96.2919 88.3154C96.9001 88.2164 97.6921 87.6506 98.0457 87.0283Z" fill="#7F3E3B"/>
<path d="M101.226 90.6925C101.169 90.4662 101 90.2682 100.759 90.2116L100.165 90.0702C100.009 90.0419 99.8539 90.1126 99.7832 90.2399C99.7737 90.2493 99.7643 90.2587 99.7549 90.2682C99.472 90.8622 98.5527 92.3332 96.1765 93.0403L95.9926 93.0828L95.5825 93.1818L95.0309 92.8848C94.6207 92.5312 94.4086 92.1634 94.4086 91.7957C94.4086 91.3148 94.748 90.9188 95.0309 90.6642C95.045 90.65 95.1016 90.5793 95.1157 90.551C95.1299 90.4945 95.1299 90.4662 95.0874 90.4379C94.4651 89.9853 93.0649 90.6783 93.0083 90.7915C92.9423 90.8481 92.881 90.9141 92.8245 90.9895C92.5416 91.3289 92.3011 91.824 92.3719 92.4887C92.5416 93.9597 93.7579 94.6527 93.8145 94.681C93.8239 94.6904 93.8334 94.6951 93.8428 94.6951C93.8617 94.6951 93.8805 94.6904 93.8994 94.681C93.9135 94.6669 93.9277 94.6386 93.9277 94.6103C93.9277 94.5679 93.8711 93.5778 94.9743 93.0403L95.4693 93.3091C93.3478 102.036 94.7904 112.502 94.8329 112.785C94.9319 112.785 94.9884 112.785 94.9884 112.785C94.9979 112.776 95.0026 112.771 95.0026 112.771C94.9884 112.672 93.5033 102.106 95.639 93.3374L96.1624 93.2101C96.7564 93.9455 96.4735 95.0346 96.4735 95.0487C96.4594 95.077 96.4735 95.1195 96.5018 95.1336C96.5207 95.143 96.5395 95.1477 96.5584 95.1477C96.5678 95.1477 96.5772 95.1477 96.5867 95.1477C96.6998 95.0912 99.373 93.9314 100.306 92.814C100.872 92.1493 101.113 91.4421 101.226 90.9754C101.245 90.8811 101.245 90.7868 101.226 90.6925Z" fill="white"/>
<path opacity="0.2" d="M98.0457 87.0283C97.9891 87.066 97.9326 87.1085 97.876 87.1556C97.3385 87.5092 96.7586 87.6789 96.207 87.6931C96.2259 87.7591 96.24 87.8204 96.2495 87.8769C96.2683 88.0184 96.2825 88.1551 96.2919 88.2871C96.2919 88.2965 96.2919 88.306 96.2919 88.3154C96.9001 88.2164 97.6921 87.6506 98.0457 87.0283Z" fill="black"/>
<path d="M93.9296 80.4256C94.2124 79.9164 94.566 79.4638 94.9762 79.0961C94.7782 78.9547 94.6085 78.7849 94.4953 78.6011C94.0427 78.8132 93.6184 79.4073 93.4062 80.7226C93.3497 81.0621 93.3497 81.3733 93.378 81.6703C93.4628 81.4251 93.5618 81.18 93.675 80.9348L93.9296 80.4256Z" fill="#263238"/>
<path d="M99.2002 83.9033C100.473 82.4182 99.667 80.537 98.9174 80.1269C99.0588 78.1467 96.2159 77.8922 94.9854 79.0944C94.5752 79.4621 94.2216 79.9147 93.9387 80.4239L93.6842 80.9331C93.571 81.1782 93.472 81.4234 93.3871 81.6685C93.0618 82.6162 92.9062 83.6204 92.9062 84.4549C92.9204 86.336 94.4762 87.7645 96.2159 87.6938C96.7675 87.6797 97.3474 87.5099 97.8849 87.1563C97.9414 87.1092 97.998 87.0668 98.0546 87.029C98.493 86.7179 98.8042 86.3643 99.0729 85.9541C99.7094 84.9499 99.5397 84.4266 99.2002 83.9033Z" fill="#7F3E3B"/>
<path d="M93.5295 80.7635C93.4871 80.8201 93.5012 80.8908 93.5437 80.9332C93.572 80.9521 93.6002 80.9615 93.6285 80.9615C93.6474 80.9615 93.6663 80.9521 93.6851 80.9332C93.6945 80.9332 93.704 80.9285 93.7134 80.9191C94.0387 80.5089 94.463 80.5231 94.4913 80.5231C94.5479 80.5231 94.6045 80.4807 94.6045 80.4099C94.6186 80.3534 94.562 80.2968 94.5054 80.2968C94.4913 80.2968 94.2367 80.2826 93.9397 80.4241C93.8124 80.4948 93.6568 80.6079 93.5295 80.7635Z" fill="#263238"/>
<path d="M96.5675 84.1584C96.5534 84.1301 96.511 84.1301 96.4968 84.1584C96.4827 84.1584 95.9452 84.6817 95.0824 84.512C95.0542 84.4979 95.0259 84.5262 95.0117 84.5544C95.0117 84.5827 95.0259 84.611 95.0541 84.6252C95.205 84.6535 95.3417 84.6676 95.4643 84.6676C96.1432 84.6535 96.5534 84.2574 96.5675 84.2433C96.5958 84.215 96.5958 84.1867 96.5675 84.1584Z" fill="#263238"/>
<path d="M95.06 82.1353C95.06 82.1353 94.3387 83.1678 93.7305 83.6062C93.9992 84.0022 94.6215 83.9739 94.6215 83.9739L95.06 82.1353Z" fill="#630F0F"/>
<path d="M94.0538 82.2068C94.1811 82.2351 94.3225 82.0936 94.365 81.8956C94.4215 81.7118 94.3508 81.5279 94.2235 81.4996C94.0962 81.4855 93.9548 81.6128 93.9124 81.8108C93.8699 82.0088 93.9265 82.1785 94.0538 82.2068Z" fill="#263238"/>
<path d="M96.2905 82.6442C96.4177 82.6725 96.545 82.5311 96.6016 82.3472C96.644 82.1492 96.5733 81.9653 96.446 81.9512C96.3187 81.9229 96.1773 82.0502 96.1349 82.2482C96.0924 82.4462 96.149 82.6159 96.2905 82.6442Z" fill="#263238"/>
<path d="M99.157 80.1127C99.0816 80.1127 98.9967 80.1174 98.9024 80.1268C98.761 80.438 98.6479 80.834 98.563 81.3432C98.3791 82.4747 98.761 83.3374 99.1853 83.9032C99.7652 84.8933 100.501 84.865 101.151 84.1153C102.184 83.1111 103.188 81.131 101.123 79.5752C100.798 79.8581 100.19 80.0561 99.157 80.1127Z" fill="#263238"/>
<path d="M100.608 83.5222C100.142 83.3383 99.6182 83.5646 99.1939 83.9041C98.9535 84.1021 98.7413 84.3284 98.614 84.5405C98.2039 85.177 98.3453 85.8983 99.0666 85.9549C99.1044 85.9644 99.1468 85.9691 99.1939 85.9691C99.2505 85.9691 99.3071 85.9644 99.3637 85.9549C99.8728 85.8983 100.424 85.672 100.849 85.2477C101.174 84.9224 101.273 84.484 101.16 84.1162C101.075 83.8616 100.905 83.6495 100.608 83.5222Z" fill="#7F3E3B"/>
<path d="M94.9785 79.0951C96.011 79.873 97.8921 80.1276 98.9105 80.1276C99.0048 80.1182 99.0896 80.1135 99.165 80.1135C100.198 80.0569 100.806 79.8589 101.131 79.576C102.333 78.5577 99.6035 76.4785 99.6035 76.4785C99.6035 76.4785 99.9005 77.214 99.2782 77.4262C98.6417 77.6242 94.1723 75.9693 94.243 77.8505C94.2572 78.1333 94.342 78.3738 94.4976 78.6001C94.6108 78.784 94.7805 78.9537 94.9785 79.0951Z" fill="#263238"/>
<path d="M90.1668 112.87C90.1668 112.87 90.096 113.535 89.9688 114.652C92.1327 115.374 94.4382 115.784 96.8426 115.784C99.1056 115.784 101.298 115.416 103.349 114.766C103.377 113.422 103.391 112.63 103.391 112.63L94.9898 112.785H94.8342L90.1668 112.87Z" fill="#263238"/>
<path fill-rule="evenodd" clip-rule="evenodd" d="M111.894 102.743C111.653 103.451 111.314 103.917 110.974 104.327C110.635 104.723 110.281 105.049 109.928 105.346C109.574 105.643 109.22 105.926 108.853 106.166C108.117 106.661 107.368 107.1 106.618 107.496C105.897 107.863 105.175 108.203 104.412 108.5C104.199 108.896 103.733 109.136 103.294 109.292C102.827 109.447 102.403 109.504 102.403 109.504L101.116 110.155L100.098 108.076L101.639 107.029L103.223 106.817L103.619 106.76C104.822 105.869 106.038 104.936 107.099 103.96C107.65 103.45 108.16 102.899 108.499 102.404C108.598 102.248 108.669 102.107 108.711 101.994C108.4 101.555 108.075 101.131 107.735 100.707L110.309 98.2314C110.762 98.8679 111.201 99.5185 111.611 100.212L111.653 100.296L111.738 100.452C111.795 100.551 111.837 100.664 111.879 100.777C111.964 101.004 112.021 101.244 112.035 101.485C112.092 101.965 112.021 102.404 111.894 102.743ZM108.754 101.838C108.754 101.796 108.725 101.824 108.725 101.881C108.725 101.899 108.73 101.914 108.74 101.923C108.749 101.885 108.754 101.857 108.754 101.838Z" fill="#7F3E3B"/>
<path d="M84.1426 108.599C84.1426 112.885 80.6775 116.364 76.3779 116.364C72.0925 116.364 68.6133 112.885 68.6133 108.599C68.6133 104.314 72.0925 100.834 76.3779 100.834C80.6775 100.834 84.1426 104.314 84.1426 108.599Z" fill="#FF4E42"/>
<path d="M80.6392 107.863H77.1032V104.327C77.1032 103.931 76.7779 103.605 76.3678 103.605C75.9717 103.605 75.6464 103.931 75.6464 104.327V107.863H72.1105C71.7003 107.863 71.375 108.188 71.375 108.598C71.375 108.994 71.7003 109.32 72.1105 109.32H75.6464V112.87C75.6464 113.266 75.9717 113.591 76.3678 113.591C76.7779 113.591 77.1032 113.266 77.1032 112.87V109.32H80.6392C81.0493 109.32 81.3746 108.994 81.3746 108.598C81.3746 108.188 81.0493 107.863 80.6392 107.863Z" fill="white"/>
<path d="M96.6967 81.1733C96.725 81.1733 97.1351 81.2441 97.3473 81.6967C97.3614 81.7391 97.4039 81.7674 97.4604 81.7674C97.4699 81.7674 97.484 81.7627 97.5029 81.7532C97.5594 81.7391 97.5877 81.6684 97.5594 81.5977C97.2907 81.0178 96.7532 80.947 96.7391 80.947C96.6684 80.9329 96.6118 80.9753 96.5977 81.0461C96.5977 81.1168 96.6401 81.1733 96.6967 81.1733Z" fill="#263238"/>
</svg>
