<svg width="14" height="14" viewBox="0 0 14 14" fill="none" xmlns="http://www.w3.org/2000/svg">
<path d="M0.867188 9.31787C0.867188 9.31787 0.961854 10.4765 0.983854 10.8419C1.01319 11.3319 1.20252 11.8792 1.51852 12.2592C1.96452 12.7979 2.48985 12.9879 3.19119 12.9892C4.01585 12.9905 10.0125 12.9905 10.8372 12.9892C11.5385 12.9879 12.0639 12.7979 12.5099 12.2592C12.8259 11.8792 13.0152 11.3319 13.0452 10.8419C13.0665 10.4765 13.1612 9.31787 13.1612 9.31787" stroke="#8798AD" stroke-width="1.5" stroke-linecap="round" stroke-linejoin="round"/>
<path d="M4.66406 2.55283V2.3055C4.66406 1.49216 5.32273 0.833496 6.13606 0.833496H7.8574C8.67006 0.833496 9.3294 1.49216 9.3294 2.3055L9.33006 2.55283" stroke="#8798AD" stroke-width="1.5" stroke-linecap="round" stroke-linejoin="round"/>
<path d="M6.99349 10.1185V9.25586" stroke="#8798AD" stroke-width="1.5" stroke-linecap="round" stroke-linejoin="round"/>
<path fill-rule="evenodd" clip-rule="evenodd" d="M0.832031 4.59238V6.90371C2.1107 7.74704 3.6427 8.33771 5.32403 8.57171C5.52536 7.83771 6.18736 7.29971 6.99203 7.29971C7.78403 7.29971 8.45936 7.83771 8.64736 8.57838C10.3354 8.34438 11.8734 7.75371 13.1587 6.90371V4.59238C13.1587 3.46304 12.25 2.55371 11.1207 2.55371H2.8767C1.74736 2.55371 0.832031 3.46304 0.832031 4.59238Z" stroke="#8798AD" stroke-width="1.5" stroke-linecap="round" stroke-linejoin="round"/>
</svg>
