<svg width="16" height="16" viewBox="0 0 16 16" fill="none" xmlns="http://www.w3.org/2000/svg">
<path d="M1.86963 10.3164C1.86963 10.3164 1.9643 11.4751 1.9863 11.8404C2.01563 12.3304 2.20496 12.8777 2.52096 13.2577C2.96696 13.7964 3.4923 13.9864 4.19363 13.9877C5.0183 13.9891 11.015 13.9891 11.8396 13.9877C12.541 13.9864 13.0663 13.7964 13.5123 13.2577C13.8283 12.8777 14.0176 12.3304 14.0476 11.8404C14.069 11.4751 14.1636 10.3164 14.1636 10.3164" stroke="#8798AD" stroke-width="1.5" stroke-linecap="round" stroke-linejoin="round"/>
<path d="M5.66406 3.55136V3.30403C5.66406 2.4907 6.32273 1.83203 7.13606 1.83203H8.8574C9.67006 1.83203 10.3294 2.4907 10.3294 3.30403L10.3301 3.55136" stroke="#8798AD" stroke-width="1.5" stroke-linecap="round" stroke-linejoin="round"/>
<path d="M7.99691 11.1166V10.2539" stroke="#8798AD" stroke-width="1.5" stroke-linecap="round" stroke-linejoin="round"/>
<path fill-rule="evenodd" clip-rule="evenodd" d="M1.8335 5.58945V7.90078C3.11216 8.74411 4.64416 9.33478 6.3255 9.56878C6.52683 8.83478 7.18883 8.29678 7.9935 8.29678C8.7855 8.29678 9.46083 8.83478 9.64883 9.57545C11.3368 9.34145 12.8748 8.75078 14.1602 7.90078V5.58945C14.1602 4.46011 13.2515 3.55078 12.1222 3.55078H3.87816C2.74883 3.55078 1.8335 4.46011 1.8335 5.58945Z" stroke="#8798AD" stroke-width="1.5" stroke-linecap="round" stroke-linejoin="round"/>
</svg>
