<svg width="16" height="16" viewBox="0 0 16 16" fill="none" xmlns="http://www.w3.org/2000/svg">
<g clip-path="url(#clip0_9023_86178)">
<path d="M7.33464 12.0003C7.33464 12.7337 6.73464 13.3337 6.0013 13.3337C5.26797 13.3337 4.66797 12.7337 4.66797 12.0003C4.66797 11.267 5.26797 10.667 6.0013 10.667C6.73464 10.667 7.33464 11.267 7.33464 12.0003ZM6.0013 6.66699C5.26797 6.66699 4.66797 7.26699 4.66797 8.00033C4.66797 8.73366 5.26797 9.33366 6.0013 9.33366C6.73464 9.33366 7.33464 8.73366 7.33464 8.00033C7.33464 7.26699 6.73464 6.66699 6.0013 6.66699ZM6.0013 2.66699C5.26797 2.66699 4.66797 3.26699 4.66797 4.00033C4.66797 4.73366 5.26797 5.33366 6.0013 5.33366C6.73464 5.33366 7.33464 4.73366 7.33464 4.00033C7.33464 3.26699 6.73464 2.66699 6.0013 2.66699ZM10.0013 5.33366C10.7346 5.33366 11.3346 4.73366 11.3346 4.00033C11.3346 3.26699 10.7346 2.66699 10.0013 2.66699C9.26797 2.66699 8.66797 3.26699 8.66797 4.00033C8.66797 4.73366 9.26797 5.33366 10.0013 5.33366ZM10.0013 6.66699C9.26797 6.66699 8.66797 7.26699 8.66797 8.00033C8.66797 8.73366 9.26797 9.33366 10.0013 9.33366C10.7346 9.33366 11.3346 8.73366 11.3346 8.00033C11.3346 7.26699 10.7346 6.66699 10.0013 6.66699ZM10.0013 10.667C9.26797 10.667 8.66797 11.267 8.66797 12.0003C8.66797 12.7337 9.26797 13.3337 10.0013 13.3337C10.7346 13.3337 11.3346 12.7337 11.3346 12.0003C11.3346 11.267 10.7346 10.667 10.0013 10.667Z" fill="#C4C4C4"/>
</g>
<defs>
<clipPath id="clip0_9023_86178">
<rect width="16" height="16" fill="white"/>
</clipPath>
</defs>
</svg>
