<svg width="28" height="32" viewBox="0 0 28 32" fill="none" xmlns="http://www.w3.org/2000/svg">
<path fill-rule="evenodd" clip-rule="evenodd" d="M1.25124 18.6807V18.3522C1.29943 17.3804 1.6109 16.4387 2.15353 15.6244C3.05675 14.6462 3.67505 13.4475 3.94357 12.154C3.94357 11.1543 3.94357 10.1403 4.03089 9.14054C4.48204 4.32762 9.24092 1 13.9416 1H14.058C18.7587 1 23.5176 4.32762 23.9833 9.14054C24.0706 10.1403 23.9833 11.1543 24.056 12.154C24.3282 13.4505 24.9458 14.6529 25.8461 15.6387C26.3928 16.4458 26.7047 17.384 26.7484 18.3522V18.6664C26.7808 19.9721 26.3312 21.2452 25.4822 22.2511C24.3604 23.4272 22.8382 24.1589 21.2036 24.3077C16.4105 24.8218 11.5745 24.8218 6.78143 24.3077C5.14872 24.1525 3.62864 23.4219 2.50281 22.2511C1.667 21.2445 1.22336 19.9789 1.25124 18.6807Z" stroke="black" stroke-width="1.5" stroke-linecap="round" stroke-linejoin="round"/>
<path d="M10.332 29.2776C11.0809 30.2176 12.1807 30.8259 13.388 30.968C14.5952 31.1101 15.8104 30.7741 16.7645 30.0345C17.058 29.8158 17.322 29.5614 17.5504 29.2776" stroke="black" stroke-width="1.5" stroke-linecap="round" stroke-linejoin="round"/>
</svg>
