<svg width="90" height="90" viewBox="0 0 90 90" fill="none" xmlns="http://www.w3.org/2000/svg">
<circle cx="45" cy="45" r="45" fill="#D9D9D9"/>
<path d="M21.25 34.4375V31L45 20.75L68.75 31V34.4375H65.625C65.625 34.9062 65.4688 35.3125 65.125 35.625C64.8125 35.9375 64.375 36.125 63.9375 36.125H26.25C25.7812 36.125 25.375 35.9688 25.0625 35.625C24.75 35.3125 24.5625 34.875 24.5625 34.4375M21.25 65.2188C21.25 64.75 21.4062 64.3438 21.75 64.0312C22.0625 63.7188 22.5 63.5312 22.9375 63.5312H67.0938C67.5625 63.5312 67.9688 63.6875 68.2812 64.0312C68.5938 64.3438 68.7812 64.7812 68.7812 65.2188V68.6562H21.25V65.2188ZM24.375 61.7812V60.0625C24.375 59.5938 24.5312 59.1875 24.875 58.875C25.1875 58.5625 25.625 58.375 26.0625 58.375H27.5V37.8125H34.0625V58.3438H37.1875V37.8125H43.5312V58.3438H46.7188V37.8125H53.125V58.3438H56.25V37.8125H62.5938V58.3438H64.0625C64.5312 58.3438 64.9375 58.5 65.25 58.8438C65.5625 59.1562 65.75 59.5938 65.75 60.0312V61.75H24.375" fill="white"/>
</svg>
