<svg width="20" height="20" viewBox="0 0 20 20" fill="none" xmlns="http://www.w3.org/2000/svg">
    <path d="M15.138 11.983c-.56-.12-1.002.14-1.394.366-.402.234-1.165.854-1.603.695-2.24-.922-4.348-2.884-5.26-5.133-.161-.447.455-1.216.687-1.622.226-.393.48-.84.364-1.404-.105-.507-1.462-2.234-1.941-2.706-.317-.311-.641-.483-.974-.51-1.25-.054-2.648 1.615-2.893 2.014-.614.852-.61 1.985.01 3.359 1.496 3.69 7.155 9.26 10.86 10.812.683.32 1.308.48 1.87.48.549 0 1.038-.154 1.458-.458.318-.183 2.055-1.65 2.01-2.934-.028-.327-.199-.655-.507-.972-.468-.484-2.184-1.881-2.687-1.987z" fill="#C4C4C4"/>
</svg>
