<svg width="17" height="17" viewBox="0 0 17 17" fill="none" xmlns="http://www.w3.org/2000/svg">
    <path d="M8.476 2.36H5.984c-2.05 0-3.336 1.45-3.336 3.505v5.543c0 2.055 1.28 3.506 3.336 3.506h5.882c2.057 0 3.336-1.451 3.336-3.506V8.723" stroke="#fff" stroke-width="1.5" stroke-linecap="round" stroke-linejoin="round"/>
    <path clip-rule="evenodd" d="m6.7 7.781 4.983-4.982a1.59 1.59 0 0 1 2.247 0l.812.811c.62.621.62 1.628 0 2.248l-5.006 5.006c-.272.271-.64.424-1.024.424H6.215l.063-2.52c.009-.371.16-.724.423-.987z" stroke="#fff" stroke-width="1.5" stroke-linecap="round" stroke-linejoin="round"/>
    <path d="m10.926 3.568 3.044 3.044" stroke="#fff" stroke-width="1.5" stroke-linecap="round" stroke-linejoin="round"/>
</svg>
