<?xml version="1.0" encoding="utf-8"?>
<!-- Uploaded to: SVG Repo, www.svgrepo.com, Generator: SVG Repo Mixer Tools -->
<svg width="800px" height="800px" viewBox="0 0 1024 1024" class="icon"  version="1.1" xmlns="http://www.w3.org/2000/svg"><path d="M512.3 959C265.3 959 65 758.8 65 511.8S265.3 64.5 512.3 64.5s447.2 200.2 447.2 447.2S759.3 959 512.3 959z" fill="#5E676F" /><path d="M512.3 903.1c216.1 0 391.3-175.2 391.3-391.3S728.4 120.4 512.3 120.4 120.9 295.6 120.9 511.8s175.2 391.3 391.4 391.3z" fill="#FFFFFF" /><path d="M664.9 330.1c12.8-13.3 44.2 13.3 44.2 13.3 34.3 44.2 54.8 100.3 54.8 161.2 0 142.9-112.6 258.7-251.6 258.7S260.7 647.5 260.7 504.6c0-61.9 21.1-118.7 56.3-163.2 0 0 27.5-24.4 41.5-11.4s10.4 35.9 2.3 46.1c-28.5 36-44.3 80.9-44.3 128.5 0 112.3 88 202.8 195.7 202.8S707.9 617 707.9 504.6c0-46.9-15.4-91.2-43.1-127-7.9-10.2-12.8-34.2 0.1-47.5z" fill="#5E676F" /><path d="M484.3 288.1c0-15.4 12.4-27.9 28-27.9 15.4 0 28 12.5 28 27.9v195.8c0 15.4-12.4 27.9-28 27.9-15.4 0-28-12.5-28-27.9V288.1z" fill="#5E676F" /></svg>