<svg width="9" height="12" viewBox="0 0 9 12" fill="none" xmlns="http://www.w3.org/2000/svg">
<path d="M8.75071 3.20455L8.3473 4.69318H0.807528L1.21662 3.20455H8.75071ZM4.96094 12L0.983665 7.21591L0.977983 5.95455H2.94389C3.41359 5.95455 3.80563 5.87689 4.12003 5.72159C4.43821 5.5625 4.67874 5.34091 4.84162 5.05682C5.00829 4.76894 5.09162 4.43182 5.09162 4.04545C5.09162 3.46591 4.92116 3 4.58026 2.64773C4.23935 2.29545 3.69389 2.11932 2.94389 2.11932H0.807528L1.25071 0.363636H2.94389C3.89844 0.363636 4.68821 0.511363 5.31321 0.806818C5.942 1.09848 6.4117 1.51136 6.7223 2.04545C7.0367 2.57955 7.19389 3.20455 7.19389 3.92045C7.19389 4.55303 7.07836 5.11742 6.8473 5.61364C6.61624 6.10985 6.2526 6.51705 5.75639 6.83523C5.26018 7.15341 4.61056 7.36553 3.80753 7.47159L3.73935 7.49432L7.33026 11.8977V12H4.96094ZM8.76207 0.363636L8.3473 1.875L2.23366 1.85227L2.64844 0.363636H8.76207Z" fill="black"/>
</svg>
