<svg width="20" height="20" viewBox="0 0 20 20" fill="none" xmlns="http://www.w3.org/2000/svg">
<path d="M8.11693 15.9867H0.882812" stroke="#2E5BFF" stroke-width="1.5" stroke-linecap="round" stroke-linejoin="round"/>
<path fill-rule="evenodd" clip-rule="evenodd" d="M19.1184 15.9864C19.1184 17.577 17.829 18.8664 16.2384 18.8664C14.6478 18.8664 13.3584 17.577 13.3584 15.9864C13.3584 14.3947 14.6478 13.1064 16.2384 13.1064C17.829 13.1064 19.1184 14.3947 19.1184 15.9864Z" stroke="#2E5BFF" stroke-width="1.5" stroke-linecap="round" stroke-linejoin="round"/>
<path d="M11.8828 4.26206H19.1181" stroke="#2E5BFF" stroke-width="1.5" stroke-linecap="round" stroke-linejoin="round"/>
<path fill-rule="evenodd" clip-rule="evenodd" d="M0.882812 4.26184C0.882812 5.8536 2.17222 7.14184 3.76281 7.14184C5.3534 7.14184 6.64281 5.8536 6.64281 4.26184C6.64281 2.67125 5.3534 1.38184 3.76281 1.38184C2.17222 1.38184 0.882812 2.67125 0.882812 4.26184Z" stroke="#2E5BFF" stroke-width="1.5" stroke-linecap="round" stroke-linejoin="round"/>
</svg>
