<svg width="24" height="31" viewBox="0 0 24 31" fill="none" xmlns="http://www.w3.org/2000/svg">
<path opacity="0.75" d="M19.252 2.68308L14.621 13.5922H21.357C22.1389 13.5922 22.8606 14.0771 23.1613 14.8043C23.4019 15.5922 23.2214 16.4407 22.62 16.9862L7.22336 30.5619C6.50164 31.1074 5.53935 31.168 4.81764 30.6225C4.09592 30.1377 3.79521 29.168 4.15606 28.3195L8.78708 17.4104H2.1112C1.2692 17.4104 0.547487 16.9255 0.306914 16.1983C0.00619879 15.4104 0.186628 14.5619 0.788059 14.0165L16.1847 0.440654C16.9064 -0.104801 17.8687 -0.165406 18.5904 0.380048C19.3121 0.864897 19.6128 1.8346 19.252 2.68308Z" fill="url(#paint0_linear_14684_195528)"/>
<defs>
<linearGradient id="paint0_linear_14684_195528" x1="7.33508" y1="30.9862" x2="0.0828267" y2="2.40643" gradientUnits="userSpaceOnUse">
<stop stop-color="#D1A417" stop-opacity="0.06"/>
<stop offset="1" stop-color="#D1A417"/>
</linearGradient>
</defs>
</svg>
