<svg width="18" height="18" viewBox="0 0 18 18" fill="none" xmlns="http://www.w3.org/2000/svg">
    <path d="M13.439 10.74a.825.825 0 0 0-.24.727l.667 3.69a.81.81 0 0 1-.337.81.826.826 0 0 1-.878.06L9.33 14.296a.847.847 0 0 0-.375-.098H8.75a.609.609 0 0 0-.202.067l-3.323 1.741a.876.876 0 0 1-.532.082.834.834 0 0 1-.668-.953l.668-3.69a.84.84 0 0 0-.24-.734L1.747 8.085a.81.81 0 0 1-.201-.848.842.842 0 0 1 .666-.562l3.728-.54a.834.834 0 0 0 .66-.457L8.24 2.31a.78.78 0 0 1 .15-.203l.068-.052a.503.503 0 0 1 .12-.098l.082-.03.128-.052h.316c.282.03.53.198.66.45l1.664 3.353c.12.245.353.415.622.456l3.728.541a.85.85 0 0 1 .682.563c.099.3.014.63-.217.847l-2.805 2.655z" fill="#F5C90E"/>
</svg>
