<svg width="11" height="11" viewBox="0 0 11 11" fill="none" xmlns="http://www.w3.org/2000/svg">
<path fill-rule="evenodd" clip-rule="evenodd" d="M0.5 5.5C0.5 2.7405 2.74 0.5 5.5 0.5C8.265 0.5 10.5 2.7405 10.5 5.5C10.5 8.2605 8.265 10.5 5.5 10.5C2.74 10.5 0.5 8.2605 0.5 5.5ZM5.06 3.605C5.06 3.3655 5.26 3.165 5.5 3.165C5.74 3.165 5.935 3.3655 5.935 3.605V5.815C5.935 6.0555 5.74 6.25 5.5 6.25C5.26 6.25 5.06 6.0555 5.06 5.815V3.605ZM5.505 7.8405C5.26 7.8405 5.065 7.6405 5.065 7.4005C5.065 7.1605 5.26 6.9655 5.5 6.9655C5.745 6.9655 5.94 7.1605 5.94 7.4005C5.94 7.6405 5.745 7.8405 5.505 7.8405Z" fill="#EF7E15"/>
</svg>
