<svg width="12" height="13" viewBox="0 0 12 13" fill="none" xmlns="http://www.w3.org/2000/svg">
<path fill-rule="evenodd" clip-rule="evenodd" d="M1 6.5C1 3.7405 3.24 1.5 6 1.5C8.765 1.5 11 3.7405 11 6.5C11 9.2605 8.765 11.5 6 11.5C3.24 11.5 1 9.2605 1 6.5ZM5.56 4.605C5.56 4.3655 5.76 4.165 6 4.165C6.24 4.165 6.435 4.3655 6.435 4.605V6.815C6.435 7.0555 6.24 7.25 6 7.25C5.76 7.25 5.56 7.0555 5.56 6.815V4.605ZM6.005 8.8405C5.76 8.8405 5.565 8.6405 5.565 8.4005C5.565 8.1605 5.76 7.9655 6 7.9655C6.245 7.9655 6.44 8.1605 6.44 8.4005C6.44 8.6405 6.245 8.8405 6.005 8.8405Z" fill="#FF2E2E"/>
</svg>
