<svg width="20" height="20" viewBox="0 0 20 20" fill="none" xmlns="http://www.w3.org/2000/svg">
<path d="M19.9144 11.0289L17.0601 5.04036C17.2445 4.93499 17.4222 4.80661 17.5836 4.66177C17.8108 4.45435 17.8239 4.1021 17.6198 3.87822C17.4124 3.65435 17.0601 3.63459 16.8329 3.84202C16.3819 4.25681 15.7498 4.41814 15.1572 4.26669L12.158 3.52266C11.9934 2.69633 11.3646 2.03786 10.558 1.82718V0.556367C10.5547 0.2502 10.3078 0 9.99835 0C9.69219 0 9.44199 0.246941 9.44199 0.556367V1.82718C8.63542 2.04117 8.00659 2.69633 7.84199 3.52266L4.84281 4.26995C4.24361 4.41809 3.61814 4.25676 3.16709 3.84528C2.93991 3.63785 2.58765 3.65104 2.38023 3.88148C2.17281 4.10535 2.186 4.46092 2.41644 4.66503C2.57777 4.81318 2.75556 4.94156 2.94317 5.04693L0.0526575 11.0947C0.0197593 11.1507 0 11.3647 0 11.3712C0.0427778 13.3597 1.67903 14.9696 3.6708 14.9696C5.63293 14.9696 7.25599 13.3993 7.33503 11.447C7.3416 11.4108 7.31527 11.1177 7.25599 11.0289L4.58273 5.42225C4.76051 5.40906 4.93173 5.38935 5.10946 5.34652L7.91441 4.64858C8.15147 5.34983 8.72429 5.88975 9.4453 6.07742V16.6684C7.95724 16.8626 6.65679 17.8141 6.03789 19.21C5.96216 19.3845 5.97861 19.9902 6.54486 19.9902H13.4585C14.0346 19.9902 14.0412 19.3845 13.9655 19.21C13.3465 17.8141 12.0461 16.8593 10.5581 16.6684V6.08399C11.2791 5.89632 11.8519 5.3564 12.089 4.65515L14.8939 5.35309C15.0684 5.39587 15.2429 5.41894 15.4207 5.42882L12.7079 11.098C12.675 11.1539 12.6552 11.3679 12.6552 11.3745C12.6947 13.363 14.3309 14.9729 16.3227 14.9729C18.2848 14.9729 19.9079 13.4025 19.9869 11.4502C20 11.4108 19.9704 11.121 19.9144 11.0289ZM3.6708 13.8634C2.46584 13.8634 1.44859 13.0206 1.17863 11.8914H6.1597C5.89301 13.0173 4.87571 13.8634 3.6708 13.8634ZM5.9062 10.7819H1.4354L3.6708 6.09381L5.9062 10.7819ZM12.4576 18.884H7.53909C8.14154 18.1729 9.03702 17.7416 9.99835 17.7416C10.9597 17.7416 11.8519 18.1729 12.4576 18.884ZM9.99835 5.04362C9.3959 5.04362 8.90864 4.55636 8.90864 3.9539C8.90864 3.35144 9.3959 2.86418 9.99835 2.86418C10.6008 2.86418 11.0881 3.35144 11.0881 3.9539C11.0881 4.55636 10.6009 5.04362 9.99835 5.04362ZM16.3292 6.09055L18.5646 10.7787H14.0938L16.3292 6.09055ZM16.3292 13.8634C15.1243 13.8634 14.107 13.0206 13.8371 11.8914H18.8214C18.5482 13.0173 17.5342 13.8634 16.3292 13.8634Z" fill="#2E5BFF"/>
</svg>
