<svg width="10" height="11" viewBox="0 0 10 11" fill="none" xmlns="http://www.w3.org/2000/svg">
<path fill-rule="evenodd" clip-rule="evenodd" d="M0 5.5C0 2.7405 2.24 0.5 5 0.5C7.765 0.5 10 2.7405 10 5.5C10 8.2605 7.765 10.5 5 10.5C2.24 10.5 0 8.2605 0 5.5ZM4.56 3.605C4.56 3.3655 4.76 3.165 5 3.165C5.24 3.165 5.435 3.3655 5.435 3.605V5.815C5.435 6.0555 5.24 6.25 5 6.25C4.76 6.25 4.56 6.0555 4.56 5.815V3.605ZM5.005 7.8405C4.76 7.8405 4.565 7.6405 4.565 7.4005C4.565 7.1605 4.76 6.9655 5 6.9655C5.245 6.9655 5.44 7.1605 5.44 7.4005C5.44 7.6405 5.245 7.8405 5.005 7.8405Z" fill="#258017"/>
</svg>
