<svg width="16" height="16" viewBox="0 0 16 16" fill="none" xmlns="http://www.w3.org/2000/svg">
<path d="M15.399 5.66619C15.7324 5.66619 16 5.39477 16 5.08075V3.19663C16 2.88262 15.7463 2.53778 15.4331 2.43027L8.58836 0.0806723C8.27521 -0.0268336 7.76327 -0.0268907 7.45 0.080501L0.581818 2.43044C0.268606 2.53784 0 2.88262 0 3.19663V5.08075C0 5.39477 0.297939 5.66619 0.631273 5.66619H0.969697V14.1159H0.626242C0.291515 14.1159 0 14.3855 0 14.7009V15.4431C0 15.7584 0.291576 16 0.626242 16H15.4141C15.7488 16 16 15.7584 16 15.4431V14.7009C16 14.3855 15.7488 14.1159 15.4141 14.1159H14.9697V5.66619H15.399ZM9.0303 5.66619V14.1159H7.0303V5.66619H9.0303ZM2.9697 5.66619H5.0303V14.1159H2.9697V5.66619ZM12.9697 14.1159H11.0303V5.66619H12.9697V14.1159Z" fill="#C4C4C4"/>
</svg>
