<svg width="16" height="16" viewBox="0 0 16 16" fill="none" xmlns="http://www.w3.org/2000/svg">
<path fill-rule="evenodd" clip-rule="evenodd" d="M5.11398 1.33398H10.894C13.154 1.33398 14.6673 2.91998 14.6673 5.27998V10.7267C14.6673 13.0807 13.154 14.6673 10.894 14.6673H5.11398C2.85398 14.6673 1.33398 13.0807 1.33398 10.7267V5.27998C1.33398 2.91998 2.85398 1.33398 5.11398 1.33398ZM10.3873 10.5407C10.554 10.5407 10.7207 10.454 10.814 10.294C10.9607 10.06 10.8807 9.75332 10.6407 9.60732L8.26732 8.19398V5.11332C8.26732 4.84065 8.04732 4.61332 7.76732 4.61332C7.49398 4.61332 7.26732 4.84065 7.26732 5.11332V8.48065C7.26732 8.65399 7.36065 8.82065 7.51398 8.90732L10.1273 10.4673C10.2073 10.5207 10.3007 10.5407 10.3873 10.5407Z" fill="#2E5BFF"/>
</svg>
