<svg width="24" height="24" viewBox="0 0 24 24" fill="none" xmlns="http://www.w3.org/2000/svg">
<path d="M17.044 10.6488C17.0401 10.7946 16.9804 10.9333 16.8773 11.0364C16.7742 11.1395 16.6355 11.1991 16.4897 11.2031C16.3801 11.2041 16.2727 11.1722 16.1814 11.1117C16.09 11.0511 16.0188 10.9646 15.977 10.8633C15.9353 10.7619 15.9247 10.6504 15.9468 10.5431C15.9689 10.4357 16.0227 10.3374 16.1011 10.2608C16.1478 10.2046 16.2092 10.1624 16.2784 10.1389C16.3791 10.0975 16.4897 10.087 16.5963 10.1087C16.7029 10.1304 16.8007 10.1834 16.8771 10.2608C16.9306 10.3101 16.9732 10.3702 17.0019 10.437C17.0307 10.5039 17.045 10.576 17.044 10.6488Z" fill="#646464"/>
<path d="M8.17312 10.65C8.17312 10.797 8.11473 10.938 8.01078 11.0419C7.90684 11.1458 7.76586 11.2042 7.61886 11.2042H6.51032C6.36332 11.2042 6.22234 11.1458 6.1184 11.0419C6.01445 10.938 5.95605 10.797 5.95605 10.65C5.95605 10.503 6.01445 10.362 6.1184 10.258C6.22234 10.1541 6.36332 10.0957 6.51032 10.0957H7.61886C7.76586 10.0957 7.90684 10.1541 8.01078 10.258C8.11473 10.362 8.17312 10.503 8.17312 10.65Z" fill="#646464"/>
<path d="M21.9436 15.9363L20.691 9.04683C20.5748 8.40828 20.2383 7.83073 19.74 7.4149C19.2417 6.99906 18.6132 6.7713 17.9642 6.77134H12.0545V4.55427C12.0545 4.40727 11.9961 4.26629 11.8921 4.16234C11.7882 4.0584 11.6472 4 11.5002 4C11.3532 4 11.2122 4.0584 11.1083 4.16234C11.0043 4.26629 10.9459 4.40727 10.9459 4.55427V6.77134H5.03623C4.38717 6.77125 3.75866 6.99898 3.26031 7.41482C2.76195 7.83067 2.42536 8.40824 2.30923 9.04683L1.05659 15.9363C0.900992 16.7924 1.06891 17.6757 1.52777 18.415C1.98663 19.1543 2.70372 19.6969 3.53995 19.9374C4.37617 20.1779 5.27192 20.0992 6.05344 19.7167C6.83496 19.3341 7.44654 18.675 7.76954 17.867L8.96576 14.8786C9.00634 14.7757 9.07707 14.6874 9.16868 14.6254C9.26029 14.5634 9.3685 14.5305 9.47913 14.5311H13.5213C13.6321 14.5307 13.7404 14.5637 13.8321 14.6258C13.9238 14.6879 13.9947 14.7762 14.0355 14.8792L15.2307 17.867C15.5539 18.6747 16.1655 19.3336 16.9469 19.716C17.7283 20.0983 18.6239 20.1769 19.46 19.9364C20.296 19.696 21.013 19.1536 21.4719 18.4145C21.9308 17.6754 22.0989 16.7923 21.9436 15.9363ZM20.3339 18.1025C20.0674 18.4216 19.7227 18.6662 19.3334 18.8122C18.9441 18.9583 18.5236 19.0008 18.1129 18.9356C17.7023 18.8704 17.3156 18.6997 16.9907 18.4403C16.6657 18.1809 16.4137 17.8416 16.2591 17.4556L15.065 14.4683C14.9427 14.159 14.7299 13.8938 14.4545 13.7073C14.1791 13.5207 13.8539 13.4215 13.5213 13.4226H9.47913C9.14667 13.4213 8.82157 13.5204 8.54634 13.7069C8.27111 13.8933 8.05856 14.1586 7.93649 14.4678L6.74127 17.4556C6.52031 18.0086 6.10184 18.4597 5.56705 18.7215C5.03226 18.9833 4.41928 19.0372 3.84704 18.8726C3.2748 18.7079 2.78411 18.3366 2.47017 17.8307C2.15623 17.3247 2.04144 16.7202 2.14805 16.1344L3.4007 9.24492C3.4702 8.86183 3.67202 8.51531 3.97094 8.26583C4.26985 8.01635 4.64688 7.87975 5.03623 7.87987H17.9642C18.3536 7.87972 18.7306 8.01631 19.0295 8.26579C19.3285 8.51528 19.5303 8.86181 19.5998 9.24492L20.8525 16.1344C20.916 16.4804 20.9024 16.8361 20.8128 17.1763C20.7232 17.5164 20.5597 17.8327 20.3339 18.1025Z" fill="#646464"/>
</svg>
