<svg width="40" height="40" viewBox="0 0 40 40" fill="none" xmlns="http://www.w3.org/2000/svg">
<circle cx="20" cy="20" r="20" fill="#2E5BFF" fill-opacity="0.05"/>
<circle cx="20" cy="20" r="19" stroke="#2E5BFF" stroke-opacity="0.05" stroke-width="2"/>
<path d="M27.17 14.5284C26.5937 14.8344 25.9666 15.0546 25.3207 15.1404C25.9913 14.6499 26.4935 13.8752 26.7331 12.9614C26.1038 13.4222 25.4144 13.7453 24.6955 13.9164C24.395 13.521 24.0316 13.206 23.6279 12.9911C23.2242 12.7761 22.7889 12.6658 22.349 12.667C20.5694 12.667 19.1382 14.4426 19.1382 16.6216C19.1382 16.9276 19.1683 17.2336 19.2173 17.5279C16.5526 17.3564 14.176 15.7894 12.596 13.3902C12.3081 13.9955 12.1573 14.6847 12.1591 15.3861C12.1591 16.7584 12.726 17.9684 13.5903 18.68C13.0809 18.6553 12.5835 18.483 12.1384 18.177V18.2257C12.1384 20.1473 13.2419 21.7398 14.7127 22.1061C14.4366 22.1944 14.1525 22.2396 13.8672 22.2405C13.6581 22.2405 13.4604 22.215 13.2608 22.1803C13.6675 23.7473 14.8521 24.8854 16.2626 24.9225C15.159 25.9865 13.7768 26.6124 12.2759 26.6124C12.0066 26.6124 11.758 26.6008 11.5 26.5637C12.9237 27.6879 14.6129 28.337 16.4321 28.337C22.3377 28.337 25.5693 22.3147 25.5693 17.0875C25.5693 16.916 25.5693 16.7444 25.5599 16.5729C26.1851 16.0096 26.7331 15.3119 27.17 14.5284Z" fill="#2E5BFF"/>
</svg>
