<svg width="17" height="17" viewBox="0 0 17 17" fill="none" xmlns="http://www.w3.org/2000/svg">
<path d="M16.17 2.52839C15.5937 2.83437 14.9666 3.05459 14.3207 3.14036C14.9913 2.64994 15.4935 1.87517 15.7331 0.961394C15.1038 1.4222 14.4144 1.74532 13.6955 1.91643C13.395 1.52103 13.0316 1.20604 12.6279 0.991082C12.2242 0.776124 11.7889 0.665806 11.349 0.667002C9.56943 0.667002 8.13821 2.44263 8.13821 4.62159C8.13821 4.92757 8.16834 5.23355 8.2173 5.52794C5.55259 5.35641 3.17601 3.78941 1.59601 1.39023C1.30812 1.99551 1.15726 2.68469 1.15912 3.38607C1.15912 4.75835 1.72595 5.96837 2.59034 6.68001C2.08094 6.65532 1.58348 6.48297 1.1384 6.177V6.22568C1.1384 8.14734 2.24195 9.73983 3.71272 10.1061C3.43656 10.1944 3.15248 10.2396 2.86717 10.2405C2.65813 10.2405 2.4604 10.215 2.26078 10.1803C2.66755 11.7473 3.85207 12.8854 5.26258 12.9225C4.15903 13.9865 2.77677 14.6124 1.27587 14.6124C1.00658 14.6124 0.757997 14.6008 0.5 14.5637C1.92369 15.6879 3.61291 16.337 5.43207 16.337C11.3377 16.337 14.5693 10.3147 14.5693 5.08752C14.5693 4.91598 14.5693 4.74444 14.5599 4.57291C15.1851 4.00962 15.7331 3.31189 16.17 2.52839Z" fill="#2E5BFF"/>
</svg>
