<svg width="17" height="16" viewBox="0 0 17 16" fill="none" xmlns="http://www.w3.org/2000/svg">
<g clip-path="url(#clip0_9680_114123)">
<g clip-path="url(#clip1_9680_114123)">
<g clip-path="url(#clip2_9680_114123)">
<g clip-path="url(#clip3_9680_114123)">
<path d="M7.76368 0.303075C7.90682 0.1646 8.13402 0.1646 8.27716 0.303074L9.86842 1.84246C9.95026 1.92165 10.064 1.95863 10.1768 1.94268L12.369 1.63261C12.5662 1.60471 12.75 1.73824 12.7844 1.93441L13.1669 4.11511C13.1866 4.22729 13.257 4.32411 13.3576 4.37749L15.3133 5.41517C15.4893 5.50851 15.5595 5.72456 15.472 5.90346L14.4997 7.89257C14.4496 7.99491 14.4496 8.11454 14.4997 8.21688L15.472 10.2059C15.5595 10.3849 15.4893 10.6009 15.3133 10.6943L13.3576 11.732C13.257 11.7853 13.1866 11.8822 13.1669 11.9944L12.7844 14.175C12.75 14.3712 12.5662 14.5048 12.369 14.4768L10.1768 14.1668C10.064 14.1508 9.95026 14.1878 9.86842 14.267L8.27716 15.8064C8.13402 15.9448 7.90682 15.9448 7.76368 15.8064L6.17243 14.267C6.09058 14.1878 5.97676 14.1508 5.864 14.1668L3.67181 14.4768C3.47461 14.5048 3.29083 14.3712 3.25642 14.175L2.87389 11.9944C2.85421 11.8822 2.78388 11.7853 2.68327 11.732L0.7275 10.6943C0.551567 10.6009 0.481369 10.3849 0.568833 10.2059L1.54115 8.21688C1.59117 8.11454 1.59117 7.99491 1.54115 7.89257L0.568833 5.90346C0.481369 5.72456 0.551567 5.50851 0.7275 5.41517L2.68327 4.37749C2.78388 4.32411 2.85421 4.22729 2.87389 4.11511L3.25642 1.93441C3.29083 1.73824 3.47461 1.60471 3.67181 1.63261L5.864 1.94268C5.97676 1.95863 6.09058 1.92165 6.17243 1.84246L7.76368 0.303075Z" fill="#3772FF"/>
<path fill-rule="evenodd" clip-rule="evenodd" d="M10.8128 6.09469C10.9756 6.25746 10.9756 6.52127 10.8128 6.68398L7.47955 10.0173C7.31678 10.18 7.05297 10.18 6.89026 10.0173L5.2236 8.35063C5.06088 8.18792 5.06088 7.9241 5.2236 7.76139C5.38632 7.59869 5.65014 7.59869 5.81286 7.76139L7.18491 9.13339L10.2236 6.09469C10.3863 5.93198 10.6501 5.93198 10.8128 6.09469Z" fill="#FCFCFD" stroke="#FCFCFD" stroke-width="0.307692" stroke-miterlimit="10" stroke-linecap="round" stroke-linejoin="round"/>
</g>
</g>
</g>
</g>
<defs>
<clipPath id="clip0_9680_114123">
<rect width="16" height="16" fill="white" transform="translate(0.0195312)"/>
</clipPath>
<clipPath id="clip1_9680_114123">
<rect width="16" height="16" fill="white" transform="translate(0.0195312)"/>
</clipPath>
<clipPath id="clip2_9680_114123">
<rect width="16" height="16" fill="white" transform="translate(0.0195312)"/>
</clipPath>
<clipPath id="clip3_9680_114123">
<rect width="16" height="16.6154" fill="white" transform="translate(0.0195312 -0.308594)"/>
</clipPath>
</defs>
</svg>
