<svg width="115" height="60" viewBox="0 0 115 60" fill="none" xmlns="http://www.w3.org/2000/svg">
<path d="M4.92293 6.68384H16.2194C17.0119 6.68384 17.6534 6.01839 17.6534 5.19941V1.48175C17.6534 0.662772 17.0119 0 16.2194 0H4.92293C4.13176 0 3.49023 0.662772 3.49023 1.48175V5.1995C3.49023 6.01848 4.13176 6.68384 4.92293 6.68384Z" fill="#D1A417"/>
<path d="M12.5548 39.854V37.7876C13.3186 35.4169 19.2004 25.2227 21.138 22.9624C19.0886 17.4935 17.3474 12.5824 16.8816 8.06445H10.569H4.25646C3.79058 12.5823 2.05082 17.4935 0 22.9624C1.93764 25.2227 7.81943 35.4169 8.58329 37.7876V39.854C8.04712 40.2931 7.70491 40.972 7.70491 41.7344C7.70483 43.0626 8.74461 44.1402 10.0276 44.1402V39.8796V39.3314V22.5288C9.15319 22.2809 8.51034 21.4552 8.51034 20.4732C8.51034 19.296 9.43168 18.3422 10.569 18.3422C11.7063 18.3422 12.6276 19.296 12.6276 20.4732C12.6276 21.4552 11.9848 22.2809 11.1103 22.5288V39.3314V39.8796V44.1402C12.3934 44.1402 13.4331 43.0626 13.4331 41.7344C13.4331 40.972 13.0908 40.2931 12.5548 39.854Z" fill="url(#paint0_linear_9406_72310)"/>
<path d="M0.434082 51.2964C0.434082 50.9159 0.505859 50.5615 0.649414 50.2334C0.792969 49.903 1.00033 49.617 1.27148 49.3755C1.54492 49.1317 1.8776 48.9403 2.26953 48.8013C2.66374 48.6623 3.10921 48.5928 3.60596 48.5928C4.04118 48.5928 4.43994 48.6372 4.80225 48.7261C5.16683 48.8127 5.50521 48.946 5.81738 49.126L5.31836 49.9463C5.22493 49.8848 5.1167 49.8301 4.99365 49.7822C4.87288 49.7344 4.743 49.6945 4.604 49.6626C4.46729 49.6284 4.32487 49.6022 4.17676 49.584C4.03092 49.5658 3.88623 49.5566 3.74268 49.5566C3.39632 49.5566 3.08757 49.5999 2.81641 49.6865C2.54525 49.7708 2.31624 49.8905 2.12939 50.0454C1.94482 50.1981 1.80355 50.3815 1.70557 50.5957C1.60986 50.8076 1.56201 51.0412 1.56201 51.2964C1.56201 51.5607 1.61214 51.8034 1.7124 52.0244C1.81266 52.2454 1.95736 52.4368 2.14648 52.5986C2.33789 52.7581 2.57031 52.8835 2.84375 52.9746C3.11947 53.0635 3.4305 53.1079 3.77686 53.1079C3.93408 53.1079 4.09017 53.0965 4.24512 53.0737C4.40007 53.0509 4.54932 53.0202 4.69287 52.9814C4.8387 52.9404 4.97884 52.8926 5.11328 52.8379C5.24772 52.7809 5.37305 52.7194 5.48926 52.6533L5.98828 53.4736C5.69661 53.6605 5.35938 53.8075 4.97656 53.9146C4.59375 54.0194 4.18701 54.0718 3.75635 54.0718C3.20719 54.0718 2.72526 54.0011 2.31055 53.8599C1.89583 53.7163 1.54948 53.5203 1.27148 53.272C0.99349 53.0213 0.783854 52.7274 0.642578 52.3901C0.503581 52.0506 0.434082 51.686 0.434082 51.2964ZM7.37543 51.9834C7.37543 51.694 7.43354 51.4229 7.54975 51.1699C7.66824 50.917 7.83572 50.696 8.05219 50.5068C8.27094 50.3177 8.53412 50.1685 8.84174 50.0591C9.15163 49.9497 9.49913 49.895 9.88422 49.895C10.2693 49.895 10.6157 49.9497 10.9233 50.0591C11.2332 50.1685 11.4964 50.3177 11.7128 50.5068C11.9316 50.696 12.0991 50.917 12.2153 51.1699C12.3338 51.4229 12.393 51.694 12.393 51.9834C12.393 52.2728 12.3338 52.5439 12.2153 52.7969C12.0991 53.0498 11.9316 53.2708 11.7128 53.46C11.4964 53.6491 11.2332 53.7983 10.9233 53.9077C10.6157 54.0171 10.2693 54.0718 9.88422 54.0718C9.49913 54.0718 9.15163 54.0171 8.84174 53.9077C8.53412 53.7983 8.27094 53.6491 8.05219 53.46C7.83572 53.2708 7.66824 53.0498 7.54975 52.7969C7.43354 52.5439 7.37543 52.2728 7.37543 51.9834ZM8.43842 51.9834C8.43842 52.1452 8.47032 52.299 8.53412 52.4448C8.6002 52.5884 8.69477 52.716 8.81781 52.8276C8.94314 52.937 9.09467 53.0247 9.2724 53.0908C9.45242 53.1546 9.65635 53.1865 9.88422 53.1865C10.1121 53.1865 10.3149 53.1546 10.4926 53.0908C10.6726 53.0247 10.8242 52.937 10.9472 52.8276C11.0725 52.716 11.1671 52.5884 11.2309 52.4448C11.297 52.299 11.33 52.1452 11.33 51.9834C11.33 51.8216 11.297 51.6678 11.2309 51.522C11.1671 51.3761 11.0725 51.2485 10.9472 51.1392C10.8242 51.0275 10.6726 50.9398 10.4926 50.876C10.3149 50.8099 10.1121 50.7769 9.88422 50.7769C9.65635 50.7769 9.45242 50.8099 9.2724 50.876C9.09467 50.9398 8.94314 51.0275 8.81781 51.1392C8.69477 51.2485 8.6002 51.3761 8.53412 51.522C8.47032 51.6678 8.43842 51.8216 8.43842 51.9834ZM13.975 49.9668H14.9867V50.3086C15.2556 50.1559 15.5119 50.0488 15.7557 49.9873C16.0018 49.9258 16.2422 49.895 16.4769 49.895C16.7846 49.895 17.0694 49.9406 17.3314 50.0317C17.5935 50.1206 17.8202 50.2539 18.0116 50.4316C18.203 50.6094 18.3523 50.8315 18.4594 51.0981C18.5687 51.3625 18.6234 51.6689 18.6234 52.0176V54H17.6151V52.1816C17.6151 51.9606 17.5832 51.7635 17.5194 51.5903C17.4579 51.4149 17.3679 51.2679 17.2494 51.1494C17.1332 51.0286 16.9908 50.9375 16.8221 50.876C16.6558 50.8122 16.469 50.7803 16.2616 50.7803C16.1522 50.7803 16.0394 50.7917 15.9232 50.8145C15.8093 50.8372 15.6965 50.8703 15.5848 50.9136C15.4755 50.9546 15.3695 51.007 15.267 51.0708C15.1644 51.1323 15.071 51.203 14.9867 51.2827V54H13.975V49.9668ZM20.4276 49.9668H21.4393V50.3086C21.7082 50.1559 21.9645 50.0488 22.2083 49.9873C22.4544 49.9258 22.6948 49.895 22.9295 49.895C23.2371 49.895 23.522 49.9406 23.784 50.0317C24.046 50.1206 24.2728 50.2539 24.4642 50.4316C24.6556 50.6094 24.8048 50.8315 24.9119 51.0981C25.0213 51.3625 25.076 51.6689 25.076 52.0176V54H24.0677V52.1816C24.0677 51.9606 24.0358 51.7635 23.972 51.5903C23.9105 51.4149 23.8205 51.2679 23.702 51.1494C23.5858 51.0286 23.4433 50.9375 23.2747 50.876C23.1084 50.8122 22.9215 50.7803 22.7142 50.7803C22.6048 50.7803 22.492 50.7917 22.3758 50.8145C22.2619 50.8372 22.1491 50.8703 22.0374 50.9136C21.928 50.9546 21.8221 51.007 21.7196 51.0708C21.617 51.1323 21.5236 51.203 21.4393 51.2827V54H20.4276V49.9668ZM26.6887 51.9697C26.6887 51.6963 26.7446 51.4354 26.8562 51.187C26.9679 50.9364 27.1285 50.7153 27.3381 50.5239C27.5478 50.3325 27.8041 50.1799 28.1072 50.0659C28.4125 49.952 28.7589 49.895 29.1462 49.895C29.5313 49.895 29.8777 49.9531 30.1853 50.0693C30.4952 50.1833 30.7573 50.3405 30.9714 50.541C31.1879 50.7415 31.3531 50.9774 31.4671 51.2485C31.5833 51.5197 31.6414 51.8102 31.6414 52.1201C31.6414 52.1589 31.6402 52.201 31.6379 52.2466C31.6379 52.2899 31.6357 52.3298 31.6311 52.3662H27.8167C27.86 52.487 27.9295 52.5975 28.0252 52.6978C28.1231 52.798 28.245 52.8846 28.3909 52.9575C28.5367 53.0304 28.7053 53.0874 28.8967 53.1284C29.0881 53.1672 29.3001 53.1865 29.5325 53.1865C29.7649 53.1865 29.9962 53.1626 30.2263 53.1147C30.4565 53.0646 30.6764 53.002 30.886 52.9268L31.2278 53.6992C31.0956 53.7607 30.9612 53.8154 30.8245 53.8633C30.69 53.9089 30.5488 53.9476 30.4006 53.9795C30.2548 54.0091 30.101 54.0319 29.9392 54.0479C29.7797 54.0638 29.6111 54.0718 29.4334 54.0718C28.9799 54.0718 28.5823 54.0171 28.2405 53.9077C27.8987 53.7983 27.6127 53.6491 27.3826 53.46C27.1524 53.2708 26.9793 53.0487 26.863 52.7935C26.7468 52.5382 26.6887 52.2637 26.6887 51.9697ZM30.5681 51.5767C30.5317 51.465 30.4747 51.3613 30.3972 51.2656C30.322 51.1676 30.2275 51.0833 30.1135 51.0127C29.9996 50.9398 29.8674 50.8828 29.7171 50.8418C29.5667 50.8008 29.4015 50.7803 29.2214 50.7803C29.03 50.7803 28.8557 50.8019 28.6985 50.8452C28.5413 50.8885 28.4034 50.9466 28.2849 51.0195C28.1664 51.0924 28.0673 51.1768 27.9876 51.2725C27.9101 51.3682 27.8531 51.4696 27.8167 51.5767H30.5681ZM33.049 51.9937C33.049 51.6974 33.1026 51.4217 33.2097 51.1665C33.319 50.909 33.4774 50.6868 33.6848 50.5C33.8944 50.3109 34.1496 50.1628 34.4504 50.0557C34.7534 49.9486 35.0987 49.895 35.486 49.895C35.6547 49.895 35.8244 49.9053 35.9953 49.9258C36.1662 49.9463 36.3303 49.9759 36.4875 50.0146C36.647 50.0511 36.7963 50.0955 36.9353 50.1479C37.0743 50.1981 37.195 50.2539 37.2976 50.3154L36.8293 51.0776C36.6083 50.9751 36.3986 50.8999 36.2004 50.8521C36.0044 50.8042 35.805 50.7803 35.6022 50.7803C35.3698 50.7803 35.1613 50.811 34.9768 50.8726C34.7922 50.9318 34.635 51.0161 34.5051 51.1255C34.3775 51.2326 34.2795 51.3602 34.2111 51.5083C34.1451 51.6541 34.112 51.8136 34.112 51.9868C34.112 52.16 34.1473 52.3206 34.218 52.4688C34.2909 52.6146 34.3923 52.741 34.5222 52.8481C34.6543 52.953 34.8127 53.0361 34.9973 53.0977C35.1841 53.1569 35.3915 53.1865 35.6193 53.1865C35.87 53.1865 36.1058 53.1512 36.3269 53.0806C36.5502 53.0099 36.7575 52.9154 36.9489 52.7969L37.4172 53.5591C37.2964 53.632 37.1654 53.7004 37.0241 53.7642C36.8828 53.8257 36.7313 53.8792 36.5695 53.9248C36.41 53.9704 36.2414 54.0057 36.0637 54.0308C35.8882 54.0581 35.7059 54.0718 35.5168 54.0718C35.1317 54.0718 34.7865 54.0194 34.4812 53.9146C34.1758 53.8097 33.9172 53.665 33.7053 53.4805C33.4934 53.2936 33.3304 53.0737 33.2165 52.8208C33.1048 52.5679 33.049 52.2922 33.049 51.9937ZM39.6759 50.7256H38.7018V49.9668H39.6759V48.7124H40.6876V49.9668H41.6618V50.7256H40.6876V54H39.6759V50.7256ZM43.6539 49.4165C43.5536 49.4165 43.4625 49.4028 43.3804 49.3755C43.3007 49.3459 43.2323 49.3071 43.1754 49.2593C43.1184 49.2091 43.074 49.1522 43.0421 49.0884C43.0124 49.0223 42.9976 48.9528 42.9976 48.8799C42.9976 48.8047 43.0124 48.7352 43.0421 48.6714C43.074 48.6053 43.1184 48.5483 43.1754 48.5005C43.2323 48.4526 43.3007 48.415 43.3804 48.3877C43.4625 48.3581 43.5536 48.3433 43.6539 48.3433C43.7564 48.3433 43.8476 48.3581 43.9273 48.3877C44.0094 48.415 44.0789 48.4526 44.1358 48.5005C44.1928 48.5483 44.2361 48.6053 44.2657 48.6714C44.2976 48.7352 44.3136 48.8047 44.3136 48.8799C44.3136 48.9528 44.2976 49.0223 44.2657 49.0884C44.2361 49.1522 44.1928 49.2091 44.1358 49.2593C44.0789 49.3071 44.0094 49.3459 43.9273 49.3755C43.8476 49.4028 43.7564 49.4165 43.6539 49.4165ZM43.148 49.9668H44.1597V54H43.148V49.9668ZM46.0186 49.9668H47.0303V50.3086C47.2992 50.1559 47.5555 50.0488 47.7993 49.9873C48.0454 49.9258 48.2858 49.895 48.5205 49.895C48.8281 49.895 49.113 49.9406 49.375 50.0317C49.6371 50.1206 49.8638 50.2539 50.0552 50.4316C50.2466 50.6094 50.3959 50.8315 50.5029 51.0981C50.6123 51.3625 50.667 51.6689 50.667 52.0176V54H49.6587V52.1816C49.6587 51.9606 49.6268 51.7635 49.563 51.5903C49.5015 51.4149 49.4115 51.2679 49.293 51.1494C49.1768 51.0286 49.0344 50.9375 48.8657 50.876C48.6994 50.8122 48.5126 50.7803 48.3052 50.7803C48.1958 50.7803 48.083 50.7917 47.9668 50.8145C47.8529 50.8372 47.7401 50.8703 47.6284 50.9136C47.5191 50.9546 47.4131 51.007 47.3106 51.0708C47.208 51.1323 47.1146 51.203 47.0303 51.2827V54H46.0186V49.9668ZM53.1035 54.6836C53.2311 54.7292 53.361 54.7668 53.4931 54.7964C53.6253 54.8283 53.7529 54.8534 53.8759 54.8716C54.0013 54.8921 54.1209 54.9058 54.2348 54.9126C54.3488 54.9217 54.4502 54.9263 54.539 54.9263C54.8079 54.9263 55.0415 54.8932 55.2397 54.8271C55.4402 54.7633 55.6066 54.6768 55.7387 54.5674C55.8732 54.458 55.9734 54.3304 56.0395 54.1846C56.1056 54.041 56.1386 53.8883 56.1386 53.7266V53.5522C56.052 53.6115 55.9506 53.6685 55.8344 53.7231C55.7182 53.7778 55.5906 53.8257 55.4516 53.8667C55.3126 53.9077 55.1645 53.9408 55.0073 53.9658C54.8523 53.9909 54.6917 54.0034 54.5254 54.0034C54.1949 54.0034 53.8896 53.9544 53.6093 53.8564C53.3291 53.7562 53.0864 53.6172 52.8813 53.4395C52.6762 53.2594 52.5156 53.0441 52.3994 52.7935C52.2854 52.5428 52.2285 52.2648 52.2285 51.9595C52.2285 51.6473 52.2889 51.3647 52.4096 51.1118C52.5304 50.8566 52.6967 50.639 52.9087 50.459C53.1228 50.279 53.3758 50.14 53.6674 50.042C53.9591 49.944 54.2758 49.895 54.6176 49.895C54.7635 49.895 54.9082 49.9041 55.0517 49.9224C55.1953 49.9406 55.332 49.9657 55.4619 49.9976C55.594 50.0295 55.7171 50.0682 55.831 50.1138C55.9472 50.1571 56.0498 50.2049 56.1386 50.2573V49.9668H57.1504V53.5386C57.1504 53.9054 57.0945 54.2301 56.9829 54.5127C56.8712 54.7952 56.7072 55.0322 56.4907 55.2236C56.2765 55.4173 56.0099 55.5632 55.6909 55.6611C55.3719 55.7614 55.0061 55.8115 54.5937 55.8115C54.4456 55.8115 54.2918 55.8047 54.1323 55.791C53.9728 55.7796 53.8121 55.7614 53.6504 55.7363C53.4908 55.7135 53.3325 55.6851 53.1753 55.6509C53.0203 55.619 52.8711 55.5814 52.7275 55.5381L53.1035 54.6836ZM53.2915 51.9492C53.2915 52.111 53.3234 52.2637 53.3872 52.4072C53.4532 52.5485 53.5467 52.6727 53.6674 52.7798C53.7882 52.8846 53.934 52.9678 54.1049 53.0293C54.2758 53.0885 54.4684 53.1182 54.6826 53.1182C54.8216 53.1182 54.9594 53.1056 55.0962 53.0806C55.2352 53.0532 55.3673 53.0156 55.4926 52.9678C55.6202 52.9199 55.7387 52.8618 55.8481 52.7935C55.9598 52.7251 56.0566 52.6488 56.1386 52.5645V51.2349C56.0361 51.1528 55.9279 51.0833 55.8139 51.0264C55.7 50.9694 55.5838 50.9227 55.4653 50.8862C55.3468 50.8498 55.2272 50.8236 55.1064 50.8076C54.9856 50.7894 54.8683 50.7803 54.7544 50.7803C54.5219 50.7803 54.3146 50.811 54.1323 50.8726C53.9523 50.9341 53.7996 51.0184 53.6743 51.1255C53.5512 51.2303 53.4567 51.3534 53.3906 51.4946C53.3245 51.6359 53.2915 51.7874 53.2915 51.9492ZM63.6947 48.6577H64.8431L67.4271 54H66.2889L65.8617 53.1011H62.7411L62.3275 54H61.1859L63.6947 48.6577ZM65.4344 52.209L64.2791 49.7822L63.1546 52.209H65.4344ZM68.3802 52.0005C68.3802 51.6792 68.4405 51.3898 68.5613 51.1323C68.6821 50.8726 68.8484 50.6515 69.0603 50.4692C69.2745 50.2847 69.5275 50.1434 69.8191 50.0454C70.1131 49.9451 70.4309 49.895 70.7727 49.895C70.9186 49.895 71.0621 49.9041 71.2034 49.9224C71.347 49.9406 71.4837 49.9657 71.6136 49.9976C71.7457 50.0295 71.8688 50.0682 71.9827 50.1138C72.0989 50.1571 72.2014 50.2049 72.2903 50.2573V48.3296H73.302V54H72.2903V53.6206C72.2014 53.6821 72.0966 53.7402 71.9759 53.7949C71.8551 53.8496 71.7252 53.8975 71.5862 53.9385C71.4472 53.9795 71.3025 54.0114 71.1521 54.0342C71.004 54.0592 70.857 54.0718 70.7112 54.0718C70.3694 54.0718 70.055 54.0216 69.7679 53.9214C69.483 53.8211 69.2381 53.6799 69.033 53.4976C68.8279 53.3153 68.6673 53.0977 68.5511 52.8447C68.4371 52.5895 68.3802 52.3081 68.3802 52.0005ZM69.4431 52.0005C69.4431 52.1623 69.475 52.3149 69.5388 52.4585C69.6049 52.6021 69.6984 52.7285 69.8191 52.8379C69.9422 52.945 70.0891 53.0304 70.26 53.0942C70.4332 53.1558 70.6269 53.1865 70.8411 53.1865C70.9778 53.1865 71.1145 53.174 71.2513 53.1489C71.388 53.1216 71.519 53.084 71.6443 53.0361C71.7719 52.9883 71.8904 52.9302 71.9998 52.8618C72.1114 52.7935 72.2083 52.7171 72.2903 52.6328V51.2349C72.1878 51.1528 72.0795 51.0833 71.9656 51.0264C71.8517 50.9694 71.7355 50.9227 71.617 50.8862C71.4985 50.8498 71.3789 50.8236 71.2581 50.8076C71.1373 50.7894 71.02 50.7803 70.906 50.7803C70.6736 50.7803 70.4663 50.8122 70.284 50.876C70.104 50.9375 69.9513 51.0229 69.826 51.1323C69.7029 51.2417 69.6083 51.3704 69.5423 51.5186C69.4762 51.6667 69.4431 51.8273 69.4431 52.0005ZM74.5456 49.9634H75.718L76.7673 52.3901L77.0407 53.0703L77.3142 52.3901L78.3635 49.9634H79.5359L77.6252 54H76.4563L74.5456 49.9634ZM80.5607 51.9834C80.5607 51.694 80.6188 51.4229 80.735 51.1699C80.8535 50.917 81.021 50.696 81.2375 50.5068C81.4562 50.3177 81.7194 50.1685 82.027 50.0591C82.3369 49.9497 82.6844 49.895 83.0695 49.895C83.4546 49.895 83.8009 49.9497 84.1086 50.0591C84.4184 50.1685 84.6816 50.3177 84.8981 50.5068C85.1169 50.696 85.2843 50.917 85.4005 51.1699C85.519 51.4229 85.5783 51.694 85.5783 51.9834C85.5783 52.2728 85.519 52.5439 85.4005 52.7969C85.2843 53.0498 85.1169 53.2708 84.8981 53.46C84.6816 53.6491 84.4184 53.7983 84.1086 53.9077C83.8009 54.0171 83.4546 54.0718 83.0695 54.0718C82.6844 54.0718 82.3369 54.0171 82.027 53.9077C81.7194 53.7983 81.4562 53.6491 81.2375 53.46C81.021 53.2708 80.8535 53.0498 80.735 52.7969C80.6188 52.5439 80.5607 52.2728 80.5607 51.9834ZM81.6237 51.9834C81.6237 52.1452 81.6556 52.299 81.7194 52.4448C81.7855 52.5884 81.88 52.716 82.0031 52.8276C82.1284 52.937 82.2799 53.0247 82.4577 53.0908C82.6377 53.1546 82.8416 53.1865 83.0695 53.1865C83.2974 53.1865 83.5002 53.1546 83.6779 53.0908C83.8579 53.0247 84.0094 52.937 84.1325 52.8276C84.2578 52.716 84.3524 52.5884 84.4162 52.4448C84.4822 52.299 84.5153 52.1452 84.5153 51.9834C84.5153 51.8216 84.4822 51.6678 84.4162 51.522C84.3524 51.3761 84.2578 51.2485 84.1325 51.1392C84.0094 51.0275 83.8579 50.9398 83.6779 50.876C83.5002 50.8099 83.2974 50.7769 83.0695 50.7769C82.8416 50.7769 82.6377 50.8099 82.4577 50.876C82.2799 50.9398 82.1284 51.0275 82.0031 51.1392C81.88 51.2485 81.7855 51.3761 81.7194 51.522C81.6556 51.6678 81.6237 51.8216 81.6237 51.9834ZM86.9176 51.9937C86.9176 51.6974 86.9711 51.4217 87.0782 51.1665C87.1876 50.909 87.346 50.6868 87.5533 50.5C87.763 50.3109 88.0182 50.1628 88.3189 50.0557C88.622 49.9486 88.9672 49.895 89.3546 49.895C89.5232 49.895 89.693 49.9053 89.8639 49.9258C90.0348 49.9463 90.1988 49.9759 90.3561 50.0146C90.5156 50.0511 90.6648 50.0955 90.8038 50.1479C90.9428 50.1981 91.0636 50.2539 91.1661 50.3154L90.6979 51.0776C90.4768 50.9751 90.2672 50.8999 90.0689 50.8521C89.873 50.8042 89.6736 50.7803 89.4708 50.7803C89.2384 50.7803 89.0299 50.811 88.8453 50.8726C88.6607 50.9318 88.5035 51.0161 88.3736 51.1255C88.246 51.2326 88.148 51.3602 88.0797 51.5083C88.0136 51.6541 87.9806 51.8136 87.9806 51.9868C87.9806 52.16 88.0159 52.3206 88.0865 52.4688C88.1594 52.6146 88.2608 52.741 88.3907 52.8481C88.5229 52.953 88.6813 53.0361 88.8658 53.0977C89.0527 53.1569 89.26 53.1865 89.4879 53.1865C89.7385 53.1865 89.9744 53.1512 90.1954 53.0806C90.4187 53.0099 90.6261 52.9154 90.8175 52.7969L91.2857 53.5591C91.165 53.632 91.034 53.7004 90.8927 53.7642C90.7514 53.8257 90.5999 53.8792 90.4381 53.9248C90.2786 53.9704 90.11 54.0057 89.9322 54.0308C89.7568 54.0581 89.5745 54.0718 89.3854 54.0718C89.0003 54.0718 88.655 54.0194 88.3497 53.9146C88.0444 53.8097 87.7857 53.665 87.5738 53.4805C87.3619 53.2936 87.199 53.0737 87.0851 52.8208C86.9734 52.5679 86.9176 52.2922 86.9176 51.9937ZM92.7447 52.7285C92.7447 52.5348 92.7868 52.3582 92.8711 52.1987C92.9554 52.0392 93.0819 51.9025 93.2505 51.7886C93.4191 51.6724 93.6288 51.5835 93.8794 51.522C94.1324 51.4582 94.4263 51.4263 94.7613 51.4263C95.0096 51.4263 95.2705 51.4445 95.544 51.481C95.8197 51.5174 96.1034 51.5732 96.3951 51.6484C96.3837 51.5208 96.3449 51.4035 96.2788 51.2964C96.2128 51.187 96.1205 51.0936 96.002 51.0161C95.8858 50.9364 95.7445 50.8748 95.5782 50.8315C95.4141 50.7882 95.2273 50.7666 95.0176 50.7666C94.9037 50.7666 94.7784 50.7734 94.6416 50.7871C94.5049 50.8008 94.3636 50.8213 94.2178 50.8486C94.072 50.876 93.9273 50.9102 93.7837 50.9512C93.6425 50.9922 93.5103 51.0412 93.3872 51.0981L93.0796 50.2676C93.2323 50.2129 93.3952 50.1628 93.5684 50.1172C93.7439 50.0716 93.9227 50.0329 94.105 50.001C94.2873 49.9668 94.4696 49.9406 94.6519 49.9224C94.8342 49.9041 95.0108 49.895 95.1817 49.895C95.9359 49.895 96.4965 50.0876 96.8633 50.4727C97.2302 50.8577 97.4136 51.4479 97.4136 52.2432V54H96.4019V53.6206C96.2971 53.6821 96.182 53.7402 96.0567 53.7949C95.9336 53.8496 95.7992 53.8975 95.6534 53.9385C95.5075 53.9795 95.3503 54.0114 95.1817 54.0342C95.0153 54.0592 94.8387 54.0718 94.6519 54.0718C94.3374 54.0718 94.0606 54.0376 93.8213 53.9692C93.5843 53.9009 93.3861 53.8063 93.2266 53.6855C93.0671 53.5648 92.9463 53.4235 92.8643 53.2617C92.7845 53.0977 92.7447 52.9199 92.7447 52.7285ZM93.8111 52.6943C93.8111 52.7604 93.8282 52.8242 93.8623 52.8857C93.8965 52.945 93.9512 52.9985 94.0264 53.0464C94.1016 53.092 94.1973 53.1296 94.3135 53.1592C94.432 53.1865 94.5744 53.2002 94.7408 53.2002C94.9185 53.2002 95.0905 53.1842 95.2569 53.1523C95.4232 53.1204 95.5782 53.0783 95.7217 53.0259C95.8653 52.9735 95.9952 52.9131 96.1114 52.8447C96.2276 52.7764 96.3244 52.7057 96.4019 52.6328V52.4551C96.2469 52.4118 96.0931 52.3753 95.9405 52.3457C95.7901 52.3161 95.6454 52.2933 95.5064 52.2773C95.3697 52.2591 95.2398 52.2466 95.1167 52.2397C94.996 52.2329 94.89 52.2295 94.7989 52.2295C94.6097 52.2295 94.4525 52.242 94.3272 52.2671C94.2019 52.2922 94.1005 52.3263 94.023 52.3696C93.9455 52.4106 93.8908 52.4596 93.8589 52.5166C93.827 52.5736 93.8111 52.6328 93.8111 52.6943ZM99.9219 50.7256H98.9477V49.9668H99.9219V48.7124H100.934V49.9668H101.908V50.7256H100.934V54H99.9219V50.7256ZM103.175 51.9697C103.175 51.6963 103.231 51.4354 103.343 51.187C103.454 50.9364 103.615 50.7153 103.825 50.5239C104.034 50.3325 104.291 50.1799 104.594 50.0659C104.899 49.952 105.245 49.895 105.633 49.895C106.018 49.895 106.364 49.9531 106.672 50.0693C106.982 50.1833 107.244 50.3405 107.458 50.541C107.674 50.7415 107.84 50.9774 107.954 51.2485C108.07 51.5197 108.128 51.8102 108.128 52.1201C108.128 52.1589 108.127 52.201 108.124 52.2466C108.124 52.2899 108.122 52.3298 108.118 52.3662H104.303C104.346 52.487 104.416 52.5975 104.512 52.6978C104.61 52.798 104.732 52.8846 104.877 52.9575C105.023 53.0304 105.192 53.0874 105.383 53.1284C105.575 53.1672 105.787 53.1865 106.019 53.1865C106.251 53.1865 106.483 53.1626 106.713 53.1147C106.943 53.0646 107.163 53.002 107.372 52.9268L107.714 53.6992C107.582 53.7607 107.448 53.8154 107.311 53.8633C107.177 53.9089 107.035 53.9476 106.887 53.9795C106.741 54.0091 106.587 54.0319 106.426 54.0479C106.266 54.0638 106.098 54.0718 105.92 54.0718C105.466 54.0718 105.069 54.0171 104.727 53.9077C104.385 53.7983 104.099 53.6491 103.869 53.46C103.639 53.2708 103.466 53.0487 103.35 52.7935C103.233 52.5382 103.175 52.2637 103.175 51.9697ZM107.055 51.5767C107.018 51.465 106.961 51.3613 106.884 51.2656C106.809 51.1676 106.714 51.0833 106.6 51.0127C106.486 50.9398 106.354 50.8828 106.204 50.8418C106.053 50.8008 105.888 50.7803 105.708 50.7803C105.517 50.7803 105.342 50.8019 105.185 50.8452C105.028 50.8885 104.89 50.9466 104.771 51.0195C104.653 51.0924 104.554 51.1768 104.474 51.2725C104.397 51.3682 104.34 51.4696 104.303 51.5767H107.055ZM109.939 52.7627C110.212 52.9268 110.513 53.0475 110.841 53.125C111.169 53.2025 111.505 53.2412 111.849 53.2412C112.082 53.2412 112.276 53.2253 112.431 53.1934C112.585 53.1615 112.71 53.1204 112.803 53.0703C112.897 53.0202 112.963 52.9632 113.001 52.8994C113.04 52.8356 113.059 52.7707 113.059 52.7046C113.059 52.6089 113.017 52.5269 112.933 52.4585C112.851 52.3901 112.714 52.356 112.523 52.356C112.434 52.356 112.338 52.3617 112.236 52.373C112.133 52.3844 112.025 52.397 111.911 52.4106C111.799 52.422 111.682 52.4334 111.559 52.4448C111.438 52.4562 111.315 52.4619 111.19 52.4619C110.916 52.4619 110.683 52.4323 110.489 52.373C110.298 52.3138 110.142 52.2329 110.021 52.1304C109.9 52.0278 109.812 51.9071 109.758 51.7681C109.703 51.6268 109.676 51.4753 109.676 51.3135C109.676 51.1084 109.723 50.9193 109.819 50.7461C109.915 50.5729 110.052 50.4237 110.229 50.2983C110.407 50.1707 110.621 50.0716 110.872 50.001C111.125 49.9303 111.406 49.895 111.716 49.895C111.878 49.895 112.047 49.9053 112.222 49.9258C112.4 49.944 112.574 49.9691 112.745 50.001C112.916 50.0329 113.08 50.0705 113.237 50.1138C113.394 50.1548 113.533 50.1992 113.654 50.2471L113.336 51.0332C113.079 50.9375 112.821 50.8623 112.564 50.8076C112.309 50.7507 112.045 50.7222 111.774 50.7222C111.585 50.7222 111.425 50.737 111.292 50.7666C111.162 50.7939 111.057 50.8315 110.974 50.8794C110.892 50.925 110.832 50.9785 110.793 51.04C110.757 51.0993 110.739 51.1619 110.739 51.228C110.739 51.2759 110.748 51.3192 110.766 51.3579C110.786 51.3966 110.818 51.4308 110.862 51.4604C110.907 51.4878 110.965 51.5094 111.036 51.5254C111.109 51.5391 111.198 51.5459 111.303 51.5459C111.398 51.5459 111.5 51.5402 111.607 51.5288C111.714 51.5174 111.826 51.506 111.942 51.4946C112.058 51.481 112.178 51.4684 112.301 51.457C112.426 51.4456 112.554 51.4399 112.683 51.4399C112.925 51.4399 113.136 51.4684 113.316 51.5254C113.498 51.5824 113.648 51.6621 113.767 51.7646C113.885 51.8672 113.974 51.988 114.034 52.127C114.093 52.266 114.122 52.4175 114.122 52.5815C114.122 52.7935 114.073 52.9906 113.975 53.1729C113.877 53.3551 113.732 53.5135 113.538 53.6479C113.344 53.7801 113.103 53.8838 112.813 53.959C112.526 54.0342 112.194 54.0718 111.815 54.0718C111.583 54.0718 111.358 54.057 111.142 54.0273C110.925 54 110.719 53.9624 110.523 53.9146C110.327 53.8644 110.143 53.8063 109.97 53.7402C109.799 53.6742 109.643 53.6035 109.501 53.5283L109.939 52.7627Z" fill="black"/>
<path d="M23.21 21.608H30.01V45H23.21V21.608ZM58.2087 21.608H65.0087V45H58.2087V21.608ZM71.3327 35.99H66.4367V30.55H71.3327V21.608H78.1327V45H71.3327V35.99ZM81.8666 21.608H88.6666V45H81.8666V21.608ZM92.4093 21.608H99.2093V45H92.4093V21.608ZM100.637 36.806V29.496L106.009 21.608H113.421L105.363 32.624L113.523 45H105.907L100.637 36.806Z" fill="url(#paint1_linear_9406_72310)"/>
<path d="M45.8045 24H37V28.9901H38.3545V25.4257H45.8045C48.4248 25.4257 50.5455 27.6578 50.5455 30.4158V36.1187C50.5455 38.865 48.4248 41.1088 45.8045 41.1088H38.3545V37.5445H37V42.5346H45.8045C49.1687 42.5346 51.9 39.6597 51.9 36.1187V30.4158C51.9 26.8748 49.1687 24 45.8045 24Z" fill="url(#paint2_linear_9406_72310)" stroke="#2E5BFF" stroke-width="5"/>
<path d="M47.1583 30.414C47.1583 31.197 46.5588 31.8398 45.8038 31.8398C45.0599 31.8398 44.4492 31.197 44.4492 30.414C44.4492 29.6193 45.0599 28.9883 45.8038 28.9883C46.5588 28.9883 47.1583 29.6193 47.1583 30.414Z" fill="#D1A417"/>
<path d="M47.1583 33.2675C47.1583 34.0505 46.5588 34.6933 45.8038 34.6933C45.0599 34.6933 44.4492 34.0505 44.4492 33.2675C44.4492 32.4729 45.0599 31.8418 45.8038 31.8418C46.5588 31.8418 47.1583 32.4729 47.1583 33.2675Z" fill="#D1A417"/>
<path d="M47.1583 36.121C47.1583 36.904 46.5588 37.5468 45.8038 37.5468C45.0599 37.5468 44.4492 36.904 44.4492 36.121C44.4492 35.3381 45.0599 34.6953 45.8038 34.6953C46.5588 34.6953 47.1583 35.3381 47.1583 36.121Z" fill="#D1A417"/>
<path d="M45.8045 29.7012V31.1269H37V29.7012H45.8045Z" fill="#D1A417"/>
<path d="M45.8045 32.5547V33.9804H37V32.5547H45.8045Z" fill="#D1A417"/>
<path d="M45.8045 35.4062V36.832H37V35.4062H45.8045Z" fill="#D1A417"/>
<ellipse cx="84.8566" cy="14.3351" rx="6.33511" ry="6.33511" fill="white"/>
<ellipse cx="84.8563" cy="14.3357" rx="5.8192" ry="5.86107" fill="#D1A417"/>
<ellipse cx="83.5081" cy="10.9495" rx="0.470978" ry="0.470978" fill="white"/>
<ellipse cx="81.6038" cy="14.76" rx="0.470978" ry="0.470978" fill="white"/>
<ellipse cx="86.7952" cy="13.7757" rx="0.470978" ry="0.470978" fill="white"/>
<ellipse cx="80.2151" cy="15.971" rx="0.470978" ry="0.470978" fill="white"/>
<ellipse cx="86.5843" cy="17.9182" rx="0.470978" ry="0.470978" fill="white"/>
<ellipse cx="88.344" cy="15.2405" rx="0.470978" ry="0.470978" fill="white"/>
<ellipse cx="83.5921" cy="16.6448" rx="0.470978" ry="0.470978" fill="white"/>
<path d="M80.5449 18.4284C82.8493 17.405 86.831 14.4562 89.3584 10.584" stroke="white" stroke-width="0.5"/>
<path d="M80.3776 10.4838C79.4213 16.0267 87.6583 19.9954 89.9164 17.2728" stroke="white" stroke-width="0.5"/>
<path d="M89.9229 17.3059C87.8327 14.4764 85.6388 12.1804 81.2988 9.58182" stroke="white" stroke-width="0.5"/>
<path d="M86.8469 8.73717C84.6299 8.36771 78.9483 14.3235 82.3176 19.6683" stroke="white" stroke-width="0.5"/>
<path d="M81.4253 9.58295C81.4253 9.58295 77.6657 17.2163 82.9674 20.0082" stroke="white" stroke-width="0.5"/>
<path d="M79.0802 15.5003C80.8309 16.6648 87.7307 17.5468 90.6758 15.3616" stroke="white" stroke-width="0.5"/>
<path d="M84.3353 20.2122C86.4494 18.3493 88.8453 16.1775 89.7035 11.0072" stroke="white" stroke-width="0.5"/>
<defs>
<linearGradient id="paint0_linear_9406_72310" x1="10.569" y1="8.06445" x2="10.569" y2="44.1402" gradientUnits="userSpaceOnUse">
<stop stop-color="#2E5BFF"/>
<stop offset="1" stop-color="#002FDA"/>
</linearGradient>
<linearGradient id="paint1_linear_9406_72310" x1="67.5" y1="6" x2="67.5" y2="60" gradientUnits="userSpaceOnUse">
<stop stop-color="#2E5BFF"/>
<stop offset="1" stop-color="#2E5BFF"/>
</linearGradient>
<linearGradient id="paint2_linear_9406_72310" x1="44.45" y1="24" x2="44.45" y2="42.5346" gradientUnits="userSpaceOnUse">
<stop stop-color="#2E5BFF"/>
<stop offset="1" stop-color="#00104D" stop-opacity="0"/>
</linearGradient>
</defs>
</svg>
