<svg width="114" height="59" viewBox="0 0 114 59" fill="none" xmlns="http://www.w3.org/2000/svg">
<path d="M5.47779 7.4409H18.0538C18.936 7.4409 19.6502 6.70009 19.6502 5.78834V1.64959C19.6502 0.737842 18.936 0 18.0538 0H5.47779C4.597 0 3.88281 0.737842 3.88281 1.64959V5.78844C3.88281 6.70018 4.597 7.4409 5.47779 7.4409Z" fill="#D1A417"/>
<path d="M13.9768 44.3678V42.0674C14.8272 39.4281 21.3752 28.0793 23.5323 25.563C21.2507 19.4746 19.3123 14.0072 18.7937 8.97754H11.7661H4.73858C4.21993 14.0071 2.28311 19.4746 0 25.563C2.15711 28.0793 8.70512 39.4281 9.5555 42.0674V44.3678C8.9586 44.8567 8.57764 45.6125 8.57764 46.4612C8.57754 47.9398 9.73509 49.1395 11.1635 49.1395V44.3963V43.786V25.0802C10.19 24.8043 9.47429 23.8851 9.47429 22.7918C9.47429 21.4812 10.5 20.4195 11.7661 20.4195C13.0322 20.4195 14.0579 21.4812 14.0579 22.7918C14.0579 23.8851 13.3423 24.8043 12.3688 25.0802V43.786V44.3963V49.1395C13.7971 49.1395 14.9547 47.9398 14.9547 46.4612C14.9547 45.6125 14.5736 44.8567 13.9768 44.3678Z" fill="url(#paint0_linear_14030_86514)"/>
<path d="M4.37207 54.6826C4.37207 54.3564 4.43359 54.0527 4.55664 53.7715C4.67969 53.4883 4.85742 53.2432 5.08984 53.0361C5.32422 52.8271 5.60938 52.6631 5.94531 52.5439C6.2832 52.4248 6.66504 52.3652 7.09082 52.3652C7.46387 52.3652 7.80566 52.4033 8.11621 52.4795C8.42871 52.5537 8.71875 52.668 8.98633 52.8223L8.55859 53.5254C8.47852 53.4727 8.38574 53.4258 8.28027 53.3848C8.17676 53.3438 8.06543 53.3096 7.94629 53.2822C7.8291 53.2529 7.70703 53.2305 7.58008 53.2148C7.45508 53.1992 7.33105 53.1914 7.20801 53.1914C6.91113 53.1914 6.64648 53.2285 6.41406 53.3027C6.18164 53.375 5.98535 53.4775 5.8252 53.6104C5.66699 53.7412 5.5459 53.8984 5.46191 54.082C5.37988 54.2637 5.33887 54.4639 5.33887 54.6826C5.33887 54.9092 5.38184 55.1172 5.46777 55.3066C5.55371 55.4961 5.67773 55.6602 5.83984 55.7988C6.00391 55.9355 6.20312 56.043 6.4375 56.1211C6.67383 56.1973 6.94043 56.2354 7.2373 56.2354C7.37207 56.2354 7.50586 56.2256 7.63867 56.2061C7.77148 56.1865 7.89941 56.1602 8.02246 56.127C8.14746 56.0918 8.26758 56.0508 8.38281 56.0039C8.49805 55.9551 8.60547 55.9023 8.70508 55.8457L9.13281 56.5488C8.88281 56.709 8.59375 56.835 8.26562 56.9268C7.9375 57.0166 7.58887 57.0615 7.21973 57.0615C6.74902 57.0615 6.33594 57.001 5.98047 56.8799C5.625 56.7568 5.32812 56.5889 5.08984 56.376C4.85156 56.1611 4.67188 55.9092 4.55078 55.6201C4.43164 55.3291 4.37207 55.0166 4.37207 54.6826ZM10.6218 55.2715C10.6218 55.0234 10.6716 54.791 10.7712 54.5742C10.8728 54.3574 11.0163 54.168 11.2019 54.0059C11.3894 53.8438 11.615 53.7158 11.8786 53.6221C12.1443 53.5283 12.4421 53.4814 12.7722 53.4814C13.1023 53.4814 13.3991 53.5283 13.6628 53.6221C13.9284 53.7158 14.154 53.8438 14.3396 54.0059C14.5271 54.168 14.6706 54.3574 14.7702 54.5742C14.8718 54.791 14.9226 55.0234 14.9226 55.2715C14.9226 55.5195 14.8718 55.752 14.7702 55.9688C14.6706 56.1855 14.5271 56.375 14.3396 56.5371C14.154 56.6992 13.9284 56.8271 13.6628 56.9209C13.3991 57.0146 13.1023 57.0615 12.7722 57.0615C12.4421 57.0615 12.1443 57.0146 11.8786 56.9209C11.615 56.8271 11.3894 56.6992 11.2019 56.5371C11.0163 56.375 10.8728 56.1855 10.7712 55.9688C10.6716 55.752 10.6218 55.5195 10.6218 55.2715ZM11.5329 55.2715C11.5329 55.4102 11.5603 55.542 11.615 55.667C11.6716 55.79 11.7527 55.8994 11.8581 55.9951C11.9655 56.0889 12.0954 56.1641 12.2478 56.2207C12.4021 56.2754 12.5769 56.3027 12.7722 56.3027C12.9675 56.3027 13.1413 56.2754 13.2937 56.2207C13.448 56.1641 13.5779 56.0889 13.6833 55.9951C13.7907 55.8994 13.8718 55.79 13.9265 55.667C13.9831 55.542 14.0114 55.4102 14.0114 55.2715C14.0114 55.1328 13.9831 55.001 13.9265 54.876C13.8718 54.751 13.7907 54.6416 13.6833 54.5479C13.5779 54.4521 13.448 54.377 13.2937 54.3223C13.1413 54.2656 12.9675 54.2373 12.7722 54.2373C12.5769 54.2373 12.4021 54.2656 12.2478 54.3223C12.0954 54.377 11.9655 54.4521 11.8581 54.5479C11.7527 54.6416 11.6716 54.751 11.615 54.876C11.5603 55.001 11.5329 55.1328 11.5329 55.2715ZM16.5786 53.543H17.4457V53.8359C17.6762 53.7051 17.8959 53.6133 18.1049 53.5605C18.3159 53.5078 18.5219 53.4814 18.7231 53.4814C18.9868 53.4814 19.2309 53.5205 19.4555 53.5986C19.6801 53.6748 19.8745 53.7891 20.0385 53.9414C20.2026 54.0938 20.3305 54.2842 20.4223 54.5127C20.5161 54.7393 20.5629 55.002 20.5629 55.3008V57H19.6987V55.4414C19.6987 55.252 19.6713 55.083 19.6166 54.9346C19.5639 54.7842 19.4868 54.6582 19.3852 54.5566C19.2856 54.4531 19.1635 54.375 19.019 54.3223C18.8764 54.2676 18.7162 54.2402 18.5385 54.2402C18.4448 54.2402 18.3481 54.25 18.2485 54.2695C18.1508 54.2891 18.0541 54.3174 17.9584 54.3545C17.8647 54.3896 17.7739 54.4346 17.686 54.4893C17.5981 54.542 17.518 54.6025 17.4457 54.6709V57H16.5786V53.543ZM22.4093 53.543H23.2765V53.8359C23.507 53.7051 23.7267 53.6133 23.9357 53.5605C24.1466 53.5078 24.3527 53.4814 24.5539 53.4814C24.8175 53.4814 25.0617 53.5205 25.2863 53.5986C25.5109 53.6748 25.7052 53.7891 25.8693 53.9414C26.0334 54.0938 26.1613 54.2842 26.2531 54.5127C26.3468 54.7393 26.3937 55.002 26.3937 55.3008V57H25.5295V55.4414C25.5295 55.252 25.5021 55.083 25.4474 54.9346C25.3947 54.7842 25.3175 54.6582 25.216 54.5566C25.1164 54.4531 24.9943 54.375 24.8498 54.3223C24.7072 54.2676 24.547 54.2402 24.3693 54.2402C24.2755 54.2402 24.1789 54.25 24.0793 54.2695C23.9816 54.2891 23.8849 54.3174 23.7892 54.3545C23.6955 54.3896 23.6046 54.4346 23.5168 54.4893C23.4289 54.542 23.3488 54.6025 23.2765 54.6709V57H22.4093V53.543ZM28.0761 55.2598C28.0761 55.0254 28.1239 54.8018 28.2196 54.5889C28.3153 54.374 28.453 54.1846 28.6327 54.0205C28.8124 53.8564 29.0321 53.7256 29.2919 53.6279C29.5536 53.5303 29.8505 53.4814 30.1825 53.4814C30.5126 53.4814 30.8095 53.5312 31.0731 53.6309C31.3387 53.7285 31.5634 53.8633 31.747 54.0352C31.9325 54.207 32.0741 54.4092 32.1718 54.6416C32.2714 54.874 32.3212 55.123 32.3212 55.3887C32.3212 55.4219 32.3202 55.458 32.3182 55.4971C32.3182 55.5342 32.3163 55.5684 32.3124 55.5996H29.0429C29.08 55.7031 29.1395 55.7979 29.2216 55.8838C29.3055 55.9697 29.41 56.0439 29.535 56.1064C29.66 56.1689 29.8046 56.2178 29.9686 56.2529C30.1327 56.2861 30.3143 56.3027 30.5136 56.3027C30.7128 56.3027 30.911 56.2822 31.1083 56.2412C31.3055 56.1982 31.494 56.1445 31.6737 56.0801L31.9667 56.7422C31.8534 56.7949 31.7382 56.8418 31.621 56.8828C31.5057 56.9219 31.3846 56.9551 31.2577 56.9824C31.1327 57.0078 31.0009 57.0273 30.8622 57.041C30.7255 57.0547 30.5809 57.0615 30.4286 57.0615C30.0399 57.0615 29.6991 57.0146 29.4061 56.9209C29.1132 56.8271 28.868 56.6992 28.6708 56.5371C28.4735 56.375 28.3251 56.1846 28.2255 55.9658C28.1259 55.7471 28.0761 55.5117 28.0761 55.2598ZM31.4012 54.9229C31.37 54.8271 31.3212 54.7383 31.2548 54.6562C31.1903 54.5723 31.1093 54.5 31.0116 54.4395C30.9139 54.377 30.8007 54.3281 30.6718 54.293C30.5429 54.2578 30.4012 54.2402 30.247 54.2402C30.0829 54.2402 29.9335 54.2588 29.7987 54.2959C29.6639 54.333 29.5458 54.3828 29.4442 54.4453C29.3427 54.5078 29.2577 54.5801 29.1893 54.6621C29.1229 54.7441 29.0741 54.8311 29.0429 54.9229H31.4012ZM33.8277 55.2803C33.8277 55.0264 33.8736 54.79 33.9654 54.5713C34.0592 54.3506 34.1949 54.1602 34.3727 54C34.5523 53.8379 34.7711 53.7109 35.0289 53.6191C35.2887 53.5273 35.5846 53.4814 35.9166 53.4814C36.0611 53.4814 36.2066 53.4902 36.3531 53.5078C36.4996 53.5254 36.6402 53.5508 36.775 53.584C36.9117 53.6152 37.0396 53.6533 37.1588 53.6982C37.2779 53.7412 37.3814 53.7891 37.4693 53.8418L37.068 54.4951C36.8785 54.4072 36.6988 54.3428 36.5289 54.3018C36.3609 54.2607 36.19 54.2402 36.0162 54.2402C35.817 54.2402 35.6383 54.2666 35.4801 54.3193C35.3219 54.3701 35.1871 54.4424 35.0758 54.5361C34.9664 54.6279 34.8824 54.7373 34.8238 54.8643C34.7672 54.9893 34.7389 55.126 34.7389 55.2744C34.7389 55.4229 34.7691 55.5605 34.8297 55.6875C34.8922 55.8125 34.9791 55.9209 35.0904 56.0127C35.2037 56.1025 35.3395 56.1738 35.4977 56.2266C35.6578 56.2773 35.8355 56.3027 36.0309 56.3027C36.2457 56.3027 36.4479 56.2725 36.6373 56.2119C36.8287 56.1514 37.0064 56.0703 37.1705 55.9688L37.5719 56.6221C37.4684 56.6846 37.3561 56.7432 37.235 56.7979C37.1139 56.8506 36.984 56.8965 36.8453 56.9355C36.7086 56.9746 36.5641 57.0049 36.4117 57.0264C36.2613 57.0498 36.1051 57.0615 35.943 57.0615C35.6129 57.0615 35.317 57.0166 35.0553 56.9268C34.7936 56.8369 34.5719 56.7129 34.3902 56.5547C34.2086 56.3945 34.0689 56.2061 33.9713 55.9893C33.8756 55.7725 33.8277 55.5361 33.8277 55.2803ZM39.8079 54.1934H38.973V53.543H39.8079V52.4678H40.6751V53.543H41.5101V54.1934H40.6751V57H39.8079V54.1934ZM43.5176 53.0713C43.4317 53.0713 43.3536 53.0596 43.2832 53.0361C43.2149 53.0107 43.1563 52.9775 43.1075 52.9365C43.0586 52.8936 43.0205 52.8447 42.9932 52.79C42.9678 52.7334 42.9551 52.6738 42.9551 52.6113C42.9551 52.5469 42.9678 52.4873 42.9932 52.4326C43.0205 52.376 43.0586 52.3271 43.1075 52.2861C43.1563 52.2451 43.2149 52.2129 43.2832 52.1895C43.3536 52.1641 43.4317 52.1514 43.5176 52.1514C43.6055 52.1514 43.6836 52.1641 43.752 52.1895C43.8223 52.2129 43.8819 52.2451 43.9307 52.2861C43.9795 52.3271 44.0166 52.376 44.042 52.4326C44.0694 52.4873 44.083 52.5469 44.083 52.6113C44.083 52.6738 44.0694 52.7334 44.042 52.79C44.0166 52.8447 43.9795 52.8936 43.9307 52.9365C43.8819 52.9775 43.8223 53.0107 43.752 53.0361C43.6836 53.0596 43.6055 53.0713 43.5176 53.0713ZM43.084 53.543H43.9512V57H43.084V53.543ZM45.8445 53.543H46.7117V53.8359C46.9421 53.7051 47.1619 53.6133 47.3709 53.5605C47.5818 53.5078 47.7878 53.4814 47.989 53.4814C48.2527 53.4814 48.4968 53.5205 48.7214 53.5986C48.9461 53.6748 49.1404 53.7891 49.3045 53.9414C49.4685 54.0938 49.5964 54.2842 49.6882 54.5127C49.782 54.7393 49.8289 55.002 49.8289 55.3008V57H48.9646V55.4414C48.9646 55.252 48.9373 55.083 48.8826 54.9346C48.8298 54.7842 48.7527 54.6582 48.6511 54.5566C48.5515 54.4531 48.4295 54.375 48.2849 54.3223C48.1423 54.2676 47.9822 54.2402 47.8045 54.2402C47.7107 54.2402 47.614 54.25 47.5144 54.2695C47.4168 54.2891 47.3201 54.3174 47.2244 54.3545C47.1306 54.3896 47.0398 54.4346 46.9519 54.4893C46.864 54.542 46.7839 54.6025 46.7117 54.6709V57H45.8445V53.543ZM52.2173 57.5859C52.3266 57.625 52.438 57.6572 52.5513 57.6826C52.6645 57.71 52.7739 57.7314 52.8794 57.7471C52.9868 57.7646 53.0893 57.7764 53.187 57.7822C53.2846 57.79 53.3716 57.7939 53.4477 57.7939C53.6782 57.7939 53.8784 57.7656 54.0483 57.709C54.2202 57.6543 54.3628 57.5801 54.4761 57.4863C54.5913 57.3926 54.6772 57.2832 54.7339 57.1582C54.7905 57.0352 54.8188 56.9043 54.8188 56.7656V56.6162C54.7446 56.667 54.6577 56.7158 54.5581 56.7627C54.4585 56.8096 54.3491 56.8506 54.23 56.8857C54.1108 56.9209 53.9839 56.9492 53.8491 56.9707C53.7163 56.9922 53.5786 57.0029 53.436 57.0029C53.1528 57.0029 52.8911 56.9609 52.6509 56.877C52.4106 56.791 52.2026 56.6719 52.0268 56.5195C51.8511 56.3652 51.7134 56.1807 51.6138 55.9658C51.5161 55.751 51.4673 55.5127 51.4673 55.251C51.4673 54.9834 51.519 54.7412 51.6225 54.5244C51.7261 54.3057 51.8686 54.1191 52.0503 53.9648C52.2339 53.8105 52.4507 53.6914 52.7007 53.6074C52.9507 53.5234 53.2221 53.4814 53.5151 53.4814C53.6401 53.4814 53.7641 53.4893 53.8872 53.5049C54.0102 53.5205 54.1274 53.542 54.2388 53.5693C54.352 53.5967 54.4575 53.6299 54.5552 53.6689C54.6548 53.7061 54.7427 53.7471 54.8188 53.792V53.543H55.686V56.6045C55.686 56.9189 55.6382 57.1973 55.5425 57.4395C55.4468 57.6816 55.3061 57.8848 55.1206 58.0488C54.937 58.2148 54.7085 58.3398 54.435 58.4238C54.1616 58.5098 53.8481 58.5527 53.4946 58.5527C53.3677 58.5527 53.2358 58.5469 53.0991 58.5352C52.9624 58.5254 52.8247 58.5098 52.686 58.4883C52.5493 58.4688 52.4136 58.4443 52.2788 58.415C52.146 58.3877 52.018 58.3555 51.895 58.3184L52.2173 57.5859ZM52.3784 55.2422C52.3784 55.3809 52.4057 55.5117 52.4604 55.6348C52.5171 55.7559 52.5971 55.8623 52.7007 55.9541C52.8042 56.0439 52.9292 56.1152 53.0757 56.168C53.2221 56.2188 53.3872 56.2441 53.5708 56.2441C53.6899 56.2441 53.8081 56.2334 53.9253 56.2119C54.0444 56.1885 54.1577 56.1562 54.2651 56.1152C54.3745 56.0742 54.4761 56.0244 54.5698 55.9658C54.6655 55.9072 54.7485 55.8418 54.8188 55.7695V54.6299C54.7309 54.5596 54.6382 54.5 54.5405 54.4512C54.4429 54.4023 54.3432 54.3623 54.2417 54.3311C54.1401 54.2998 54.0376 54.2773 53.9341 54.2637C53.8305 54.248 53.73 54.2402 53.6323 54.2402C53.4331 54.2402 53.2554 54.2666 53.0991 54.3193C52.9448 54.3721 52.8139 54.4443 52.7065 54.5361C52.6011 54.626 52.52 54.7314 52.4634 54.8525C52.4067 54.9736 52.3784 55.1035 52.3784 55.2422ZM61.8954 52.4209H62.8798L65.0946 57H64.1191L63.7528 56.2295H61.078L60.7236 57H59.745L61.8954 52.4209ZM63.3866 55.4648L62.3964 53.3848L61.4325 55.4648H63.3866ZM66.2116 55.2861C66.2116 55.0107 66.2633 54.7627 66.3668 54.542C66.4704 54.3193 66.6129 54.1299 66.7946 53.9736C66.9782 53.8154 67.195 53.6943 67.445 53.6104C67.6969 53.5244 67.9694 53.4814 68.2623 53.4814C68.3873 53.4814 68.5104 53.4893 68.6315 53.5049C68.7545 53.5205 68.8717 53.542 68.983 53.5693C69.0963 53.5967 69.2018 53.6299 69.2995 53.6689C69.3991 53.7061 69.487 53.7471 69.5631 53.792V52.1396H70.4303V57H69.5631V56.6748C69.487 56.7275 69.3971 56.7773 69.2936 56.8242C69.1901 56.8711 69.0788 56.9121 68.9596 56.9473C68.8405 56.9824 68.7164 57.0098 68.5875 57.0293C68.4606 57.0508 68.3346 57.0615 68.2096 57.0615C67.9166 57.0615 67.6471 57.0186 67.401 56.9326C67.1569 56.8467 66.9469 56.7256 66.7711 56.5693C66.5954 56.4131 66.4577 56.2266 66.358 56.0098C66.2604 55.791 66.2116 55.5498 66.2116 55.2861ZM67.1227 55.2861C67.1227 55.4248 67.15 55.5557 67.2047 55.6787C67.2614 55.8018 67.3414 55.9102 67.445 56.0039C67.5504 56.0957 67.6764 56.1689 67.8229 56.2236C67.9713 56.2764 68.1373 56.3027 68.3209 56.3027C68.4381 56.3027 68.5553 56.292 68.6725 56.2705C68.7897 56.2471 68.902 56.2148 69.0094 56.1738C69.1188 56.1328 69.2204 56.083 69.3141 56.0244C69.4098 55.9658 69.4928 55.9004 69.5631 55.8281V54.6299C69.4752 54.5596 69.3825 54.5 69.2848 54.4512C69.1871 54.4023 69.0875 54.3623 68.986 54.3311C68.8844 54.2998 68.7819 54.2773 68.6784 54.2637C68.5748 54.248 68.4743 54.2402 68.3766 54.2402C68.1774 54.2402 67.9996 54.2676 67.8434 54.3223C67.6891 54.375 67.5582 54.4482 67.4508 54.542C67.3454 54.6357 67.2643 54.7461 67.2077 54.873C67.151 55 67.1227 55.1377 67.1227 55.2861ZM71.7962 53.54H72.8011L73.7005 55.6201L73.9349 56.2031L74.1693 55.6201L75.0687 53.54H76.0736L74.4359 57H73.4339L71.7962 53.54ZM77.252 55.2715C77.252 55.0234 77.3018 54.791 77.4014 54.5742C77.503 54.3574 77.6466 54.168 77.8321 54.0059C78.0196 53.8438 78.2452 53.7158 78.5089 53.6221C78.7745 53.5283 79.0723 53.4814 79.4024 53.4814C79.7325 53.4814 80.0294 53.5283 80.293 53.6221C80.5587 53.7158 80.7843 53.8438 80.9698 54.0059C81.1573 54.168 81.3009 54.3574 81.4005 54.5742C81.502 54.791 81.5528 55.0234 81.5528 55.2715C81.5528 55.5195 81.502 55.752 81.4005 55.9688C81.3009 56.1855 81.1573 56.375 80.9698 56.5371C80.7843 56.6992 80.5587 56.8271 80.293 56.9209C80.0294 57.0146 79.7325 57.0615 79.4024 57.0615C79.0723 57.0615 78.7745 57.0146 78.5089 56.9209C78.2452 56.8271 78.0196 56.6992 77.8321 56.5371C77.6466 56.375 77.503 56.1855 77.4014 55.9688C77.3018 55.752 77.252 55.5195 77.252 55.2715ZM78.1632 55.2715C78.1632 55.4102 78.1905 55.542 78.2452 55.667C78.3018 55.79 78.3829 55.8994 78.4884 55.9951C78.5958 56.0889 78.7257 56.1641 78.878 56.2207C79.0323 56.2754 79.2071 56.3027 79.4024 56.3027C79.5977 56.3027 79.7716 56.2754 79.9239 56.2207C80.0782 56.1641 80.2081 56.0889 80.3136 55.9951C80.421 55.8994 80.502 55.79 80.5567 55.667C80.6134 55.542 80.6417 55.4102 80.6417 55.2715C80.6417 55.1328 80.6134 55.001 80.5567 54.876C80.502 54.751 80.421 54.6416 80.3136 54.5479C80.2081 54.4521 80.0782 54.377 79.9239 54.3223C79.7716 54.2656 79.5977 54.2373 79.4024 54.2373C79.2071 54.2373 79.0323 54.2656 78.878 54.3223C78.7257 54.377 78.5958 54.4521 78.4884 54.5479C78.3829 54.6416 78.3018 54.751 78.2452 54.876C78.1905 55.001 78.1632 55.1328 78.1632 55.2715ZM83.0008 55.2803C83.0008 55.0264 83.0467 54.79 83.1385 54.5713C83.2322 54.3506 83.368 54.1602 83.5457 54C83.7254 53.8379 83.9441 53.7109 84.202 53.6191C84.4617 53.5273 84.7576 53.4814 85.0896 53.4814C85.2342 53.4814 85.3797 53.4902 85.5262 53.5078C85.6727 53.5254 85.8133 53.5508 85.948 53.584C86.0848 53.6152 86.2127 53.6533 86.3318 53.6982C86.451 53.7412 86.5545 53.7891 86.6424 53.8418L86.241 54.4951C86.0516 54.4072 85.8719 54.3428 85.702 54.3018C85.534 54.2607 85.3631 54.2402 85.1893 54.2402C84.99 54.2402 84.8113 54.2666 84.6531 54.3193C84.4949 54.3701 84.3602 54.4424 84.2488 54.5361C84.1395 54.6279 84.0555 54.7373 83.9969 54.8643C83.9402 54.9893 83.9119 55.126 83.9119 55.2744C83.9119 55.4229 83.9422 55.5605 84.0027 55.6875C84.0652 55.8125 84.1521 55.9209 84.2635 56.0127C84.3768 56.1025 84.5125 56.1738 84.6707 56.2266C84.8309 56.2773 85.0086 56.3027 85.2039 56.3027C85.4187 56.3027 85.6209 56.2725 85.8103 56.2119C86.0018 56.1514 86.1795 56.0703 86.3436 55.9688L86.7449 56.6221C86.6414 56.6846 86.5291 56.7432 86.408 56.7979C86.2869 56.8506 86.157 56.8965 86.0184 56.9355C85.8816 56.9746 85.7371 57.0049 85.5848 57.0264C85.4344 57.0498 85.2781 57.0615 85.116 57.0615C84.7859 57.0615 84.49 57.0166 84.2283 56.9268C83.9666 56.8369 83.7449 56.7129 83.5633 56.5547C83.3816 56.3945 83.242 56.2061 83.1443 55.9893C83.0486 55.7725 83.0008 55.5361 83.0008 55.2803ZM88.2954 55.9102C88.2954 55.7441 88.3316 55.5928 88.4038 55.4561C88.4761 55.3193 88.5845 55.2021 88.729 55.1045C88.8736 55.0049 89.0532 54.9287 89.2681 54.876C89.4849 54.8213 89.7368 54.7939 90.0239 54.7939C90.2368 54.7939 90.4605 54.8096 90.6948 54.8408C90.9312 54.8721 91.1743 54.9199 91.4243 54.9844C91.4146 54.875 91.3814 54.7744 91.3247 54.6826C91.2681 54.5889 91.189 54.5088 91.0874 54.4424C90.9878 54.374 90.8667 54.3213 90.7241 54.2842C90.5835 54.2471 90.4234 54.2285 90.2437 54.2285C90.146 54.2285 90.0386 54.2344 89.9214 54.2461C89.8042 54.2578 89.6831 54.2754 89.5581 54.2988C89.4331 54.3223 89.3091 54.3516 89.1861 54.3867C89.065 54.4219 88.9517 54.4639 88.8462 54.5127L88.5825 53.8008C88.7134 53.7539 88.853 53.7109 89.0015 53.6719C89.1519 53.6328 89.3052 53.5996 89.4614 53.5723C89.6177 53.543 89.7739 53.5205 89.9302 53.5049C90.0864 53.4893 90.2378 53.4814 90.3843 53.4814C91.0308 53.4814 91.5112 53.6465 91.8257 53.9766C92.1402 54.3066 92.2974 54.8125 92.2974 55.4941V57H91.4302V56.6748C91.3403 56.7275 91.2417 56.7773 91.1343 56.8242C91.0288 56.8711 90.9136 56.9121 90.7886 56.9473C90.6636 56.9824 90.5288 57.0098 90.3843 57.0293C90.2417 57.0508 90.0903 57.0615 89.9302 57.0615C89.6607 57.0615 89.4234 57.0322 89.2183 56.9736C89.0152 56.915 88.8452 56.834 88.7085 56.7305C88.5718 56.627 88.4683 56.5059 88.398 56.3672C88.3296 56.2266 88.2954 56.0742 88.2954 55.9102ZM89.2095 55.8809C89.2095 55.9375 89.2241 55.9922 89.2534 56.0449C89.2827 56.0957 89.3296 56.1416 89.3941 56.1826C89.4585 56.2217 89.5405 56.2539 89.6402 56.2793C89.7417 56.3027 89.8638 56.3145 90.0064 56.3145C90.1587 56.3145 90.3062 56.3008 90.4487 56.2734C90.5913 56.2461 90.7241 56.21 90.8472 56.165C90.9702 56.1201 91.0816 56.0684 91.1812 56.0098C91.2808 55.9512 91.3638 55.8906 91.4302 55.8281V55.6758C91.2974 55.6387 91.1655 55.6074 91.0347 55.582C90.9058 55.5566 90.7818 55.5371 90.6626 55.5234C90.5454 55.5078 90.4341 55.4971 90.3286 55.4912C90.2251 55.4854 90.1343 55.4824 90.0562 55.4824C89.8941 55.4824 89.7593 55.4932 89.6519 55.5146C89.5444 55.5361 89.4575 55.5654 89.3911 55.6025C89.3247 55.6377 89.2778 55.6797 89.2505 55.7285C89.2232 55.7773 89.2095 55.8281 89.2095 55.8809ZM94.7473 54.1934H93.9123V53.543H94.7473V52.4678H95.6145V53.543H96.4495V54.1934H95.6145V57H94.7473V54.1934ZM97.8359 55.2598C97.8359 55.0254 97.8838 54.8018 97.9795 54.5889C98.0752 54.374 98.2129 54.1846 98.3925 54.0205C98.5722 53.8564 98.792 53.7256 99.0517 53.6279C99.3134 53.5303 99.6103 53.4814 99.9423 53.4814C100.272 53.4814 100.569 53.5312 100.833 53.6309C101.099 53.7285 101.323 53.8633 101.507 54.0352C101.692 54.207 101.834 54.4092 101.932 54.6416C102.031 54.874 102.081 55.123 102.081 55.3887C102.081 55.4219 102.08 55.458 102.078 55.4971C102.078 55.5342 102.076 55.5684 102.072 55.5996H98.8027C98.8398 55.7031 98.8994 55.7979 98.9814 55.8838C99.0654 55.9697 99.1699 56.0439 99.2949 56.1064C99.4199 56.1689 99.5644 56.2178 99.7285 56.2529C99.8925 56.2861 100.074 56.3027 100.273 56.3027C100.473 56.3027 100.671 56.2822 100.868 56.2412C101.065 56.1982 101.254 56.1445 101.434 56.0801L101.727 56.7422C101.613 56.7949 101.498 56.8418 101.381 56.8828C101.266 56.9219 101.144 56.9551 101.018 56.9824C100.893 57.0078 100.761 57.0273 100.622 57.041C100.485 57.0547 100.341 57.0615 100.188 57.0615C99.7998 57.0615 99.4589 57.0146 99.166 56.9209C98.873 56.8271 98.6279 56.6992 98.4306 56.5371C98.2334 56.375 98.0849 56.1846 97.9853 55.9658C97.8857 55.7471 97.8359 55.5117 97.8359 55.2598ZM101.161 54.9229C101.13 54.8271 101.081 54.7383 101.015 54.6562C100.95 54.5723 100.869 54.5 100.771 54.4395C100.674 54.377 100.561 54.3281 100.432 54.293C100.303 54.2578 100.161 54.2402 100.007 54.2402C99.8427 54.2402 99.6933 54.2588 99.5586 54.2959C99.4238 54.333 99.3056 54.3828 99.2041 54.4453C99.1025 54.5078 99.0175 54.5801 98.9492 54.6621C98.8828 54.7441 98.8339 54.8311 98.8027 54.9229H101.161ZM103.933 55.9395C104.168 56.0801 104.425 56.1836 104.707 56.25C104.988 56.3164 105.276 56.3496 105.571 56.3496C105.77 56.3496 105.936 56.3359 106.069 56.3086C106.202 56.2812 106.308 56.2461 106.388 56.2031C106.468 56.1602 106.525 56.1113 106.558 56.0566C106.591 56.002 106.608 55.9463 106.608 55.8896C106.608 55.8076 106.572 55.7373 106.5 55.6787C106.429 55.6201 106.312 55.5908 106.148 55.5908C106.072 55.5908 105.99 55.5957 105.902 55.6055C105.814 55.6152 105.721 55.626 105.624 55.6377C105.528 55.6475 105.427 55.6572 105.322 55.667C105.218 55.6768 105.113 55.6816 105.006 55.6816C104.771 55.6816 104.571 55.6562 104.405 55.6055C104.241 55.5547 104.107 55.4854 104.004 55.3975C103.9 55.3096 103.825 55.2061 103.778 55.0869C103.731 54.9658 103.708 54.8359 103.708 54.6973C103.708 54.5215 103.749 54.3594 103.831 54.2109C103.913 54.0625 104.03 53.9346 104.182 53.8271C104.335 53.7178 104.518 53.6328 104.733 53.5723C104.95 53.5117 105.191 53.4814 105.457 53.4814C105.595 53.4814 105.74 53.4902 105.89 53.5078C106.043 53.5234 106.192 53.5449 106.339 53.5723C106.485 53.5996 106.626 53.6318 106.76 53.6689C106.895 53.7041 107.014 53.7422 107.118 53.7832L106.845 54.457C106.625 54.375 106.404 54.3105 106.183 54.2637C105.965 54.2148 105.739 54.1904 105.507 54.1904C105.344 54.1904 105.207 54.2031 105.093 54.2285C104.982 54.252 104.891 54.2842 104.821 54.3252C104.751 54.3643 104.699 54.4102 104.666 54.4629C104.634 54.5137 104.619 54.5674 104.619 54.624C104.619 54.665 104.627 54.7021 104.642 54.7354C104.66 54.7686 104.687 54.7979 104.724 54.8232C104.763 54.8467 104.813 54.8652 104.874 54.8789C104.936 54.8906 105.012 54.8965 105.102 54.8965C105.184 54.8965 105.271 54.8916 105.363 54.8818C105.455 54.8721 105.55 54.8623 105.65 54.8525C105.75 54.8408 105.852 54.8301 105.958 54.8203C106.065 54.8105 106.174 54.8057 106.286 54.8057C106.493 54.8057 106.674 54.8301 106.828 54.8789C106.984 54.9277 107.113 54.9961 107.215 55.084C107.316 55.1719 107.392 55.2754 107.443 55.3945C107.494 55.5137 107.519 55.6436 107.519 55.7842C107.519 55.9658 107.477 56.1348 107.393 56.291C107.309 56.4473 107.184 56.583 107.018 56.6982C106.852 56.8115 106.645 56.9004 106.397 56.9648C106.151 57.0293 105.866 57.0615 105.542 57.0615C105.342 57.0615 105.15 57.0488 104.965 57.0234C104.779 57 104.602 56.9678 104.434 56.9268C104.266 56.8838 104.108 56.834 103.96 56.7773C103.813 56.7207 103.679 56.6602 103.558 56.5957L103.933 55.9395Z" fill="black"/>
<path d="M24.21 25.608H31.01V49H24.21V25.608ZM55.1288 25.608H61.9288V49H55.1288V25.608ZM68.2528 39.99H63.3568V34.55H68.2528V25.608H75.0528V49H68.2528V39.99ZM77.7666 25.608H84.5666V49H77.7666V25.608ZM87.2893 25.608H94.0893V49H87.2893V25.608ZM95.5173 40.806V33.496L100.889 25.608H108.301L100.243 36.624L108.403 49H100.787L95.5173 40.806Z" fill="url(#paint1_linear_14030_86514)"/>
<path d="M44.8045 28H36V32.9901H37.3545V29.4257H44.8045C47.4248 29.4257 49.5455 31.6578 49.5455 34.4158V40.1187C49.5455 42.865 47.4248 45.1088 44.8045 45.1088H37.3545V41.5445H36V46.5346H44.8045C48.1687 46.5346 50.9 43.6597 50.9 40.1187V34.4158C50.9 30.8748 48.1687 28 44.8045 28Z" fill="url(#paint2_linear_14030_86514)" stroke="#2E5BFF" stroke-width="5"/>
<path d="M46.1583 34.414C46.1583 35.197 45.5588 35.8398 44.8038 35.8398C44.0599 35.8398 43.4492 35.197 43.4492 34.414C43.4492 33.6193 44.0599 32.9883 44.8038 32.9883C45.5588 32.9883 46.1583 33.6193 46.1583 34.414Z" fill="#D1A417"/>
<path d="M46.1583 37.2665C46.1583 38.0495 45.5588 38.6923 44.8038 38.6923C44.0599 38.6923 43.4492 38.0495 43.4492 37.2665C43.4492 36.4719 44.0599 35.8408 44.8038 35.8408C45.5588 35.8408 46.1583 36.4719 46.1583 37.2665Z" fill="#D1A417"/>
<path d="M46.1583 40.121C46.1583 40.904 45.5588 41.5468 44.8038 41.5468C44.0599 41.5468 43.4492 40.904 43.4492 40.121C43.4492 39.3381 44.0599 38.6953 44.8038 38.6953C45.5588 38.6953 46.1583 39.3381 46.1583 40.121Z" fill="#D1A417"/>
<path d="M44.8045 33.7002V35.1259H36V33.7002H44.8045Z" fill="#D1A417"/>
<path d="M44.8045 36.5547V37.9804H36V36.5547H44.8045Z" fill="#D1A417"/>
<path d="M44.8045 39.4053V40.831H36V39.4053H44.8045Z" fill="#D1A417"/>
<ellipse cx="80.8566" cy="18.3351" rx="6.33511" ry="6.33511" fill="white"/>
<ellipse cx="80.8563" cy="18.3367" rx="5.8192" ry="5.86107" fill="#D1A417"/>
<ellipse cx="79.6371" cy="15.0785" rx="0.6" ry="0.6" fill="white"/>
<ellipse cx="77.7328" cy="18.8891" rx="0.6" ry="0.6" fill="white"/>
<ellipse cx="82.9242" cy="17.9047" rx="0.6" ry="0.6" fill="white"/>
<ellipse cx="76.3441" cy="20.101" rx="0.6" ry="0.6" fill="white"/>
<ellipse cx="82.7133" cy="22.0482" rx="0.6" ry="0.6" fill="white"/>
<ellipse cx="84.473" cy="19.3705" rx="0.6" ry="0.6" fill="white"/>
<ellipse cx="79.7211" cy="20.7729" rx="0.6" ry="0.6" fill="white"/>
<path d="M76.5449 22.4284C78.8493 21.405 82.831 18.4562 85.3584 14.584" stroke="white" stroke-width="0.3"/>
<path d="M76.3776 14.4838C75.4213 20.0267 83.6583 23.9954 85.9164 21.2728" stroke="white" stroke-width="0.3"/>
<path d="M85.9229 21.3069C83.8327 18.4774 81.6388 16.1814 77.2988 13.5828" stroke="white" stroke-width="0.3"/>
<path d="M82.8469 12.7382C80.6299 12.3687 74.9483 18.3245 78.3176 23.6693" stroke="white" stroke-width="0.3"/>
<path d="M77.4253 13.583C77.4253 13.583 73.6657 21.2163 78.9674 24.0082" stroke="white" stroke-width="0.3"/>
<path d="M75.0802 19.5013C76.8309 20.6658 83.7307 21.5478 86.6758 19.3626" stroke="white" stroke-width="0.3"/>
<path d="M80.3353 24.2122C82.4494 22.3493 84.8453 20.1775 85.7035 15.0072" stroke="white" stroke-width="0.3"/>
<path d="M110.094 25.8672V28H109.729V25.8672H110.094ZM110.764 25.8672V26.1602H109.066V25.8672H110.764ZM111.284 25.8672H111.612L112.229 27.5122L112.844 25.8672H113.173L112.358 28H112.097L111.284 25.8672ZM111.135 25.8672H111.447L111.501 27.291V28H111.135V25.8672ZM113.01 25.8672H113.323V28H112.956V27.291L113.01 25.8672Z" fill="#2E5BFF"/>
<defs>
<linearGradient id="paint0_linear_14030_86514" x1="11.7662" y1="8.97754" x2="11.7662" y2="49.1395" gradientUnits="userSpaceOnUse">
<stop stop-color="#2E5BFF"/>
<stop offset="1" stop-color="#002FDA"/>
</linearGradient>
<linearGradient id="paint1_linear_14030_86514" x1="65.5" y1="10" x2="65.5" y2="64" gradientUnits="userSpaceOnUse">
<stop stop-color="#2E5BFF"/>
<stop offset="1" stop-color="#2E5BFF"/>
</linearGradient>
<linearGradient id="paint2_linear_14030_86514" x1="43.45" y1="28" x2="43.45" y2="46.5346" gradientUnits="userSpaceOnUse">
<stop stop-color="#2E5BFF"/>
<stop offset="1" stop-color="#00104D" stop-opacity="0"/>
</linearGradient>
</defs>
</svg>
