<svg width="17" height="19" viewBox="0 0 17 19" fill="none" xmlns="http://www.w3.org/2000/svg">
<path d="M1.69684 17.6205C1.46172 17.6205 1.27062 17.4294 1.27062 17.1946V4.0751C1.27062 3.84028 1.46172 3.64926 1.69684 3.64926H10.813C11.0481 3.64926 11.2393 3.84025 11.2393 4.0751V9.74751C11.6445 9.61256 12.0693 9.52297 12.5099 9.48505V4.0751C12.5099 3.13951 11.7487 2.37864 10.813 2.37864H3.63682V1.70671C3.63682 1.47186 3.82788 1.28087 4.06301 1.28087H13.1793C13.4144 1.28087 13.6055 1.47186 13.6055 1.70671V9.49655C14.0471 9.5456 14.4716 9.65045 14.876 9.79718V1.70671C14.876 0.77116 14.1149 0.0102539 13.1793 0.0102539H4.06301C3.12738 0.0102539 2.36621 0.77116 2.36621 1.70671V2.37864H1.69684C0.761213 2.37864 0 3.13955 0 4.0751V17.1946C0 18.1301 0.761213 18.8911 1.69684 18.8911H9.00892C8.64294 18.5149 8.32958 18.0879 8.08073 17.6205H1.69684Z" fill="black"/>
<path d="M3.86168 7.33015H7.52834C7.87955 7.33015 8.16361 7.04567 8.16361 6.69488C8.16361 6.34401 7.87955 6.05957 7.52834 6.05957H3.86168C3.51066 6.05957 3.22656 6.34405 3.22656 6.69488C3.22656 7.04567 3.51062 7.33015 3.86168 7.33015Z" fill="black"/>
<path d="M9.2921 9.51519C9.2921 9.16436 9.00804 8.87988 8.65679 8.87988H3.86168C3.51066 8.87988 3.22656 9.16436 3.22656 9.51519C3.22656 9.86606 3.51062 10.1505 3.86168 10.1505H8.65679C9.00804 10.1505 9.2921 9.86606 9.2921 9.51519Z" fill="black"/>
<path d="M8.54585 11.6992H3.86168C3.51066 11.6992 3.22656 11.9837 3.22656 12.3345C3.22656 12.6853 3.51062 12.9698 3.86168 12.9698H7.83173C8.01343 12.5128 8.25546 12.0872 8.54585 11.6992Z" fill="black"/>
<path d="M3.86168 14.5186C3.51066 14.5186 3.22656 14.8031 3.22656 15.1539C3.22656 15.5047 3.51062 15.7892 3.86168 15.7892H7.49486C7.46008 15.5367 7.43534 15.2804 7.43534 15.0182C7.43534 14.8495 7.44585 14.6835 7.4608 14.5186H3.86168V14.5186Z" fill="black"/>
<path d="M12.9995 13.7065C11.9089 13.7065 10.9434 14.6102 10.5625 15.019C10.9434 15.4276 11.9089 16.3309 12.9995 16.3309C14.0945 16.3309 15.0573 15.4279 15.4364 15.0194C15.0561 14.6108 14.0908 13.7065 12.9995 13.7065ZM12.9995 15.972C12.4734 15.972 12.0466 15.5452 12.0466 15.019C12.0466 14.4924 12.4734 14.0661 12.9995 14.0661C13.5255 14.0661 13.9523 14.4923 13.9523 15.019C13.9523 15.5452 13.5255 15.972 12.9995 15.972Z" fill="black"/>
<path d="M12.9823 11.0488C10.7892 11.0488 9.01172 12.8263 9.01172 15.0194C9.01172 17.212 10.7892 18.99 12.9823 18.99C15.1754 18.99 16.9529 17.212 16.9529 15.0194C16.9529 12.8263 15.1754 11.0488 12.9823 11.0488ZM12.9823 16.9665C11.2688 16.9665 9.9299 15.2871 9.87352 15.2157C9.78359 15.1004 9.78359 14.9385 9.87352 14.8234C9.92994 14.7518 11.2689 13.0716 12.9823 13.0716C14.6958 13.0716 16.0347 14.7517 16.0912 14.8234C16.1811 14.9385 16.1811 15.1004 16.0912 15.2157C16.0347 15.2871 14.6958 16.9665 12.9823 16.9665Z" fill="black"/>
</svg>
