<svg width="20" height="21" viewBox="0 0 20 21" fill="none" xmlns="http://www.w3.org/2000/svg">
<path fill-rule="evenodd" clip-rule="evenodd" d="M15.6889 10.5541C15.5799 13.3834 13.276 15.7068 10.4505 15.8353C9.43475 15.882 8.48126 15.6601 7.64841 15.2242H7.64451L4.88912 15.8391C4.76458 15.8664 4.65561 15.7535 4.67896 15.629L5.29776 12.8736C4.85798 12.0368 4.63225 11.0717 4.68285 10.0481C4.82684 7.21879 7.16582 4.92262 10.003 4.82922C13.202 4.72414 15.8134 7.35111 15.6889 10.5541ZM14.5525 10.3361C14.5525 7.9271 12.5949 5.96562 10.1859 5.96562C7.77684 5.96562 5.81537 7.9271 5.81537 10.3361C5.81537 11.2118 6.07612 12.0252 6.51978 12.7101L6.04887 14.4692L7.81186 14.0022C7.86894 14.0385 7.92732 14.0736 7.98699 14.1073C8.63303 14.4848 9.38415 14.7027 10.1859 14.7027C12.5949 14.7027 14.5525 12.7413 14.5525 10.3361Z" fill="#0E0E0F"/>
<path d="M12.7877 12.2585C12.7099 12.3714 12.6281 12.4804 12.5036 12.6049C12.2234 12.8851 11.8342 13.0252 11.4411 12.9863C10.7328 12.9162 9.72875 12.5232 8.86866 11.6631C8.00468 10.7991 7.6155 9.7989 7.54155 9.09059C7.50263 8.69752 7.64274 8.30834 7.92295 8.02813C8.05138 7.8997 8.16035 7.82186 8.27321 7.74403C8.48337 7.60003 8.77136 7.69343 8.85309 7.93473L9.14108 8.8026C9.22281 9.04 9.18389 9.19178 9.08271 9.29296L8.85309 9.52647C8.73634 9.63933 8.71688 9.81447 8.80639 9.95457C8.93482 10.1531 9.17222 10.4722 9.61588 10.9159C10.0557 11.3556 10.3787 11.5969 10.5772 11.7253C10.7134 11.811 10.8924 11.7915 11.0053 11.6786L11.2388 11.449C11.34 11.3439 11.4878 11.3089 11.7252 11.3906L12.597 11.6786C12.8344 11.7604 12.9317 12.0445 12.7877 12.2585Z" fill="#0E0E0F"/>
<path fill-rule="evenodd" clip-rule="evenodd" d="M15.719 20.5H4.28099C1.91866 20.5 0 18.5813 0 16.219V4.78099C0 2.41866 1.91866 0.5 4.28099 0.5H15.719C18.0813 0.5 20 2.41866 20 4.78099V16.219C20 18.5813 18.0813 20.5 15.719 20.5ZM4.28099 1.27836C2.35065 1.27836 0.778362 2.85065 0.778362 4.78099V16.219C0.778362 18.1493 2.35065 19.7216 4.28099 19.7216H15.719C17.6493 19.7216 19.2216 18.1493 19.2216 16.219V4.78099C19.2216 2.85065 17.6493 1.27836 15.719 1.27836H4.28099Z" fill="#0E0E0F"/>
</svg>
