<svg width="40" height="40" viewBox="0 0 40 40" fill="none" xmlns="http://www.w3.org/2000/svg">
<path d="M20.5474 11.0093C16.3218 11.2105 12.9872 14.7295 13 18.9599C13.0039 20.2484 13.315 21.4645 13.8637 22.5391L13.0212 26.6286C12.9757 26.8498 13.1752 27.0435 13.3949 26.9915L17.4022 26.0421C18.4317 26.5549 19.5881 26.8511 20.8119 26.8698C25.1309 26.9357 28.7321 23.5064 28.8667 19.189C29.011 14.5611 25.1915 10.7881 20.5474 11.0093ZM25.3289 23.3289C24.1553 24.5025 22.595 25.1488 20.9353 25.1488C19.9636 25.1488 19.0332 24.9307 18.17 24.5007L17.6119 24.2227L15.1551 24.8048L15.6722 22.2944L15.3973 21.756C14.9491 20.8784 14.7219 19.9294 14.7219 18.9353C14.7219 17.2757 15.3682 15.7154 16.5418 14.5418C17.7049 13.3787 19.2906 12.7219 20.9355 12.7219C22.5951 12.7219 24.1554 13.3682 25.3289 14.5417C26.5025 15.7153 27.1488 17.2756 27.1488 18.9352C27.1488 20.5801 26.4919 22.1659 25.3289 23.3289Z" fill="#2E5BFF"/>
<path d="M24.7869 20.6563L23.2498 20.2149C23.0477 20.1569 22.8301 20.2142 22.6829 20.3643L22.307 20.7472C22.1485 20.9087 21.908 20.9606 21.6982 20.8757C20.9711 20.5815 19.4416 19.2215 19.051 18.5413C18.9383 18.3451 18.9569 18.0997 19.0953 17.9207L19.4235 17.4961C19.552 17.3298 19.5792 17.1064 19.4941 16.9141L18.8475 15.4515C18.6926 15.1012 18.2449 14.9992 17.9524 15.2466C17.5234 15.6094 17.0144 16.1608 16.9526 16.7716C16.8435 17.8485 17.3053 19.2061 19.0519 20.8362C21.0696 22.7194 22.6854 22.9682 23.7374 22.7134C24.3341 22.5688 24.811 21.9894 25.1119 21.515C25.3171 21.1916 25.1551 20.762 24.7869 20.6563Z" fill="#2E5BFF"/>
<circle cx="20" cy="20" r="20" fill="#2E5BFF" fill-opacity="0.05"/>
<circle cx="20" cy="20" r="19" stroke="#2E5BFF" stroke-opacity="0.05" stroke-width="2"/>
</svg>
