<svg width="114" height="64" viewBox="0 0 114 64" fill="none" xmlns="http://www.w3.org/2000/svg">
<path d="M5.47779 7.4409H18.0538C18.936 7.4409 19.6502 6.70009 19.6502 5.78834V1.64959C19.6502 0.737842 18.936 0 18.0538 0H5.47779C4.597 0 3.88281 0.737842 3.88281 1.64959V5.78844C3.88281 6.70018 4.597 7.4409 5.47779 7.4409Z" fill="#D1A417"/>
<path d="M13.9768 44.3668V42.0664C14.8272 39.4272 21.3752 28.0783 23.5323 25.562C21.2507 19.4736 19.3123 14.0062 18.7937 8.97656H11.7661H4.73858C4.21993 14.0061 2.28311 19.4736 0 25.562C2.15711 28.0783 8.70512 39.4272 9.5555 42.0664V44.3668C8.9586 44.8557 8.57764 45.6115 8.57764 46.4603C8.57754 47.9388 9.73509 49.1385 11.1635 49.1385V44.3953V43.785V25.0792C10.19 24.8033 9.47429 23.8841 9.47429 22.7909C9.47429 21.4802 10.5 20.4185 11.7661 20.4185C13.0322 20.4185 14.0579 21.4802 14.0579 22.7909C14.0579 23.8841 13.3423 24.8033 12.3688 25.0792V43.785V44.3953V49.1385C13.7971 49.1385 14.9547 47.9388 14.9547 46.4603C14.9547 45.6115 14.5736 44.8557 13.9768 44.3668Z" fill="white"/>
<path d="M4.43408 55.2964C4.43408 54.9159 4.50586 54.5615 4.64941 54.2334C4.79297 53.903 5.00033 53.617 5.27148 53.3755C5.54492 53.1317 5.8776 52.9403 6.26953 52.8013C6.66374 52.6623 7.10921 52.5928 7.60596 52.5928C8.04118 52.5928 8.43994 52.6372 8.80225 52.7261C9.16683 52.8127 9.50521 52.946 9.81738 53.126L9.31836 53.9463C9.22493 53.8848 9.1167 53.8301 8.99365 53.7822C8.87288 53.7344 8.743 53.6945 8.604 53.6626C8.46729 53.6284 8.32487 53.6022 8.17676 53.584C8.03092 53.5658 7.88623 53.5566 7.74268 53.5566C7.39632 53.5566 7.08757 53.5999 6.81641 53.6865C6.54525 53.7708 6.31624 53.8905 6.12939 54.0454C5.94482 54.1981 5.80355 54.3815 5.70557 54.5957C5.60986 54.8076 5.56201 55.0412 5.56201 55.2964C5.56201 55.5607 5.61214 55.8034 5.7124 56.0244C5.81266 56.2454 5.95736 56.4368 6.14648 56.5986C6.33789 56.7581 6.57031 56.8835 6.84375 56.9746C7.11947 57.0635 7.4305 57.1079 7.77686 57.1079C7.93408 57.1079 8.09017 57.0965 8.24512 57.0737C8.40007 57.0509 8.54932 57.0202 8.69287 56.9814C8.8387 56.9404 8.97884 56.8926 9.11328 56.8379C9.24772 56.7809 9.37305 56.7194 9.48926 56.6533L9.98828 57.4736C9.69661 57.6605 9.35938 57.8075 8.97656 57.9146C8.59375 58.0194 8.18701 58.0718 7.75635 58.0718C7.20719 58.0718 6.72526 58.0011 6.31055 57.8599C5.89583 57.7163 5.54948 57.5203 5.27148 57.272C4.99349 57.0213 4.78385 56.7274 4.64258 56.3901C4.50358 56.0506 4.43408 55.686 4.43408 55.2964ZM10.9554 55.9834C10.9554 55.694 11.0135 55.4229 11.1297 55.1699C11.2482 54.917 11.4157 54.696 11.6322 54.5068C11.8509 54.3177 12.1141 54.1685 12.4217 54.0591C12.7316 53.9497 13.0791 53.895 13.4642 53.895C13.8493 53.895 14.1957 53.9497 14.5033 54.0591C14.8132 54.1685 15.0764 54.3177 15.2928 54.5068C15.5116 54.696 15.6791 54.917 15.7953 55.1699C15.9138 55.4229 15.973 55.694 15.973 55.9834C15.973 56.2728 15.9138 56.5439 15.7953 56.7969C15.6791 57.0498 15.5116 57.2708 15.2928 57.46C15.0764 57.6491 14.8132 57.7983 14.5033 57.9077C14.1957 58.0171 13.8493 58.0718 13.4642 58.0718C13.0791 58.0718 12.7316 58.0171 12.4217 57.9077C12.1141 57.7983 11.8509 57.6491 11.6322 57.46C11.4157 57.2708 11.2482 57.0498 11.1297 56.7969C11.0135 56.5439 10.9554 56.2728 10.9554 55.9834ZM12.0184 55.9834C12.0184 56.1452 12.0503 56.299 12.1141 56.4448C12.1802 56.5884 12.2748 56.716 12.3978 56.8276C12.5231 56.937 12.6747 57.0247 12.8524 57.0908C13.0324 57.1546 13.2364 57.1865 13.4642 57.1865C13.6921 57.1865 13.8949 57.1546 14.0726 57.0908C14.2526 57.0247 14.4042 56.937 14.5272 56.8276C14.6525 56.716 14.7471 56.5884 14.8109 56.4448C14.877 56.299 14.91 56.1452 14.91 55.9834C14.91 55.8216 14.877 55.6678 14.8109 55.522C14.7471 55.3761 14.6525 55.2485 14.5272 55.1392C14.4042 55.0275 14.2526 54.9398 14.0726 54.876C13.8949 54.8099 13.6921 54.7769 13.4642 54.7769C13.2364 54.7769 13.0324 54.8099 12.8524 54.876C12.6747 54.9398 12.5231 55.0275 12.3978 55.1392C12.2748 55.2485 12.1802 55.3761 12.1141 55.522C12.0503 55.6678 12.0184 55.8216 12.0184 55.9834ZM17.135 53.9668H18.1467V54.3086C18.4156 54.1559 18.6719 54.0488 18.9157 53.9873C19.1618 53.9258 19.4022 53.895 19.6369 53.895C19.9446 53.895 20.2294 53.9406 20.4914 54.0317C20.7535 54.1206 20.9802 54.2539 21.1716 54.4316C21.363 54.6094 21.5123 54.8315 21.6194 55.0981C21.7287 55.3625 21.7834 55.6689 21.7834 56.0176V58H20.7751V56.1816C20.7751 55.9606 20.7432 55.7635 20.6794 55.5903C20.6179 55.4149 20.5279 55.2679 20.4094 55.1494C20.2932 55.0286 20.1508 54.9375 19.9821 54.876C19.8158 54.8122 19.629 54.7803 19.4216 54.7803C19.3122 54.7803 19.1994 54.7917 19.0832 54.8145C18.9693 54.8372 18.8565 54.8703 18.7448 54.9136C18.6355 54.9546 18.5295 55.007 18.427 55.0708C18.3244 55.1323 18.231 55.203 18.1467 55.2827V58H17.135V53.9668ZM23.1676 53.9668H24.1793V54.3086C24.4482 54.1559 24.7045 54.0488 24.9483 53.9873C25.1944 53.9258 25.4348 53.895 25.6695 53.895C25.9771 53.895 26.262 53.9406 26.524 54.0317C26.786 54.1206 27.0128 54.2539 27.2042 54.4316C27.3956 54.6094 27.5448 54.8315 27.6519 55.0981C27.7613 55.3625 27.816 55.6689 27.816 56.0176V58H26.8077V56.1816C26.8077 55.9606 26.7758 55.7635 26.712 55.5903C26.6505 55.4149 26.5605 55.2679 26.442 55.1494C26.3258 55.0286 26.1833 54.9375 26.0147 54.876C25.8484 54.8122 25.6615 54.7803 25.4542 54.7803C25.3448 54.7803 25.232 54.7917 25.1158 54.8145C25.0019 54.8372 24.8891 54.8703 24.7774 54.9136C24.668 54.9546 24.5621 55.007 24.4596 55.0708C24.357 55.1323 24.2636 55.203 24.1793 55.2827V58H23.1676V53.9668ZM29.0087 55.9697C29.0087 55.6963 29.0646 55.4354 29.1762 55.187C29.2879 54.9364 29.4485 54.7153 29.6581 54.5239C29.8678 54.3325 30.1241 54.1799 30.4272 54.0659C30.7325 53.952 31.0789 53.895 31.4662 53.895C31.8513 53.895 32.1977 53.9531 32.5053 54.0693C32.8152 54.1833 33.0773 54.3405 33.2914 54.541C33.5079 54.7415 33.6731 54.9774 33.7871 55.2485C33.9033 55.5197 33.9614 55.8102 33.9614 56.1201C33.9614 56.1589 33.9602 56.201 33.9579 56.2466C33.9579 56.2899 33.9557 56.3298 33.9511 56.3662H30.1367C30.18 56.487 30.2495 56.5975 30.3452 56.6978C30.4431 56.798 30.565 56.8846 30.7109 56.9575C30.8567 57.0304 31.0253 57.0874 31.2167 57.1284C31.4081 57.1672 31.6201 57.1865 31.8525 57.1865C32.0849 57.1865 32.3162 57.1626 32.5463 57.1147C32.7765 57.0646 32.9964 57.002 33.206 56.9268L33.5478 57.6992C33.4156 57.7607 33.2812 57.8154 33.1445 57.8633C33.01 57.9089 32.8688 57.9476 32.7206 57.9795C32.5748 58.0091 32.421 58.0319 32.2592 58.0479C32.0997 58.0638 31.9311 58.0718 31.7534 58.0718C31.2999 58.0718 30.9023 58.0171 30.5605 57.9077C30.2187 57.7983 29.9327 57.6491 29.7026 57.46C29.4724 57.2708 29.2993 57.0487 29.183 56.7935C29.0668 56.5382 29.0087 56.2637 29.0087 55.9697ZM32.8881 55.5767C32.8517 55.465 32.7947 55.3613 32.7172 55.2656C32.642 55.1676 32.5475 55.0833 32.4335 55.0127C32.3196 54.9398 32.1874 54.8828 32.0371 54.8418C31.8867 54.8008 31.7215 54.7803 31.5414 54.7803C31.35 54.7803 31.1757 54.8019 31.0185 54.8452C30.8613 54.8885 30.7234 54.9466 30.6049 55.0195C30.4864 55.0924 30.3873 55.1768 30.3076 55.2725C30.2301 55.3682 30.1731 55.4696 30.1367 55.5767H32.8881ZM34.949 55.9937C34.949 55.6974 35.0026 55.4217 35.1097 55.1665C35.219 54.909 35.3774 54.6868 35.5848 54.5C35.7944 54.3109 36.0496 54.1628 36.3504 54.0557C36.6535 53.9486 36.9987 53.895 37.386 53.895C37.5547 53.895 37.7244 53.9053 37.8953 53.9258C38.0662 53.9463 38.2303 53.9759 38.3875 54.0146C38.547 54.0511 38.6963 54.0955 38.8353 54.1479C38.9743 54.1981 39.095 54.2539 39.1976 54.3154L38.7293 55.0776C38.5083 54.9751 38.2986 54.8999 38.1004 54.8521C37.9044 54.8042 37.705 54.7803 37.5022 54.7803C37.2698 54.7803 37.0613 54.811 36.8768 54.8726C36.6922 54.9318 36.535 55.0161 36.4051 55.1255C36.2775 55.2326 36.1795 55.3602 36.1111 55.5083C36.0451 55.6541 36.012 55.8136 36.012 55.9868C36.012 56.16 36.0473 56.3206 36.118 56.4688C36.1909 56.6146 36.2923 56.741 36.4222 56.8481C36.5543 56.953 36.7127 57.0361 36.8973 57.0977C37.0841 57.1569 37.2915 57.1865 37.5193 57.1865C37.77 57.1865 38.0058 57.1512 38.2269 57.0806C38.4502 57.0099 38.6575 56.9154 38.8489 56.7969L39.3172 57.5591C39.1964 57.632 39.0654 57.7004 38.9241 57.7642C38.7828 57.8257 38.6313 57.8792 38.4695 57.9248C38.31 57.9704 38.1414 58.0057 37.9637 58.0308C37.7882 58.0581 37.6059 58.0718 37.4168 58.0718C37.0317 58.0718 36.6865 58.0194 36.3812 57.9146C36.0758 57.8097 35.8172 57.665 35.6053 57.4805C35.3934 57.2936 35.2304 57.0737 35.1165 56.8208C35.0049 56.5679 34.949 56.2922 34.949 55.9937ZM41.1559 54.7256H40.1818V53.9668H41.1559V52.7124H42.1676V53.9668H43.1418V54.7256H42.1676V58H41.1559V54.7256ZM44.7139 53.4165C44.6136 53.4165 44.5225 53.4028 44.4404 53.3755C44.3607 53.3459 44.2923 53.3071 44.2354 53.2593C44.1784 53.2091 44.134 53.1522 44.1021 53.0884C44.0724 53.0223 44.0576 52.9528 44.0576 52.8799C44.0576 52.8047 44.0724 52.7352 44.1021 52.6714C44.134 52.6053 44.1784 52.5483 44.2354 52.5005C44.2923 52.4526 44.3607 52.415 44.4404 52.3877C44.5225 52.3581 44.6136 52.3433 44.7139 52.3433C44.8164 52.3433 44.9076 52.3581 44.9873 52.3877C45.0694 52.415 45.1389 52.4526 45.1958 52.5005C45.2528 52.5483 45.2961 52.6053 45.3257 52.6714C45.3576 52.7352 45.3736 52.8047 45.3736 52.8799C45.3736 52.9528 45.3576 53.0223 45.3257 53.0884C45.2961 53.1522 45.2528 53.2091 45.1958 53.2593C45.1389 53.3071 45.0694 53.3459 44.9873 53.3755C44.9076 53.4028 44.8164 53.4165 44.7139 53.4165ZM44.208 53.9668H45.2197V58H44.208V53.9668ZM46.6586 53.9668H47.6703V54.3086C47.9392 54.1559 48.1955 54.0488 48.4393 53.9873C48.6854 53.9258 48.9258 53.895 49.1605 53.895C49.4681 53.895 49.753 53.9406 50.015 54.0317C50.2771 54.1206 50.5038 54.2539 50.6952 54.4316C50.8866 54.6094 51.0359 54.8315 51.1429 55.0981C51.2523 55.3625 51.307 55.6689 51.307 56.0176V58H50.2987V56.1816C50.2987 55.9606 50.2668 55.7635 50.203 55.5903C50.1415 55.4149 50.0515 55.2679 49.933 55.1494C49.8168 55.0286 49.6744 54.9375 49.5057 54.876C49.3394 54.8122 49.1526 54.7803 48.9452 54.7803C48.8358 54.7803 48.723 54.7917 48.6068 54.8145C48.4929 54.8372 48.3801 54.8703 48.2684 54.9136C48.1591 54.9546 48.0531 55.007 47.9506 55.0708C47.848 55.1323 47.7546 55.203 47.6703 55.2827V58H46.6586V53.9668ZM53.3235 58.6836C53.4511 58.7292 53.581 58.7668 53.7131 58.7964C53.8453 58.8283 53.9729 58.8534 54.0959 58.8716C54.2213 58.8921 54.3409 58.9058 54.4548 58.9126C54.5688 58.9217 54.6702 58.9263 54.759 58.9263C55.0279 58.9263 55.2615 58.8932 55.4597 58.8271C55.6602 58.7633 55.8266 58.6768 55.9587 58.5674C56.0932 58.458 56.1934 58.3304 56.2595 58.1846C56.3256 58.041 56.3586 57.8883 56.3586 57.7266V57.5522C56.272 57.6115 56.1706 57.6685 56.0544 57.7231C55.9382 57.7778 55.8106 57.8257 55.6716 57.8667C55.5326 57.9077 55.3845 57.9408 55.2273 57.9658C55.0723 57.9909 54.9117 58.0034 54.7453 58.0034C54.4149 58.0034 54.1096 57.9544 53.8293 57.8564C53.5491 57.7562 53.3064 57.6172 53.1013 57.4395C52.8962 57.2594 52.7356 57.0441 52.6194 56.7935C52.5054 56.5428 52.4485 56.2648 52.4485 55.9595C52.4485 55.6473 52.5089 55.3647 52.6296 55.1118C52.7504 54.8566 52.9167 54.639 53.1287 54.459C53.3428 54.279 53.5958 54.14 53.8874 54.042C54.1791 53.944 54.4958 53.895 54.8376 53.895C54.9835 53.895 55.1282 53.9041 55.2717 53.9224C55.4153 53.9406 55.552 53.9657 55.6819 53.9976C55.814 54.0295 55.9371 54.0682 56.051 54.1138C56.1672 54.1571 56.2698 54.2049 56.3586 54.2573V53.9668H57.3703V57.5386C57.3703 57.9054 57.3145 58.2301 57.2029 58.5127C57.0912 58.7952 56.9272 59.0322 56.7107 59.2236C56.4965 59.4173 56.2299 59.5632 55.9109 59.6611C55.5919 59.7614 55.2261 59.8115 54.8137 59.8115C54.6656 59.8115 54.5118 59.8047 54.3523 59.791C54.1928 59.7796 54.0321 59.7614 53.8703 59.7363C53.7108 59.7135 53.5525 59.6851 53.3953 59.6509C53.2403 59.619 53.0911 59.5814 52.9475 59.5381L53.3235 58.6836ZM53.5115 55.9492C53.5115 56.111 53.5434 56.2637 53.6072 56.4072C53.6732 56.5485 53.7667 56.6727 53.8874 56.7798C54.0082 56.8846 54.154 56.9678 54.3249 57.0293C54.4958 57.0885 54.6884 57.1182 54.9026 57.1182C55.0416 57.1182 55.1794 57.1056 55.3162 57.0806C55.4551 57.0532 55.5873 57.0156 55.7126 56.9678C55.8402 56.9199 55.9587 56.8618 56.0681 56.7935C56.1798 56.7251 56.2766 56.6488 56.3586 56.5645V55.2349C56.2561 55.1528 56.1479 55.0833 56.0339 55.0264C55.92 54.9694 55.8038 54.9227 55.6853 54.8862C55.5668 54.8498 55.4472 54.8236 55.3264 54.8076C55.2056 54.7894 55.0883 54.7803 54.9744 54.7803C54.7419 54.7803 54.5346 54.811 54.3523 54.8726C54.1723 54.9341 54.0196 55.0184 53.8943 55.1255C53.7712 55.2303 53.6767 55.3534 53.6106 55.4946C53.5445 55.6359 53.5115 55.7874 53.5115 55.9492ZM63.0747 52.6577H64.2231L66.8071 58H65.6689L65.2417 57.1011H62.1211L61.7075 58H60.5659L63.0747 52.6577ZM64.8144 56.209L63.6591 53.7822L62.5346 56.209H64.8144ZM67.3402 56.0005C67.3402 55.6792 67.4005 55.3898 67.5213 55.1323C67.6421 54.8726 67.8084 54.6515 68.0203 54.4692C68.2345 54.2847 68.4875 54.1434 68.7791 54.0454C69.0731 53.9451 69.3909 53.895 69.7327 53.895C69.8786 53.895 70.0221 53.9041 70.1634 53.9224C70.307 53.9406 70.4437 53.9657 70.5736 53.9976C70.7057 54.0295 70.8288 54.0682 70.9427 54.1138C71.0589 54.1571 71.1614 54.2049 71.2503 54.2573V52.3296H72.262V58H71.2503V57.6206C71.1614 57.6821 71.0566 57.7402 70.9359 57.7949C70.8151 57.8496 70.6852 57.8975 70.5462 57.9385C70.4072 57.9795 70.2625 58.0114 70.1121 58.0342C69.964 58.0592 69.817 58.0718 69.6712 58.0718C69.3294 58.0718 69.015 58.0216 68.7279 57.9214C68.443 57.8211 68.1981 57.6799 67.993 57.4976C67.7879 57.3153 67.6273 57.0977 67.5111 56.8447C67.3971 56.5895 67.3402 56.3081 67.3402 56.0005ZM68.4031 56.0005C68.4031 56.1623 68.435 56.3149 68.4988 56.4585C68.5649 56.6021 68.6584 56.7285 68.7791 56.8379C68.9022 56.945 69.0491 57.0304 69.22 57.0942C69.3932 57.1558 69.5869 57.1865 69.8011 57.1865C69.9378 57.1865 70.0745 57.174 70.2113 57.1489C70.348 57.1216 70.479 57.084 70.6043 57.0361C70.7319 56.9883 70.8504 56.9302 70.9598 56.8618C71.0714 56.7935 71.1683 56.7171 71.2503 56.6328V55.2349C71.1478 55.1528 71.0395 55.0833 70.9256 55.0264C70.8117 54.9694 70.6955 54.9227 70.577 54.8862C70.4585 54.8498 70.3389 54.8236 70.2181 54.8076C70.0973 54.7894 69.98 54.7803 69.866 54.7803C69.6336 54.7803 69.4263 54.8122 69.244 54.876C69.064 54.9375 68.9113 55.0229 68.786 55.1323C68.6629 55.2417 68.5683 55.3704 68.5023 55.5186C68.4362 55.6667 68.4031 55.8273 68.4031 56.0005ZM73.0856 53.9634H74.258L75.3073 56.3901L75.5807 57.0703L75.8542 56.3901L76.9035 53.9634H78.0759L76.1652 58H74.9963L73.0856 53.9634ZM78.6807 55.9834C78.6807 55.694 78.7388 55.4229 78.855 55.1699C78.9735 54.917 79.141 54.696 79.3575 54.5068C79.5762 54.3177 79.8394 54.1685 80.147 54.0591C80.4569 53.9497 80.8044 53.895 81.1895 53.895C81.5746 53.895 81.9209 53.9497 82.2286 54.0591C82.5384 54.1685 82.8016 54.3177 83.0181 54.5068C83.2369 54.696 83.4043 54.917 83.5205 55.1699C83.639 55.4229 83.6983 55.694 83.6983 55.9834C83.6983 56.2728 83.639 56.5439 83.5205 56.7969C83.4043 57.0498 83.2369 57.2708 83.0181 57.46C82.8016 57.6491 82.5384 57.7983 82.2286 57.9077C81.9209 58.0171 81.5746 58.0718 81.1895 58.0718C80.8044 58.0718 80.4569 58.0171 80.147 57.9077C79.8394 57.7983 79.5762 57.6491 79.3575 57.46C79.141 57.2708 78.9735 57.0498 78.855 56.7969C78.7388 56.5439 78.6807 56.2728 78.6807 55.9834ZM79.7437 55.9834C79.7437 56.1452 79.7756 56.299 79.8394 56.4448C79.9055 56.5884 80 56.716 80.1231 56.8276C80.2484 56.937 80.3999 57.0247 80.5777 57.0908C80.7577 57.1546 80.9616 57.1865 81.1895 57.1865C81.4174 57.1865 81.6202 57.1546 81.7979 57.0908C81.9779 57.0247 82.1294 56.937 82.2525 56.8276C82.3778 56.716 82.4724 56.5884 82.5362 56.4448C82.6023 56.299 82.6353 56.1452 82.6353 55.9834C82.6353 55.8216 82.6023 55.6678 82.5362 55.522C82.4724 55.3761 82.3778 55.2485 82.2525 55.1392C82.1294 55.0275 81.9779 54.9398 81.7979 54.876C81.6202 54.8099 81.4174 54.7769 81.1895 54.7769C80.9616 54.7769 80.7577 54.8099 80.5777 54.876C80.3999 54.9398 80.2484 55.0275 80.1231 55.1392C80 55.2485 79.9055 55.3761 79.8394 55.522C79.7756 55.6678 79.7437 55.8216 79.7437 55.9834ZM84.6176 55.9937C84.6176 55.6974 84.6711 55.4217 84.7782 55.1665C84.8876 54.909 85.046 54.6868 85.2533 54.5C85.463 54.3109 85.7182 54.1628 86.0189 54.0557C86.322 53.9486 86.6672 53.895 87.0546 53.895C87.2232 53.895 87.393 53.9053 87.5639 53.9258C87.7348 53.9463 87.8988 53.9759 88.0561 54.0146C88.2156 54.0511 88.3648 54.0955 88.5038 54.1479C88.6428 54.1981 88.7636 54.2539 88.8661 54.3154L88.3979 55.0776C88.1768 54.9751 87.9672 54.8999 87.7689 54.8521C87.573 54.8042 87.3736 54.7803 87.1708 54.7803C86.9384 54.7803 86.7299 54.811 86.5453 54.8726C86.3607 54.9318 86.2035 55.0161 86.0736 55.1255C85.946 55.2326 85.848 55.3602 85.7797 55.5083C85.7136 55.6541 85.6806 55.8136 85.6806 55.9868C85.6806 56.16 85.7159 56.3206 85.7865 56.4688C85.8594 56.6146 85.9608 56.741 86.0907 56.8481C86.2229 56.953 86.3812 57.0361 86.5658 57.0977C86.7527 57.1569 86.96 57.1865 87.1879 57.1865C87.4385 57.1865 87.6744 57.1512 87.8954 57.0806C88.1187 57.0099 88.3261 56.9154 88.5175 56.7969L88.9857 57.5591C88.865 57.632 88.734 57.7004 88.5927 57.7642C88.4514 57.8257 88.2999 57.8792 88.1381 57.9248C87.9786 57.9704 87.81 58.0057 87.6322 58.0308C87.4568 58.0581 87.2745 58.0718 87.0854 58.0718C86.7003 58.0718 86.355 58.0194 86.0497 57.9146C85.7444 57.8097 85.4857 57.665 85.2738 57.4805C85.0619 57.2936 84.899 57.0737 84.7851 56.8208C84.6734 56.5679 84.6176 56.2922 84.6176 55.9937ZM90.0247 56.7285C90.0247 56.5348 90.0668 56.3582 90.1511 56.1987C90.2354 56.0392 90.3619 55.9025 90.5305 55.7886C90.6991 55.6724 90.9088 55.5835 91.1594 55.522C91.4124 55.4582 91.7063 55.4263 92.0413 55.4263C92.2896 55.4263 92.5505 55.4445 92.824 55.481C93.0997 55.5174 93.3834 55.5732 93.6751 55.6484C93.6637 55.5208 93.6249 55.4035 93.5588 55.2964C93.4928 55.187 93.4005 55.0936 93.282 55.0161C93.1658 54.9364 93.0245 54.8748 92.8582 54.8315C92.6941 54.7882 92.5073 54.7666 92.2976 54.7666C92.1837 54.7666 92.0584 54.7734 91.9216 54.7871C91.7849 54.8008 91.6436 54.8213 91.4978 54.8486C91.352 54.876 91.2073 54.9102 91.0637 54.9512C90.9225 54.9922 90.7903 55.0412 90.6672 55.0981L90.3596 54.2676C90.5123 54.2129 90.6752 54.1628 90.8484 54.1172C91.0239 54.0716 91.2027 54.0329 91.385 54.001C91.5673 53.9668 91.7496 53.9406 91.9319 53.9224C92.1142 53.9041 92.2908 53.895 92.4617 53.895C93.2159 53.895 93.7765 54.0876 94.1433 54.4727C94.5102 54.8577 94.6936 55.4479 94.6936 56.2432V58H93.6819V57.6206C93.5771 57.6821 93.462 57.7402 93.3367 57.7949C93.2136 57.8496 93.0792 57.8975 92.9334 57.9385C92.7875 57.9795 92.6303 58.0114 92.4617 58.0342C92.2953 58.0592 92.1187 58.0718 91.9319 58.0718C91.6174 58.0718 91.3406 58.0376 91.1013 57.9692C90.8643 57.9009 90.6661 57.8063 90.5066 57.6855C90.3471 57.5648 90.2263 57.4235 90.1443 57.2617C90.0645 57.0977 90.0247 56.9199 90.0247 56.7285ZM91.0911 56.6943C91.0911 56.7604 91.1082 56.8242 91.1423 56.8857C91.1765 56.945 91.2312 56.9985 91.3064 57.0464C91.3816 57.092 91.4773 57.1296 91.5935 57.1592C91.712 57.1865 91.8544 57.2002 92.0208 57.2002C92.1985 57.2002 92.3705 57.1842 92.5369 57.1523C92.7032 57.1204 92.8582 57.0783 93.0017 57.0259C93.1453 56.9735 93.2752 56.9131 93.3914 56.8447C93.5076 56.7764 93.6044 56.7057 93.6819 56.6328V56.4551C93.5269 56.4118 93.3731 56.3753 93.2205 56.3457C93.0701 56.3161 92.9254 56.2933 92.7864 56.2773C92.6497 56.2591 92.5198 56.2466 92.3967 56.2397C92.276 56.2329 92.17 56.2295 92.0789 56.2295C91.8897 56.2295 91.7325 56.242 91.6072 56.2671C91.4819 56.2922 91.3805 56.3263 91.303 56.3696C91.2255 56.4106 91.1708 56.4596 91.1389 56.5166C91.107 56.5736 91.0911 56.6328 91.0911 56.6943ZM96.7819 54.7256H95.8077V53.9668H96.7819V52.7124H97.7936V53.9668H98.7677V54.7256H97.7936V58H96.7819V54.7256ZM99.6152 55.9697C99.6152 55.6963 99.671 55.4354 99.7827 55.187C99.8943 54.9364 100.055 54.7153 100.265 54.5239C100.474 54.3325 100.731 54.1799 101.034 54.0659C101.339 53.952 101.685 53.895 102.073 53.895C102.458 53.895 102.804 53.9531 103.112 54.0693C103.422 54.1833 103.684 54.3405 103.898 54.541C104.114 54.7415 104.28 54.9774 104.394 55.2485C104.51 55.5197 104.568 55.8102 104.568 56.1201C104.568 56.1589 104.567 56.201 104.564 56.2466C104.564 56.2899 104.562 56.3298 104.558 56.3662H100.743C100.786 56.487 100.856 56.5975 100.952 56.6978C101.05 56.798 101.172 56.8846 101.317 56.9575C101.463 57.0304 101.632 57.0874 101.823 57.1284C102.015 57.1672 102.227 57.1865 102.459 57.1865C102.691 57.1865 102.923 57.1626 103.153 57.1147C103.383 57.0646 103.603 57.002 103.812 56.9268L104.154 57.6992C104.022 57.7607 103.888 57.8154 103.751 57.8633C103.617 57.9089 103.475 57.9476 103.327 57.9795C103.181 58.0091 103.027 58.0319 102.866 58.0479C102.706 58.0638 102.538 58.0718 102.36 58.0718C101.906 58.0718 101.509 58.0171 101.167 57.9077C100.825 57.7983 100.539 57.6491 100.309 57.46C100.079 57.2708 99.9057 57.0487 99.7895 56.7935C99.6733 56.5382 99.6152 56.2637 99.6152 55.9697ZM103.495 55.5767C103.458 55.465 103.401 55.3613 103.324 55.2656C103.249 55.1676 103.154 55.0833 103.04 55.0127C102.926 54.9398 102.794 54.8828 102.644 54.8418C102.493 54.8008 102.328 54.7803 102.148 54.7803C101.957 54.7803 101.782 54.8019 101.625 54.8452C101.468 54.8885 101.33 54.9466 101.211 55.0195C101.093 55.0924 100.994 55.1768 100.914 55.2725C100.837 55.3682 100.78 55.4696 100.743 55.5767H103.495ZM105.959 56.7627C106.232 56.9268 106.533 57.0475 106.861 57.125C107.189 57.2025 107.525 57.2412 107.869 57.2412C108.102 57.2412 108.296 57.2253 108.451 57.1934C108.605 57.1615 108.73 57.1204 108.823 57.0703C108.917 57.0202 108.983 56.9632 109.021 56.8994C109.06 56.8356 109.079 56.7707 109.079 56.7046C109.079 56.6089 109.037 56.5269 108.953 56.4585C108.871 56.3901 108.734 56.356 108.543 56.356C108.454 56.356 108.358 56.3617 108.256 56.373C108.153 56.3844 108.045 56.397 107.931 56.4106C107.819 56.422 107.702 56.4334 107.579 56.4448C107.458 56.4562 107.335 56.4619 107.21 56.4619C106.936 56.4619 106.703 56.4323 106.509 56.373C106.318 56.3138 106.162 56.2329 106.041 56.1304C105.92 56.0278 105.832 55.9071 105.778 55.7681C105.723 55.6268 105.696 55.4753 105.696 55.3135C105.696 55.1084 105.743 54.9193 105.839 54.7461C105.935 54.5729 106.072 54.4237 106.249 54.2983C106.427 54.1707 106.641 54.0716 106.892 54.001C107.145 53.9303 107.426 53.895 107.736 53.895C107.898 53.895 108.067 53.9053 108.242 53.9258C108.42 53.944 108.594 53.9691 108.765 54.001C108.936 54.0329 109.1 54.0705 109.257 54.1138C109.414 54.1548 109.553 54.1992 109.674 54.2471L109.356 55.0332C109.099 54.9375 108.841 54.8623 108.584 54.8076C108.329 54.7507 108.065 54.7222 107.794 54.7222C107.605 54.7222 107.445 54.737 107.312 54.7666C107.182 54.7939 107.077 54.8315 106.994 54.8794C106.912 54.925 106.852 54.9785 106.813 55.04C106.777 55.0993 106.759 55.1619 106.759 55.228C106.759 55.2759 106.768 55.3192 106.786 55.3579C106.806 55.3966 106.838 55.4308 106.882 55.4604C106.927 55.4878 106.985 55.5094 107.056 55.5254C107.129 55.5391 107.218 55.5459 107.323 55.5459C107.418 55.5459 107.52 55.5402 107.627 55.5288C107.734 55.5174 107.846 55.506 107.962 55.4946C108.078 55.481 108.198 55.4684 108.321 55.457C108.446 55.4456 108.574 55.4399 108.703 55.4399C108.945 55.4399 109.156 55.4684 109.336 55.5254C109.518 55.5824 109.668 55.6621 109.787 55.7646C109.905 55.8672 109.994 55.988 110.054 56.127C110.113 56.266 110.142 56.4175 110.142 56.5815C110.142 56.7935 110.093 56.9906 109.995 57.1729C109.897 57.3551 109.752 57.5135 109.558 57.6479C109.364 57.7801 109.123 57.8838 108.833 57.959C108.546 58.0342 108.214 58.0718 107.835 58.0718C107.603 58.0718 107.378 58.057 107.162 58.0273C106.945 58 106.739 57.9624 106.543 57.9146C106.347 57.8644 106.163 57.8063 105.99 57.7402C105.819 57.6742 105.663 57.6035 105.521 57.5283L105.959 56.7627Z" fill="white"/>
<path d="M24.21 25.608H31.01V49H24.21V25.608ZM55.1288 25.608H61.9288V49H55.1288V25.608ZM68.2528 39.99H63.3568V34.55H68.2528V25.608H75.0528V49H68.2528V39.99ZM77.7666 25.608H84.5666V49H77.7666V25.608ZM87.2893 25.608H94.0893V49H87.2893V25.608ZM95.5173 40.806V33.496L100.889 25.608H108.301L100.243 36.624L108.403 49H100.787L95.5173 40.806Z" fill="white"/>
<path d="M44.8045 28H36V32.9901H37.3545V29.4257H44.8045C47.4248 29.4257 49.5455 31.6578 49.5455 34.4158V40.1187C49.5455 42.865 47.4248 45.1088 44.8045 45.1088H37.3545V41.5445H36V46.5346H44.8045C48.1687 46.5346 50.9 43.6597 50.9 40.1187V34.4158C50.9 30.8748 48.1687 28 44.8045 28Z" fill="url(#paint0_linear_14793_165795)" stroke="white" stroke-width="5"/>
<path d="M46.1583 34.4101C46.1583 35.1931 45.5588 35.8358 44.8038 35.8358C44.0599 35.8358 43.4492 35.1931 43.4492 34.4101C43.4492 33.6154 44.0599 32.9844 44.8038 32.9844C45.5588 32.9844 46.1583 33.6154 46.1583 34.4101Z" fill="#D1A417"/>
<path d="M46.1583 37.2695C46.1583 38.0525 45.5588 38.6952 44.8038 38.6952C44.0599 38.6952 43.4492 38.0525 43.4492 37.2695C43.4492 36.4748 44.0599 35.8438 44.8038 35.8438C45.5588 35.8438 46.1583 36.4748 46.1583 37.2695Z" fill="#D1A417"/>
<path d="M46.1583 40.121C46.1583 40.904 45.5588 41.5468 44.8038 41.5468C44.0599 41.5468 43.4492 40.904 43.4492 40.121C43.4492 39.3381 44.0599 38.6953 44.8038 38.6953C45.5588 38.6953 46.1583 39.3381 46.1583 40.121Z" fill="#D1A417"/>
<path d="M44.8045 33.7031V35.1289H36V33.7031H44.8045Z" fill="#D1A417"/>
<path d="M44.8045 36.5547V37.9804H36V36.5547H44.8045Z" fill="#D1A417"/>
<path d="M44.8045 39.4062V40.832H36V39.4062H44.8045Z" fill="#D1A417"/>
<ellipse cx="80.8586" cy="18.3351" rx="6.33511" ry="6.33511" fill="#1E42C4"/>
<ellipse cx="80.8583" cy="18.3376" rx="5.8192" ry="5.86107" fill="#D1A417"/>
<ellipse cx="79.5061" cy="14.9475" rx="0.470978" ry="0.470978" fill="#1E42C4"/>
<ellipse cx="77.6038" cy="18.76" rx="0.470978" ry="0.470978" fill="#1E42C4"/>
<ellipse cx="82.7952" cy="17.7757" rx="0.470978" ry="0.470978" fill="#1E42C4"/>
<ellipse cx="76.2132" cy="19.971" rx="0.470978" ry="0.470978" fill="#1E42C4"/>
<ellipse cx="82.5843" cy="21.9241" rx="0.470978" ry="0.470978" fill="#1E42C4"/>
<ellipse cx="84.3421" cy="19.2366" rx="0.470978" ry="0.470978" fill="#1E42C4"/>
<ellipse cx="79.5921" cy="20.6429" rx="0.470978" ry="0.470978" fill="#1E42C4"/>
<path d="M76.5469 22.4304C78.8513 21.4069 82.8329 18.4582 85.3603 14.5859" stroke="#1E42C4" stroke-width="0.3"/>
<path d="M76.3756 14.4818C75.4193 20.0248 83.6563 23.9935 85.9145 21.2708" stroke="#1E42C4" stroke-width="0.3"/>
<path d="M85.9209 21.3078C83.8308 18.4784 81.6369 16.1824 77.2968 13.5838" stroke="#1E42C4" stroke-width="0.3"/>
<path d="M82.845 12.7411C80.628 12.3716 74.9463 18.3274 78.3157 23.6722" stroke="#1E42C4" stroke-width="0.3"/>
<path d="M77.4253 13.583C77.4253 13.583 73.6657 21.2163 78.9674 24.0082" stroke="#1E42C4" stroke-width="0.3"/>
<path d="M75.0822 19.5003C76.8329 20.6648 83.7327 21.5468 86.6778 19.3616" stroke="#1E42C4" stroke-width="0.3"/>
<path d="M80.3372 24.2142C82.4514 22.3512 84.8473 20.1795 85.7055 15.0092" stroke="#1E42C4" stroke-width="0.3"/>
<ellipse cx="80.8546" cy="18.3351" rx="6.33511" ry="6.33511" fill="white"/>
<ellipse cx="80.8544" cy="18.3376" rx="5.8192" ry="5.86107" fill="#D1A417"/>
<ellipse cx="79.6391" cy="15.0766" rx="0.6" ry="0.6" fill="white"/>
<ellipse cx="77.7328" cy="18.8891" rx="0.6" ry="0.6" fill="white"/>
<ellipse cx="82.9242" cy="17.9047" rx="0.6" ry="0.6" fill="white"/>
<ellipse cx="76.3422" cy="20.1" rx="0.6" ry="0.6" fill="white"/>
<ellipse cx="82.7133" cy="22.0531" rx="0.6" ry="0.6" fill="white"/>
<ellipse cx="84.475" cy="19.3656" rx="0.6" ry="0.6" fill="white"/>
<ellipse cx="79.7211" cy="20.7719" rx="0.6" ry="0.6" fill="white"/>
<path d="M76.543 22.4304C78.8474 21.4069 82.829 18.4582 85.3564 14.5859" stroke="white" stroke-width="0.3"/>
<path d="M76.3756 14.4818C75.4193 20.0248 83.6563 23.9935 85.9145 21.2708" stroke="white" stroke-width="0.3"/>
<path d="M85.9209 21.3078C83.8308 18.4784 81.6369 16.1824 77.2968 13.5838" stroke="white" stroke-width="0.3"/>
<path d="M82.845 12.7411C80.628 12.3716 74.9463 18.3274 78.3157 23.6722" stroke="white" stroke-width="0.3"/>
<path d="M77.4253 13.583C77.4253 13.583 73.6657 21.2163 78.9674 24.0082" stroke="white" stroke-width="0.3"/>
<path d="M75.0783 19.5003C76.8289 20.6648 83.7288 21.5468 86.6739 19.3616" stroke="white" stroke-width="0.3"/>
<path d="M80.3333 24.2142C82.4475 22.3512 84.8433 20.1795 85.7016 15.0092" stroke="white" stroke-width="0.3"/>
<path d="M110.094 25.8672V28H109.729V25.8672H110.094ZM110.764 25.8672V26.1602H109.066V25.8672H110.764ZM111.284 25.8672H111.612L112.229 27.5122L112.844 25.8672H113.173L112.358 28H112.097L111.284 25.8672ZM111.135 25.8672H111.447L111.501 27.291V28H111.135V25.8672ZM113.01 25.8672H113.323V28H112.956V27.291L113.01 25.8672Z" fill="white"/>
<defs>
<linearGradient id="paint0_linear_14793_165795" x1="43.45" y1="28" x2="43.45" y2="46.5346" gradientUnits="userSpaceOnUse">
<stop stop-color="#2E5BFF"/>
<stop offset="1" stop-color="#00104D" stop-opacity="0"/>
</linearGradient>
</defs>
</svg>
