<svg width="20" height="21" viewBox="0 0 20 21" fill="none" xmlns="http://www.w3.org/2000/svg">
<path fill-rule="evenodd" clip-rule="evenodd" d="M15.6889 10.5546C15.5799 13.3839 13.276 15.7073 10.4505 15.8357C9.43475 15.8824 8.48126 15.6606 7.64841 15.2247H7.64451L4.88912 15.8396C4.76458 15.8669 4.65561 15.754 4.67896 15.6295L5.29776 12.8741C4.85798 12.0373 4.63225 11.0722 4.68285 10.0486C4.82684 7.21928 7.16582 4.92311 10.003 4.82971C13.202 4.72463 15.8134 7.3516 15.6889 10.5546ZM14.5525 10.3366C14.5525 7.92759 12.5949 5.96611 10.1859 5.96611C7.77684 5.96611 5.81537 7.92759 5.81537 10.3366C5.81537 11.2123 6.07612 12.0257 6.51978 12.7106L6.04887 14.4697L7.81186 14.0027C7.86894 14.039 7.92732 14.074 7.98699 14.1078C8.63303 14.4853 9.38415 14.7032 10.1859 14.7032C12.5949 14.7032 14.5525 12.7418 14.5525 10.3366Z" fill="#0E0E0F"/>
<path d="M12.7877 12.258C12.7099 12.3709 12.6281 12.4799 12.5036 12.6044C12.2234 12.8846 11.8342 13.0247 11.4411 12.9858C10.7328 12.9158 9.72875 12.5227 8.86866 11.6626C8.00468 10.7986 7.6155 9.79841 7.54155 9.0901C7.50263 8.69703 7.64274 8.30785 7.92295 8.02764C8.05138 7.89921 8.16035 7.82138 8.27321 7.74354C8.48337 7.59954 8.77136 7.69295 8.85309 7.93424L9.14108 8.80211C9.22281 9.03951 9.18389 9.19129 9.08271 9.29248L8.85309 9.52598C8.73634 9.63885 8.71688 9.81398 8.80639 9.95408C8.93482 10.1526 9.17222 10.4717 9.61588 10.9154C10.0557 11.3551 10.3787 11.5964 10.5772 11.7249C10.7134 11.8105 10.8924 11.791 11.0053 11.6782L11.2388 11.4485C11.34 11.3435 11.4878 11.3084 11.7252 11.3902L12.597 11.6782C12.8344 11.7599 12.9317 12.044 12.7877 12.258Z" fill="#0E0E0F"/>
<path fill-rule="evenodd" clip-rule="evenodd" d="M15.719 20.5H4.28099C1.91866 20.5 0 18.5813 0 16.219V4.78099C0 2.41866 1.91866 0.5 4.28099 0.5H15.719C18.0813 0.5 20 2.41866 20 4.78099V16.219C20 18.5813 18.0813 20.5 15.719 20.5ZM4.28099 1.27836C2.35065 1.27836 0.778362 2.85065 0.778362 4.78099V16.219C0.778362 18.1493 2.35065 19.7216 4.28099 19.7216H15.719C17.6493 19.7216 19.2216 18.1493 19.2216 16.219V4.78099C19.2216 2.85065 17.6493 1.27836 15.719 1.27836H4.28099Z" fill="#0E0E0F"/>
</svg>
